<svg width="40" height="40" viewBox="0 0 40 40" fill="none" xmlns="http://www.w3.org/2000/svg">
<path d="M10.6006 0C16.8852 4.16615 19.8004 10.8315 19.8004 19.9962C19.8004 10.8315 22.7156 4.16615 29.0002 0H40V16.5556C34.8912 18.9401 28.1814 19.9962 19.8004 19.9962C28.7226 19.9962 35.2521 20.744 40 22.3864V40H29.0117C22.7191 35.8344 19.8004 29.1664 19.8004 19.9962C19.8004 29.1664 16.8817 35.8344 10.5891 40H0.00079573V22.2515C4.71344 20.7031 11.1262 19.9962 19.8004 19.9962C11.6552 19.9962 5.05536 18.9882 0.00079573 16.7426V0H10.6006Z" fill="#FF8718"/>
</svg>
