<svg width="32" height="32" viewBox="0 0 32 32" fill="none" xmlns="http://www.w3.org/2000/svg">
<path fill-rule="evenodd" clip-rule="evenodd" d="M23.1969 9.86377C23.4898 9.57087 23.4898 9.096 23.1969 8.8031C22.904 8.51021 22.4292 8.51021 22.1363 8.8031L16 14.9393L9.86383 8.80312C9.57093 8.51022 9.09606 8.51022 8.80317 8.80312C8.51027 9.09601 8.51027 9.57088 8.80317 9.86378L14.9394 16L8.80317 22.1362C8.51027 22.4291 8.51027 22.904 8.80317 23.1969C9.09606 23.4898 9.57093 23.4898 9.86383 23.1969L16 17.0607L22.1363 23.1969C22.4292 23.4898 22.904 23.4898 23.1969 23.1969C23.4898 22.904 23.4898 22.4291 23.1969 22.1362L17.0607 16L23.1969 9.86377Z" fill="#8892A0"/>
</svg>
