<svg width="20" height="20" viewBox="0 0 20 20" fill="none" xmlns="http://www.w3.org/2000/svg">
<path fill-rule="evenodd" clip-rule="evenodd" d="M2.4165 9.16666C2.4165 5.43873 5.43858 2.41666 9.1665 2.41666C12.8944 2.41666 15.9165 5.43873 15.9165 9.16666C15.9165 12.8946 12.8944 15.9167 9.1665 15.9167C5.43858 15.9167 2.4165 12.8946 2.4165 9.16666ZM9.1665 0.916656C4.61015 0.916656 0.916504 4.61031 0.916504 9.16666C0.916504 13.723 4.61015 17.4167 9.1665 17.4167C11.1746 17.4167 13.0152 16.6992 14.4458 15.5066L17.3862 18.447C17.6791 18.7399 18.1539 18.7399 18.4468 18.447C18.7397 18.1541 18.7397 17.6792 18.4468 17.3863L15.5065 14.4459C16.699 13.0153 17.4165 11.1748 17.4165 9.16666C17.4165 4.61031 13.7229 0.916656 9.1665 0.916656Z" fill="#4E5560"/>
</svg>
