<svg width="24" height="24" viewBox="0 0 24 24" fill="none" xmlns="http://www.w3.org/2000/svg">
<path fill-rule="evenodd" clip-rule="evenodd" d="M7.7679 1.25H7.8H16.2H16.2321H16.2321C17.045 1.24999 17.7006 1.24999 18.2315 1.29336C18.7781 1.33803 19.2582 1.43239 19.7025 1.65873C20.4081 2.01825 20.9817 2.59193 21.3413 3.29754C21.5676 3.74175 21.662 4.2219 21.7066 4.76853C21.75 5.29944 21.75 5.95505 21.75 6.76788V6.8V17.2V17.2321C21.75 18.045 21.75 18.7006 21.7066 19.2315C21.662 19.7781 21.5676 20.2582 21.3413 20.7025C20.9817 21.4081 20.4081 21.9817 19.7025 22.3413C19.2582 22.5676 18.7781 22.662 18.2315 22.7066C17.7006 22.75 17.045 22.75 16.2321 22.75H16.2H7.8H7.76788C6.95505 22.75 6.29944 22.75 5.76853 22.7066C5.2219 22.662 4.74175 22.5676 4.29754 22.3413C3.59193 21.9817 3.01825 21.4081 2.65873 20.7025C2.43239 20.2582 2.33803 19.7781 2.29336 19.2315C2.24999 18.7006 2.24999 18.045 2.25 17.2321V17.2321V17.2V6.8V6.7679V6.76788C2.24999 5.95505 2.24999 5.29944 2.29336 4.76853C2.33803 4.2219 2.43239 3.74175 2.65873 3.29754C3.01825 2.59193 3.59193 2.01825 4.29754 1.65873C4.74175 1.43239 5.2219 1.33803 5.76853 1.29336C6.29944 1.24999 6.95505 1.24999 7.76788 1.25H7.7679ZM5.89068 2.78838C5.4368 2.82547 5.17604 2.8946 4.97852 2.99524C4.55516 3.21095 4.21095 3.55516 3.99524 3.97852C3.8946 4.17604 3.82547 4.4368 3.78838 4.89068C3.75058 5.35331 3.75 5.94755 3.75 6.8V17.2C3.75 18.0525 3.75058 18.6467 3.78838 19.1093C3.82547 19.5632 3.8946 19.824 3.99524 20.0215C4.21095 20.4448 4.55516 20.789 4.97852 21.0048C5.17604 21.1054 5.4368 21.1745 5.89068 21.2116C6.34421 21.2487 6.92422 21.25 7.75 21.25V21H7.5C6.39543 21 5.5 20.1046 5.5 19C5.5 17.8954 6.39543 17 7.5 17H7.75L7.75 12.5H7.5C6.39543 12.5 5.5 11.6046 5.5 10.5C5.5 9.39543 6.39543 8.5 7.5 8.5H7.75V7.5H7.5C6.39543 7.5 5.5 6.60457 5.5 5.5C5.5 4.39543 6.39543 3.5 7.5 3.5H7.75V2.75C6.92422 2.75004 6.34421 2.75133 5.89068 2.78838ZM8.25 2.75V3.5H8.5C9.60457 3.5 10.5 4.39543 10.5 5.5C10.5 6.60457 9.60457 7.5 8.5 7.5H8.25V8.5H8.5C9.60457 8.5 10.5 9.39543 10.5 10.5C10.5 11.6046 9.60457 12.5 8.5 12.5H8.25L8.25 17H8.5C9.60457 17 10.5 17.8954 10.5 19C10.5 20.1046 9.60457 21 8.5 21H8.25V21.25H15.75V19.5H15.5C14.3954 19.5 13.5 18.6046 13.5 17.5C13.5 16.3954 14.3954 15.5 15.5 15.5H15.75V14.5H15.5C14.3954 14.5 13.5 13.6046 13.5 12.5C13.5 11.3954 14.3954 10.5 15.5 10.5H15.75V8.5H15.5C14.3954 8.5 13.5 7.60457 13.5 6.5C13.5 5.39543 14.3954 4.5 15.5 4.5H15.75V2.75H8.25ZM18.1093 21.2116C17.6558 21.2487 17.0758 21.25 16.25 21.25V19.5H16.5C17.6046 19.5 18.5 18.6046 18.5 17.5C18.5 16.3954 17.6046 15.5 16.5 15.5H16.25V14.5H16.5C17.6046 14.5 18.5 13.6046 18.5 12.5C18.5 11.3954 17.6046 10.5 16.5 10.5H16.25V8.5H16.5C17.6046 8.5 18.5 7.60457 18.5 6.5C18.5 5.39543 17.6046 4.5 16.5 4.5H16.25V2.75C17.0758 2.75004 17.6558 2.75133 18.1093 2.78838C18.5632 2.82547 18.824 2.8946 19.0215 2.99524C19.4448 3.21095 19.789 3.55516 20.0048 3.97852C20.1054 4.17604 20.1745 4.4368 20.2116 4.89068C20.2494 5.35331 20.25 5.94755 20.25 6.8V17.2C20.25 18.0525 20.2494 18.6467 20.2116 19.1093C20.1745 19.5632 20.1054 19.824 20.0048 20.0215C19.789 20.4448 19.4448 20.789 19.0215 21.0048C18.824 21.1054 18.5632 21.1745 18.1093 21.2116ZM14.5 12.5C14.5 11.9477 14.9477 11.5 15.5 11.5H16.5C17.0523 11.5 17.5 11.9477 17.5 12.5C17.5 13.0523 17.0523 13.5 16.5 13.5H15.5C14.9477 13.5 14.5 13.0523 14.5 12.5ZM15.5 16.5C14.9477 16.5 14.5 16.9477 14.5 17.5C14.5 18.0523 14.9477 18.5 15.5 18.5H16.5C17.0523 18.5 17.5 18.0523 17.5 17.5C17.5 16.9477 17.0523 16.5 16.5 16.5H15.5ZM14.5 6.5C14.5 5.94772 14.9477 5.5 15.5 5.5H16.5C17.0523 5.5 17.5 5.94772 17.5 6.5C17.5 7.05229 17.0523 7.5 16.5 7.5H15.5C14.9477 7.5 14.5 7.05229 14.5 6.5ZM7.5 6.5C6.94772 6.5 6.5 6.05229 6.5 5.5C6.5 4.94772 6.94772 4.5 7.5 4.5H8.5C9.05229 4.5 9.5 4.94772 9.5 5.5C9.5 6.05229 9.05229 6.5 8.5 6.5H7.5ZM6.5 10.5C6.5 11.0523 6.94772 11.5 7.5 11.5H8.5C9.05229 11.5 9.5 11.0523 9.5 10.5C9.5 9.94772 9.05229 9.5 8.5 9.5H7.5C6.94772 9.5 6.5 9.94772 6.5 10.5ZM7.5 20C6.94772 20 6.5 19.5523 6.5 19C6.5 18.4477 6.94772 18 7.5 18H8.5C9.05229 18 9.5 18.4477 9.5 19C9.5 19.5523 9.05229 20 8.5 20H7.5Z" fill="#18191A"/>
</svg>
