<svg width="24" height="24" viewBox="0 0 24 24" fill="none" xmlns="http://www.w3.org/2000/svg">
<path fill-rule="evenodd" clip-rule="evenodd" d="M9.7 2.25H9.66669C8.43478 2.24999 7.46432 2.24999 6.68334 2.3138C5.88657 2.3789 5.2212 2.51413 4.61655 2.82222C3.6287 3.32555 2.82555 4.1287 2.32222 5.11655C2.01413 5.7212 1.8789 6.38657 1.8138 7.18333C1.74999 7.96432 1.74999 8.93478 1.75 10.1667V10.1667V10.2V15C1.75 17.0711 3.42893 18.75 5.5 18.75V17.25C4.25736 17.25 3.25 16.2426 3.25 15V10.2C3.25 8.92751 3.25058 8.01824 3.30882 7.30548C3.36634 6.60148 3.47634 6.15549 3.65873 5.79754C4.01825 5.09193 4.59193 4.51825 5.29754 4.15873C5.65549 3.97634 6.10148 3.86634 6.80548 3.80882C7.51824 3.75058 8.42751 3.75 9.7 3.75H14.3C15.5725 3.75 16.4818 3.75058 17.1945 3.80882C17.8985 3.86634 18.3445 3.97634 18.7025 4.15873C19.4081 4.51825 19.9817 5.09193 20.3413 5.79754C20.5237 6.15549 20.6337 6.60148 20.6912 7.30548C20.7494 8.01824 20.75 8.92751 20.75 10.2V15C20.75 16.2426 19.7426 17.25 18.5 17.25V18.75C20.5711 18.75 22.25 17.0711 22.25 15V10.2V10.1667C22.25 8.93477 22.25 7.96431 22.1862 7.18333C22.1211 6.38657 21.9859 5.7212 21.6778 5.11655C21.1744 4.1287 20.3713 3.32555 19.3834 2.82222C18.7788 2.51413 18.1134 2.3789 17.3167 2.3138C16.5357 2.24999 15.5652 2.24999 14.3333 2.25H14.3H9.7ZM13.484 13.9593C12.7986 12.8626 11.2014 12.8626 10.516 13.9593L7.32025 19.0725C6.59176 20.2381 7.42974 21.75 8.80425 21.75H15.1958C16.5703 21.75 17.4082 20.2381 16.6797 19.0725L13.484 13.9593ZM11.788 14.7543C11.8859 14.5976 12.1141 14.5976 12.212 14.7543L15.4078 19.8675C15.5118 20.034 15.3921 20.25 15.1958 20.25H8.80425C8.60789 20.25 8.48818 20.034 8.59225 19.8675L11.788 14.7543Z" fill="#1D1E1F"/>
</svg>
