<svg width="24" height="24" viewBox="0 0 24 24" fill="none" xmlns="http://www.w3.org/2000/svg">
<path fill-rule="evenodd" clip-rule="evenodd" d="M11.75 22C11.3358 22 11 21.6642 11 21.25V19.75H9.9H9.87109C9.47573 19.75 9.13466 19.75 8.85373 19.7271C8.55722 19.7028 8.26231 19.6494 7.97852 19.5048C7.55516 19.2891 7.21095 18.9448 6.99524 18.5215C6.85064 18.2377 6.79715 17.9428 6.77293 17.6463C6.74998 17.3653 6.74999 17.0243 6.75 16.6289V16.6289L6.75 16.6V16.4L6.75 16.3711V16.3711C6.74999 15.9757 6.74998 15.6347 6.77293 15.3537C6.79715 15.0572 6.85064 14.7623 6.99524 14.4785C7.21095 14.0552 7.55516 13.711 7.97852 13.4952C8.26231 13.3506 8.55722 13.2972 8.85373 13.2729C9.13466 13.25 9.47574 13.25 9.8711 13.25L9.9 13.25H11V11.75H6.4L6.37109 11.75C5.97573 11.75 5.63466 11.75 5.35373 11.7271C5.05722 11.7028 4.76231 11.6494 4.47852 11.5048C4.05516 11.2891 3.71095 10.9448 3.49524 10.5215C3.35064 10.2377 3.29715 9.94278 3.27293 9.64627C3.24998 9.36536 3.24999 9.0243 3.25 8.62897V8.62891L3.25 8.6V8.4L3.25 8.37109V8.37104C3.24999 7.9757 3.24998 7.63465 3.27293 7.35373C3.29715 7.05722 3.35064 6.76231 3.49524 6.47852C3.71095 6.05516 4.05516 5.71095 4.47852 5.49524C4.76231 5.35064 5.05722 5.29715 5.35373 5.27293C5.63466 5.24998 5.97574 5.24999 6.3711 5.25L6.4 5.25H11V2.75C11 2.33579 11.3358 2 11.75 2C12.1642 2 12.5 2.33579 12.5 2.75V5.25H17.1L17.1289 5.25C17.5243 5.24999 17.8653 5.24998 18.1463 5.27293C18.4428 5.29715 18.7377 5.35064 19.0215 5.49524C19.4448 5.71095 19.7891 6.05516 20.0048 6.47852C20.1494 6.76231 20.2028 7.05722 20.2271 7.35373C20.25 7.63463 20.25 7.97567 20.25 8.37098V8.37108V8.4V8.6V8.62893V8.62902C20.25 9.02434 20.25 9.36537 20.2271 9.64627C20.2028 9.94278 20.1494 10.2377 20.0048 10.5215C19.7891 10.9448 19.4448 11.2891 19.0215 11.5048C18.7377 11.6494 18.4428 11.7028 18.1463 11.7271C17.8653 11.75 17.5243 11.75 17.1289 11.75L17.1 11.75H12.5V13.25H13.6L13.6289 13.25C14.0243 13.25 14.3653 13.25 14.6463 13.2729C14.9428 13.2972 15.2377 13.3506 15.5215 13.4952C15.9448 13.711 16.2891 14.0552 16.5048 14.4785C16.6494 14.7623 16.7028 15.0572 16.7271 15.3537C16.75 15.6347 16.75 15.9757 16.75 16.3711V16.4V16.6V16.6289C16.75 17.0243 16.75 17.3653 16.7271 17.6463C16.7028 17.9428 16.6494 18.2377 16.5048 18.5215C16.2891 18.9448 15.9448 19.2891 15.5215 19.5048C15.2377 19.6494 14.9428 19.7028 14.6463 19.7271C14.3653 19.75 14.0243 19.75 13.6289 19.75H13.6H12.5V21.25C12.5 21.6642 12.1642 22 11.75 22ZM12.5 18.25H13.6C14.0324 18.25 14.3116 18.2494 14.5241 18.2321C14.7279 18.2154 14.8034 18.1872 14.8405 18.1683C14.9816 18.0964 15.0964 17.9816 15.1683 17.8405C15.1872 17.8034 15.2154 17.7279 15.2321 17.5241C15.2494 17.3116 15.25 17.0324 15.25 16.6V16.4C15.25 15.9676 15.2494 15.6884 15.2321 15.4759C15.2154 15.2721 15.1872 15.1966 15.1683 15.1595C15.0964 15.0184 14.9816 14.9037 14.8405 14.8317C14.8034 14.8129 14.7279 14.7846 14.5241 14.7679C14.3116 14.7506 14.0324 14.75 13.6 14.75H12.5V18.25ZM11 14.75H9.9C9.46759 14.75 9.18838 14.7506 8.97588 14.7679C8.77213 14.7846 8.69659 14.8129 8.65951 14.8317C8.51839 14.9037 8.40365 15.0184 8.33175 15.1595C8.31285 15.1966 8.28459 15.2721 8.26795 15.4759C8.25059 15.6884 8.25 15.9676 8.25 16.4V16.6C8.25 17.0324 8.25059 17.3116 8.26795 17.5241C8.28459 17.7279 8.31285 17.8034 8.33175 17.8405C8.40365 17.9816 8.51839 18.0964 8.65951 18.1683C8.69659 18.1872 8.77213 18.2154 8.97588 18.2321C9.18838 18.2494 9.46759 18.25 9.9 18.25H11V14.75ZM12.5 10.25H17.1C17.5324 10.25 17.8116 10.2494 18.0241 10.2321C18.2279 10.2154 18.3034 10.1872 18.3405 10.1683C18.4816 10.0964 18.5964 9.98162 18.6683 9.84049C18.6872 9.80341 18.7154 9.72787 18.7321 9.52413C18.7494 9.31162 18.75 9.03242 18.75 8.6V8.4C18.75 7.96759 18.7494 7.68838 18.7321 7.47588C18.7154 7.27213 18.6872 7.19659 18.6683 7.15951C18.5964 7.01839 18.4816 6.90365 18.3405 6.83175C18.3034 6.81285 18.2279 6.78459 18.0241 6.76795C17.8116 6.75059 17.5324 6.75 17.1 6.75H12.5V10.25ZM11 6.75H6.4C5.96759 6.75 5.68838 6.75059 5.47588 6.76795C5.27213 6.78459 5.19659 6.81285 5.15951 6.83175C5.01839 6.90365 4.90365 7.01839 4.83175 7.15951C4.81285 7.19659 4.78459 7.27213 4.76795 7.47588C4.75059 7.68838 4.75 7.96759 4.75 8.4V8.6C4.75 9.03242 4.75059 9.31162 4.76795 9.52413C4.78459 9.72787 4.81285 9.80341 4.83175 9.84049C4.90365 9.98162 5.01839 10.0964 5.15951 10.1683C5.19659 10.1872 5.27213 10.2154 5.47588 10.2321C5.68838 10.2494 5.96759 10.25 6.4 10.25H11V6.75Z" fill="#18191A"/>
</svg>
