<svg width="24" height="24" viewBox="0 0 24 24" fill="none" xmlns="http://www.w3.org/2000/svg">
<path fill-rule="evenodd" clip-rule="evenodd" d="M11.75 19.1289L11.75 19.1V14.5H13.25V16.1L13.25 16.1289C13.25 16.5243 13.25 16.8653 13.2729 17.1463C13.2972 17.4428 13.3506 17.7377 13.4952 18.0215C13.7109 18.4448 14.0552 18.7891 14.4785 19.0048C14.7623 19.1494 15.0572 19.2028 15.3537 19.2271C15.6347 19.25 15.9757 19.25 16.3711 19.25L16.4 19.25H16.6L16.6289 19.25C17.0243 19.25 17.3653 19.25 17.6463 19.2271C17.9428 19.2028 18.2377 19.1494 18.5215 19.0048C18.9448 18.7891 19.289 18.4448 19.5048 18.0215C19.6494 17.7377 19.7028 17.4428 19.7271 17.1463C19.75 16.8653 19.75 16.5243 19.75 16.1289V16.1V14.5H21.25C21.6642 14.5 22 14.1642 22 13.75C22 13.3358 21.6642 13 21.25 13H19.75V12.4V12.3711C19.75 11.9757 19.75 11.6347 19.7271 11.3537C19.7028 11.0572 19.6494 10.7623 19.5048 10.4785C19.289 10.0552 18.9448 9.71095 18.5215 9.49524C18.2377 9.35064 17.9428 9.29715 17.6463 9.27293C17.3653 9.24998 17.0243 9.24999 16.6289 9.25H16.6H16.4H16.3711C15.9757 9.24999 15.6347 9.24998 15.3537 9.27293C15.0572 9.29715 14.7623 9.35064 14.4785 9.49524C14.0552 9.71095 13.7109 10.0552 13.4952 10.4785C13.3506 10.7623 13.2972 11.0572 13.2729 11.3537C13.25 11.6347 13.25 11.9757 13.25 12.3711L13.25 12.4V13H11.75V8.4L11.75 8.37109C11.75 7.97573 11.75 7.63466 11.7271 7.35373C11.7028 7.05722 11.6494 6.76231 11.5048 6.47852C11.289 6.05516 10.9448 5.71095 10.5215 5.49524C10.2377 5.35064 9.94278 5.29715 9.64627 5.27293C9.36537 5.24998 9.02434 5.24999 8.62902 5.25H8.62892H8.6H8.4H8.37107H8.37097C7.97566 5.24999 7.63463 5.24998 7.35373 5.27293C7.05722 5.29715 6.76231 5.35064 6.47852 5.49524C6.05516 5.71095 5.71095 6.05516 5.49523 6.47852C5.35064 6.76231 5.29715 7.05722 5.27293 7.35373C5.24997 7.63466 5.24999 7.97573 5.25 8.37109V8.3711L5.25 8.4L5.25 13H2.75C2.33579 13 2 13.3358 2 13.75C2 14.1642 2.33579 14.5 2.75 14.5H5.25L5.25 19.1L5.25 19.1289C5.24999 19.5243 5.24997 19.8653 5.27293 20.1463C5.29715 20.4428 5.35064 20.7377 5.49524 21.0215C5.71095 21.4448 6.05516 21.789 6.47852 22.0048C6.76231 22.1494 7.05722 22.2028 7.35373 22.2271C7.63464 22.25 7.97568 22.25 8.371 22.25H8.37109H8.4H8.6H8.62891H8.629C9.02432 22.25 9.36536 22.25 9.64627 22.2271C9.94278 22.2028 10.2377 22.1494 10.5215 22.0048C10.9448 21.789 11.289 21.4448 11.5048 21.0215C11.6494 20.7377 11.7028 20.4428 11.7271 20.1463C11.75 19.8653 11.75 19.5243 11.75 19.1289ZM14.75 14.5V16.1C14.75 16.5324 14.7506 16.8116 14.7679 17.0241C14.7846 17.2279 14.8128 17.3034 14.8317 17.3405C14.9037 17.4816 15.0184 17.5964 15.1595 17.6683C15.1966 17.6872 15.2721 17.7154 15.4759 17.7321C15.6884 17.7494 15.9676 17.75 16.4 17.75H16.6C17.0324 17.75 17.3116 17.7494 17.5241 17.7321C17.7279 17.7154 17.8034 17.6872 17.8405 17.6683C17.9816 17.5964 18.0963 17.4816 18.1683 17.3405C18.1871 17.3034 18.2154 17.2279 18.2321 17.0241C18.2494 16.8116 18.25 16.5324 18.25 16.1V14.5H14.75ZM18.25 13H14.75V12.4C14.75 11.9676 14.7506 11.6884 14.7679 11.4759C14.7846 11.2721 14.8128 11.1966 14.8317 11.1595C14.9037 11.0184 15.0184 10.9037 15.1595 10.8317C15.1966 10.8129 15.2721 10.7846 15.4759 10.7679C15.6884 10.7506 15.9676 10.75 16.4 10.75H16.6C17.0324 10.75 17.3116 10.7506 17.5241 10.7679C17.7279 10.7846 17.8034 10.8129 17.8405 10.8317C17.9816 10.9037 18.0963 11.0184 18.1683 11.1595C18.1871 11.1966 18.2154 11.2721 18.2321 11.4759C18.2494 11.6884 18.25 11.9676 18.25 12.4V13ZM10.25 19.1V14.5H6.75V19.1C6.75 19.5324 6.75058 19.8116 6.76795 20.0241C6.78459 20.2279 6.81285 20.3034 6.83175 20.3405C6.90365 20.4816 7.01839 20.5963 7.15951 20.6683C7.19659 20.6872 7.27213 20.7154 7.47588 20.7321C7.68838 20.7494 7.96759 20.75 8.4 20.75H8.6C9.03241 20.75 9.31162 20.7494 9.52412 20.7321C9.72787 20.7154 9.80341 20.6872 9.84049 20.6683C9.98161 20.5963 10.0963 20.4816 10.1683 20.3405C10.1872 20.3034 10.2154 20.2279 10.2321 20.0241C10.2494 19.8116 10.25 19.5324 10.25 19.1ZM10.25 8.4V13H6.75V8.4C6.75 7.96758 6.75058 7.68838 6.76794 7.47588C6.78459 7.27213 6.81285 7.19659 6.83174 7.15951C6.90365 7.01839 7.01838 6.90365 7.15951 6.83175C7.19659 6.81285 7.27213 6.78459 7.47588 6.76795C7.68838 6.75058 7.96758 6.75 8.4 6.75H8.6C9.03241 6.75 9.31162 6.75058 9.52412 6.76795C9.72787 6.78459 9.80341 6.81285 9.84049 6.83175C9.98161 6.90365 10.0963 7.01839 10.1683 7.15951C10.1871 7.19659 10.2154 7.27213 10.2321 7.47588C10.2494 7.68838 10.25 7.96758 10.25 8.4Z" fill="#18191A"/>
</svg>
