<svg width="24" height="24" viewBox="0 0 24 24" fill="none" xmlns="http://www.w3.org/2000/svg">
<path fill-rule="evenodd" clip-rule="evenodd" d="M3.5 21.25C3.5 21.6642 3.16421 22 2.75 22C2.33579 22 2 21.6642 2 21.25V2.75C2 2.33579 2.33579 2 2.75 2C3.16421 2 3.5 2.33579 3.5 2.75V21.25ZM19.6289 11.75L19.6 11.75H8.9L8.87109 11.75C8.47573 11.75 8.13466 11.75 7.85373 11.7271C7.55722 11.7028 7.26231 11.6494 6.97852 11.5048C6.55516 11.289 6.21095 10.9448 5.99524 10.5215C5.85064 10.2377 5.79715 9.94278 5.77293 9.64627C5.74998 9.36537 5.74999 9.02433 5.75 8.62902V8.62893V8.6V8.4V8.37107V8.37098C5.74999 7.97567 5.74998 7.63463 5.77293 7.35373C5.79715 7.05722 5.85064 6.76231 5.99524 6.47852C6.21095 6.05516 6.55516 5.71095 6.97852 5.49524C7.26231 5.35064 7.55722 5.29715 7.85373 5.27293C8.13466 5.24997 8.47573 5.24999 8.8711 5.25L8.9 5.25H19.6L19.6289 5.25C20.0243 5.24999 20.3653 5.24997 20.6463 5.27293C20.9428 5.29715 21.2377 5.35064 21.5215 5.49524C21.9448 5.71095 22.289 6.05516 22.5048 6.47852C22.6494 6.76231 22.7028 7.05722 22.7271 7.35373C22.75 7.63464 22.75 7.97568 22.75 8.371V8.37109V8.4V8.6V8.62891V8.629C22.75 9.02432 22.75 9.36536 22.7271 9.64627C22.7028 9.94278 22.6494 10.2377 22.5048 10.5215C22.289 10.9448 21.9448 11.289 21.5215 11.5048C21.2377 11.6494 20.9428 11.7028 20.6463 11.7271C20.3653 11.75 20.0243 11.75 19.6289 11.75ZM20.5241 10.2321C20.7279 10.2154 20.8034 10.1872 20.8405 10.1683C20.9816 10.0963 21.0963 9.98161 21.1683 9.84049C21.1871 9.80341 21.2154 9.72787 21.2321 9.52412C21.2494 9.31162 21.25 9.03241 21.25 8.6V8.4C21.25 7.96759 21.2494 7.68838 21.2321 7.47588C21.2154 7.27213 21.1871 7.19659 21.1683 7.15951C21.0963 7.01839 20.9816 6.90365 20.8405 6.83175C20.8034 6.81285 20.7279 6.78459 20.5241 6.76795C20.3116 6.75058 20.0324 6.75 19.6 6.75H8.9C8.46758 6.75 8.18838 6.75058 7.97588 6.76795C7.77213 6.78459 7.69659 6.81285 7.65951 6.83175C7.51839 6.90365 7.40365 7.01839 7.33175 7.15951C7.31285 7.19659 7.28459 7.27213 7.26795 7.47588C7.25058 7.68838 7.25 7.96759 7.25 8.4V8.6C7.25 9.03241 7.25058 9.31162 7.26795 9.52412C7.28459 9.72787 7.31285 9.80341 7.33175 9.84049C7.40365 9.98161 7.51839 10.0963 7.65951 10.1683C7.69659 10.1872 7.77213 10.2154 7.97588 10.2321C8.18838 10.2494 8.46758 10.25 8.9 10.25H19.6C20.0324 10.25 20.3116 10.2494 20.5241 10.2321ZM12.6 19.75H12.6289H12.629C13.0243 19.75 13.3654 19.75 13.6463 19.7271C13.9428 19.7028 14.2377 19.6494 14.5215 19.5048C14.9448 19.289 15.289 18.9448 15.5048 18.5215C15.6494 18.2377 15.7028 17.9428 15.7271 17.6463C15.75 17.3653 15.75 17.0243 15.75 16.6289L15.75 16.6V16.4L15.75 16.3711C15.75 15.9757 15.75 15.6347 15.7271 15.3537C15.7028 15.0572 15.6494 14.7623 15.5048 14.4785C15.289 14.0552 14.9448 13.711 14.5215 13.4952C14.2377 13.3506 13.9428 13.2972 13.6463 13.2729C13.3653 13.25 13.0243 13.25 12.6289 13.25L12.6 13.25H8.9L8.8711 13.25C8.47573 13.25 8.13466 13.25 7.85373 13.2729C7.55722 13.2972 7.26231 13.3506 6.97852 13.4952C6.55516 13.711 6.21095 14.0552 5.99524 14.4785C5.85064 14.7623 5.79715 15.0572 5.77293 15.3537C5.74997 15.6347 5.74999 15.9757 5.75 16.3711V16.4V16.6V16.6289C5.74999 17.0243 5.74997 17.3653 5.77293 17.6463C5.79715 17.9428 5.85064 18.2377 5.99524 18.5215C6.21095 18.9448 6.55516 19.289 6.97852 19.5048C7.26231 19.6494 7.55722 19.7028 7.85373 19.7271C8.13464 19.75 8.47568 19.75 8.871 19.75H8.87109H8.9H12.6ZM13.8405 18.1683C13.8034 18.1871 13.7279 18.2154 13.5241 18.2321C13.3116 18.2494 13.0324 18.25 12.6 18.25H8.9C8.46759 18.25 8.18838 18.2494 7.97588 18.2321C7.77213 18.2154 7.69659 18.1871 7.65951 18.1683C7.51839 18.0963 7.40365 17.9816 7.33175 17.8405C7.31285 17.8034 7.28459 17.7279 7.26795 17.5241C7.25058 17.3116 7.25 17.0324 7.25 16.6V16.4C7.25 15.9676 7.25058 15.6884 7.26795 15.4759C7.28459 15.2721 7.31285 15.1966 7.33175 15.1595C7.40365 15.0184 7.51839 14.9037 7.65951 14.8317C7.69659 14.8129 7.77213 14.7846 7.97588 14.7679C8.18838 14.7506 8.46759 14.75 8.9 14.75H12.6C13.0324 14.75 13.3116 14.7506 13.5241 14.7679C13.7279 14.7846 13.8034 14.8129 13.8405 14.8317C13.9816 14.9037 14.0963 15.0184 14.1683 15.1595C14.1872 15.1966 14.2154 15.2721 14.2321 15.4759C14.2494 15.6884 14.25 15.9676 14.25 16.4V16.6C14.25 17.0324 14.2494 17.3116 14.2321 17.5241C14.2154 17.7279 14.1872 17.8034 14.1683 17.8405C14.0963 17.9816 13.9816 18.0963 13.8405 18.1683Z" fill="#18191A"/>
</svg>
