<svg width="24" height="24" viewBox="0 0 24 24" fill="none" xmlns="http://www.w3.org/2000/svg">
<path fill-rule="evenodd" clip-rule="evenodd" d="M21.25 4C21.6642 4 22 3.66421 22 3.25C22 2.83579 21.6642 2.5 21.25 2.5H2.75C2.33579 2.5 2 2.83579 2 3.25C2 3.66421 2.33579 4 2.75 4L21.25 4ZM11.75 20.1289L11.75 20.1L11.75 9.4L11.75 9.37109C11.75 8.97573 11.75 8.63466 11.7271 8.35373C11.7028 8.05722 11.6494 7.76231 11.5048 7.47852C11.289 7.05516 10.9448 6.71095 10.5215 6.49524C10.2377 6.35064 9.94278 6.29715 9.64627 6.27293C9.36537 6.24998 9.02433 6.24999 8.62902 6.25H8.62892H8.6H8.4H8.37107H8.37097C7.97566 6.24999 7.63463 6.24998 7.35373 6.27293C7.05722 6.29715 6.76231 6.35064 6.47852 6.49524C6.05516 6.71095 5.71095 7.05516 5.49523 7.47852C5.35064 7.76231 5.29715 8.05722 5.27293 8.35373C5.24997 8.63466 5.24999 8.97573 5.25 9.37109V9.3711L5.25 9.4L5.25 20.1L5.25 20.1289C5.24999 20.5243 5.24997 20.8653 5.27293 21.1463C5.29715 21.4428 5.35064 21.7377 5.49524 22.0215C5.71095 22.4448 6.05516 22.789 6.47852 23.0048C6.76231 23.1494 7.05722 23.2028 7.35373 23.2271C7.63464 23.25 7.97568 23.25 8.371 23.25H8.37109H8.4H8.6H8.62891H8.629C9.02432 23.25 9.36536 23.25 9.64627 23.2271C9.94278 23.2028 10.2377 23.1494 10.5215 23.0048C10.9448 22.789 11.289 22.4448 11.5048 22.0215C11.6494 21.7377 11.7028 21.4428 11.7271 21.1463C11.75 20.8653 11.75 20.5243 11.75 20.1289ZM10.2321 21.0241C10.2154 21.2279 10.1872 21.3034 10.1683 21.3405C10.0963 21.4816 9.98161 21.5963 9.84049 21.6683C9.80341 21.6871 9.72787 21.7154 9.52412 21.7321C9.31162 21.7494 9.03241 21.75 8.6 21.75H8.4C7.96759 21.75 7.68838 21.7494 7.47588 21.7321C7.27213 21.7154 7.19659 21.6871 7.15951 21.6683C7.01839 21.5963 6.90365 21.4816 6.83175 21.3405C6.81285 21.3034 6.78459 21.2279 6.76795 21.0241C6.75058 20.8116 6.75 20.5324 6.75 20.1L6.75 9.4C6.75 8.96758 6.75058 8.68838 6.76794 8.47588C6.78459 8.27213 6.81285 8.19659 6.83174 8.15951C6.90365 8.01839 7.01838 7.90365 7.15951 7.83175C7.19659 7.81285 7.27213 7.78459 7.47588 7.76795C7.68838 7.75058 7.96758 7.75 8.4 7.75H8.6C9.03241 7.75 9.31162 7.75058 9.52412 7.76795C9.72787 7.78459 9.80341 7.81285 9.84049 7.83175C9.98161 7.90365 10.0963 8.01839 10.1683 8.15951C10.1871 8.19659 10.2154 8.27213 10.2321 8.47588C10.2494 8.68838 10.25 8.96758 10.25 9.4L10.25 20.1C10.25 20.5324 10.2494 20.8116 10.2321 21.0241ZM19.75 13.1V13.1289C19.75 13.5243 19.75 13.8653 19.7271 14.1463C19.7028 14.4428 19.6494 14.7377 19.5048 15.0215C19.289 15.4448 18.9448 15.789 18.5215 16.0048C18.2377 16.1494 17.9428 16.2028 17.6463 16.2271C17.3653 16.25 17.0243 16.25 16.6289 16.25L16.6 16.25H16.4L16.3711 16.25C15.9757 16.25 15.6347 16.25 15.3537 16.2271C15.0572 16.2028 14.7623 16.1494 14.4785 16.0048C14.0552 15.7891 13.7109 15.4448 13.4952 15.0215C13.3506 14.7377 13.2972 14.4428 13.2729 14.1463C13.25 13.8653 13.25 13.5243 13.25 13.1289L13.25 13.1V9.4L13.25 9.3711C13.25 8.97573 13.25 8.63466 13.2729 8.35373C13.2972 8.05722 13.3506 7.76231 13.4952 7.47852C13.7109 7.05516 14.0552 6.71095 14.4785 6.49524C14.7623 6.35064 15.0572 6.29715 15.3537 6.27293C15.6347 6.24997 15.9757 6.24999 16.3711 6.25H16.4H16.6H16.6289C17.0243 6.24999 17.3653 6.24997 17.6463 6.27293C17.9428 6.29715 18.2377 6.35064 18.5215 6.49524C18.9448 6.71095 19.289 7.05516 19.5048 7.47852C19.6494 7.76231 19.7028 8.05722 19.7271 8.35373C19.75 8.63466 19.75 8.97573 19.75 9.37109V9.4V13.1ZM18.1683 14.3405C18.1871 14.3034 18.2154 14.2279 18.2321 14.0241C18.2494 13.8116 18.25 13.5324 18.25 13.1V9.4C18.25 8.96759 18.2494 8.68838 18.2321 8.47588C18.2154 8.27213 18.1871 8.19659 18.1683 8.15951C18.0963 8.01839 17.9816 7.90365 17.8405 7.83175C17.8034 7.81285 17.7279 7.78459 17.5241 7.76795C17.3116 7.75058 17.0324 7.75 16.6 7.75H16.4C15.9676 7.75 15.6884 7.75058 15.4759 7.76795C15.2721 7.78459 15.1966 7.81285 15.1595 7.83175C15.0184 7.90365 14.9037 8.01839 14.8317 8.15951C14.8128 8.19659 14.7846 8.27213 14.7679 8.47588C14.7506 8.68838 14.75 8.96759 14.75 9.4V13.1C14.75 13.5324 14.7506 13.8116 14.7679 14.0241C14.7846 14.2279 14.8128 14.3034 14.8317 14.3405C14.9037 14.4816 15.0184 14.5963 15.1595 14.6683C15.1966 14.6872 15.2721 14.7154 15.4759 14.7321C15.6884 14.7494 15.9676 14.75 16.4 14.75H16.6C17.0324 14.75 17.3116 14.7494 17.5241 14.7321C17.7279 14.7154 17.8034 14.6872 17.8405 14.6683C17.9816 14.5963 18.0963 14.4816 18.1683 14.3405Z" fill="#18191A"/>
</svg>
