<svg width="24" height="24" viewBox="0 0 24 24" fill="none" xmlns="http://www.w3.org/2000/svg">
<path fill-rule="evenodd" clip-rule="evenodd" d="M11.75 14.6289L11.75 14.6L11.75 4.4L11.75 4.37109C11.75 3.97573 11.75 3.63466 11.7271 3.35373C11.7028 3.05722 11.6494 2.76231 11.5048 2.47852C11.289 2.05516 10.9448 1.71095 10.5215 1.49524C10.2377 1.35064 9.94278 1.29715 9.64627 1.27293C9.36536 1.24998 9.02431 1.24999 8.62897 1.25H8.62888H8.6H8.4H8.37112H8.37103C7.97569 1.24999 7.63464 1.24998 7.35373 1.27293C7.05722 1.29715 6.76231 1.35064 6.47852 1.49524C6.05516 1.71095 5.71095 2.05516 5.49524 2.47852C5.35064 2.76231 5.29715 3.05722 5.27293 3.35373C5.24997 3.63466 5.24999 3.97573 5.25 4.37109V4.3711L5.25 4.4L5.25 14.6L5.25 14.6289C5.24999 15.0243 5.24997 15.3653 5.27293 15.6463C5.29715 15.9428 5.35064 16.2377 5.49524 16.5215C5.71095 16.9448 6.05516 17.2891 6.47852 17.5048C6.76231 17.6494 7.05722 17.7028 7.35373 17.7271C7.63466 17.75 7.97573 17.75 8.37109 17.75H8.4H8.6H8.62891C9.02427 17.75 9.36534 17.75 9.64627 17.7271C9.94278 17.7028 10.2377 17.6494 10.5215 17.5048C10.9448 17.2891 11.289 16.9448 11.5048 16.5215C11.6494 16.2377 11.7028 15.9428 11.7271 15.6463C11.75 15.3653 11.75 15.0243 11.75 14.6289ZM10.2321 15.5241C10.2154 15.7279 10.1872 15.8034 10.1683 15.8405C10.0963 15.9816 9.98161 16.0964 9.84049 16.1683C9.80341 16.1872 9.72787 16.2154 9.52412 16.2321C9.31162 16.2494 9.03241 16.25 8.6 16.25H8.4C7.96759 16.25 7.68838 16.2494 7.47588 16.2321C7.27213 16.2154 7.19659 16.1872 7.15951 16.1683C7.01839 16.0964 6.90365 15.9816 6.83175 15.8405C6.81285 15.8034 6.78459 15.7279 6.76795 15.5241C6.75058 15.3116 6.75 15.0324 6.75 14.6L6.75 4.4C6.75 3.96759 6.75058 3.68838 6.76795 3.47588C6.78459 3.27213 6.81285 3.19659 6.83175 3.15951C6.90365 3.01839 7.01839 2.90365 7.15951 2.83175C7.19659 2.81285 7.27213 2.78459 7.47588 2.76795C7.68838 2.75058 7.96759 2.75 8.4 2.75H8.6C9.03241 2.75 9.31162 2.75058 9.52412 2.76795C9.72787 2.78459 9.80341 2.81285 9.84049 2.83175C9.98161 2.90365 10.0963 3.01839 10.1683 3.15951C10.1871 3.19659 10.2154 3.27213 10.2321 3.47588C10.2494 3.68838 10.25 3.96759 10.25 4.4L10.25 14.6C10.25 15.0324 10.2494 15.3116 10.2321 15.5241ZM21.25 21.5C21.6642 21.5 22 21.1642 22 20.75C22 20.3358 21.6642 20 21.25 20H2.75C2.33579 20 2 20.3358 2 20.75C2 21.1642 2.33579 21.5 2.75 21.5H21.25ZM19.75 14.6V14.6289C19.75 15.0243 19.75 15.3653 19.7271 15.6463C19.7028 15.9428 19.6494 16.2377 19.5048 16.5215C19.289 16.9448 18.9448 17.2891 18.5215 17.5048C18.2377 17.6494 17.9428 17.7028 17.6463 17.7271C17.3653 17.75 17.0243 17.75 16.6289 17.75H16.6H16.4H16.3711C15.9757 17.75 15.6347 17.75 15.3537 17.7271C15.0572 17.7028 14.7623 17.6494 14.4785 17.5048C14.0552 17.2891 13.711 16.9448 13.4952 16.5215C13.3506 16.2377 13.2972 15.9428 13.2729 15.6463C13.25 15.3653 13.25 15.0243 13.25 14.6289L13.25 14.6V11.4L13.25 11.3711C13.25 10.9757 13.25 10.6347 13.2729 10.3537C13.2972 10.0572 13.3506 9.76231 13.4952 9.47852C13.711 9.05516 14.0552 8.71095 14.4785 8.49524C14.7623 8.35064 15.0572 8.29715 15.3537 8.27293C15.6347 8.24998 15.9757 8.24999 16.3711 8.25H16.4H16.6H16.6289C17.0243 8.24999 17.3653 8.24998 17.6463 8.27293C17.9428 8.29715 18.2377 8.35064 18.5215 8.49524C18.9448 8.71095 19.289 9.05516 19.5048 9.47852C19.6494 9.76231 19.7028 10.0572 19.7271 10.3537C19.75 10.6347 19.75 10.9757 19.75 11.3711V11.4V14.6ZM18.1683 15.8405C18.1871 15.8034 18.2154 15.7279 18.2321 15.5241C18.2494 15.3116 18.25 15.0324 18.25 14.6V11.4C18.25 10.9676 18.2494 10.6884 18.2321 10.4759C18.2154 10.2721 18.1871 10.1966 18.1683 10.1595C18.0963 10.0184 17.9816 9.90365 17.8405 9.83175C17.8034 9.81285 17.7279 9.78459 17.5241 9.76795C17.3116 9.75058 17.0324 9.75 16.6 9.75H16.4C15.9676 9.75 15.6884 9.75058 15.4759 9.76795C15.2721 9.78459 15.1966 9.81285 15.1595 9.83175C15.0184 9.90365 14.9037 10.0184 14.8317 10.1595C14.8129 10.1966 14.7846 10.2721 14.7679 10.4759C14.7506 10.6884 14.75 10.9676 14.75 11.4V14.6C14.75 15.0324 14.7506 15.3116 14.7679 15.5241C14.7846 15.7279 14.8129 15.8034 14.8317 15.8405C14.9037 15.9816 15.0184 16.0964 15.1595 16.1683C15.1966 16.1872 15.2721 16.2154 15.4759 16.2321C15.6884 16.2494 15.9676 16.25 16.4 16.25H16.6C17.0324 16.25 17.3116 16.2494 17.5241 16.2321C17.7279 16.2154 17.8034 16.1872 17.8405 16.1683C17.9816 16.0964 18.0963 15.9816 18.1683 15.8405Z" fill="#18191A"/>
</svg>
