<svg width="24" height="24" viewBox="0 0 24 24" fill="none" xmlns="http://www.w3.org/2000/svg">
<path fill-rule="evenodd" clip-rule="evenodd" d="M20.5 21.25C20.5 21.6642 20.8358 22 21.25 22C21.6642 22 22 21.6642 22 21.25V2.75C22 2.33579 21.6642 2 21.25 2C20.8358 2 20.5 2.33579 20.5 2.75V21.25ZM4.37109 11.75L4.4 11.75H15.1L15.1289 11.75C15.5243 11.75 15.8653 11.75 16.1463 11.7271C16.4428 11.7028 16.7377 11.6494 17.0215 11.5048C17.4448 11.289 17.7891 10.9448 18.0048 10.5215C18.1494 10.2377 18.2028 9.94278 18.2271 9.64627C18.25 9.36537 18.25 9.02433 18.25 8.62902V8.62893V8.6V8.4V8.37107V8.37098C18.25 7.97567 18.25 7.63463 18.2271 7.35373C18.2028 7.05722 18.1494 6.76231 18.0048 6.47852C17.7891 6.05516 17.4448 5.71095 17.0215 5.49524C16.7377 5.35064 16.4428 5.29715 16.1463 5.27293C15.8653 5.24997 15.5243 5.24999 15.1289 5.25L15.1 5.25H4.4L4.3711 5.25C3.97573 5.24999 3.63466 5.24997 3.35373 5.27293C3.05722 5.29715 2.76231 5.35064 2.47852 5.49524C2.05516 5.71095 1.71095 6.05516 1.49524 6.47852C1.35064 6.76231 1.29715 7.05722 1.27293 7.35373C1.24998 7.63465 1.24999 7.97571 1.25 8.37106V8.37109V8.4V8.6V8.62891V8.62894C1.24999 9.02429 1.24998 9.36535 1.27293 9.64627C1.29715 9.94278 1.35064 10.2377 1.49524 10.5215C1.71095 10.9448 2.05516 11.289 2.47852 11.5048C2.76231 11.6494 3.05722 11.7028 3.35373 11.7271C3.63466 11.75 3.97573 11.75 4.37109 11.75ZM3.47588 10.2321C3.27213 10.2154 3.19659 10.1872 3.15951 10.1683C3.01839 10.0963 2.90365 9.98161 2.83175 9.84049C2.81285 9.80341 2.78459 9.72787 2.76795 9.52412C2.75058 9.31162 2.75 9.03241 2.75 8.6V8.4C2.75 7.96759 2.75058 7.68838 2.76795 7.47588C2.78459 7.27213 2.81285 7.19659 2.83175 7.15951C2.90365 7.01839 3.01839 6.90365 3.15951 6.83175C3.19659 6.81285 3.27213 6.78459 3.47588 6.76795C3.68838 6.75058 3.96759 6.75 4.4 6.75H15.1C15.5324 6.75 15.8116 6.75058 16.0241 6.76795C16.2279 6.78459 16.3034 6.81285 16.3405 6.83175C16.4816 6.90365 16.5964 7.01839 16.6683 7.15951C16.6872 7.19659 16.7154 7.27213 16.7321 7.47588C16.7494 7.68838 16.75 7.96759 16.75 8.4V8.6C16.75 9.03241 16.7494 9.31162 16.7321 9.52412C16.7154 9.72787 16.6872 9.80341 16.6683 9.84049C16.5964 9.98161 16.4816 10.0963 16.3405 10.1683C16.3034 10.1872 16.2279 10.2154 16.0241 10.2321C15.8116 10.2494 15.5324 10.25 15.1 10.25H4.4C3.96759 10.25 3.68838 10.2494 3.47588 10.2321ZM11.4 19.75H11.3711H11.371C10.9757 19.75 10.6346 19.75 10.3537 19.7271C10.0572 19.7028 9.76231 19.6494 9.47852 19.5048C9.05516 19.289 8.71095 18.9448 8.49524 18.5215C8.35064 18.2377 8.29715 17.9428 8.27293 17.6463C8.24998 17.3653 8.24999 17.0243 8.25 16.6289L8.25 16.6V16.4L8.25 16.3711C8.24999 15.9757 8.24998 15.6347 8.27293 15.3537C8.29715 15.0572 8.35064 14.7623 8.49524 14.4785C8.71095 14.0552 9.05516 13.711 9.47852 13.4952C9.76231 13.3506 10.0572 13.2972 10.3537 13.2729C10.6347 13.25 10.9757 13.25 11.3711 13.25L11.4 13.25H15.1L15.1289 13.25C15.5243 13.25 15.8653 13.25 16.1463 13.2729C16.4428 13.2972 16.7377 13.3506 17.0215 13.4952C17.4448 13.711 17.7891 14.0552 18.0048 14.4785C18.1494 14.7623 18.2028 15.0572 18.2271 15.3537C18.25 15.6347 18.25 15.9757 18.25 16.3711V16.4V16.6V16.6289C18.25 17.0243 18.25 17.3653 18.2271 17.6463C18.2028 17.9428 18.1494 18.2377 18.0048 18.5215C17.7891 18.9448 17.4448 19.289 17.0215 19.5048C16.7377 19.6494 16.4428 19.7028 16.1463 19.7271C15.8654 19.75 15.5243 19.75 15.129 19.75H15.1289H15.1H11.4ZM10.1595 18.1683C10.1966 18.1871 10.2721 18.2154 10.4759 18.2321C10.6884 18.2494 10.9676 18.25 11.4 18.25H15.1C15.5324 18.25 15.8116 18.2494 16.0241 18.2321C16.2279 18.2154 16.3034 18.1871 16.3405 18.1683C16.4816 18.0963 16.5964 17.9816 16.6683 17.8405C16.6872 17.8034 16.7154 17.7279 16.7321 17.5241C16.7494 17.3116 16.75 17.0324 16.75 16.6V16.4C16.75 15.9676 16.7494 15.6884 16.7321 15.4759C16.7154 15.2721 16.6872 15.1966 16.6683 15.1595C16.5964 15.0184 16.4816 14.9037 16.3405 14.8317C16.3034 14.8129 16.2279 14.7846 16.0241 14.7679C15.8116 14.7506 15.5324 14.75 15.1 14.75H11.4C10.9676 14.75 10.6884 14.7506 10.4759 14.7679C10.2721 14.7846 10.1966 14.8129 10.1595 14.8317C10.0184 14.9037 9.90365 15.0184 9.83175 15.1595C9.81285 15.1966 9.78459 15.2721 9.76795 15.4759C9.75058 15.6884 9.75 15.9676 9.75 16.4V16.6C9.75 17.0324 9.75058 17.3116 9.76795 17.5241C9.78459 17.7279 9.81285 17.8034 9.83175 17.8405C9.90365 17.9816 10.0184 18.0963 10.1595 18.1683Z" fill="#18191A"/>
</svg>
