<svg width="24" height="24" viewBox="0 0 24 24" fill="none" xmlns="http://www.w3.org/2000/svg">
<path fill-rule="evenodd" clip-rule="evenodd" d="M12 2.75C10.7574 2.75 9.75 3.75736 9.75 5C9.75 6.24264 10.7574 7.25 12 7.25C13.2426 7.25 14.25 6.24264 14.25 5C14.25 3.75736 13.2426 2.75 12 2.75ZM15.75 5C15.75 6.81422 14.4617 8.32753 12.75 8.67499L12.75 21C12.75 21.0734 12.7395 21.1444 12.7198 21.2114C14.4659 21.0253 16.1424 20.1785 17.4373 18.9549C18.7026 17.7591 19.5507 16.2552 19.767 14.75H19.1429C18.7286 14.75 18.3929 14.4142 18.3929 14C18.3929 13.5858 18.7286 13.25 19.1429 13.25H20.5714H22C22.4142 13.25 22.75 13.5858 22.75 14C22.75 14.4142 22.4142 14.75 22 14.75H21.2793C21.0573 16.7337 19.977 18.6186 18.4675 20.0451C16.7649 21.6541 14.4444 22.75 12 22.75C9.55562 22.75 7.23509 21.6541 5.53249 20.0451C4.023 18.6186 2.94269 16.7337 2.72073 14.75H2C1.58579 14.75 1.25 14.4142 1.25 14C1.25 13.5858 1.58579 13.25 2 13.25H3.42857H4.85714C5.27136 13.25 5.60714 13.5858 5.60714 14C5.60714 14.4142 5.27136 14.75 4.85714 14.75H4.23303C4.44926 16.2552 5.29741 17.7591 6.56275 18.9549C7.8576 20.1785 9.53408 21.0253 11.2802 21.2114C11.2606 21.1444 11.25 21.0734 11.25 21L11.25 8.67499C9.53832 8.32753 8.25 6.81422 8.25 5C8.25 2.92893 9.92893 1.25 12 1.25C14.0711 1.25 15.75 2.92893 15.75 5Z" fill="#18191A"/>
</svg>
