<svg width="24" height="24" viewBox="0 0 24 24" fill="none" xmlns="http://www.w3.org/2000/svg">
<path fill-rule="evenodd" clip-rule="evenodd" d="M5.02022 5.92977C6.71605 3.98149 9.21421 2.75 12 2.75C12.135 2.75 12.2693 2.75289 12.4028 2.75861L9.23889 8.06522L7.76615 10.5353L5.02022 5.92977ZM4.06105 7.2501C3.22858 8.63849 2.75 10.2634 2.75 12C2.75 12.9762 2.90122 13.9171 3.18151 14.8005H8.56273L4.06105 7.2501ZM3.80836 16.3005C5.05447 18.6692 7.29791 20.4315 9.98032 21.0289L12.8081 16.3005H9.88308H3.80836ZM11.6009 21.2415C11.7332 21.2472 11.8663 21.25 12 21.25C14.7874 21.25 17.2868 20.0171 18.9827 18.0669L16.2515 13.4652L14.7742 15.9354L11.6009 21.2415ZM19.9422 16.7445C20.7727 15.3573 21.25 13.7344 21.25 12C21.25 11.0237 21.0988 10.0828 20.8184 9.1993H15.4639L16.8989 11.6171L19.9422 16.7445ZM20.1915 7.6993C18.9458 5.3314 16.7034 3.56961 14.0221 2.9717L11.2034 7.6993H14.1467H20.1915ZM12 1.25C6.06294 1.25 1.25 6.06294 1.25 12C1.25 17.9371 6.06294 22.75 12 22.75C17.9371 22.75 22.75 17.9371 22.75 12C22.75 6.06294 17.9371 1.25 12 1.25ZM10.3091 9.1993H13.7196L15.381 11.9984L13.7052 14.8005H10.3091L8.63934 11.9999L10.3091 9.1993Z" fill="#18191A"/>
</svg>
