<svg width="24" height="24" viewBox="0 0 24 24" fill="none" xmlns="http://www.w3.org/2000/svg">
<path fill-rule="evenodd" clip-rule="evenodd" d="M20.2931 3.28265L20.2716 3.26113C19.8939 2.88341 19.5786 2.56815 19.3 2.33164C19.0094 2.08496 18.7098 1.88023 18.3498 1.76326C17.7975 1.5838 17.2025 1.5838 16.6502 1.76326C16.2902 1.88023 15.9906 2.08496 15.7 2.33164C15.4214 2.56815 15.1061 2.88341 14.7284 3.26113L14.7069 3.28265L14.2827 3.70691L14.2611 3.72843C13.8834 4.10613 13.5682 4.42138 13.3317 4.69998C13.085 4.99054 12.8802 5.29019 12.7633 5.65019C12.5838 6.20251 12.5838 6.79746 12.7633 7.34978C12.8802 7.70977 13.085 8.00942 13.3317 8.29999C13.5682 8.57858 13.8834 8.89384 14.2611 9.27154L14.2827 9.29305L14.7069 9.71732L14.7284 9.73883C15.1061 10.1165 15.4214 10.4318 15.7 10.6683C15.9906 10.915 16.2902 11.1197 16.6502 11.2367C17.2025 11.4162 17.7975 11.4162 18.3498 11.2367C18.7098 11.1197 19.0094 10.915 19.3 10.6683C19.5786 10.4318 19.8939 10.1166 20.2715 9.73885L20.2716 9.73883L20.2931 9.71732L20.7173 9.29305L20.7389 9.27154C21.1166 8.89384 21.4318 8.57858 21.6683 8.29999C21.915 8.00942 22.1198 7.70977 22.2367 7.34978C22.4162 6.79746 22.4162 6.20251 22.2367 5.65019C22.1198 5.29019 21.915 4.99054 21.6683 4.69998C21.4318 4.42138 21.1166 4.10613 20.7389 3.72843L20.7173 3.70691L20.2931 3.28265ZM17.8863 3.18984C17.9829 3.22125 18.1096 3.28871 18.3292 3.47515C18.5556 3.66727 18.8276 3.93854 19.2324 4.34331L19.6567 4.76757C20.0614 5.17234 20.3327 5.44443 20.5248 5.67074C20.7113 5.89036 20.7787 6.01705 20.8101 6.11371C20.8917 6.36477 20.8917 6.6352 20.8101 6.88625C20.7787 6.98292 20.7113 7.10961 20.5248 7.32922C20.3327 7.55553 20.0614 7.82763 19.6567 8.23239L19.2324 8.65666C18.8276 9.06143 18.5556 9.33269 18.3292 9.52482C18.1096 9.71126 17.9829 9.77872 17.8863 9.81012C17.6352 9.8917 17.3648 9.8917 17.1137 9.81012C17.0171 9.77872 16.8904 9.71126 16.6708 9.52482C16.4445 9.33269 16.1724 9.06143 15.7676 8.65666L15.3433 8.23239C14.9386 7.82763 14.6673 7.55553 14.4752 7.32922C14.2887 7.10961 14.2213 6.98292 14.1899 6.88625C14.1083 6.6352 14.1083 6.36477 14.1899 6.11371C14.2213 6.01705 14.2887 5.89036 14.4752 5.67074C14.6673 5.44443 14.9386 5.17234 15.3433 4.76757L15.7676 4.34331C16.1724 3.93854 16.4445 3.66727 16.6708 3.47515C16.8904 3.28871 17.0171 3.22125 17.1137 3.18984C17.3648 3.10827 17.6352 3.10827 17.8863 3.18984ZM6.2 2.24994L6.16957 2.24994C5.63541 2.24993 5.18956 2.24992 4.82533 2.27968C4.44545 2.31072 4.08879 2.37783 3.75153 2.54967C3.23408 2.81333 2.81338 3.23402 2.54973 3.75147C2.37789 4.08873 2.31078 4.44539 2.27974 4.82527C2.24998 5.1895 2.24999 5.63534 2.25 6.16949V6.16951V6.19994V6.79994V6.83038V6.8304C2.24999 7.36454 2.24998 7.81038 2.27974 8.17461C2.31078 8.5545 2.37789 8.91115 2.54973 9.24842C2.81338 9.76586 3.23408 10.1866 3.75153 10.4502C4.08879 10.6221 4.44545 10.6892 4.82533 10.7202C5.18957 10.75 5.63542 10.75 6.16957 10.7499H6.2H6.8H6.83043C7.36459 10.75 7.81044 10.75 8.17467 10.7202C8.55456 10.6892 8.91121 10.6221 9.24848 10.4502C9.76592 10.1866 10.1866 9.76586 10.4503 9.24842C10.6221 8.91115 10.6892 8.5545 10.7203 8.17461C10.75 7.81039 10.75 7.36455 10.75 6.83041V6.83037V6.79994V6.19994V6.16951V6.16947C10.75 5.63533 10.75 5.1895 10.7203 4.82527C10.6892 4.44539 10.6221 4.08873 10.4503 3.75147C10.1866 3.23402 9.76592 2.81333 9.24848 2.54967C8.91121 2.37783 8.55456 2.31072 8.17467 2.27968C7.81044 2.24992 7.36459 2.24993 6.83044 2.24994L6.8 2.24994H6.2ZM4.43251 3.88618C4.52307 3.84004 4.66036 3.79816 4.94748 3.7747C5.24336 3.75053 5.62757 3.74994 6.2 3.74994H6.8C7.37243 3.74994 7.75664 3.75053 8.05252 3.7747C8.33965 3.79816 8.47693 3.84004 8.56749 3.88618C8.80269 4.00603 8.99392 4.19725 9.11376 4.43245C9.1599 4.52301 9.20178 4.6603 9.22524 4.94742C9.24942 5.2433 9.25 5.62751 9.25 6.19994V6.79994C9.25 7.37237 9.24942 7.75659 9.22524 8.05246C9.20178 8.33959 9.1599 8.47687 9.11376 8.56743C8.99392 8.80263 8.80269 8.99386 8.56749 9.1137C8.47693 9.15984 8.33965 9.20173 8.05252 9.22518C7.75664 9.24936 7.37243 9.24994 6.8 9.24994H6.2C5.62757 9.24994 5.24336 9.24936 4.94748 9.22518C4.66036 9.20173 4.52307 9.15984 4.43251 9.1137C4.19731 8.99386 4.00608 8.80263 3.88624 8.56743C3.8401 8.47687 3.79822 8.33959 3.77476 8.05246C3.75058 7.75659 3.75 7.37237 3.75 6.79994V6.19994C3.75 5.62751 3.75058 5.2433 3.77476 4.94742C3.79822 4.6603 3.8401 4.52301 3.88624 4.43245C4.00608 4.19725 4.19731 4.00603 4.43251 3.88618ZM6.16957 13.2499H6.2H6.8H6.83044C7.36459 13.2499 7.81044 13.2499 8.17467 13.2797C8.55456 13.3107 8.91121 13.3778 9.24848 13.5497C9.76592 13.8133 10.1866 14.234 10.4503 14.7515C10.6221 15.0887 10.6892 15.4454 10.7203 15.8253C10.75 16.1895 10.75 16.6353 10.75 17.1695V17.1695V17.1999V17.7999V17.8304V17.8304C10.75 18.3645 10.75 18.8104 10.7203 19.1746C10.6892 19.5545 10.6221 19.9112 10.4503 20.2484C10.1866 20.7659 9.76592 21.1866 9.24848 21.4502C8.91121 21.6221 8.55456 21.6892 8.17467 21.7202C7.81046 21.75 7.36463 21.75 6.83051 21.7499H6.83043H6.8H6.2H6.16957H6.16949C5.63537 21.75 5.18955 21.75 4.82533 21.7202C4.44545 21.6892 4.08879 21.6221 3.75153 21.4502C3.23408 21.1866 2.81338 20.7659 2.54973 20.2484C2.37789 19.9112 2.31078 19.5545 2.27974 19.1746C2.24998 18.8104 2.24999 18.3645 2.25 17.8304V17.8304V17.7999V17.1999V17.1695V17.1695C2.24999 16.6353 2.24998 16.1895 2.27974 15.8253C2.31078 15.4454 2.37789 15.0887 2.54973 14.7515C2.81338 14.234 3.23408 13.8133 3.75153 13.5497C4.08879 13.3778 4.44545 13.3107 4.82533 13.2797C5.18956 13.2499 5.63541 13.2499 6.16957 13.2499ZM4.94748 14.7747C4.66036 14.7982 4.52307 14.84 4.43251 14.8862C4.19731 15.006 4.00608 15.1973 3.88624 15.4325C3.8401 15.523 3.79822 15.6603 3.77476 15.9474C3.75058 16.2433 3.75 16.6275 3.75 17.1999V17.7999C3.75 18.3724 3.75058 18.7566 3.77476 19.0525C3.79822 19.3396 3.8401 19.4769 3.88624 19.5674C4.00608 19.8026 4.19731 19.9939 4.43251 20.1137C4.52307 20.1598 4.66036 20.2017 4.94748 20.2252C5.24336 20.2494 5.62757 20.2499 6.2 20.2499H6.8C7.37243 20.2499 7.75664 20.2494 8.05252 20.2252C8.33965 20.2017 8.47693 20.1598 8.56749 20.1137C8.80269 19.9939 8.99392 19.8026 9.11376 19.5674C9.1599 19.4769 9.20178 19.3396 9.22524 19.0525C9.24942 18.7566 9.25 18.3724 9.25 17.7999V17.1999C9.25 16.6275 9.24942 16.2433 9.22524 15.9474C9.20178 15.6603 9.1599 15.523 9.11376 15.4325C8.99392 15.1973 8.80269 15.006 8.56749 14.8862C8.47693 14.84 8.33965 14.7982 8.05252 14.7747C7.75664 14.7505 7.37243 14.7499 6.8 14.7499H6.2C5.62757 14.7499 5.24336 14.7505 4.94748 14.7747ZM17.2 13.2499H17.1696C16.6354 13.2499 16.1896 13.2499 15.8253 13.2797C15.4454 13.3107 15.0888 13.3778 14.7515 13.5497C14.2341 13.8133 13.8134 14.234 13.5497 14.7515C13.3779 15.0887 13.3108 15.4454 13.2797 15.8253C13.25 16.1895 13.25 16.6354 13.25 17.1695V17.1999V17.7999V17.8304C13.25 18.3645 13.25 18.8104 13.2797 19.1746C13.3108 19.5545 13.3779 19.9112 13.5497 20.2484C13.8134 20.7659 14.2341 21.1866 14.7515 21.4502C15.0888 21.6221 15.4454 21.6892 15.8253 21.7202C16.1895 21.75 16.6354 21.75 17.1695 21.7499H17.1696H17.2H17.8H17.8304H17.8305C18.3646 21.75 18.8105 21.75 19.1747 21.7202C19.5546 21.6892 19.9112 21.6221 20.2485 21.4502C20.7659 21.1866 21.1866 20.7659 21.4503 20.2484C21.6221 19.9112 21.6892 19.5545 21.7203 19.1746C21.75 18.8104 21.75 18.3645 21.75 17.8304V17.7999V17.1999V17.1695C21.75 16.6354 21.75 16.1895 21.7203 15.8253C21.6892 15.4454 21.6221 15.0887 21.4503 14.7515C21.1866 14.234 20.7659 13.8133 20.2485 13.5497C19.9112 13.3778 19.5546 13.3107 19.1747 13.2797C18.8104 13.2499 18.3646 13.2499 17.8304 13.2499H17.8H17.2ZM15.4325 14.8862C15.5231 14.84 15.6604 14.7982 15.9475 14.7747C16.2434 14.7505 16.6276 14.7499 17.2 14.7499H17.8C18.3724 14.7499 18.7566 14.7505 19.0525 14.7747C19.3396 14.7982 19.4769 14.84 19.5675 14.8862C19.8027 15.006 19.9939 15.1973 20.1138 15.4325C20.1599 15.523 20.2018 15.6603 20.2252 15.9474C20.2494 16.2433 20.25 16.6275 20.25 17.1999V17.7999C20.25 18.3724 20.2494 18.7566 20.2252 19.0525C20.2018 19.3396 20.1599 19.4769 20.1138 19.5674C19.9939 19.8026 19.8027 19.9939 19.5675 20.1137C19.4769 20.1598 19.3396 20.2017 19.0525 20.2252C18.7566 20.2494 18.3724 20.2499 17.8 20.2499H17.2C16.6276 20.2499 16.2434 20.2494 15.9475 20.2252C15.6604 20.2017 15.5231 20.1598 15.4325 20.1137C15.1973 19.9939 15.0061 19.8026 14.8862 19.5674C14.8401 19.4769 14.7982 19.3396 14.7748 19.0525C14.7506 18.7566 14.75 18.3724 14.75 17.7999V17.1999C14.75 16.6275 14.7506 16.2433 14.7748 15.9474C14.7982 15.6603 14.8401 15.523 14.8862 15.4325C15.0061 15.1973 15.1973 15.006 15.4325 14.8862Z" fill="#18191A"/>
</svg>
