<svg width="24" height="24" viewBox="0 0 24 24" fill="none" xmlns="http://www.w3.org/2000/svg">
<path fill-rule="evenodd" clip-rule="evenodd" d="M4 3.75C3.58579 3.75 3.25 3.41421 3.25 3C3.25 2.58579 3.58579 2.25 4 2.25H20C20.4142 2.25 20.75 2.58579 20.75 3C20.75 3.41421 20.4142 3.75 20 3.75H4ZM5.46967 13.5302C5.76256 13.8231 6.23744 13.8231 6.53033 13.5302L11.25 8.81055V20.9999C11.25 21.4141 11.5858 21.7499 12 21.7499C12.4142 21.7499 12.75 21.4141 12.75 20.9999V8.81055L17.4697 13.5302C17.7626 13.8231 18.2374 13.8231 18.5303 13.5302C18.8232 13.2373 18.8232 12.7624 18.5303 12.4696L12.5311 6.47033L12.5295 6.46876L12 5.93923L11.4699 6.46936L11.4696 6.46966L5.46967 12.4696C5.17678 12.7624 5.17678 13.2373 5.46967 13.5302Z" fill="#18191A"/>
</svg>
