<svg width="24" height="24" viewBox="0 0 24 24" fill="none" xmlns="http://www.w3.org/2000/svg">
<path fill-rule="evenodd" clip-rule="evenodd" d="M8.5 2.25H8.4596C8.03373 2.24998 7.77444 2.24997 7.54886 2.26773C4.7292 2.48964 2.48964 4.7292 2.26773 7.54886C2.24997 7.77444 2.24998 8.03373 2.25 8.4596V8.5V9C2.25 9.41421 2.58579 9.75 3 9.75C3.41421 9.75 3.75 9.41421 3.75 9V8.5C3.75 8.02144 3.75058 7.82561 3.7631 7.66655C3.92712 5.58245 5.58245 3.92712 7.66655 3.7631C7.82561 3.75058 8.02144 3.75 8.5 3.75C8.97856 3.75 9.17439 3.75058 9.33345 3.7631C11.4175 3.92712 13.0729 5.58245 13.2369 7.66655C13.2494 7.82561 13.25 8.02144 13.25 8.5V19.1893L8.53033 14.4697C8.23744 14.1768 7.76256 14.1768 7.46967 14.4697C7.17678 14.7626 7.17678 15.2374 7.46967 15.5303L13.4697 21.5303L14 22.0607L14.5303 21.5303L20.5303 15.5303C20.8232 15.2374 20.8232 14.7626 20.5303 14.4697C20.2374 14.1768 19.7626 14.1768 19.4697 14.4697L14.75 19.1893V8.5L14.75 8.45961V8.45956C14.75 8.03372 14.75 7.77444 14.7323 7.54886C14.5104 4.7292 12.2708 2.48964 9.45114 2.26773C9.22556 2.24997 8.96627 2.24998 8.5404 2.25H8.5Z" fill="#18191A"/>
</svg>
