<svg width="24" height="24" viewBox="0 0 24 24" fill="none" xmlns="http://www.w3.org/2000/svg">
<g clip-path="url(#clip0_640_148)">
<path fill-rule="evenodd" clip-rule="evenodd" d="M0.469783 11.4697L-0.0605469 12L0.469783 12.5303L6.46978 18.5303C6.76268 18.8232 7.23755 18.8232 7.53044 18.5303C7.82334 18.2374 7.82334 17.7626 7.53044 17.4697L2.06077 12L7.53044 6.53033C7.82334 6.23744 7.82334 5.76256 7.53044 5.46967C7.23755 5.17678 6.76268 5.17678 6.46978 5.46967L0.469783 11.4697ZM23.5304 11.4697L24.0608 12L23.5304 12.5303L17.5304 18.5303C17.2376 18.8232 16.7627 18.8232 16.4698 18.5303C16.1769 18.2374 16.1769 17.7626 16.4698 17.4697L21.9395 12L16.4698 6.53033C16.1769 6.23744 16.1769 5.76256 16.4698 5.46967C16.7627 5.17678 17.2376 5.17678 17.5304 5.46967L23.5304 11.4697Z" fill="#18191A"/>
</g>
<defs>
<clipPath id="clip0_640_148">
<rect width="24" height="24" fill="white"/>
</clipPath>
</defs>
</svg>
