<svg width="24" height="24" viewBox="0 0 24 24" fill="none" xmlns="http://www.w3.org/2000/svg">
<path fill-rule="evenodd" clip-rule="evenodd" d="M7.46967 2.46954L8 1.93921L8.53033 2.46954L14.5303 8.46954C14.8232 8.76243 14.8232 9.23731 14.5303 9.5302C14.2374 9.82309 13.7626 9.82309 13.4697 9.5302L8.75 4.81053V15.5C8.75 15.9785 8.75058 16.1744 8.7631 16.3334C8.92712 18.4175 10.5825 20.0729 12.6666 20.2369C12.8256 20.2494 13.0214 20.25 13.5 20.25C13.9786 20.25 14.1744 20.2494 14.3335 20.2369C16.4176 20.0729 18.0729 18.4175 18.2369 16.3334C18.2494 16.1744 18.25 15.9785 18.25 15.5V15C18.25 14.5858 18.5858 14.25 19 14.25C19.4142 14.25 19.75 14.5858 19.75 15V15.5L19.75 15.5404V15.5405C19.75 15.9663 19.75 16.2256 19.7323 16.4511C19.5104 19.2708 17.2708 21.5103 14.4511 21.7323C14.2256 21.75 13.9663 21.75 13.5405 21.75H13.5404H13.5H13.4596H13.4595C13.0337 21.75 12.7744 21.75 12.5489 21.7323C9.7292 21.5103 7.48964 19.2708 7.26773 16.4511C7.24997 16.2255 7.24998 15.9663 7.25 15.5404V15.5404L7.25 15.5V4.81053L2.53033 9.5302C2.23744 9.82309 1.76256 9.82309 1.46967 9.5302C1.17678 9.23731 1.17678 8.76243 1.46967 8.46954L7.46967 2.46954Z" fill="#18191A"/>
</svg>
