<svg width="24" height="24" viewBox="0 0 24 24" fill="none" xmlns="http://www.w3.org/2000/svg">
<path fill-rule="evenodd" clip-rule="evenodd" d="M12 2.25C12.4142 2.25 12.75 2.58579 12.75 3V15.1893L17.4697 10.4697C17.7626 10.1768 18.2374 10.1768 18.5303 10.4697C18.8232 10.7626 18.8232 11.2374 18.5303 11.5303L12.5309 17.5297L12.5297 17.5309L12 18.0607L11.4697 17.5303L5.46967 11.5303C5.17678 11.2374 5.17678 10.7626 5.46967 10.4697C5.76256 10.1768 6.23744 10.1768 6.53033 10.4697L11.25 15.1893V3C11.25 2.58579 11.5858 2.25 12 2.25ZM4 20.25C3.58579 20.25 3.25 20.5858 3.25 21C3.25 21.4142 3.58579 21.75 4 21.75H20C20.4142 21.75 20.75 21.4142 20.75 21C20.75 20.5858 20.4142 20.25 20 20.25H4Z" fill="#18191A"/>
</svg>
