<svg width="24" height="24" viewBox="0 0 24 24" fill="none" xmlns="http://www.w3.org/2000/svg">
<path fill-rule="evenodd" clip-rule="evenodd" d="M12.5303 4.46978L12 3.93945L11.4697 4.46978L5.46967 10.4698C5.17678 10.7627 5.17678 11.2376 5.46967 11.5304C5.76256 11.8233 6.23744 11.8233 6.53033 11.5304L12 6.06077L17.4697 11.5304C17.7626 11.8233 18.2374 11.8233 18.5303 11.5304C18.8232 11.2376 18.8232 10.7627 18.5303 10.4698L12.5303 4.46978ZM12.5303 12.4698L12 11.9395L11.4697 12.4698L5.46967 18.4698C5.17678 18.7627 5.17678 19.2376 5.46967 19.5304C5.76256 19.8233 6.23744 19.8233 6.53033 19.5304L12 14.0608L17.4697 19.5304C17.7626 19.8233 18.2374 19.8233 18.5303 19.5304C18.8232 19.2376 18.8232 18.7627 18.5303 18.4698L12.5303 12.4698Z" fill="#18191A"/>
</svg>
