<svg width="24" height="24" viewBox="0 0 24 24" fill="none" xmlns="http://www.w3.org/2000/svg">
<path fill-rule="evenodd" clip-rule="evenodd" d="M2.46978 7.46967L1.93945 8L2.46978 8.53033L8.46978 14.5303C8.76268 14.8232 9.23755 14.8232 9.53044 14.5303C9.82334 14.2374 9.82334 13.7626 9.53044 13.4697L4.81078 8.75L16.5001 8.75C16.9787 8.75 17.1745 8.75058 17.3336 8.7631C19.4177 8.92712 21.073 10.5825 21.237 12.6666C21.2495 12.8256 21.2501 13.0214 21.2501 13.5C21.2501 13.9786 21.2495 14.1744 21.237 14.3335C21.073 16.4176 19.4177 18.0729 17.3336 18.2369C17.1745 18.2494 16.9787 18.25 16.5001 18.25H16.0001C15.5859 18.25 15.2501 18.5858 15.2501 19C15.2501 19.4142 15.5859 19.75 16.0001 19.75H16.5001L16.5405 19.75H16.5407C16.9664 19.75 17.2257 19.75 17.4513 19.7323C20.2709 19.5104 22.5105 17.2708 22.7324 14.4511C22.7501 14.2256 22.7501 13.9663 22.7501 13.5406V13.5404L22.7501 13.5L22.7501 13.4596V13.4594C22.7501 13.0337 22.7501 12.7744 22.7324 12.5489C22.5105 9.7292 20.2709 7.48964 17.4513 7.26773C17.2257 7.24997 16.9664 7.24998 16.5406 7.25H16.5405L16.5001 7.25L4.81077 7.25L9.53044 2.53033C9.82334 2.23744 9.82334 1.76256 9.53044 1.46967C9.23755 1.17678 8.76268 1.17678 8.46978 1.46967L2.46978 7.46967Z" fill="#18191A"/>
</svg>
