<svg width="24" height="24" viewBox="0 0 24 24" fill="none" xmlns="http://www.w3.org/2000/svg">
<path fill-rule="evenodd" clip-rule="evenodd" d="M13.5 2.25L13.5404 2.25H13.5405C13.9663 2.24998 14.2256 2.24998 14.4511 2.26773C17.2708 2.48964 19.5104 4.7292 19.7323 7.54886C19.75 7.77442 19.75 8.03367 19.75 8.45945V8.4596L19.75 8.5V9C19.75 9.41422 19.4142 9.75 19 9.75C18.5858 9.75 18.25 9.41422 18.25 9V8.5C18.25 8.02144 18.2494 7.82561 18.2369 7.66655C18.0729 5.58245 16.4176 3.92713 14.3335 3.7631C14.1744 3.75059 13.9786 3.75 13.5 3.75C13.0214 3.75 12.8256 3.75059 12.6666 3.7631C10.5825 3.92713 8.92712 5.58245 8.7631 7.66655C8.75058 7.82562 8.75 8.02144 8.75 8.5V19.1893L13.4697 14.4697C13.7626 14.1768 14.2374 14.1768 14.5303 14.4697C14.8232 14.7626 14.8232 15.2374 14.5303 15.5303L8.53033 21.5303L8 22.0607L7.46967 21.5303L1.46967 15.5303C1.17678 15.2374 1.17678 14.7626 1.46967 14.4697C1.76256 14.1768 2.23744 14.1768 2.53033 14.4697L7.25 19.1893V8.5L7.25 8.45961V8.45957C7.24998 8.03372 7.24997 7.77444 7.26773 7.54886C7.48964 4.7292 9.7292 2.48964 12.5489 2.26773C12.7744 2.24998 13.0337 2.24999 13.4595 2.25H13.4596L13.5 2.25Z" fill="#18191A"/>
</svg>
