<svg width="24" height="24" viewBox="0 0 24 24" fill="none" xmlns="http://www.w3.org/2000/svg">
<path fill-rule="evenodd" clip-rule="evenodd" d="M20.2498 19.9998C20.2498 20.414 20.5856 20.7498 20.9998 20.7498C21.414 20.7498 21.7498 20.414 21.7498 19.9998V3.99976C21.7498 3.58554 21.414 3.24976 20.9998 3.24976C20.5856 3.24976 20.2498 3.58554 20.2498 3.99976V19.9998ZM10.4698 5.46953C10.1769 5.76243 10.1769 6.2373 10.4698 6.53019L15.1892 11.2496H3C2.58579 11.2496 2.25 11.5854 2.25 11.9996C2.25 12.4138 2.58579 12.7496 3 12.7496H15.1897L10.4698 17.4695C10.1769 17.7624 10.1769 18.2373 10.4698 18.5302C10.7627 18.8231 11.2376 18.8231 11.5304 18.5302L17.5304 12.5302L18.0608 11.9999L17.5386 11.4777C17.5357 11.4747 17.5328 11.4718 17.5299 11.4688C17.5273 11.4662 17.5246 11.4636 17.522 11.461L11.5304 5.46953C11.2376 5.17664 10.7627 5.17664 10.4698 5.46953Z" fill="#18191A"/>
</svg>
