<svg width="24" height="24" viewBox="0 0 24 24" fill="none" xmlns="http://www.w3.org/2000/svg">
<path fill-rule="evenodd" clip-rule="evenodd" d="M4.46978 11.4697L3.93945 12L4.46978 12.5303L10.4698 18.5303C10.7627 18.8232 11.2376 18.8232 11.5304 18.5303C11.8233 18.2374 11.8233 17.7626 11.5304 17.4697L6.06077 12L11.5304 6.53033C11.8233 6.23744 11.8233 5.76256 11.5304 5.46967C11.2376 5.17678 10.7627 5.17678 10.4698 5.46967L4.46978 11.4697ZM12.4698 11.4697L11.9395 12L12.4698 12.5303L18.4698 18.5303C18.7627 18.8232 19.2376 18.8232 19.5304 18.5303C19.8233 18.2374 19.8233 17.7626 19.5304 17.4697L14.0608 12L19.5304 6.53033C19.8233 6.23744 19.8233 5.76256 19.5304 5.46967C19.2375 5.17678 18.7627 5.17678 18.4698 5.46967L12.4698 11.4697Z" fill="#18191A"/>
</svg>
