<svg width="24" height="24" viewBox="0 0 24 24" fill="none" xmlns="http://www.w3.org/2000/svg">
<path fill-rule="evenodd" clip-rule="evenodd" d="M3.75 19.9998C3.75 20.414 3.41421 20.7498 3 20.7498C2.58579 20.7498 2.25 20.414 2.25 19.9998V3.99976C2.25 3.58554 2.58579 3.24976 3 3.24976C3.41421 3.24976 3.75 3.58554 3.75 3.99976L3.75 19.9998ZM13.5302 18.5302C13.823 18.2373 13.823 17.7624 13.5302 17.4695L8.81073 12.7501H20.9997C21.4139 12.7501 21.7497 12.4143 21.7497 12.0001C21.7497 11.5859 21.4139 11.2501 20.9997 11.2501H8.81024L13.5302 6.53019C13.823 6.2373 13.823 5.76242 13.5302 5.46953C13.2373 5.17664 12.7624 5.17664 12.4695 5.46953L6.46949 11.4695L5.93916 11.9999L6.45574 12.5164C6.46471 12.5259 6.47393 12.5351 6.48338 12.5441L12.4695 18.5302C12.7624 18.8231 13.2373 18.8231 13.5302 18.5302Z" fill="#18191A"/>
</svg>
