<svg width="24" height="24" viewBox="0 0 24 24" fill="none" xmlns="http://www.w3.org/2000/svg">
<path fill-rule="evenodd" clip-rule="evenodd" d="M12.9393 12L13.4693 11.4701L13.4697 11.4697L13.4701 11.4692L17.4697 7.46967C17.7626 7.17678 18.2374 7.17678 18.5303 7.46967C18.8232 7.76256 18.8232 8.23744 18.5303 8.53033L15.8107 11.25H22C22.4142 11.25 22.75 11.5858 22.75 12C22.75 12.4142 22.4142 12.75 22 12.75H15.8107L18.5303 15.4697C18.8232 15.7626 18.8232 16.2374 18.5303 16.5303C18.2374 16.8232 17.7626 16.8232 17.4697 16.5303L13.4697 12.5303L13.4695 12.5301L12.9393 12ZM11.0607 12L10.5303 12.5303L10.53 12.5306L6.53033 16.5303C6.23744 16.8232 5.76256 16.8232 5.46967 16.5303C5.17678 16.2374 5.17678 15.7626 5.46967 15.4697L8.18934 12.75H2C1.58579 12.75 1.25 12.4142 1.25 12C1.25 11.5858 1.58579 11.25 2 11.25H8.18934L5.46967 8.53033C5.17678 8.23744 5.17678 7.76256 5.46967 7.46967C5.76256 7.17678 6.23744 7.17678 6.53033 7.46967L10.5297 11.4691L10.5309 11.4703L11.0607 12Z" fill="#18191A"/>
</svg>
