<svg width="24" height="24" viewBox="0 0 24 24" fill="none" xmlns="http://www.w3.org/2000/svg">
<path fill-rule="evenodd" clip-rule="evenodd" d="M8.53033 11.4697L9.06066 12L8.53033 12.5303L2.53033 18.5303C2.23744 18.8232 1.76256 18.8232 1.46967 18.5303C1.17678 18.2374 1.17678 17.7626 1.46967 17.4697L6.93934 12L1.46967 6.53033C1.17678 6.23744 1.17678 5.76256 1.46967 5.46967C1.76256 5.17678 2.23744 5.17678 2.53033 5.46967L8.53033 11.4697ZM15.4697 11.4697L14.9393 12L15.4697 12.5303L21.4697 18.5303C21.7626 18.8232 22.2374 18.8232 22.5303 18.5303C22.8232 18.2374 22.8232 17.7626 22.5303 17.4697L17.0607 12L22.5303 6.53033C22.8232 6.23744 22.8232 5.76256 22.5303 5.46967C22.2374 5.17678 21.7626 5.17678 21.4697 5.46967L15.4697 11.4697Z" fill="#18191A"/>
</svg>
