<svg width="24" height="24" viewBox="0 0 24 24" fill="none" xmlns="http://www.w3.org/2000/svg">
<path fill-rule="evenodd" clip-rule="evenodd" d="M2.25 10.5L2.25 10.4596V10.4596C2.24998 10.0337 2.24997 9.77443 2.26773 9.54886C2.48964 6.7292 4.7292 4.48964 7.54886 4.26773C7.77444 4.24997 8.03374 4.24998 8.4596 4.25H8.45961H8.5H9C9.41422 4.25 9.75 4.58579 9.75 5C9.75 5.41421 9.41422 5.75 9 5.75H8.5C8.02144 5.75 7.82561 5.75058 7.66655 5.7631C5.58245 5.92712 3.92713 7.58245 3.7631 9.66655C3.75058 9.82561 3.75 10.0214 3.75 10.5C3.75 10.9786 3.75058 11.1744 3.7631 11.3334C3.92713 13.4175 5.58245 15.0729 7.66655 15.2369C7.82561 15.2494 8.02144 15.25 8.5 15.25H19.1893L14.4697 10.5303C14.1768 10.2374 14.1768 9.76256 14.4697 9.46967C14.7626 9.17678 15.2374 9.17678 15.5303 9.46967L21.5295 15.4688C21.5301 15.4694 21.5306 15.47 21.5312 15.4706L22.0607 16L21.5307 16.5299C21.5304 16.5302 21.5301 16.5305 21.5298 16.5308L15.5303 22.5303C15.2374 22.8232 14.7626 22.8232 14.4697 22.5303C14.1768 22.2374 14.1768 21.7626 14.4697 21.4697L19.1893 16.75H8.5L8.45961 16.75H8.45957C8.03372 16.75 7.77444 16.75 7.54886 16.7323C4.7292 16.5104 2.48964 14.2708 2.26773 11.4511C2.24997 11.2256 2.24998 10.9663 2.25 10.5405V10.5404L2.25 10.5Z" fill="#18191A"/>
</svg>
