<svg width="24" height="24" viewBox="0 0 24 24" fill="none" xmlns="http://www.w3.org/2000/svg">
<path fill-rule="evenodd" clip-rule="evenodd" d="M12.0002 1.25C11.586 1.25 11.2502 1.58579 11.2502 2V8.18958L8.53033 5.46967C8.23744 5.17678 7.76256 5.17678 7.46967 5.46967C7.17678 5.76256 7.17678 6.23744 7.46967 6.53033L11.4697 10.5303L12 11.0607L12.519 10.5417C12.5268 10.5342 12.5344 10.5266 12.5419 10.5188L16.5303 6.53033C16.8232 6.23744 16.8232 5.76256 16.5303 5.46967C16.2374 5.17678 15.7626 5.17678 15.4697 5.46967L12.7502 8.1891V2C12.7502 1.58579 12.4145 1.25 12.0002 1.25ZM12.0002 12.9395L11.4699 13.4698L7.46991 17.4698C7.17702 17.7627 7.17702 18.2375 7.46991 18.5304C7.76281 18.8233 8.23768 18.8233 8.53057 18.5304L11.2502 15.8108V22.0001C11.2502 22.4143 11.586 22.7501 12.0002 22.7501C12.4145 22.7501 12.7502 22.4143 12.7502 22.0001V15.8108L15.4699 18.5304C15.7628 18.8233 16.2377 18.8233 16.5306 18.5304C16.8235 18.2375 16.8235 17.7627 16.5306 17.4698L12.531 13.4703L12.5301 13.4693L12.0002 12.9395Z" fill="#18191A"/>
</svg>
