<svg width="24" height="24" viewBox="0 0 24 24" fill="none" xmlns="http://www.w3.org/2000/svg">
<path fill-rule="evenodd" clip-rule="evenodd" d="M12 0.939453L11.4697 1.46978L7.46967 5.46978C7.17678 5.76268 7.17678 6.23755 7.46967 6.53044C7.76256 6.82334 8.23744 6.82334 8.53033 6.53044L11.2502 3.81053L11.2502 10.0001C11.2502 10.4143 11.586 10.7501 12.0002 10.7501C12.4145 10.7501 12.7502 10.4143 12.7502 10.0001L12.7502 3.81102L15.4697 6.53044C15.7626 6.82334 16.2374 6.82334 16.5303 6.53044C16.8232 6.23755 16.8232 5.76268 16.5303 5.46978L12.5419 1.48135C12.5344 1.47356 12.5268 1.46593 12.519 1.45846L12 0.939453ZM12.0002 23.0607L12.53 22.5309L12.5312 22.5297L16.5306 18.5303C16.8235 18.2374 16.8235 17.7626 16.5306 17.4697C16.2377 17.1768 15.7628 17.1768 15.4699 17.4697L12.7502 20.1893V14C12.7502 13.5858 12.4145 13.25 12.0002 13.25C11.586 13.25 11.2502 13.5858 11.2502 14V20.1893L8.53057 17.4697C8.23768 17.1768 7.76281 17.1768 7.46991 17.4697C7.17702 17.7626 7.17702 18.2374 7.46991 18.5303L11.4696 22.53L11.4699 22.5303L12.0002 23.0607Z" fill="#18191A"/>
</svg>
