<svg width="24" height="24" viewBox="0 0 24 24" fill="none" xmlns="http://www.w3.org/2000/svg">
<path fill-rule="evenodd" clip-rule="evenodd" d="M21.7501 10.5L21.7501 10.4596V10.4594C21.7501 10.0337 21.7501 9.77442 21.7324 9.54886C21.5105 6.7292 19.2709 4.48964 16.4513 4.26773C16.2257 4.24997 15.9664 4.24998 15.5405 4.25H15.5001H15.0001C14.5859 4.25 14.2501 4.58579 14.2501 5C14.2501 5.41421 14.5859 5.75 15.0001 5.75H15.5001C15.9787 5.75 16.1745 5.75058 16.3336 5.7631C18.4177 5.92712 20.073 7.58245 20.237 9.66655C20.2495 9.82561 20.2501 10.0214 20.2501 10.5C20.2501 10.9786 20.2495 11.1744 20.237 11.3334C20.073 13.4175 18.4177 15.0729 16.3336 15.2369C16.1745 15.2494 15.9787 15.25 15.5001 15.25H4.81078L9.53044 10.5303C9.82334 10.2374 9.82334 9.76256 9.53044 9.46967C9.23755 9.17678 8.76268 9.17678 8.46978 9.46967L2.4706 15.4688C2.47006 15.4694 2.46953 15.4699 2.46899 15.4705L1.93945 16L2.46978 16.5303L8.46978 22.5303C8.76268 22.8232 9.23755 22.8232 9.53044 22.5303C9.82334 22.2374 9.82334 21.7626 9.53044 21.4697L4.81077 16.75H15.5001L15.5405 16.75H15.5405C15.9664 16.75 16.2257 16.75 16.4513 16.7323C19.2709 16.5104 21.5105 14.2708 21.7324 11.4511C21.7501 11.2256 21.7501 10.9663 21.7501 10.5406V10.5404L21.7501 10.5Z" fill="#18191A"/>
</svg>
