<svg width="24" height="24" viewBox="0 0 24 24" fill="none" xmlns="http://www.w3.org/2000/svg">
<path fill-rule="evenodd" clip-rule="evenodd" d="M21.5303 7.46967L22.0607 8L21.5303 8.53033L15.5303 14.5303C15.2374 14.8232 14.7626 14.8232 14.4697 14.5303C14.1768 14.2374 14.1768 13.7626 14.4697 13.4697L19.1893 8.75L8.5 8.75C8.02144 8.75 7.82561 8.75058 7.66655 8.7631C5.58245 8.92712 3.92713 10.5825 3.7631 12.6666C3.75059 12.8256 3.75 13.0214 3.75 13.5C3.75 13.9786 3.75059 14.1744 3.7631 14.3335C3.92713 16.4176 5.58245 18.0729 7.66655 18.2369C7.82561 18.2494 8.02144 18.25 8.5 18.25H9C9.41422 18.25 9.75 18.5858 9.75 19C9.75 19.4142 9.41422 19.75 9 19.75H8.5H8.4596H8.45953C8.03371 19.75 7.77443 19.75 7.54886 19.7323C4.7292 19.5104 2.48964 17.2708 2.26773 14.4511C2.24997 14.2256 2.24999 13.9663 2.25 13.5404L2.25 13.5L2.25 13.4596C2.24999 13.0337 2.24997 12.7744 2.26773 12.5489C2.48964 9.7292 4.7292 7.48964 7.54886 7.26773C7.77443 7.24997 8.03371 7.24998 8.45955 7.25H8.45961L8.5 7.25L19.1893 7.25L14.4697 2.53033C14.1768 2.23744 14.1768 1.76256 14.4697 1.46967C14.7626 1.17678 15.2374 1.17678 15.5303 1.46967L21.5303 7.46967Z" fill="#1F222D"/>
</svg>
