<svg width="24" height="24" viewBox="0 0 24 24" fill="none" xmlns="http://www.w3.org/2000/svg">
<path fill-rule="evenodd" clip-rule="evenodd" d="M23.0603 12L22.5415 11.4812C22.534 11.4734 22.5264 11.4658 22.5187 11.4584L18.53 7.46967C18.2371 7.17678 17.7622 7.17678 17.4693 7.46967C17.1764 7.76256 17.1764 8.23744 17.4693 8.53033L20.189 11.25L13.9999 11.25C13.5857 11.25 13.2499 11.5858 13.2499 12C13.2499 12.4142 13.5857 12.75 13.9999 12.75L20.189 12.75L17.4693 15.4697C17.1764 15.7626 17.1764 16.2374 17.4693 16.5303C17.7622 16.8232 18.2371 16.8232 18.53 16.5303L22.5186 12.5416C22.5264 12.5342 22.534 12.5266 22.5415 12.5188L23.0603 12ZM0.938965 12L1.46929 11.4697L5.46929 7.46967C5.76219 7.17678 6.23706 7.17678 6.52995 7.46967C6.82285 7.76256 6.82285 8.23744 6.52995 8.53033L3.81029 11.25L9.99987 11.25C10.4141 11.25 10.7499 11.5858 10.7499 12C10.7499 12.4142 10.4141 12.75 9.99987 12.75L3.81028 12.75L6.52995 15.4697C6.82285 15.7626 6.82285 16.2374 6.52995 16.5303C6.23706 16.8232 5.76219 16.8232 5.46929 16.5303L1.46929 12.5303L0.938965 12Z" fill="#18191A"/>
</svg>
