<svg width="24" height="24" viewBox="0 0 24 24" fill="none" xmlns="http://www.w3.org/2000/svg">
<path fill-rule="evenodd" clip-rule="evenodd" d="M4.75 11C4.75 11.4142 4.41421 11.75 4 11.75C3.58579 11.75 3.25 11.4142 3.25 11V4V3.25H4H11C11.4142 3.25 11.75 3.58579 11.75 4C11.75 4.41421 11.4142 4.75 11 4.75H4.75V11ZM19.25 13C19.25 12.5858 19.5858 12.25 20 12.25C20.4142 12.25 20.75 12.5858 20.75 13V20V20.75H20H13C12.5858 20.75 12.25 20.4142 12.25 20C12.25 19.5858 12.5858 19.25 13 19.25H19.25V13Z" fill="#18191A"/>
</svg>
