<svg width="24" height="24" viewBox="0 0 24 24" fill="none" xmlns="http://www.w3.org/2000/svg">
<path fill-rule="evenodd" clip-rule="evenodd" d="M18.25 2.00001C18.25 1.77252 18.1467 1.55732 17.9693 1.41498C17.7918 1.27263 17.5594 1.21852 17.3373 1.26787C14.7202 1.84943 13.4074 3.90754 13.1918 5.92011C13.0088 7.62805 13.6162 9.53145 15.1026 10.411L14.2789 13.294C14.2477 13.4034 14.2417 13.5184 14.2615 13.6304L15.6521 21.5107C15.7786 22.2275 16.4014 22.75 17.1293 22.75H17.8708C18.5987 22.75 19.2215 22.2275 19.348 21.5107L20.7386 13.6304C20.7584 13.5184 20.7524 13.4033 20.7212 13.294L19.8698 10.3143C20.9808 9.45804 21.3952 8.33793 21.2425 7.26895C21.0798 6.13033 20.2732 5.13382 19.2372 4.78849C18.9315 4.68659 18.7536 4.57611 18.6424 4.47312C18.5371 4.37567 18.4589 4.25503 18.399 4.07533C18.2591 3.65557 18.25 3.05128 18.25 2.00001ZM15.9943 12.75L16.5657 10.75H18.4343L19.0057 12.75H15.9943ZM19.7575 7.48107C19.83 7.98817 19.6617 8.65901 18.7825 9.25003H16.1328C15.157 8.85459 14.522 7.58513 14.6832 6.07991C14.8147 4.85294 15.4754 3.65696 16.7596 3.04086C16.7777 3.59568 16.8293 4.10974 16.976 4.54968C17.1036 4.93248 17.3066 5.28059 17.6233 5.57377C17.9339 5.86141 18.3186 6.06342 18.7628 6.21152C19.2269 6.36619 19.6702 6.86969 19.7575 7.48107ZM15.894 14.25H19.1061L17.8708 21.25H17.1293L15.894 14.25ZM7.13336 1.59831C6.9958 1.38142 6.75683 1.25001 6.5 1.25001C6.24317 1.25001 6.0042 1.38142 5.86665 1.59831L2.36665 7.1167C2.22713 7.33668 2.21174 7.61329 2.326 7.84738L4.00444 11.2861C3.27881 11.448 2.76 12.1342 2.84162 12.9075L3.73884 21.4075C3.81941 22.1707 4.46309 22.75 5.23056 22.75H7.76945C8.53692 22.75 9.1806 22.1707 9.26116 21.4075L10.1584 12.9075C10.24 12.1342 9.7212 11.448 8.99556 11.2861L10.674 7.84738C10.7883 7.61329 10.7729 7.33668 10.6334 7.1167L7.13336 1.59831ZM7.34401 11.25H5.656L3.85787 7.56612L5.75 4.58282V7.5184C5.75 7.93262 6.08579 8.2684 6.5 8.2684C6.91422 8.2684 7.25 7.93262 7.25 7.5184V4.58282L9.14214 7.56612L7.34401 11.25ZM4.33333 12.75H5.1875H7.8125H8.66667L7.76945 21.25L5.23056 21.25L4.33333 12.75Z" fill="#18191A"/>
</svg>
