<svg width="24" height="24" viewBox="0 0 24 24" fill="none" xmlns="http://www.w3.org/2000/svg">
<path fill-rule="evenodd" clip-rule="evenodd" d="M11 3.25C9.56548 3.25 8.3875 4.34838 8.2612 5.75H15.7388C15.6125 4.34838 14.4345 3.25 13 3.25H11ZM11 1.75C8.7367 1.75 6.88662 3.51916 6.75722 5.75H5.50006C3.43062 5.75 1.75557 7.43207 1.76392 9.5012L1.75775 14.5914L1.75771 14.6244C1.75638 15.7177 1.75533 16.5842 1.81156 17.2826C1.86907 17.9967 1.99012 18.601 2.27073 19.1529C2.72572 20.0478 3.45254 20.7754 4.34684 21.2315C4.89838 21.5128 5.50255 21.6346 6.21663 21.693C6.91493 21.75 7.78134 21.75 8.87467 21.75H8.87474H8.90775H15.1H15.133H15.1331C16.2252 21.75 17.0907 21.75 17.7883 21.693C18.5017 21.6348 19.1053 21.5132 19.6565 21.2323C20.5502 20.7769 21.2769 20.0503 21.7323 19.1565C22.0131 18.6053 22.1347 18.0017 22.193 17.2883C22.25 16.5907 22.25 15.7252 22.25 14.6331V14.6V9.5C22.25 7.42893 20.5711 5.75 18.5 5.75H17.2428C17.1134 3.51916 15.2633 1.75 13 1.75H11ZM3.26202 11.0678L3.25775 14.5932C3.25638 15.7269 3.25599 16.5321 3.30672 17.1622C3.35676 17.7835 3.45282 18.1682 3.60781 18.473C3.91913 19.0853 4.41642 19.5832 5.02831 19.8953C5.33295 20.0506 5.71754 20.1472 6.33883 20.1979C6.96888 20.2495 7.77403 20.25 8.90775 20.25H15.1C16.2325 20.25 17.0367 20.2495 17.6661 20.198C18.2868 20.1473 18.671 20.0509 18.9755 19.8958C19.587 19.5842 20.0842 19.087 20.3958 18.4755C20.5509 18.171 20.6473 17.7868 20.698 17.1662C20.7494 16.5368 20.75 15.7325 20.75 14.6V11.0706C17.9497 13.1655 14.9983 14.2438 12.0076 14.243C9.01607 14.2422 6.06359 13.1617 3.26202 11.0678ZM20.7267 9.17464C20.569 8.08618 19.6322 7.25 18.5 7.25H5.50006C4.37088 7.25 3.43789 8.08673 3.28564 9.17291C6.15483 11.581 9.10579 12.7422 12.008 12.743C14.9095 12.7438 17.8592 11.5846 20.7267 9.17464ZM12.75 16C12.75 15.5858 12.4142 15.25 12 15.25C11.5858 15.25 11.25 15.5858 11.25 16V18C11.25 18.4142 11.5858 18.75 12 18.75C12.4142 18.75 12.75 18.4142 12.75 18V16Z" fill="#18191A"/>
</svg>
