<svg width="24" height="24" viewBox="0 0 24 24" fill="none" xmlns="http://www.w3.org/2000/svg">
<path fill-rule="evenodd" clip-rule="evenodd" d="M12.0001 1.25C10.112 1.25 8.43285 1.78956 7.21068 2.79605C5.97688 3.81212 5.24996 5.27368 5.24989 6.99997L5.24989 7.06208L5.25973 7.1211L5.25982 7.12165L5.26004 7.12305L5.2624 7.13916C5.26467 7.15521 5.2682 7.18165 5.27228 7.21754C5.28044 7.28939 5.29078 7.39857 5.29773 7.53749C5.31169 7.81639 5.31172 8.20915 5.25575 8.65699C5.1429 9.55999 4.81077 10.6285 3.96958 11.4696C2.66985 12.7693 2.5529 14.9416 3.85083 16.6961C5.153 18.4562 7.80214 19.75 12.0001 19.75C16.198 19.75 18.8471 18.4562 20.1492 16.696C21.4471 14.9416 21.33 12.7692 20.0303 11.4696C19.1891 10.6285 18.857 9.55999 18.7442 8.65699C18.6882 8.20915 18.6882 7.81639 18.7022 7.53749C18.7091 7.39857 18.7195 7.28939 18.7276 7.21754C18.7317 7.18165 18.7352 7.15521 18.7375 7.13916L18.7399 7.12305L18.7399 7.12283L18.74 7.12239L18.7401 7.12169L18.7401 7.12162L18.7401 7.12138L18.7402 7.1211L18.75 7.0621V7C18.75 5.27371 18.0232 3.81214 16.7894 2.79606C15.5672 1.78956 13.8881 1.25 12.0001 1.25ZM15.8358 3.95394C16.7147 4.67777 17.2356 5.69779 17.2497 6.94759C17.2461 6.97425 17.2418 7.00792 17.2372 7.04809C17.2259 7.14811 17.2127 7.28893 17.2041 7.46251C17.1867 7.80861 17.1867 8.29085 17.2557 8.84301C17.3928 9.94001 17.8107 11.3715 18.9697 12.5304C19.6702 13.2308 19.8647 14.5584 18.9433 15.804C18.0261 17.0438 15.9252 18.25 12.0001 18.25C8.07495 18.25 5.97392 17.0438 5.05671 15.8039C4.13526 14.5584 4.32974 13.2307 5.03019 12.5304C6.1892 11.3715 6.60707 9.94001 6.74417 8.84301C6.81318 8.29085 6.81317 7.80861 6.79585 7.46251C6.78717 7.28893 6.77405 7.14811 6.76267 7.04809C6.75811 7.00793 6.75381 6.97426 6.75019 6.94761C6.7644 5.69781 7.28529 4.67779 8.16424 3.95395C9.06708 3.21044 10.3879 2.75 12.0001 2.75C13.6122 2.75 14.933 3.21044 15.8358 3.95394ZM12 21C11 21 10 21 10 21.6667C10 22.3333 11 23 12 23C13 23 14 22.3333 14 21.6667C14 21 13 21 12 21Z" fill="#18191A"/>
</svg>
