<svg width="24" height="24" viewBox="0 0 24 24" fill="none" xmlns="http://www.w3.org/2000/svg">
<path d="M2.53033 1.46967C2.23744 1.17678 1.76256 1.17678 1.46967 1.46967C1.17678 1.76256 1.17678 2.23744 1.46967 2.53033L2.53033 1.46967ZM21.4697 22.5303C21.7626 22.8232 22.2374 22.8232 22.5303 22.5303C22.8232 22.2374 22.8232 21.7626 22.5303 21.4697L21.4697 22.5303ZM5.99987 7L5.24987 6.99997L5.24987 7.06208L5.26008 7.12334L5.99987 7ZM18 7L18.7398 7.12334L18.75 7.0621V7H18ZM19.5 12L20.0303 11.4696L19.5 12ZM17.7659 17.7659L18.2962 17.2356L17.7659 17.7659ZM8.13767 2.16882C7.775 2.36893 7.64322 2.82515 7.84333 3.18782C8.04344 3.55049 8.49966 3.68227 8.86233 3.48216L8.13767 2.16882ZM19.5301 14.4709C19.4614 14.8794 19.7369 15.2662 20.1454 15.3348C20.5539 15.4034 20.9407 15.1279 21.0093 14.7195L19.5301 14.4709ZM6.08216 6.08216L6.61249 5.55183L6.08216 6.08216ZM5.99987 7C5.26008 7.12334 5.26004 7.12308 5.26 7.12283C5.25999 7.12276 5.25995 7.12252 5.25992 7.12239C5.25988 7.12211 5.25984 7.12188 5.25981 7.12169C5.25975 7.12132 5.25972 7.12112 5.25971 7.1211C5.25971 7.12106 5.25981 7.12171 5.26002 7.12305C5.26043 7.12573 5.26125 7.13114 5.26238 7.13916C5.26465 7.15521 5.26818 7.18165 5.27226 7.21754C5.28043 7.28939 5.29076 7.39857 5.29771 7.53749C5.31167 7.81639 5.3117 8.20915 5.25573 8.65699C5.14288 9.55999 4.81075 10.6285 3.96957 11.4696L5.03018 12.5304C6.18918 11.3715 6.60705 9.94001 6.74415 8.84301C6.81316 8.29085 6.81316 7.80861 6.79584 7.46251C6.78715 7.28893 6.77403 7.14811 6.76266 7.04809C6.75697 6.99804 6.7517 6.95807 6.74762 6.9292C6.74558 6.91476 6.74383 6.90308 6.74247 6.89428C6.74179 6.88989 6.74121 6.88621 6.74074 6.88326C6.7405 6.88179 6.74029 6.88051 6.74011 6.8794C6.74002 6.87885 6.73994 6.87835 6.73986 6.87789C6.73983 6.87766 6.73978 6.87735 6.73976 6.87724C6.73971 6.87694 6.73966 6.87666 5.99987 7ZM3.96957 11.4696C2.66983 12.7693 2.55289 14.9416 3.85081 16.6961C5.15298 18.4562 7.80212 19.75 12 19.75V18.25C8.07494 18.25 5.9739 17.0438 5.05669 15.8039C4.13524 14.5584 4.32972 13.2307 5.03018 12.5304L3.96957 11.4696ZM18 7C17.2602 6.87666 17.2602 6.87694 17.2601 6.87724C17.2601 6.87735 17.26 6.87766 17.26 6.87789C17.2599 6.87835 17.2599 6.87885 17.2598 6.8794C17.2596 6.88051 17.2594 6.88179 17.2591 6.88326C17.2587 6.88621 17.2581 6.88989 17.2574 6.89428C17.256 6.90308 17.2543 6.91476 17.2523 6.9292C17.2482 6.95807 17.2429 6.99804 17.2372 7.04809C17.2258 7.14811 17.2127 7.28893 17.204 7.46251C17.1867 7.80861 17.1867 8.29085 17.2557 8.84301C17.3928 9.94001 17.8107 11.3715 18.9697 12.5304L20.0303 11.4696C19.1891 10.6285 18.857 9.55999 18.7441 8.65699C18.6882 8.20915 18.6882 7.81639 18.7022 7.53749C18.7091 7.39857 18.7194 7.28939 18.7276 7.21754C18.7317 7.18165 18.7352 7.15521 18.7375 7.13916C18.7386 7.13114 18.7394 7.12573 18.7399 7.12305C18.7401 7.12171 18.7402 7.12106 18.7402 7.1211C18.7402 7.12112 18.7401 7.12132 18.7401 7.12169C18.74 7.12188 18.74 7.12211 18.7399 7.12239C18.7399 7.12252 18.7399 7.12276 18.7399 7.12283C18.7398 7.12308 18.7398 7.12334 18 7ZM12 2.75C13.6122 2.75 14.933 3.21044 15.8358 3.95394C16.727 4.68786 17.25 5.72629 17.25 7H18.75C18.75 5.27371 18.0231 3.81214 16.7894 2.79606C15.5672 1.78956 13.8881 1.25 12 1.25V2.75ZM17.4003 17.1111C16.2146 17.7732 14.4616 18.25 12 18.25V19.75C14.6462 19.75 16.6674 19.2384 18.1316 18.4207L17.4003 17.1111ZM17.2356 18.2962L21.4697 22.5303L22.5303 21.4697L18.2962 17.2356L17.2356 18.2962ZM12 1.25C10.5507 1.25 9.2277 1.56737 8.13767 2.16882L8.86233 3.48216C9.69898 3.02052 10.7656 2.75 12 2.75V1.25ZM18.9697 12.5304C19.4273 12.9879 19.661 13.6915 19.5301 14.4709L21.0093 14.7195C21.2137 13.5029 20.8596 12.2988 20.0303 11.4696L18.9697 12.5304ZM5.34461 5.94604C5.28182 6.28626 5.24989 6.6382 5.24987 6.99997L6.74987 7.00003C6.74988 6.72671 6.77399 6.46596 6.8197 6.21827L5.34461 5.94604ZM1.46967 2.53033L5.55183 6.61249L6.61249 5.55183L2.53033 1.46967L1.46967 2.53033ZM5.55183 6.61249L17.2356 18.2962L18.2962 17.2356L6.61249 5.55183L5.55183 6.61249Z" fill="#18191A"/>
<path d="M10 21.6667C10 21 11 21 12 21C13 21 14 21 14 21.6667C14 22.3333 13 23 12 23C11 23 10 22.3333 10 21.6667Z" fill="#18191A"/>
</svg>
