<svg width="24" height="24" viewBox="0 0 24 24" fill="none" xmlns="http://www.w3.org/2000/svg">
<path fill-rule="evenodd" clip-rule="evenodd" d="M20.4697 2.46967C20.7626 2.17678 21.2374 2.17678 21.5303 2.46967C21.8232 2.76256 21.8232 3.23744 21.5303 3.53033L19.0607 6L21.5303 8.46967C21.8232 8.76256 21.8232 9.23744 21.5303 9.53033C21.2374 9.82322 20.7626 9.82322 20.4697 9.53033L18 7.06066L15.5303 9.53033C15.2374 9.82322 14.7626 9.82322 14.4697 9.53033C14.1768 9.23744 14.1768 8.76256 14.4697 8.46967L16.9393 6L14.4697 3.53033C14.1768 3.23744 14.1768 2.76256 14.4697 2.46967C14.7626 2.17678 15.2374 2.17678 15.5303 2.46967L18 4.93934L20.4697 2.46967ZM9 5.25C9.41421 5.25 9.75 5.58579 9.75 6C9.75 6.41421 9.41421 6.75 9 6.75H3C2.58579 6.75 2.25 6.41421 2.25 6C2.25 5.58579 2.58579 5.25 3 5.25H9ZM6 13.75C6.41421 13.75 6.75 14.0858 6.75 14.5V17.25H9.5C9.91421 17.25 10.25 17.5858 10.25 18C10.25 18.4142 9.91421 18.75 9.5 18.75H6.75V21.5C6.75 21.9142 6.41421 22.25 6 22.25C5.58579 22.25 5.25 21.9142 5.25 21.5V18.75H2.5C2.08579 18.75 1.75 18.4142 1.75 18C1.75 17.5858 2.08579 17.25 2.5 17.25H5.25V14.5C5.25 14.0858 5.58579 13.75 6 13.75ZM15 15.25C14.5858 15.25 14.25 15.5858 14.25 16C14.25 16.4142 14.5858 16.75 15 16.75H21C21.4142 16.75 21.75 16.4142 21.75 16C21.75 15.5858 21.4142 15.25 21 15.25H15ZM15 19.25C14.5858 19.25 14.25 19.5858 14.25 20C14.25 20.4142 14.5858 20.75 15 20.75H21C21.4142 20.75 21.75 20.4142 21.75 20C21.75 19.5858 21.4142 19.25 21 19.25H15Z" fill="#B9C3CD"/>
</svg>
