<svg width="24" height="24" viewBox="0 0 24 24" fill="none" xmlns="http://www.w3.org/2000/svg">
<path fill-rule="evenodd" clip-rule="evenodd" d="M5.8 4.25H5.7679H5.76788C4.95504 4.24999 4.29944 4.24999 3.76853 4.29336C3.2219 4.33803 2.74175 4.43239 2.29754 4.65873C1.59193 5.01825 1.01825 5.59193 0.658726 6.29754C0.432385 6.74175 0.338026 7.2219 0.293364 7.76853C0.249987 8.29944 0.249993 8.95505 0.25 9.76788V9.7679V9.8V14.2V14.2321V14.2321C0.249993 15.045 0.249987 15.7006 0.293364 16.2315C0.338026 16.7781 0.432385 17.2582 0.658726 17.7025C1.01825 18.4081 1.59193 18.9817 2.29754 19.3413C2.74175 19.5676 3.2219 19.662 3.76853 19.7066C4.29944 19.75 4.95505 19.75 5.76788 19.75H5.8H11.2H11.2321C12.045 19.75 12.7006 19.75 13.2315 19.7066C13.7781 19.662 14.2582 19.5676 14.7025 19.3413C15.4081 18.9817 15.9817 18.4081 16.3413 17.7025C16.5676 17.2582 16.662 16.7781 16.7066 16.2315C16.75 15.7006 16.75 15.0449 16.75 14.2321V14.2V9.8V9.76793C16.75 8.95507 16.75 8.29945 16.7066 7.76853C16.662 7.2219 16.5676 6.74175 16.3413 6.29754C15.9817 5.59193 15.4081 5.01825 14.7025 4.65873C14.2582 4.43239 13.7781 4.33803 13.2315 4.29336C12.7006 4.24999 12.045 4.24999 11.2321 4.25H11.2321H11.2H5.8ZM2.97852 5.99524C3.17604 5.8946 3.4368 5.82547 3.89068 5.78838C4.35331 5.75058 4.94755 5.75 5.8 5.75H11.2C12.0525 5.75 12.6467 5.75058 13.1093 5.78838C13.5632 5.82547 13.824 5.8946 14.0215 5.99524C14.4448 6.21095 14.789 6.55516 15.0048 6.97852C15.1054 7.17604 15.1745 7.43681 15.2116 7.89068C15.2494 8.35331 15.25 8.94755 15.25 9.8V14.2C15.25 15.0525 15.2494 15.6467 15.2116 16.1093C15.1745 16.5632 15.1054 16.824 15.0048 17.0215C14.789 17.4448 14.4448 17.789 14.0215 18.0048C13.824 18.1054 13.5632 18.1745 13.1093 18.2116C12.6467 18.2494 12.0525 18.25 11.2 18.25H5.8C4.94755 18.25 4.35331 18.2494 3.89068 18.2116C3.4368 18.1745 3.17604 18.1054 2.97852 18.0048C2.55516 17.789 2.21095 17.4448 1.99524 17.0215C1.8946 16.824 1.82547 16.5632 1.78838 16.1093C1.75058 15.6467 1.75 15.0525 1.75 14.2V9.8C1.75 8.94755 1.75058 8.35331 1.78838 7.89068C1.82547 7.43681 1.8946 7.17604 1.99524 6.97852C2.21095 6.55516 2.55516 6.21095 2.97852 5.99524ZM23.75 8.74104C23.75 7.3904 22.2849 6.54888 21.1182 7.22942L19.1182 8.39609C18.5806 8.70971 18.25 9.28529 18.25 9.9077V14.0923C18.25 14.7147 18.5806 15.2903 19.1182 15.6039L21.1182 16.7706C22.2849 17.4511 23.75 16.6096 23.75 15.259V8.74104ZM21.874 8.52509C22.0407 8.42787 22.25 8.54809 22.25 8.74104V15.259C22.25 15.4519 22.0407 15.5721 21.874 15.4749L19.874 14.3082C19.7972 14.2634 19.75 14.1812 19.75 14.0923V9.9077C19.75 9.81879 19.7972 9.73656 19.874 9.69176L21.874 8.52509Z" fill="#1D1E1F"/>
</svg>
