<svg width="24" height="24" viewBox="0 0 24 24" fill="none" xmlns="http://www.w3.org/2000/svg">
<path fill-rule="evenodd" clip-rule="evenodd" d="M2.53038 1.46967C2.23749 1.17678 1.76261 1.17678 1.46972 1.46967C1.17683 1.76256 1.17683 2.23744 1.46972 2.53033L3.26511 4.32573C3.18406 4.34016 3.10576 4.35734 3.02948 4.37778C1.73538 4.72453 0.724579 5.73533 0.377828 7.02943C0.249571 7.50809 0.249755 8.06624 0.250024 8.8842L0.250049 9V14.2L0.250049 14.2321C0.250042 15.0449 0.250036 15.7006 0.293413 16.2315C0.338075 16.7781 0.432434 17.2582 0.658775 17.7025C1.0183 18.4081 1.59198 18.9817 2.29759 19.3413C2.7418 19.5676 3.22194 19.662 3.76858 19.7066C4.29949 19.75 4.95509 19.75 5.76793 19.75H5.80005H13C14.5382 19.75 15.86 18.824 16.4384 17.499L21.4697 22.5303C21.7626 22.8232 22.2375 22.8232 22.5304 22.5303C22.8233 22.2374 22.8233 21.7626 22.5304 21.4697L16.5304 15.4697L5.53038 4.46967L2.53038 1.46967ZM3.41771 5.82667C3.64994 5.76444 3.94492 5.75229 4.68972 5.75034L15.2313 16.2919C15.0882 17.3966 14.1438 18.25 13 18.25H5.80005C4.9476 18.25 4.35336 18.2494 3.89073 18.2116C3.43685 18.1745 3.17609 18.1054 2.97857 18.0048C2.55521 17.789 2.211 17.4448 1.99528 17.0215C1.89464 16.824 1.82551 16.5632 1.78843 16.1093C1.75063 15.6467 1.75005 15.0525 1.75005 14.2V9C1.75005 8.02174 1.75649 7.67974 1.82672 7.41766C2.03477 6.6412 2.64125 6.03472 3.41771 5.82667ZM11.2 5.75C12.0525 5.75 12.6467 5.75058 13.1094 5.78838C13.5632 5.82546 13.824 5.8946 14.0215 5.99524C14.4449 6.21095 14.7891 6.55516 15.0048 6.97852C15.1055 7.17604 15.1746 7.4368 15.2117 7.89068C15.2495 8.35331 15.25 8.94755 15.25 9.8V11.5H16.75V9.8V9.76788C16.7501 8.95505 16.7501 8.29944 16.7067 7.76853C16.662 7.22189 16.5677 6.74175 16.3413 6.29754C15.9818 5.59193 15.4081 5.01825 14.7025 4.65873C14.2583 4.43238 13.7782 4.33803 13.2315 4.29336C12.7006 4.24999 12.045 4.24999 11.2321 4.25H11.2H9.50005V5.75H11.2ZM23.75 8.74104C23.75 7.3904 22.2849 6.54888 21.1183 7.22942L19.1183 8.39609C18.5806 8.70971 18.25 9.28529 18.25 9.9077V14.0923C18.25 14.7147 18.5806 15.2903 19.1183 15.6039L21.1183 16.7706C22.2849 17.4511 23.75 16.6096 23.75 15.259V8.74104ZM21.8741 8.52509C22.0407 8.42787 22.25 8.54809 22.25 8.74104V15.259C22.25 15.4519 22.0407 15.5721 21.8741 15.4749L19.8741 14.3082C19.7973 14.2634 19.75 14.1812 19.75 14.0923V9.9077C19.75 9.81879 19.7973 9.73656 19.8741 9.69176L21.8741 8.52509Z" fill="#1D1E1F"/>
</svg>
