<svg width="24" height="24" viewBox="0 0 24 24" fill="none" xmlns="http://www.w3.org/2000/svg">
<path fill-rule="evenodd" clip-rule="evenodd" d="M12.25 1C12.25 0.861929 12.1381 0.75 12 0.75C11.8619 0.75 11.75 0.861929 11.75 1L11.75 11.25H10.5C9.5335 11.25 8.75 12.0335 8.75 13V14C8.75 14.9665 9.5335 15.75 10.5 15.75H11.75V19C11.75 19.1381 11.8619 19.25 12 19.25C12.1381 19.25 12.25 19.1381 12.25 19V15.75H13.5C14.4665 15.75 15.25 14.9665 15.25 14V13C15.25 12.0335 14.4665 11.25 13.5 11.25H12.25L12.25 1ZM19.75 11.75H18.5C17.5335 11.75 16.75 10.9665 16.75 10V3C16.75 2.0335 17.5335 1.25 18.5 1.25H21.5C22.4665 1.25 23.25 2.0335 23.25 3V10C23.25 10.9665 22.4665 11.75 21.5 11.75H20.25V14C20.25 14.1381 20.1381 14.25 20 14.25C19.8619 14.25 19.75 14.1381 19.75 14V11.75ZM4.25 7C4.25 6.86193 4.13807 6.75 4 6.75C3.86193 6.75 3.75 6.86193 3.75 7L3.75 7.64286V9.25H2.5C1.5335 9.25 0.75 10.0335 0.75 11V18C0.75 18.9665 1.5335 19.75 2.5 19.75H3.75V22C3.75 22.1381 3.86193 22.25 4 22.25C4.13807 22.25 4.25 22.1381 4.25 22V19.75H5.5C6.4665 19.75 7.25 18.9665 7.25 18V11C7.25 10.0335 6.4665 9.25 5.5 9.25H4.25V7.64286L4.25 7ZM18.25 3C18.25 2.86193 18.3619 2.75 18.5 2.75H21.5C21.6381 2.75 21.75 2.86193 21.75 3V10C21.75 10.1381 21.6381 10.25 21.5 10.25H18.5C18.3619 10.25 18.25 10.1381 18.25 10V3ZM10.5 12.75C10.3619 12.75 10.25 12.8619 10.25 13V14C10.25 14.1381 10.3619 14.25 10.5 14.25H13.5C13.6381 14.25 13.75 14.1381 13.75 14V13C13.75 12.8619 13.6381 12.75 13.5 12.75H10.5ZM2.25 11C2.25 10.8619 2.36193 10.75 2.5 10.75H5.5C5.63807 10.75 5.75 10.8619 5.75 11V18C5.75 18.1381 5.63807 18.25 5.5 18.25H2.5C2.36193 18.25 2.25 18.1381 2.25 18V11Z" fill="#18191A"/>
</svg>
