<svg width="24" height="24" viewBox="0 0 24 24" fill="none" xmlns="http://www.w3.org/2000/svg">
<path fill-rule="evenodd" clip-rule="evenodd" d="M18.5 2.25C17.5335 2.25 16.75 3.0335 16.75 4V14C16.75 14.9665 17.5335 15.75 18.5 15.75H19.75V18C19.75 18.1381 19.8619 18.25 20 18.25C20.1381 18.25 20.25 18.1381 20.25 18V15.75H21.5C22.4665 15.75 23.25 14.9665 23.25 14V4C23.25 3.0335 22.4665 2.25 21.5 2.25H18.5ZM18.25 4C18.25 3.86193 18.3619 3.75 18.5 3.75H21.5C21.6381 3.75 21.75 3.86193 21.75 4V14C21.75 14.1381 21.6381 14.25 21.5 14.25H18.5C18.3619 14.25 18.25 14.1381 18.25 14V4ZM4.25 3C4.25 2.86193 4.13807 2.75 4 2.75C3.86193 2.75 3.75 2.86193 3.75 3L3.75 13.25H2.5C1.5335 13.25 0.75 14.0335 0.75 15V16C0.75 16.9665 1.5335 17.75 2.5 17.75H3.75L3.75 20C3.75 20.1381 3.86193 20.25 4 20.25C4.13807 20.25 4.25 20.1381 4.25 20L4.25 17.75H5.5C6.4665 17.75 7.25 16.9665 7.25 16V15C7.25 14.0335 6.4665 13.25 5.5 13.25H4.25L4.25 3ZM12.25 7C12.25 6.86193 12.1381 6.75 12 6.75C11.8619 6.75 11.75 6.86193 11.75 7V9.25H10.5C9.5335 9.25 8.75 10.0335 8.75 11V18C8.75 18.9665 9.5335 19.75 10.5 19.75H11.75V22C11.75 22.1381 11.8619 22.25 12 22.25C12.1381 22.25 12.25 22.1381 12.25 22V19.75H13.5C14.4665 19.75 15.25 18.9665 15.25 18V11C15.25 10.0335 14.4665 9.25 13.5 9.25H12.25V7ZM2.5 14.75C2.36193 14.75 2.25 14.8619 2.25 15V16C2.25 16.1381 2.36193 16.25 2.5 16.25H5.5C5.63807 16.25 5.75 16.1381 5.75 16V15C5.75 14.8619 5.63807 14.75 5.5 14.75H2.5ZM10.25 11C10.25 10.8619 10.3619 10.75 10.5 10.75H13.5C13.6381 10.75 13.75 10.8619 13.75 11V18C13.75 18.1381 13.6381 18.25 13.5 18.25H10.5C10.3619 18.25 10.25 18.1381 10.25 18V11Z" fill="#18191A"/>
</svg>
