<svg width="24" height="24" viewBox="0 0 24 24" fill="none" xmlns="http://www.w3.org/2000/svg">
<path fill-rule="evenodd" clip-rule="evenodd" d="M6 3.25C3.37665 3.25 1.25 5.37665 1.25 8V8.5V16C1.25 18.6234 3.37665 20.75 6 20.75H11.3867C12.5976 22.559 14.6597 23.75 17 23.75C20.7279 23.75 23.75 20.7279 23.75 17C23.75 15.7029 23.3841 14.4913 22.75 13.4627V8.5V8C22.75 5.37665 20.6234 3.25 18 3.25H6ZM21.25 11.7557V9.25H2.75V16C2.75 17.7949 4.20507 19.25 6 19.25H10.6341C10.3853 18.5462 10.25 17.7889 10.25 17C10.25 13.2721 13.2721 10.25 17 10.25C18.6107 10.25 20.0897 10.8142 21.25 11.7557ZM21.2405 7.75H2.75947C2.88713 6.07189 4.28919 4.75 6 4.75H18C19.7108 4.75 21.1129 6.07189 21.2405 7.75ZM17 11.75C14.1005 11.75 11.75 14.1005 11.75 17C11.75 19.8995 14.1005 22.25 17 22.25C19.8995 22.25 22.25 19.8995 22.25 17C22.25 14.1005 19.8995 11.75 17 11.75ZM20.0303 14.9697C20.3232 15.2626 20.3232 15.7374 20.0303 16.0303L16.5303 19.5303C16.2374 19.8232 15.7626 19.8232 15.4697 19.5303L13.9697 18.0303C13.6768 17.7374 13.6768 17.2626 13.9697 16.9697C14.2626 16.6768 14.7374 16.6768 15.0303 16.9697L16 17.9393L18.9697 14.9697C19.2626 14.6768 19.7374 14.6768 20.0303 14.9697Z" fill="#18191A"/>
</svg>
