<svg width="24" height="24" viewBox="0 0 24 24" fill="none" xmlns="http://www.w3.org/2000/svg">
<path fill-rule="evenodd" clip-rule="evenodd" d="M2.75 12C2.75 6.89137 6.89137 2.75 12 2.75H15C15.4142 2.75 15.75 2.41421 15.75 2C15.75 1.58579 15.4142 1.25 15 1.25H12C6.06294 1.25 1.25 6.06294 1.25 12C1.25 17.9371 6.06294 22.75 12 22.75C17.9371 22.75 22.75 17.9371 22.75 12V11.5C22.75 11.0858 22.4142 10.75 22 10.75C21.5858 10.75 21.25 11.0858 21.25 11.5V12C21.25 17.1086 17.1086 21.25 12 21.25C6.89137 21.25 2.75 17.1086 2.75 12ZM21.5303 6.53033C21.8232 6.23744 21.8232 5.76256 21.5303 5.46967C21.2374 5.17678 20.7626 5.17678 20.4697 5.46967L11.9658 13.9735L8.49388 10.9356C8.18215 10.6628 7.70833 10.6944 7.43557 11.0061C7.16281 11.3178 7.19439 11.7917 7.50612 12.0644L11.5061 15.5644C11.8033 15.8244 12.2511 15.8095 12.5303 15.5303L21.5303 6.53033Z" fill="#18191A"/>
</svg>
