<svg width="24" height="24" viewBox="0 0 24 24" fill="none" xmlns="http://www.w3.org/2000/svg">
<path fill-rule="evenodd" clip-rule="evenodd" d="M10 1.25H9.96644C8.59472 1.25 7.51929 1.24999 6.65494 1.32061C5.77479 1.39252 5.04769 1.54138 4.38955 1.87671C3.30762 2.42798 2.42798 3.30762 1.87671 4.38955C1.54138 5.04769 1.39252 5.77479 1.32061 6.65494C1.24999 7.51929 1.25 8.59472 1.25 9.96644V10V14V14.0336C1.25 15.4053 1.24999 16.4807 1.32061 17.3451C1.39252 18.2252 1.54138 18.9523 1.87671 19.6104C2.42798 20.6924 3.30762 21.572 4.38955 22.1233C5.04769 22.4586 5.77479 22.6075 6.65494 22.6794C7.51927 22.75 8.59469 22.75 9.96637 22.75H9.96642H10H16L16.0808 22.75C16.9328 22.7501 17.4518 22.7501 17.8995 22.6792C20.3599 22.2895 22.2895 20.3599 22.6792 17.8995C22.7501 17.4518 22.7501 16.9328 22.75 16.0808L22.75 16V15C22.75 14.5858 22.4142 14.25 22 14.25C21.5858 14.25 21.25 14.5858 21.25 15V16C21.25 16.9577 21.2477 17.3492 21.1977 17.6648C20.9096 19.4834 19.4834 20.9096 17.6648 21.1977C17.3492 21.2477 16.9577 21.25 16 21.25H10C8.58749 21.25 7.57322 21.2494 6.77708 21.1844C5.9897 21.12 5.48197 20.9964 5.07054 20.7868C4.27085 20.3793 3.62068 19.7291 3.21322 18.9295C3.00359 18.518 2.87996 18.0103 2.81563 17.2229C2.75058 16.4268 2.75 15.4125 2.75 14V10C2.75 8.58749 2.75058 7.57322 2.81563 6.77708C2.87996 5.9897 3.00359 5.48197 3.21322 5.07054C3.62068 4.27085 4.27085 3.62068 5.07054 3.21322C5.48197 3.00359 5.9897 2.87996 6.77708 2.81563C7.57322 2.75058 8.58749 2.75 10 2.75H15C15.4142 2.75 15.75 2.41421 15.75 2C15.75 1.58579 15.4142 1.25 15 1.25H10ZM21.5303 6.53033C21.8232 6.23744 21.8232 5.76256 21.5303 5.46967C21.2374 5.17678 20.7626 5.17678 20.4697 5.46967L11.9658 13.9735L8.49388 10.9356C8.18215 10.6628 7.70833 10.6944 7.43557 11.0061C7.16281 11.3178 7.19439 11.7917 7.50612 12.0644L11.5061 15.5644C11.8033 15.8244 12.2511 15.8095 12.5303 15.5303L21.5303 6.53033Z" fill="#18191A"/>
</svg>
