<svg width="24" height="24" viewBox="0 0 24 24" fill="none" xmlns="http://www.w3.org/2000/svg">
<path fill-rule="evenodd" clip-rule="evenodd" d="M13.8 3.75C15.0725 3.75 15.9818 3.75058 16.6945 3.80882C17.3985 3.86634 17.8445 3.97634 18.2025 4.15873C18.9081 4.51825 19.4817 5.09193 19.8413 5.79754C20.0237 6.15549 20.1337 6.60148 20.1912 7.30548C20.2494 8.01824 20.25 8.92751 20.25 10.2V17C20.25 18.7949 18.7949 20.25 17 20.25H16H15.25V21.75H16H17C19.6234 21.75 21.75 19.6234 21.75 17V10.2V10.1667C21.75 8.93477 21.75 7.96431 21.6862 7.18333C21.6211 6.38657 21.4859 5.7212 21.1778 5.11655C20.6744 4.1287 19.8713 3.32555 18.8834 2.82222C18.2788 2.51413 17.6134 2.3789 16.8167 2.3138C16.0357 2.24999 15.0652 2.24999 13.8333 2.25H13.8H7C4.37665 2.25 2.25 4.37665 2.25 7V8V8.75H3.75V8V7C3.75 5.20507 5.20507 3.75 7 3.75H13.8ZM3 20C2.44772 20 2 20.4477 2 21C2 21.5523 2.44772 22 3 22H3.01042C3.5627 22 4.01042 21.5523 4.01042 21C4.01042 20.4477 3.5627 20 3.01042 20H3ZM2.25 17C2.25 16.5858 2.58579 16.25 3 16.25C5.62335 16.25 7.75 18.3766 7.75 21C7.75 21.4142 7.41421 21.75 7 21.75C6.58579 21.75 6.25 21.4142 6.25 21C6.25 19.2051 4.79493 17.75 3 17.75C2.58579 17.75 2.25 17.4142 2.25 17ZM3 12.25C2.58579 12.25 2.25 12.5858 2.25 13C2.25 13.4142 2.58579 13.75 3 13.75C7.00406 13.75 10.25 16.9959 10.25 21C10.25 21.4142 10.5858 21.75 11 21.75C11.4142 21.75 11.75 21.4142 11.75 21C11.75 16.1675 7.83249 12.25 3 12.25Z" fill="#1D1E1F"/>
</svg>
