<svg width="24" height="24" viewBox="0 0 24 24" fill="none" xmlns="http://www.w3.org/2000/svg">
<path fill-rule="evenodd" clip-rule="evenodd" d="M20.5301 4.53033C20.823 4.23744 20.823 3.76256 20.5301 3.46967C20.2372 3.17678 19.7623 3.17678 19.4694 3.46967L11.9999 10.9392L4.53033 3.46969C4.23744 3.17679 3.76256 3.17679 3.46967 3.46969C3.17678 3.76258 3.17678 4.23745 3.46967 4.53035L10.9392 11.9999L3.46967 19.4694C3.17678 19.7623 3.17678 20.2372 3.46967 20.5301C3.76256 20.823 4.23744 20.823 4.53033 20.5301L11.9999 13.0605L19.4694 20.5301C19.7623 20.823 20.2372 20.823 20.5301 20.5301C20.823 20.2372 20.823 19.7623 20.5301 19.4694L13.0605 11.9999L20.5301 4.53033Z" fill="#B9C3CD"/>
</svg>
