<svg width="24" height="24" viewBox="0 0 24 24" fill="none" xmlns="http://www.w3.org/2000/svg">
<path fill-rule="evenodd" clip-rule="evenodd" d="M9.38434 5.44575C11.7276 4.02113 14.7425 4.84944 16.1198 7.36148C16.2515 7.60163 16.5036 7.75091 16.7774 7.75091C19.2115 7.75091 21.25 9.84038 21.25 12.5005C21.25 14.4207 20.1801 16.0563 18.6668 16.8068C18.2957 16.9908 18.1441 17.4409 18.3281 17.8119C18.5121 18.183 18.9621 18.3347 19.3332 18.1506C21.3657 17.1427 22.75 14.9811 22.75 12.5005C22.75 9.23678 20.3399 6.50251 17.2151 6.26732C15.3544 3.32801 11.589 2.3499 8.60509 4.16404C6.74823 5.29297 5.64041 7.23584 5.43136 9.29218C4.19439 9.4397 3.20238 9.97128 2.49236 10.7426C1.6617 11.645 1.25739 12.8309 1.2501 13.9957C1.24281 15.1601 1.63207 16.3472 2.44591 17.2518C3.27133 18.1693 4.49291 18.7501 6.045 18.7501C6.45921 18.7501 6.795 18.4143 6.795 18.0001C6.795 17.5859 6.45921 17.2501 6.045 17.2501C4.89212 17.2501 4.08499 16.831 3.56106 16.2486C3.02556 15.6533 2.74484 14.8405 2.75007 14.0051C2.7553 13.17 3.04601 12.356 3.59599 11.7585C4.13484 11.1731 4.96294 10.7507 6.14513 10.7507C6.55908 10.7507 6.89476 10.4153 6.89513 10.0013C6.89676 8.16819 7.801 6.40838 9.38434 5.44575ZM12 11.2501C12.4142 11.2501 12.75 11.5859 12.75 12.0001V18.0001C12.75 18.4143 12.4142 18.7501 12 18.7501C11.5858 18.7501 11.25 18.4143 11.25 18.0001V12.0001C11.25 11.5859 11.5858 11.2501 12 11.2501ZM9.75 14.0001C9.75 13.5859 9.41421 13.2501 9 13.2501C8.58579 13.2501 8.25 13.5859 8.25 14.0001L8.25 21.0001C8.25 21.4143 8.58579 21.7501 9 21.7501C9.41421 21.7501 9.75 21.4143 9.75 21.0001V14.0001ZM15.75 15.0001C15.75 14.5859 15.4142 14.2501 15 14.2501C14.5858 14.2501 14.25 14.5859 14.25 15.0001V19.0001C14.25 19.4143 14.5858 19.7501 15 19.7501C15.4142 19.7501 15.75 19.4143 15.75 19.0001V15.0001Z" fill="#18191A"/>
</svg>
