<svg width="24" height="24" viewBox="0 0 24 24" fill="none" xmlns="http://www.w3.org/2000/svg">
<path fill-rule="evenodd" clip-rule="evenodd" d="M9.38434 5.44575C11.7276 4.02113 14.7425 4.84944 16.1198 7.36148C16.2515 7.60163 16.5036 7.75091 16.7774 7.75091C19.2115 7.75091 21.25 9.84038 21.25 12.5005C21.25 14.4207 20.1801 16.0563 18.6668 16.8068C18.2957 16.9908 18.1441 17.4409 18.3281 17.8119C18.5121 18.183 18.9621 18.3347 19.3332 18.1506C21.3657 17.1427 22.75 14.9811 22.75 12.5005C22.75 9.23678 20.3399 6.50251 17.2151 6.26732C15.3544 3.32801 11.589 2.3499 8.60509 4.16404C6.74823 5.29297 5.64041 7.23584 5.43136 9.29218C4.19439 9.4397 3.20238 9.97128 2.49236 10.7426C1.6617 11.645 1.25739 12.8309 1.2501 13.9957C1.24281 15.1601 1.63207 16.3472 2.44591 17.2518C3.27133 18.1693 4.49291 18.7501 6.045 18.7501C6.45921 18.7501 6.795 18.4143 6.795 18.0001C6.795 17.5859 6.45921 17.2501 6.045 17.2501C4.89212 17.2501 4.08499 16.831 3.56106 16.2486C3.02556 15.6533 2.74484 14.8405 2.75007 14.0051C2.7553 13.17 3.04601 12.356 3.59599 11.7585C4.13484 11.1731 4.96294 10.7507 6.14513 10.7507C6.55908 10.7507 6.89476 10.4153 6.89513 10.0013C6.89676 8.16819 7.801 6.40838 9.38434 5.44575ZM11.9462 13.1917C12.2832 12.7627 12.5329 12.4464 12.732 12.2205C12.7491 12.5212 12.75 12.9241 12.75 13.4697V14.5001L12.75 14.5226V14.5226C12.7499 14.6188 12.7497 14.7544 12.7658 14.8744C12.7862 15.0256 12.8437 15.258 13.0429 15.4572C13.2421 15.6564 13.4745 15.7139 13.6257 15.7343C13.7457 15.7504 13.8814 15.7502 13.9775 15.7501L14 15.7501H14.531C14.9322 15.7501 15.2181 15.7511 15.4295 15.7634C15.3086 15.9373 15.1327 16.1627 14.8849 16.4781L13.0538 18.8085C12.7168 19.2376 12.4671 19.5538 12.268 19.7797C12.2509 19.479 12.25 19.0761 12.25 18.5305V17.5001L12.25 17.4777C12.2501 17.3815 12.2503 17.2459 12.2342 17.1259C12.2138 16.9746 12.1563 16.7422 11.9571 16.543C11.7579 16.3438 11.5255 16.2863 11.3743 16.266C11.2543 16.2498 11.1187 16.25 11.0225 16.2501H11.0225L11 16.2501H10.469C10.0678 16.2501 9.78189 16.2491 9.57053 16.2368C9.69141 16.063 9.86727 15.8375 10.1151 15.5221L11.9462 13.1917ZM13.0954 11.8726C13.0953 11.873 13.0914 11.8755 13.0841 11.8787C13.0919 11.8738 13.0955 11.8722 13.0954 11.8726ZM12.6664 11.7343C12.6627 11.7272 12.6611 11.7228 12.6613 11.7224C12.6615 11.722 12.6633 11.7256 12.6664 11.7343ZM15.7687 15.8098C15.7686 15.8099 15.767 15.8093 15.764 15.808C15.7673 15.8091 15.7688 15.8098 15.7687 15.8098ZM15.6011 15.4729C15.6019 15.4697 15.6025 15.4681 15.6026 15.468C15.6027 15.468 15.6023 15.4695 15.6011 15.4729ZM11.9046 20.1277C11.9047 20.1272 11.9086 20.1248 11.9159 20.1215C11.9081 20.1264 11.9045 20.1281 11.9046 20.1277ZM12.3336 20.266C12.3373 20.2731 12.3389 20.2774 12.3387 20.2778C12.3385 20.2782 12.3367 20.2746 12.3336 20.266ZM9.236 16.1922C9.23304 16.1909 9.23137 16.1904 9.23127 16.1904C9.23122 16.1904 9.23155 16.1906 9.2323 16.1909C9.23307 16.1912 9.23429 16.1917 9.236 16.1922ZM9.39739 16.5322C9.39749 16.5321 9.39808 16.5305 9.39887 16.5273C9.39834 16.5288 9.39797 16.53 9.39773 16.5308C9.39744 16.5318 9.39734 16.5322 9.39739 16.5322ZM13.3413 10.4591C12.6812 10.2307 12.1589 10.6672 11.8856 10.9333C11.5763 11.2344 11.2169 11.6918 10.8013 12.2208L10.8013 12.2208L10.7667 12.2649L8.93563 14.5954L8.90249 14.6375L8.90248 14.6375C8.59953 15.023 8.32218 15.3759 8.14934 15.6772C7.97446 15.982 7.76737 16.4699 8.0203 16.9902C8.27322 17.5106 8.78476 17.6492 9.1325 17.7C9.47619 17.7502 9.92503 17.7502 10.4153 17.7501L10.469 17.7501H10.75V18.5305L10.75 18.5866V18.5866C10.75 19.2594 10.7499 19.8411 10.8071 20.2689C10.8576 20.647 10.9986 21.3129 11.6587 21.5412C12.3188 21.7695 12.8411 21.333 13.1144 21.0669C13.4237 20.7658 13.7831 20.3084 14.1987 19.7794L14.2333 19.7353L16.0644 17.4049L16.0975 17.3627C16.4005 16.9772 16.6778 16.6243 16.8507 16.323C17.0255 16.0182 17.2326 15.5304 16.9797 15.01C16.7268 14.4896 16.2152 14.351 15.8675 14.3002C15.5238 14.25 15.075 14.25 14.5847 14.2501L14.531 14.2501H14.25V13.4697L14.25 13.4136C14.25 12.7409 14.2501 12.1592 14.1929 11.7313C14.1424 11.3532 14.0014 10.6874 13.3413 10.4591Z" fill="#18191A"/>
</svg>
