<svg width="24" height="24" viewBox="0 0 24 24" fill="none" xmlns="http://www.w3.org/2000/svg">
<path fill-rule="evenodd" clip-rule="evenodd" d="M9.38434 5.44575C11.7276 4.02113 14.7425 4.84944 16.1198 7.36148C16.2515 7.60163 16.5036 7.75091 16.7774 7.75091C19.2115 7.75091 21.25 9.84038 21.25 12.5005C21.25 14.1226 20.486 15.5436 19.3344 16.3977C19.0017 16.6444 18.932 17.1142 19.1787 17.4469C19.4254 17.7796 19.8952 17.8493 20.2279 17.6025C21.7604 16.466 22.75 14.5984 22.75 12.5005C22.75 9.23678 20.3399 6.50251 17.2151 6.26732C15.3544 3.32801 11.589 2.3499 8.60509 4.16404C6.74823 5.29297 5.64041 7.23584 5.43136 9.29218C4.19439 9.4397 3.20238 9.97128 2.49236 10.7426C1.6617 11.645 1.25739 12.8309 1.2501 13.9957C1.24281 15.1601 1.63207 16.3472 2.44591 17.2518C3.27133 18.1693 4.49291 18.7501 6.045 18.7501C6.45921 18.7501 6.795 18.4143 6.795 18.0001C6.795 17.5859 6.45921 17.2501 6.045 17.2501C4.89212 17.2501 4.08499 16.831 3.56106 16.2486C3.02556 15.6533 2.74484 14.8405 2.75007 14.0051C2.7553 13.17 3.04601 12.356 3.59599 11.7585C4.13484 11.1731 4.96294 10.7507 6.14513 10.7507C6.55908 10.7507 6.89476 10.4153 6.89513 10.0013C6.89676 8.16819 7.801 6.40838 9.38434 5.44575ZM13 12.2501C13.4142 12.2501 13.75 12.5859 13.75 13.0001V19.1895L15.4697 17.4698C15.7626 17.1769 16.2374 17.1769 16.5303 17.4698C16.8232 17.7627 16.8232 18.2375 16.5303 18.5304L13.5303 21.5304C13.4584 21.6024 13.3755 21.6566 13.2871 21.6932C13.1987 21.7299 13.1017 21.7501 13 21.7501C12.9871 21.7501 12.9742 21.7498 12.9614 21.7491C12.8738 21.7447 12.7901 21.7252 12.7129 21.6932C12.6245 21.6566 12.5416 21.6024 12.4697 21.5304L9.46967 18.5304C9.17678 18.2375 9.17678 17.7627 9.46967 17.4698C9.76256 17.1769 10.2374 17.1769 10.5303 17.4698L12.25 19.1895V13.0001C12.25 12.5859 12.5858 12.2501 13 12.2501Z" fill="#B1B5BB"/>
</svg>
