<svg width="24" height="24" viewBox="0 0 24 24" fill="none" xmlns="http://www.w3.org/2000/svg">
<path fill-rule="evenodd" clip-rule="evenodd" d="M9.38434 5.44575C11.7276 4.02113 14.7425 4.84944 16.1198 7.36148C16.2515 7.60163 16.5036 7.75091 16.7774 7.75091C19.2115 7.75091 21.25 9.84038 21.25 12.5005C21.25 14.4207 20.1801 16.0563 18.6668 16.8068C18.2957 16.9908 18.1441 17.4409 18.3281 17.8119C18.5121 18.183 18.9621 18.3347 19.3332 18.1506C21.3657 17.1427 22.75 14.9811 22.75 12.5005C22.75 9.23678 20.3399 6.50251 17.2151 6.26732C15.3544 3.32801 11.589 2.3499 8.60509 4.16404C6.74823 5.29297 5.64041 7.23584 5.43136 9.29218C4.19439 9.4397 3.20238 9.97128 2.49236 10.7426C1.6617 11.645 1.25739 12.8309 1.2501 13.9957C1.24281 15.1601 1.63207 16.3472 2.44591 17.2518C3.27133 18.1693 4.49291 18.7501 6.045 18.7501C6.45921 18.7501 6.795 18.4143 6.795 18.0001C6.795 17.5859 6.45921 17.2501 6.045 17.2501C4.89212 17.2501 4.08499 16.831 3.56106 16.2486C3.02556 15.6533 2.74484 14.8405 2.75007 14.0051C2.7553 13.17 3.04601 12.356 3.59599 11.7585C4.13484 11.1731 4.96294 10.7507 6.14513 10.7507C6.55908 10.7507 6.89476 10.4153 6.89513 10.0013C6.89676 8.16819 7.801 6.40838 9.38434 5.44575ZM15 12.0001C14.4477 12.0001 14 12.4478 14 13.0001C14 13.5524 14.4477 14.0001 15 14.0001H15.01C15.5623 14.0001 16.01 13.5524 16.01 13.0001C16.01 12.4478 15.5623 12.0001 15.01 12.0001H15ZM10 16.0001C10 15.4478 10.4477 15.0001 11 15.0001H11.01C11.5623 15.0001 12.01 15.4478 12.01 16.0001C12.01 16.5524 11.5623 17.0001 11.01 17.0001H11C10.4477 17.0001 10 16.5524 10 16.0001ZM13 19.0001C13 18.4478 13.4477 18.0001 14 18.0001H14.01C14.5623 18.0001 15.01 18.4478 15.01 19.0001C15.01 19.5524 14.5623 20.0001 14.01 20.0001H14C13.4477 20.0001 13 19.5524 13 19.0001ZM9 21.0001C9 20.4478 9.44771 20.0001 10 20.0001H10.01C10.5623 20.0001 11.01 20.4478 11.01 21.0001C11.01 21.5524 10.5623 22.0001 10.01 22.0001H10C9.44771 22.0001 9 21.5524 9 21.0001Z" fill="#B1B5BB"/>
</svg>
