<svg width="24" height="24" viewBox="0 0 24 24" fill="none" xmlns="http://www.w3.org/2000/svg">
<path fill-rule="evenodd" clip-rule="evenodd" d="M5.75 2C5.75 1.58579 5.41421 1.25 5 1.25C4.58579 1.25 4.25 1.58579 4.25 2V4.25H2C1.58579 4.25 1.25 4.58579 1.25 5C1.25 5.41421 1.58579 5.75 2 5.75H4.25V17C4.25 18.5188 5.48122 19.75 7 19.75H18.25V22C18.25 22.4142 18.5858 22.75 19 22.75C19.4142 22.75 19.75 22.4142 19.75 22V19.75H22C22.4142 19.75 22.75 19.4142 22.75 19C22.75 18.5858 22.4142 18.25 22 18.25H19.75V7C19.75 5.48122 18.5188 4.25 17 4.25H5.75V2ZM5.75 5.75V17C5.75 17.6904 6.30964 18.25 7 18.25H18.25V7C18.25 6.30964 17.6904 5.75 17 5.75H5.75Z" fill="#B9C3CD"/>
</svg>
