<svg width="24" height="24" viewBox="0 0 24 24" fill="none" xmlns="http://www.w3.org/2000/svg">
<path fill-rule="evenodd" clip-rule="evenodd" d="M12 1.25C8.82436 1.25 6.25 3.82436 6.25 7V12C6.25 15.1756 8.82436 17.75 12 17.75C15.1756 17.75 17.75 15.1756 17.75 12H16.25C16.25 14.3472 14.3472 16.25 12 16.25C9.65279 16.25 7.75 14.3472 7.75 12V7C7.75 4.65279 9.65279 2.75 12 2.75V1.25ZM4.75 11C4.75 10.5858 4.41421 10.25 4 10.25C3.58579 10.25 3.25 10.5858 3.25 11C3.25 14.0514 3.75177 16.5237 5.17383 18.2301C6.50432 19.8267 8.51928 20.6154 11.25 20.7341V23C11.25 23.4142 11.5858 23.75 12 23.75C12.4142 23.75 12.75 23.4142 12.75 23V20.7342C14.488 20.6589 15.9368 20.3127 17.1084 19.6537C18.4628 18.8918 19.3847 17.7467 19.9583 16.2718C20.1084 15.8858 19.9171 15.4511 19.5311 15.301C19.145 15.1509 18.7104 15.3421 18.5603 15.7282C18.0968 16.92 17.389 17.7748 16.373 18.3463C15.339 18.928 13.9247 19.25 12 19.25C9.11477 19.25 7.37666 18.5305 6.32617 17.2699C5.24823 15.9763 4.75 13.9486 4.75 11Z" fill="#1D1E1F"/>
<path d="M16.5 2.5L21.5 7.5" stroke="#1D1E1F" stroke-width="1.5" stroke-linecap="round"/>
<path d="M21.5 2.5L16.5 7.5" stroke="#1D1E1F" stroke-width="1.5" stroke-linecap="round"/>
</svg>
