<svg width="24" height="24" viewBox="0 0 24 24" fill="none" xmlns="http://www.w3.org/2000/svg">
<path fill-rule="evenodd" clip-rule="evenodd" d="M12 1.25C12.4142 1.25 12.75 1.58579 12.75 2V14.1893L17.4697 9.46967C17.7626 9.17678 18.2374 9.17678 18.5303 9.46967C18.8232 9.76256 18.8232 10.2374 18.5303 10.5303L12.5309 16.5297L12.5297 16.5309L12 17.0607L11.4697 16.5303L5.46967 10.5303C5.17678 10.2374 5.17678 9.76256 5.46967 9.46967C5.76256 9.17678 6.23744 9.17678 6.53033 9.46967L11.25 14.1893V2C11.25 1.58579 11.5858 1.25 12 1.25ZM3.25 15C3.25 14.5858 2.91421 14.25 2.5 14.25C2.08579 14.25 1.75 14.5858 1.75 15V15.6V15.633C1.74999 16.7251 1.74999 17.5906 1.80699 18.2883C1.86527 19.0017 1.98688 19.6053 2.26772 20.1565C2.72312 21.0502 3.44978 21.7769 4.34355 22.2323C4.89472 22.5131 5.49835 22.6347 6.21173 22.693C6.90934 22.75 7.77482 22.75 8.86694 22.75H8.86701H8.9H15.1H15.133H15.1331C16.2252 22.75 17.0907 22.75 17.7883 22.693C18.5017 22.6347 19.1053 22.5131 19.6565 22.2323C20.5502 21.7769 21.2769 21.0502 21.7323 20.1565C22.0131 19.6053 22.1347 19.0017 22.193 18.2883C22.25 17.5906 22.25 16.7252 22.25 15.633V15.6V15C22.25 14.5858 21.9142 14.25 21.5 14.25C21.0858 14.25 20.75 14.5858 20.75 15V15.6C20.75 16.7325 20.7494 17.5367 20.698 18.1661C20.6473 18.7867 20.5509 19.171 20.3958 19.4755C20.0842 20.087 19.587 20.5842 18.9755 20.8958C18.671 21.0509 18.2867 21.1473 17.6661 21.198C17.0367 21.2494 16.2325 21.25 15.1 21.25H8.9C7.76752 21.25 6.96327 21.2494 6.33388 21.198C5.71325 21.1473 5.329 21.0509 5.02453 20.8958C4.413 20.5842 3.91582 20.087 3.60423 19.4755C3.44909 19.171 3.35271 18.7867 3.30201 18.1661C3.25058 17.5367 3.25 16.7325 3.25 15.6V15Z" fill="#18191A"/>
</svg>
