<svg width="24" height="24" viewBox="0 0 24 24" fill="none" xmlns="http://www.w3.org/2000/svg">
<path fill-rule="evenodd" clip-rule="evenodd" d="M12.0001 0.25C12.4143 0.25 12.7501 0.585786 12.7501 1L12.7501 15.1893L15.4697 12.4697C15.7626 12.1768 16.2375 12.1768 16.5304 12.4697C16.8233 12.7626 16.8233 13.2374 16.5304 13.5303L12.5349 17.5258L12.5259 17.5348L12 18.0607L11.4697 17.5303L7.46971 13.5303C7.17682 13.2374 7.17682 12.7626 7.46971 12.4697C7.7626 12.1768 8.23747 12.1768 8.53037 12.4697L11.2501 15.1894L11.2501 1C11.2501 0.585786 11.5859 0.25 12.0001 0.25ZM8 4.25L7.90473 4.24999C7.06666 4.24987 6.53324 4.24979 6.07332 4.34127C4.18904 4.71608 2.71608 6.18904 2.34127 8.07332C2.24979 8.53324 2.24987 9.06666 2.24999 9.90473L2.25 10V15.6V15.633C2.24999 16.7251 2.24999 17.5906 2.30699 18.2883C2.36527 19.0017 2.48688 19.6053 2.76772 20.1565C3.22312 21.0502 3.94978 21.7769 4.84354 22.2323C5.39472 22.5131 5.99834 22.6347 6.71173 22.693C7.40935 22.75 8.27484 22.75 9.36698 22.75H9.4H14.6H14.633C15.7252 22.75 16.5906 22.75 17.2883 22.693C18.0017 22.6347 18.6053 22.5131 19.1565 22.2323C20.0502 21.7769 20.7769 21.0502 21.2323 20.1565C21.5131 19.6053 21.6347 19.0017 21.693 18.2883C21.75 17.5906 21.75 16.7252 21.75 15.633V15.6V10L21.75 9.90471C21.7501 9.06665 21.7502 8.53323 21.6587 8.07332C21.2839 6.18904 19.811 4.71608 17.9267 4.34127C17.4668 4.24979 16.9333 4.24987 16.0953 4.24999L16 4.25V5.75C16.9653 5.75 17.3384 5.75363 17.634 5.81245C18.9233 6.06889 19.9311 7.07671 20.1876 8.36596C20.2464 8.66164 20.25 9.03474 20.25 10V15.6C20.25 16.7325 20.2494 17.5367 20.198 18.1661C20.1473 18.7867 20.0509 19.171 19.8958 19.4755C19.5842 20.087 19.087 20.5842 18.4755 20.8958C18.171 21.0509 17.7867 21.1473 17.1661 21.198C16.5367 21.2494 15.7325 21.25 14.6 21.25H9.4C8.26752 21.25 7.46326 21.2494 6.83388 21.198C6.21325 21.1473 5.829 21.0509 5.52453 20.8958C4.913 20.5842 4.41582 20.087 4.10423 19.4755C3.94909 19.171 3.85271 18.7867 3.80201 18.1661C3.75058 17.5367 3.75 16.7325 3.75 15.6V10C3.75 9.03474 3.75363 8.66164 3.81245 8.36596C4.06889 7.07671 5.07671 6.06889 6.36596 5.81245C6.66164 5.75363 7.03474 5.75 8 5.75V4.25Z" fill="#18191A"/>
</svg>
