<svg width="24" height="24" viewBox="0 0 24 24" fill="none" xmlns="http://www.w3.org/2000/svg">
<path fill-rule="evenodd" clip-rule="evenodd" d="M9 20.75C9.41421 20.75 9.75 21.0858 9.75 21.5C9.75 21.9142 9.41421 22.25 9 22.25H8.4H8.367C7.27486 22.25 6.40936 22.25 5.71173 22.193C4.99834 22.1347 4.39472 22.0131 3.84354 21.7323C2.94978 21.2769 2.22312 20.5502 1.76772 19.6565C1.48688 19.1053 1.36527 18.5017 1.30699 17.7883C1.24999 17.0906 1.24999 16.2252 1.25 15.133V15.133V15.1V8.9V8.86701V8.86697C1.24999 7.77484 1.24999 6.90935 1.30699 6.21173C1.36527 5.49834 1.48688 4.89472 1.76772 4.34355C2.22312 3.44978 2.94978 2.72312 3.84355 2.26772C4.39472 1.98688 4.99835 1.86527 5.71173 1.80699C6.40935 1.74999 7.27485 1.74999 8.36698 1.75H8.4H8.5C8.91421 1.75 9.25 2.08579 9.25 2.5C9.25 2.91421 8.91421 3.25 8.5 3.25H8.4C7.26752 3.25 6.46327 3.25058 5.83388 3.30201C5.21325 3.35271 4.829 3.44909 4.52453 3.60423C3.913 3.91582 3.41582 4.413 3.10423 5.02453C2.94909 5.329 2.85271 5.71325 2.80201 6.33388C2.75058 6.96326 2.75 7.76752 2.75 8.9L2.75 15.1C2.75 16.2325 2.75058 17.0367 2.80201 17.6661C2.85271 18.2867 2.94909 18.671 3.10423 18.9755C3.41582 19.587 3.913 20.0842 4.52453 20.3958C4.829 20.5509 5.21325 20.6473 5.83388 20.698C6.46326 20.7494 7.26752 20.75 8.4 20.75H9ZM15.4697 18.5304C15.1768 18.2375 15.1768 17.7627 15.4697 17.4698L20.1893 12.7501H8C7.58579 12.7501 7.25 12.4143 7.25 12.0001C7.25 11.5859 7.58579 11.2501 8 11.2501H20.1893L15.4697 6.53043C15.1768 6.23753 15.1768 5.76266 15.4697 5.46977C15.7626 5.17687 16.2374 5.17687 16.5303 5.46977L22.5303 11.4698L23.0607 12.0001L22.5303 12.5304L16.5303 18.5304C16.2374 18.8233 15.7626 18.8233 15.4697 18.5304Z" fill="#18191A"/>
</svg>
