<svg width="24" height="24" viewBox="0 0 24 24" fill="none" xmlns="http://www.w3.org/2000/svg">
<path fill-rule="evenodd" clip-rule="evenodd" d="M12.0002 18.25C7.87872 18.25 4.32737 15.6818 2.80636 11.9983C4.27561 8.40628 7.88252 5.75 12.0002 5.75C16.1179 5.75 19.7248 8.40623 21.1941 11.9982C19.6731 15.6818 16.1217 18.25 12.0002 18.25ZM22.7025 11.7367C22.7703 11.9176 22.7638 12.1082 22.6981 12.2749C21.0312 16.6405 16.8778 19.75 12.0002 19.75C7.11964 19.75 2.96423 16.6368 1.29935 12.267C1.23054 12.0864 1.23612 11.8957 1.30097 11.7287C2.9061 7.45832 7.12131 4.25 12.0002 4.25C16.8822 4.25 21.0996 7.46229 22.7025 11.7367ZM8.75024 12C8.75024 10.2051 10.2053 8.75 12.0002 8.75C13.7952 8.75 15.2502 10.2051 15.2502 12C15.2502 13.7949 13.7952 15.25 12.0002 15.25C10.2053 15.25 8.75024 13.7949 8.75024 12ZM12.0002 7.25C9.37689 7.25 7.25024 9.37665 7.25024 12C7.25024 14.6234 9.37689 16.75 12.0002 16.75C14.6236 16.75 16.7502 14.6234 16.7502 12C16.7502 9.37665 14.6236 7.25 12.0002 7.25Z" fill="#18191A"/>
</svg>
