<svg width="24" height="24" viewBox="0 0 24 24" fill="none" xmlns="http://www.w3.org/2000/svg">
<path fill-rule="evenodd" clip-rule="evenodd" d="M12.25 2.75589C12.0162 2.75069 11.7261 2.75002 11.349 2.75002H10.4C9.26752 2.75002 8.46326 2.7506 7.83388 2.80203C7.21325 2.85273 6.829 2.94911 6.52453 3.10425C5.913 3.41584 5.41582 3.91303 5.10423 4.52455C4.94909 4.82902 4.85271 5.21327 4.80201 5.8339C4.75058 6.46329 4.75 7.26754 4.75 8.40002V15.6C4.75 16.7325 4.75058 17.5368 4.80201 18.1661C4.85271 18.7868 4.94909 19.171 5.10423 19.4755C5.41582 20.087 5.913 20.5842 6.52453 20.8958C6.829 21.0509 7.21325 21.1473 7.83388 21.198C8.46326 21.2494 9.26752 21.25 10.4 21.25H13.6C14.7325 21.25 15.5367 21.2494 16.1661 21.198C16.7867 21.1473 17.171 21.0509 17.4755 20.8958C18.087 20.5842 18.5842 20.087 18.8958 19.4755C19.0509 19.171 19.1473 18.7868 19.198 18.1661C19.2494 17.5368 19.25 16.7325 19.25 15.6V10.8675C19.25 10.3403 19.2487 10.003 19.234 9.75002H19H16.2H16.1696H16.1695C15.6354 9.75003 15.1896 9.75004 14.8253 9.72028C14.4454 9.68924 14.0888 9.62213 13.7515 9.45029C13.2341 9.18664 12.8134 8.76594 12.5497 8.2485C12.3779 7.91123 12.3108 7.55458 12.2797 7.17469C12.25 6.81046 12.25 6.36461 12.25 5.83046V5.80002V3.00002V2.75589ZM18.7484 8.25002C18.5928 8.01445 18.3566 7.73521 17.8898 7.19056L16.4493 5.50998L15.3442 4.40487C14.6271 3.68782 14.3516 3.41914 14.0413 3.22894C13.9468 3.17106 13.8496 3.11812 13.75 3.0703V5.80002C13.75 6.37245 13.7506 6.75666 13.7748 7.05254C13.7982 7.33967 13.8401 7.47695 13.8862 7.56751C14.0061 7.80271 14.1973 7.99394 14.4325 8.11378C14.5231 8.15992 14.6604 8.2018 14.9475 8.22526C15.2434 8.24944 15.6276 8.25002 16.2 8.25002H18.7484ZM13.452 1.38126C12.9042 1.24976 12.3314 1.24986 11.4426 1.25001L11.349 1.25002H10.4L10.367 1.25002C9.27486 1.25002 8.40936 1.25001 7.71173 1.30701C6.99834 1.36529 6.39472 1.4869 5.84355 1.76774C4.94978 2.22314 4.22312 2.9498 3.76772 3.84357C3.48688 4.39474 3.36527 4.99837 3.30699 5.71175C3.24999 6.40938 3.24999 7.27488 3.25 8.36702V8.40002V15.6V15.633C3.24999 16.7252 3.24999 17.5907 3.30699 18.2883C3.36527 19.0017 3.48688 19.6053 3.76772 20.1565C4.22312 21.0502 4.94978 21.7769 5.84355 22.2323C6.39472 22.5131 6.99834 22.6347 7.71173 22.693C8.40935 22.75 9.27484 22.75 10.367 22.75H10.4H13.6H13.633C14.7252 22.75 15.5906 22.75 16.2883 22.693C17.0017 22.6347 17.6053 22.5131 18.1565 22.2323C19.0502 21.7769 19.7769 21.0502 20.2323 20.1565C20.5131 19.6053 20.6347 19.0017 20.693 18.2883C20.75 17.5907 20.75 16.7252 20.75 15.633V15.6V10.8675L20.75 10.7841V10.784C20.7501 9.98742 20.7502 9.47389 20.6431 8.97751C20.5482 8.53808 20.3915 8.11435 20.1775 7.71898C19.9358 7.27237 19.6016 6.88252 19.083 6.27775L19.083 6.27773L19.083 6.27771L19.0287 6.21438L17.5694 4.51193C17.557 4.49735 17.5439 4.48326 17.5303 4.46969L16.4048 3.34421L16.3387 3.27807C15.7103 2.64944 15.3053 2.24432 14.825 1.94998C14.4 1.68954 13.9367 1.49762 13.452 1.38126ZM9 12.25C8.58579 12.25 8.25 12.5858 8.25 13C8.25 13.4142 8.58579 13.75 9 13.75H15C15.4142 13.75 15.75 13.4142 15.75 13C15.75 12.5858 15.4142 12.25 15 12.25H9ZM8.25 17C8.25 16.5858 8.58579 16.25 9 16.25H13C13.4142 16.25 13.75 16.5858 13.75 17C13.75 17.4142 13.4142 17.75 13 17.75H9C8.58579 17.75 8.25 17.4142 8.25 17Z" fill="#18191A"/>
</svg>
