<svg width="24" height="24" viewBox="0 0 24 24" fill="none" xmlns="http://www.w3.org/2000/svg">
<path fill-rule="evenodd" clip-rule="evenodd" d="M10.2 2.25H10.1667H10.1667C9.39951 2.25 8.73373 2.24999 8.15196 2.2654C8.10289 2.2553 8.05206 2.25 8 2.25C7.93046 2.25 7.86313 2.25946 7.79922 2.27718C7.58159 2.28612 7.37666 2.298 7.18333 2.3138C6.38657 2.3789 5.7212 2.51413 5.11655 2.82222C4.1287 3.32555 3.32555 4.1287 2.82222 5.11655C2.51413 5.7212 2.3789 6.38657 2.3138 7.18334C2.24999 7.96432 2.24999 8.93478 2.25 10.1667V10.2L2.25 12V13.8V13.8333C2.24999 15.0652 2.24999 16.0357 2.3138 16.8167C2.3789 17.6134 2.51413 18.2788 2.82222 18.8835C3.32555 19.8713 4.1287 20.6744 5.11655 21.1778C5.7212 21.4859 6.38657 21.6211 7.18333 21.6862C7.37666 21.702 7.58159 21.7139 7.79923 21.7228C7.86313 21.7405 7.93046 21.75 8 21.75C8.05206 21.75 8.10288 21.7447 8.15195 21.7346C8.73372 21.75 9.3995 21.75 10.1667 21.75H10.2L13.8 21.75H13.8333C14.6005 21.75 15.2663 21.75 15.8481 21.7346C15.8971 21.7447 15.9479 21.75 16 21.75C16.0695 21.75 16.1369 21.7405 16.2008 21.7228C16.4184 21.7139 16.6233 21.702 16.8167 21.6862C17.6134 21.6211 18.2788 21.4859 18.8835 21.1778C19.8713 20.6744 20.6744 19.8713 21.1778 18.8835C21.4859 18.2788 21.6211 17.6134 21.6862 16.8167C21.75 16.0357 21.75 15.0652 21.75 13.8333V13.8L21.75 12V10.2V10.1667C21.75 8.93477 21.75 7.96432 21.6862 7.18334C21.6211 6.38657 21.4859 5.7212 21.1778 5.11655C20.6744 4.1287 19.8713 3.32555 18.8835 2.82222C18.2788 2.51413 17.6134 2.3789 16.8167 2.3138C16.6233 2.298 16.4184 2.28612 16.2008 2.27718C16.1369 2.25946 16.0695 2.25 16 2.25C15.9479 2.25 15.8971 2.2553 15.848 2.2654C15.2663 2.24999 14.6005 2.25 13.8333 2.25H13.8L10.2 2.25ZM20.25 11.25V10.2C20.25 9.42902 20.2498 8.79138 20.2367 8.25H20H16.75V11.25L20.25 11.25ZM15.25 8.25L15.25 6.75V3.75482C14.8247 3.75011 14.3458 3.75 13.8 3.75L10.2 3.75C9.65424 3.75 9.17529 3.75011 8.75 3.75482V6.75L8.75 8.25L8.75 11.25H15.25V8.25ZM16.75 6.75H20H20.1268C20.0632 6.34826 19.9703 6.05085 19.8413 5.79754C19.4817 5.09193 18.9081 4.51825 18.2025 4.15873C17.854 3.98118 17.4221 3.87222 16.75 3.81351V6.75ZM16.75 12.75L20.25 12.75L20.25 13.8C20.25 14.571 20.2498 15.2086 20.2367 15.75H20L16.75 15.75V12.75ZM20 17.25H20.1268C20.0632 17.6517 19.9703 17.9491 19.8413 18.2025C19.4817 18.9081 18.9081 19.4817 18.2025 19.8413C17.854 20.0188 17.4221 20.1278 16.75 20.1865L16.75 17.25L20 17.25ZM15.25 15.75V17.25L15.25 20.2452C14.8247 20.2499 14.3458 20.25 13.8 20.25L10.2 20.25C9.65424 20.25 9.17529 20.2499 8.75 20.2452L8.75 17.25L8.75 15.75L8.75 12.75H15.25V15.75ZM7.25 3.81351L7.25 6.75L4 6.75H3.87321C3.93683 6.34826 4.02966 6.05085 4.15873 5.79754C4.51825 5.09193 5.09193 4.51825 5.79754 4.15873C6.14599 3.98118 6.57788 3.87222 7.25 3.81351ZM3.75 10.2C3.75 9.42902 3.75021 8.79138 3.76334 8.25H4H7.25L7.25 11.25H3.75L3.75 10.2ZM7.25 15.75V12.75H3.75V13.8C3.75 14.571 3.75021 15.2086 3.76334 15.75H4H7.25ZM3.87321 17.25C3.93683 17.6517 4.02966 17.9491 4.15873 18.2025C4.51825 18.9081 5.09193 19.4817 5.79754 19.8413C6.14599 20.0188 6.57788 20.1278 7.25 20.1865V17.25H4H3.87321Z" fill="#1D1E1F"/>
</svg>
