<svg width="24" height="24" viewBox="0 0 24 24" fill="none" xmlns="http://www.w3.org/2000/svg">
<path fill-rule="evenodd" clip-rule="evenodd" d="M2.25 13.8333L2.25 13.8L2.25 10.2L2.25 10.1667C2.24999 8.93478 2.24999 7.96432 2.3138 7.18334C2.3789 6.38657 2.51413 5.7212 2.82222 5.11655C3.32555 4.1287 4.1287 3.32555 5.11655 2.82222C5.7212 2.51413 6.38657 2.3789 7.18333 2.3138C7.96431 2.24999 8.93477 2.24999 10.1667 2.25L10.2 2.25L13.8 2.25L13.8333 2.25L13.8355 2.25C14.2309 2.25 14.5993 2.25 14.9432 2.25212C14.962 2.25071 14.9809 2.25 15 2.25C15.0227 2.25 15.0452 2.25101 15.0674 2.25299C15.7405 2.25829 16.3173 2.273 16.8167 2.3138C17.6134 2.3789 18.2788 2.51413 18.8835 2.82222C19.8713 3.32555 20.6744 4.1287 21.1778 5.11655C21.4859 5.7212 21.6211 6.38657 21.6862 7.18333C21.75 7.96431 21.75 8.93477 21.75 10.1667L21.75 10.2L21.75 13.8L21.75 13.8333C21.75 15.0652 21.75 16.0357 21.6862 16.8167C21.6211 17.6134 21.4859 18.2788 21.1778 18.8834C20.6744 19.8713 19.8713 20.6744 18.8835 21.1778C18.2788 21.4859 17.6134 21.6211 16.8167 21.6862C16.0357 21.75 15.0652 21.75 13.8333 21.75L13.8 21.75L10.2 21.75L10.1667 21.75C8.93478 21.75 7.96432 21.75 7.18333 21.6862C6.38657 21.6211 5.7212 21.4859 5.11655 21.1778C4.1287 20.6744 3.32555 19.8713 2.82222 18.8835C2.51413 18.2788 2.3789 17.6134 2.3138 16.8167C2.24999 16.0357 2.24999 15.0652 2.25 13.8333ZM14.25 3.75013L13.8 3.75L10.2 3.75C10.0294 3.75 9.86533 3.75001 9.70738 3.75017C9.73498 3.82832 9.75 3.9124 9.75 4L9.75 7.25L14.25 7.25L14.25 3.75013ZM7.30548 3.80882C7.59657 3.78504 7.92042 3.77087 8.28841 3.76243C8.2635 3.83709 8.25 3.91697 8.25 4L8.25 7.25L4 7.25L3.81351 7.25C3.87222 6.57788 3.98118 6.14599 4.15873 5.79754C4.51825 5.09193 5.09193 4.51825 5.79753 4.15873C6.15549 3.97634 6.60148 3.86634 7.30548 3.80882ZM4 8.75L9 8.75L15 8.75L20 8.75L20.2452 8.75C20.2499 9.17529 20.25 9.65424 20.25 10.2L20.25 13.8C20.25 15.0725 20.2494 15.9818 20.1912 16.6945C20.1337 17.3985 20.0237 17.8445 19.8413 18.2025C19.4817 18.9081 18.9081 19.4817 18.2025 19.8413C17.8445 20.0237 17.3985 20.1337 16.6945 20.1912C15.9818 20.2494 15.0725 20.25 13.8 20.25L10.2 20.25C8.92751 20.25 8.01824 20.2494 7.30548 20.1912C6.60148 20.1337 6.15549 20.0237 5.79754 19.8413C5.09193 19.4817 4.51825 18.9081 4.15873 18.2025C3.97634 17.8445 3.86634 17.3985 3.80882 16.6945C3.75058 15.9818 3.75 15.0725 3.75 13.8L3.75 10.2C3.75 9.65424 3.75011 9.17529 3.75482 8.75L4 8.75ZM15.75 7.25L15.75 3.76334C16.1022 3.77187 16.4136 3.78587 16.6945 3.80882C17.3985 3.86634 17.8445 3.97634 18.2025 4.15873C18.9081 4.51825 19.4817 5.09193 19.8413 5.79754C20.0188 6.14599 20.1278 6.57788 20.1865 7.25L20 7.25L15.75 7.25ZM11.9707 10.4124C10.8078 9.63711 9.25 10.4708 9.25 11.8685L9.25 16.1315C9.25 17.5292 10.8078 18.3629 11.9707 17.5876L15.168 15.4561C16.207 14.7634 16.207 13.2366 15.1679 12.5439L11.9707 10.4124ZM10.75 11.8685C10.75 11.6688 10.9725 11.5497 11.1387 11.6605L14.3359 13.792C14.4843 13.8909 14.4843 14.1091 14.3359 14.208L11.1387 16.3395C10.9725 16.4503 10.75 16.3312 10.75 16.1315L10.75 11.8685Z" fill="#1D1E1F"/>
</svg>
