<svg width="24" height="24" viewBox="0 0 24 24" fill="none" xmlns="http://www.w3.org/2000/svg">
<path fill-rule="evenodd" clip-rule="evenodd" d="M2.25 13.8L2.25 13.8333L2.25 13.8333C2.25 14.6005 2.24999 15.2663 2.2654 15.848C2.2553 15.8971 2.25 15.9479 2.25 16C2.25 16.0695 2.25946 16.1369 2.27718 16.2008C2.28612 16.4184 2.298 16.6233 2.3138 16.8167C2.3789 17.6134 2.51413 18.2788 2.82222 18.8835C3.32555 19.8713 4.1287 20.6744 5.11655 21.1778C5.7212 21.4859 6.38657 21.6211 7.18334 21.6862C7.96432 21.75 8.93478 21.75 10.1667 21.75L10.2 21.75L12 21.75L13.8 21.75L13.8333 21.75C15.0652 21.75 16.0357 21.75 16.8167 21.6862C17.6134 21.6211 18.2788 21.4859 18.8835 21.1778C19.8713 20.6744 20.6744 19.8713 21.1778 18.8834C21.4859 18.2788 21.6211 17.6134 21.6862 16.8167C21.702 16.6233 21.7139 16.4184 21.7228 16.2008C21.7405 16.1369 21.75 16.0695 21.75 16C21.75 15.9479 21.7447 15.8971 21.7346 15.8481C21.75 15.2663 21.75 14.6005 21.75 13.8333L21.75 13.8L21.75 10.2L21.75 10.1667C21.75 9.39949 21.75 8.73372 21.7346 8.15195C21.7447 8.10287 21.75 8.05206 21.75 8C21.75 7.93046 21.7405 7.86313 21.7228 7.79922C21.7139 7.58159 21.702 7.37666 21.6862 7.18333C21.6211 6.38657 21.4859 5.7212 21.1778 5.11655C20.6744 4.1287 19.8713 3.32555 18.8835 2.82222C18.2788 2.51413 17.6134 2.3789 16.8167 2.3138C16.0357 2.24999 15.0652 2.24999 13.8333 2.25L13.8 2.25L12 2.25L10.2 2.25L10.1667 2.25C8.93477 2.24999 7.96431 2.24999 7.18333 2.3138C6.38657 2.3789 5.7212 2.51413 5.11655 2.82222C4.1287 3.32555 3.32555 4.1287 2.82222 5.11655C2.51413 5.7212 2.3789 6.38657 2.3138 7.18334C2.298 7.37666 2.28612 7.58159 2.27718 7.79922C2.25946 7.86313 2.25 7.93046 2.25 8C2.25 8.05206 2.2553 8.10289 2.2654 8.15196C2.24999 8.73373 2.25 9.39951 2.25 10.1667L2.25 10.2L2.25 13.8ZM11.25 3.75L10.2 3.75C9.42902 3.75 8.79138 3.75022 8.25 3.76334L8.25 4L8.25 7.25L11.25 7.25L11.25 3.75ZM8.25 8.75L6.75 8.75L3.75482 8.75C3.75011 9.17529 3.75 9.65424 3.75 10.2L3.75 13.8C3.75 14.3458 3.75011 14.8247 3.75482 15.25L6.75 15.25L8.25 15.25L11.25 15.25L11.25 8.75L8.25 8.75ZM6.75 7.25L6.75 4L6.75 3.87321C6.34826 3.93683 6.05085 4.02966 5.79754 4.15873C5.09193 4.51825 4.51825 5.09193 4.15873 5.79754C3.98118 6.14599 3.87222 6.57788 3.81351 7.25L6.75 7.25ZM12.75 7.25L12.75 3.75L13.8 3.75C14.571 3.75 15.2086 3.75021 15.75 3.76334L15.75 4L15.75 7.25L12.75 7.25ZM17.25 4L17.25 3.87321C17.6517 3.93683 17.9491 4.02965 18.2025 4.15873C18.9081 4.51825 19.4817 5.09193 19.8413 5.79754C20.0188 6.14599 20.1278 6.57788 20.1865 7.25L17.25 7.25L17.25 4ZM15.75 8.75L17.25 8.75L20.2452 8.75C20.2499 9.17529 20.25 9.65423 20.25 10.2L20.25 13.8C20.25 14.3458 20.2499 14.8247 20.2452 15.25L17.25 15.25L15.75 15.25L12.75 15.25L12.75 8.75L15.75 8.75ZM3.81351 16.75L6.75 16.75L6.75 20L6.75 20.1268C6.34826 20.0632 6.05085 19.9703 5.79754 19.8413C5.09193 19.4817 4.51825 18.9081 4.15873 18.2025C3.98118 17.854 3.87222 17.4221 3.81351 16.75ZM10.2 20.25C9.42902 20.25 8.79138 20.2498 8.25 20.2367L8.25 20L8.25 16.75L11.25 16.75L11.25 20.25L10.2 20.25ZM15.75 16.75L12.75 16.75L12.75 20.25L13.8 20.25C14.571 20.25 15.2086 20.2498 15.75 20.2367L15.75 20L15.75 16.75ZM17.25 20.1268C17.6517 20.0632 17.9491 19.9703 18.2025 19.8413C18.9081 19.4817 19.4817 18.9081 19.8413 18.2025C20.0188 17.854 20.1278 17.4221 20.1865 16.75L17.25 16.75L17.25 20L17.25 20.1268Z" fill="#1D1E1F"/>
</svg>
