<svg width="24" height="24" viewBox="0 0 24 24" fill="none" xmlns="http://www.w3.org/2000/svg">
<path fill-rule="evenodd" clip-rule="evenodd" d="M12 2.25C6.61522 2.25 2.25 6.61522 2.25 12V16.5C2.25 16.9142 2.58579 17.25 3 17.25C3.41421 17.25 3.75 16.9142 3.75 16.5V12C3.75 7.44365 7.44365 3.75 12 3.75C16.5563 3.75 20.25 7.44365 20.25 12V13C20.25 13.4142 20.5858 13.75 21 13.75C21.4142 13.75 21.75 13.4142 21.75 13V12C21.75 6.61522 17.3848 2.25 12 2.25ZM3.75 19.5C3.75 19.0858 3.41421 18.75 3 18.75C2.58579 18.75 2.25 19.0858 2.25 19.5V21C2.25 21.4142 2.58579 21.75 3 21.75C3.41421 21.75 3.75 21.4142 3.75 21V19.5ZM7.75 12C7.75 9.65279 9.65279 7.75 12 7.75C14.3472 7.75 16.25 9.65279 16.25 12V12.5V21C16.25 21.4142 16.5858 21.75 17 21.75C17.4142 21.75 17.75 21.4142 17.75 21V12.5V12C17.75 8.82436 15.1756 6.25 12 6.25C8.82436 6.25 6.25 8.82436 6.25 12V12.5C6.25 12.9142 6.58579 13.25 7 13.25C7.41421 13.25 7.75 12.9142 7.75 12.5V12ZM7.75 16C7.75 15.5858 7.41421 15.25 7 15.25C6.58579 15.25 6.25 15.5858 6.25 16V21C6.25 21.4142 6.58579 21.75 7 21.75C7.41421 21.75 7.75 21.4142 7.75 21V16ZM12 11.75C12.6904 11.75 13.25 12.3096 13.25 13V14C13.25 14.4142 13.5858 14.75 14 14.75C14.4142 14.75 14.75 14.4142 14.75 14V13C14.75 11.4812 13.5188 10.25 12 10.25C10.4812 10.25 9.25 11.4812 9.25 13V15.5C9.25 15.9142 9.58579 16.25 10 16.25C10.4142 16.25 10.75 15.9142 10.75 15.5V13C10.75 12.3096 11.3096 11.75 12 11.75ZM14 16.6786C13.5858 16.6786 13.25 17.0144 13.25 17.4286V21C13.25 21.4142 13.5858 21.75 14 21.75C14.4142 21.75 14.75 21.4142 14.75 21V17.4286C14.75 17.0144 14.4142 16.6786 14 16.6786ZM10 17.75C9.58579 17.75 9.25 18.0858 9.25 18.5V21C9.25 21.4142 9.58579 21.75 10 21.75C10.4142 21.75 10.75 21.4142 10.75 21V18.5C10.75 18.0858 10.4142 17.75 10 17.75ZM21.75 17C21.75 16.5858 21.4142 16.25 21 16.25C20.5858 16.25 20.25 16.5858 20.25 17V21C20.25 21.4142 20.5858 21.75 21 21.75C21.4142 21.75 21.75 21.4142 21.75 21V17Z" fill="#18191A"/>
</svg>
