<svg width="24" height="24" viewBox="0 0 24 24" fill="none" xmlns="http://www.w3.org/2000/svg">
<path fill-rule="evenodd" clip-rule="evenodd" d="M11.4697 3.46967C11.329 3.61032 11.25 3.80109 11.25 4C11.25 4.19891 11.329 4.38968 11.4697 4.53033L14.4697 7.53033C14.7626 7.82322 15.2374 7.82322 15.5303 7.53033C15.8232 7.23744 15.8232 6.76256 15.5303 6.46967L13.8107 4.75003L16.0001 4.75007C18.8995 4.75012 21.25 7.10061 21.25 10.0001L21.25 13C21.25 13.4142 21.5858 13.75 22 13.75C22.4142 13.75 22.75 13.4142 22.75 13L22.75 10.0001C22.75 6.27219 19.728 3.25013 16.0001 3.25007L13.8106 3.25003L15.5303 1.53033C15.8232 1.23744 15.8232 0.762563 15.5303 0.46967C15.2374 0.176777 14.7626 0.176777 14.4697 0.46967L11.4697 3.46967ZM18.75 16.2L18.75 16.2321V16.2323C18.75 17.045 18.75 17.7006 18.7066 18.2315C18.662 18.7781 18.5676 19.2582 18.3413 19.7025C17.9817 20.4081 17.4081 20.9817 16.7025 21.3413C16.2582 21.5676 15.7781 21.662 15.2315 21.7066C14.7006 21.75 14.0449 21.75 13.2321 21.75H13.2H7.8H7.76789C6.95505 21.75 6.29944 21.75 5.76853 21.7066C5.22189 21.662 4.74175 21.5676 4.29753 21.3413C3.59193 20.9817 3.01825 20.4081 2.65872 19.7025C2.43238 19.2582 2.33802 18.7781 2.29336 18.2315C2.24999 17.7006 2.24999 17.045 2.25 16.2321V16.2V14.8V14.7679C2.24999 13.955 2.24999 13.2994 2.29336 12.7685C2.33802 12.2219 2.43238 11.7418 2.65872 11.2975C3.01825 10.5919 3.59193 10.0183 4.29753 9.65873C4.74175 9.43238 5.22189 9.33803 5.76853 9.29336C6.29943 9.24999 6.95503 9.24999 7.76786 9.25H7.76787H7.8H13.2H13.2321C14.0449 9.24999 14.7006 9.24999 15.2315 9.29336C15.7781 9.33803 16.2582 9.43238 16.7025 9.65872C17.4081 10.0183 17.9817 10.5919 18.3413 11.2975C18.5676 11.7418 18.662 12.2219 18.7066 12.7685C18.75 13.2994 18.75 13.9551 18.75 14.7679V14.8V16.2ZM17.0048 19.0215C17.1054 18.824 17.1745 18.5632 17.2116 18.1093C17.2494 17.6467 17.25 17.0525 17.25 16.2V14.8C17.25 13.9475 17.2494 13.3533 17.2116 12.8907C17.1745 12.4368 17.1054 12.176 17.0048 11.9785C16.789 11.5552 16.4448 11.2109 16.0215 10.9952C15.824 10.8946 15.5632 10.8255 15.1093 10.7884C14.6467 10.7506 14.0525 10.75 13.2 10.75H7.8C6.94754 10.75 6.35331 10.7506 5.89068 10.7884C5.4368 10.8255 5.17604 10.8946 4.97852 10.9952C4.55516 11.2109 4.21095 11.5552 3.99524 11.9785C3.89459 12.176 3.82546 12.4368 3.78838 12.8907C3.75058 13.3533 3.75 13.9475 3.75 14.8V16.2C3.75 17.0525 3.75058 17.6467 3.78838 18.1093C3.82546 18.5632 3.8946 18.824 3.99524 19.0215C4.21095 19.4448 4.55516 19.789 4.97852 20.0048C5.17604 20.1054 5.4368 20.1745 5.89068 20.2116C6.35331 20.2494 6.94755 20.25 7.8 20.25H13.2C14.0525 20.25 14.6467 20.2494 15.1093 20.2116C15.5632 20.1745 15.824 20.1054 16.0215 20.0048C16.4448 19.789 16.789 19.4448 17.0048 19.0215Z" fill="#18191A"/>
</svg>
