<svg width="24" height="24" viewBox="0 0 24 24" fill="none" xmlns="http://www.w3.org/2000/svg">
<path fill-rule="evenodd" clip-rule="evenodd" d="M7.5 3.75C5.42893 3.75 3.75 5.42893 3.75 7.5V8V8.75H2.25V8V7.5C2.25 4.60051 4.6005 2.25 7.5 2.25H8H8.75V3.75H8H7.5ZM12 8.75C10.2051 8.75 8.75 10.2051 8.75 12C8.75 13.7949 10.2051 15.25 12 15.25C13.7949 15.25 15.25 13.7949 15.25 12C15.25 10.2051 13.7949 8.75 12 8.75ZM7.25 12C7.25 9.37665 9.37665 7.25 12 7.25C14.6234 7.25 16.75 9.37665 16.75 12C16.75 14.6234 14.6234 16.75 12 16.75C9.37665 16.75 7.25 14.6234 7.25 12ZM3.75 16.5C3.75 18.5711 5.42893 20.25 7.5 20.25H8H8.75V21.75H8H7.5C4.6005 21.75 2.25 19.3995 2.25 16.5V16V15.25H3.75V16V16.5ZM16.5 3.75C18.5711 3.75 20.25 5.42893 20.25 7.5V8V8.75H21.75V8V7.5C21.75 4.60051 19.3995 2.25 16.5 2.25H16H15.25V3.75H16H16.5ZM20.25 16.5C20.25 18.5711 18.5711 20.25 16.5 20.25H16H15.25V21.75H16H16.5C19.3995 21.75 21.75 19.3995 21.75 16.5V16V15.25H20.25V16V16.5Z" fill="#1D1E1F"/>
</svg>
