<svg width="24" height="24" viewBox="0 0 24 24" fill="none" xmlns="http://www.w3.org/2000/svg">
<path fill-rule="evenodd" clip-rule="evenodd" d="M15.5243 3.75005C15.0189 3.75005 14.8823 3.75435 14.7665 3.78028C14.5246 3.8345 14.3042 3.95946 14.1334 4.13928C14.0517 4.2253 13.9779 4.34031 13.7184 4.77402L13.6821 4.83475L13.6821 4.83476C13.4761 5.17937 13.3147 5.44952 13.1039 5.67153C12.7282 6.06713 12.2433 6.34205 11.7109 6.46131C11.566 6.49378 11.4173 6.51046 11.2568 6.519C11.5336 6.88974 11.622 6.99663 11.7187 7.07493C11.8584 7.18807 12.0209 7.26974 12.195 7.31437C12.3262 7.34798 12.4786 7.3535 13.0468 7.3535H16.828H16.8629H16.863C17.8089 7.35349 18.5676 7.35348 19.1745 7.40607C19.1998 7.40826 19.225 7.41055 19.25 7.41294V6.20005C19.25 5.62762 19.2494 5.24341 19.2252 4.94753C19.2018 4.6604 19.1599 4.52312 19.1138 4.43256C18.9939 4.19736 18.8027 4.00613 18.5675 3.88629C18.4769 3.84015 18.3396 3.79827 18.0525 3.77481C17.7566 3.75063 17.3724 3.75005 16.8 3.75005H15.5243ZM20.75 7.8114V6.20005V6.16962C20.75 5.63546 20.75 5.18961 20.7203 4.82538C20.6892 4.4455 20.6221 4.08884 20.4503 3.75158C20.1866 3.23413 19.7659 2.81343 19.2485 2.54978C18.9112 2.37794 18.5546 2.31083 18.1747 2.27979C17.8104 2.25003 17.3646 2.25004 16.8304 2.25005L16.8 2.25005H15.5243L15.4536 2.25002C15.0521 2.2498 14.7374 2.24963 14.4386 2.31657C13.9063 2.43583 13.4214 2.71075 13.0457 3.10635C12.8349 3.32836 12.6734 3.59851 12.4675 3.94313L12.4312 4.00385C12.1717 4.43757 12.0979 4.55258 12.0162 4.6386C11.8454 4.81842 11.625 4.94338 11.383 4.99759C11.2673 5.02353 11.1307 5.02783 10.6252 5.02783H9.99999C9.99069 5.02783 9.98143 5.028 9.97221 5.02833C9.56982 4.71862 9.10843 4.49365 8.61592 4.36744C8.15633 4.24966 7.66684 4.24981 6.95819 4.25003L6.86385 4.25005H6.83202H6.83201C5.97176 4.25004 5.2816 4.25004 4.7274 4.29402C4.16028 4.33902 3.66317 4.43399 3.21226 4.66621C2.36549 5.10231 1.7164 5.84428 1.39674 6.7415C1.22674 7.21865 1.19821 7.72179 1.22856 8.28719C1.25818 8.83912 1.34928 9.51824 1.46272 10.364L1.46696 10.3956L2.27738 16.4378L2.28132 16.4672C2.37686 17.1796 2.45424 17.7565 2.55367 18.2229C2.65641 18.7048 2.79312 19.124 3.03536 19.5065C3.42259 20.1179 3.97847 20.6042 4.63594 20.9067C5.04723 21.096 5.48089 21.1757 5.97219 21.2135C6.44763 21.2501 7.02969 21.2501 7.74843 21.25H7.74852H7.77812H16.359H16.388C17.085 21.2501 17.65 21.2501 18.1124 21.2151C18.5906 21.179 19.0131 21.1026 19.4161 20.922C20.0613 20.6328 20.6115 20.1672 21.0034 19.5788C21.2482 19.2112 21.3934 18.8071 21.5081 18.3414C21.619 17.8912 21.7125 17.3341 21.8277 16.6467L21.8278 16.6466L21.8326 16.618L22.3015 13.8214L22.3073 13.787C22.4638 12.854 22.5893 12.1058 22.6378 11.4985C22.6875 10.8767 22.665 10.323 22.4713 9.80029C22.1664 8.97765 21.5827 8.28795 20.8218 7.8512C20.798 7.83754 20.7741 7.82428 20.75 7.8114ZM6.86385 5.75005C7.70302 5.75005 7.99036 5.7556 8.24355 5.82048C8.55702 5.90082 8.84948 6.04782 9.10096 6.25147C9.30418 6.41603 9.47847 6.64124 9.97528 7.30956L10.0224 7.373C10.2918 7.73589 10.5035 8.02107 10.7747 8.24065C11.0821 8.48955 11.4395 8.66923 11.8226 8.76741C12.1606 8.85403 12.5158 8.85381 12.9678 8.85353L13.0468 8.8535H16.828C17.8169 8.8535 18.5105 8.85416 19.0451 8.90047C19.5727 8.94618 19.8649 9.0315 20.0751 9.15212C20.5316 9.41417 20.8818 9.82799 21.0647 10.3216C21.149 10.5488 21.1848 10.8511 21.1426 11.379C21.0998 11.9139 20.9858 12.598 20.8222 13.5733L20.3532 16.3699C20.232 17.0927 20.1475 17.5938 20.0517 17.9825C19.9581 18.3621 19.8658 18.5808 19.7549 18.7473C19.5198 19.1003 19.1897 19.3797 18.8026 19.5532C18.6201 19.635 18.3891 19.6899 17.9993 19.7194C17.6001 19.7496 17.0919 19.75 16.359 19.75H7.77812C7.0227 19.75 6.49836 19.7495 6.08717 19.7179C5.68533 19.687 5.44856 19.6295 5.26294 19.5441C4.86846 19.3625 4.53493 19.0708 4.30259 18.7039C4.19326 18.5313 4.10473 18.3043 4.02069 17.9101C3.9347 17.5068 3.86449 16.9872 3.76407 16.2384L2.95365 10.1962C2.83499 9.31152 2.75244 8.69182 2.7264 8.20679C2.70072 7.72837 2.7357 7.45274 2.80974 7.24492C3.00153 6.70659 3.39099 6.2614 3.89905 5.99974C4.09459 5.89904 4.36432 5.82754 4.84606 5.78932C5.3339 5.7506 5.96443 5.75005 6.86385 5.75005Z" fill="#18191A"/>
</svg>
