<svg width="24" height="24" viewBox="0 0 24 24" fill="none" xmlns="http://www.w3.org/2000/svg">
<path fill-rule="evenodd" clip-rule="evenodd" d="M6.54391 3.75003C7.25125 3.75003 7.49329 3.75405 7.71123 3.80146C8.05222 3.87565 8.37127 4.02814 8.64317 4.24686C8.81696 4.38666 8.97212 4.57248 9.41641 5.12288L9.45848 5.17504C9.69971 5.4742 9.88923 5.70923 10.1211 5.89572C10.4534 6.16306 10.8433 6.34942 11.2601 6.4401C11.5508 6.50336 11.8527 6.5032 12.2371 6.50299L12.3041 6.50297H16.7529C17.9575 6.50297 18.4225 6.50861 18.7879 6.59991C19.9526 6.89095 20.862 7.80037 21.1531 8.96511C21.2444 9.3305 21.25 9.79547 21.25 11V12C21.25 12.4142 21.5858 12.75 22 12.75C22.4142 12.75 22.75 12.4142 22.75 12V11L22.75 10.8812V10.8811C22.7502 9.83567 22.7503 9.16982 22.6083 8.60148C22.183 6.89917 20.8538 5.57001 19.1515 5.14465C18.5831 5.00264 17.9173 5.00276 16.8718 5.00295L16.7529 5.00297H12.3041C11.8215 5.00297 11.6919 4.99895 11.579 4.97439C11.3896 4.93318 11.2123 4.84846 11.0613 4.72695C10.9712 4.65455 10.8867 4.55619 10.5836 4.18071L10.534 4.1192C10.1583 3.65352 9.89859 3.33167 9.58337 3.07809C9.13019 2.71354 8.59844 2.4594 8.03014 2.33576C7.63482 2.24975 7.22129 2.24986 6.62296 2.25001L6.54391 2.25003H4.75294C2.81832 2.25003 1.25 3.81835 1.25 5.75297V14.6V14.633C1.24999 15.7252 1.24999 16.5907 1.30699 17.2883C1.36527 18.0017 1.48688 18.6053 1.76772 19.1565C2.22312 20.0503 2.94978 20.7769 3.84355 21.2323C4.39472 21.5131 4.99835 21.6348 5.71173 21.693C6.40935 21.75 7.27485 21.75 8.36698 21.75H8.4H10.8889C11.3031 21.75 11.6389 21.4142 11.6389 21C11.6389 20.5858 11.3031 20.25 10.8889 20.25H8.4C7.26752 20.25 6.46327 20.2494 5.83388 20.198C5.21325 20.1473 4.829 20.0509 4.52453 19.8958C3.913 19.5842 3.41582 19.087 3.10423 18.4755C2.94909 18.171 2.85271 17.7868 2.80201 17.1661C2.75058 16.5368 2.75 15.7325 2.75 14.6V5.75297C2.75 4.64677 3.64675 3.75003 4.75294 3.75003H6.54391ZM14.4697 21.5304C14.7626 21.8232 15.2374 21.8232 15.5303 21.5304L18 19.0607L20.4697 21.5304C20.7626 21.8232 21.2374 21.8232 21.5303 21.5304C21.8232 21.2375 21.8232 20.7626 21.5303 20.4697L19.0607 18L21.5303 15.5304C21.8232 15.2375 21.8232 14.7626 21.5303 14.4697C21.2374 14.1768 20.7626 14.1768 20.4697 14.4697L18 16.9394L15.5303 14.4697C15.2374 14.1768 14.7626 14.1768 14.4697 14.4697C14.1768 14.7626 14.1768 15.2375 14.4697 15.5304L16.9393 18L14.4697 20.4697C14.1768 20.7626 14.1768 21.2375 14.4697 21.5304Z" fill="#18191A"/>
</svg>
