<svg width="24" height="24" viewBox="0 0 24 24" fill="none" xmlns="http://www.w3.org/2000/svg">
<path fill-rule="evenodd" clip-rule="evenodd" d="M6.54391 3.75003C7.25125 3.75003 7.49329 3.75405 7.71123 3.80146C8.05222 3.87565 8.37127 4.02814 8.64317 4.24686C8.81696 4.38666 8.97212 4.57248 9.41641 5.12288L9.45848 5.17504C9.69971 5.4742 9.88923 5.70923 10.1211 5.89572C10.4534 6.16306 10.8433 6.34942 11.2601 6.4401C11.5508 6.50336 11.8527 6.5032 12.2371 6.50299L12.3041 6.50297H16.2529C17.9436 6.50297 18.5938 6.51398 19.0931 6.69232C20.0108 7.02005 20.7329 7.74222 21.0606 8.65984C21.239 9.15917 21.25 9.80937 21.25 11.5V12C21.25 12.4142 21.5858 12.75 22 12.75C22.4142 12.75 22.75 12.4142 22.75 12V11.5L22.75 11.3334C22.7504 9.8673 22.7506 8.93199 22.4733 8.15533C21.9943 6.81418 20.9388 5.75871 19.5976 5.27971C18.821 5.00232 17.8857 5.00256 16.4196 5.00294L16.2529 5.00297H12.3041C11.8215 5.00297 11.6919 4.99895 11.579 4.97439C11.3896 4.93318 11.2123 4.84846 11.0613 4.72695C10.9712 4.65455 10.8867 4.55619 10.5836 4.18071L10.534 4.1192C10.1583 3.65352 9.89859 3.33167 9.58337 3.07809C9.13019 2.71354 8.59844 2.4594 8.03014 2.33576C7.63482 2.24975 7.22129 2.24985 6.62296 2.25001L6.54391 2.25003H4.75294C2.81832 2.25003 1.25 3.81835 1.25 5.75297V14.6V14.633C1.24999 15.7252 1.24999 16.5907 1.30699 17.2883C1.36527 18.0017 1.48688 18.6053 1.76772 19.1565C2.22312 20.0503 2.94978 20.7769 3.84355 21.2323C4.39472 21.5131 4.99835 21.6348 5.71173 21.693C6.40935 21.75 7.27485 21.75 8.36698 21.75H8.4H10.8889C11.3031 21.75 11.6389 21.4142 11.6389 21C11.6389 20.5858 11.3031 20.25 10.8889 20.25H8.4C7.26752 20.25 6.46327 20.2494 5.83388 20.198C5.21325 20.1473 4.829 20.0509 4.52453 19.8958C3.913 19.5842 3.41582 19.087 3.10423 18.4755C2.94909 18.171 2.85271 17.7868 2.80201 17.1661C2.75058 16.5368 2.75 15.7325 2.75 14.6V5.75297C2.75 4.64677 3.64675 3.75003 4.75294 3.75003H6.54391ZM22 18.75C22.4142 18.75 22.75 18.4142 22.75 18C22.75 17.5858 22.4142 17.25 22 17.25H14C13.5858 17.25 13.25 17.5858 13.25 18C13.25 18.4142 13.5858 18.75 14 18.75H22Z" fill="#18191A"/>
</svg>
