<svg width="24" height="24" viewBox="0 0 24 24" fill="none" xmlns="http://www.w3.org/2000/svg">
<path d="M2 5.75294C2 4.23253 3.23253 3 4.75294 3H6.54391C7.21828 3 7.55547 3 7.87068 3.06858C8.32533 3.1675 8.75073 3.37081 9.11327 3.66245C9.36462 3.86465 9.57642 4.12702 10 4.65176V4.65176C10.2824 5.0016 10.4236 5.17651 10.5912 5.31131C10.8328 5.50573 11.1164 5.64127 11.4195 5.70722C11.6297 5.75294 11.8545 5.75294 12.3041 5.75294H15.6C17.8402 5.75294 18.9603 5.75294 19.816 6.18892C20.5686 6.57241 21.1805 7.18433 21.564 7.93698C22 8.79263 22 9.91273 22 12.1529V14.6C22 16.8402 22 17.9603 21.564 18.816C21.1805 19.5686 20.5686 20.1805 19.816 20.564C18.9603 21 17.8402 21 15.6 21H8.4C6.15979 21 5.03968 21 4.18404 20.564C3.43139 20.1805 2.81947 19.5686 2.43597 18.816C2 17.9603 2 16.8402 2 14.6V5.75294V5.75294Z" stroke="#18191A" stroke-width="1.5" stroke-linecap="round" stroke-linejoin="round"/>
</svg>
