<svg width="24" height="24" viewBox="0 0 24 24" fill="none" xmlns="http://www.w3.org/2000/svg">
<path fill-rule="evenodd" clip-rule="evenodd" d="M12 3.75C14.3424 3.75 16.4557 4.72523 17.9584 6.29385C18.5124 6.87218 18.9829 7.53073 19.3506 8.25H14C13.5858 8.25 13.25 8.58579 13.25 9C13.25 9.41421 13.5858 9.75 14 9.75H21H21.75V9V3C21.75 2.58579 21.4142 2.25 21 2.25C20.5858 2.25 20.25 2.58579 20.25 3V6.80165C19.8992 6.24595 19.4938 5.72831 19.0416 5.25621C17.2678 3.4045 14.7681 2.25 12 2.25C6.61522 2.25 2.25 6.61522 2.25 12C2.25 17.3848 6.61522 21.75 12 21.75V20.25C7.44365 20.25 3.75 16.5563 3.75 12C3.75 7.44365 7.44365 3.75 12 3.75ZM17.3568 20.685C17.7937 20.895 18.3306 21 18.9675 21C19.5821 21 20.1153 20.8875 20.567 20.6624C21.0188 20.4374 21.3705 20.1224 21.6223 19.7173C21.8741 19.3122 22 18.8359 22 18.2883C22 17.8908 21.9259 17.5382 21.7778 17.2307C21.6371 16.9156 21.4409 16.6493 21.1891 16.4318C20.9373 16.2068 20.6485 16.038 20.3227 15.9255C20.0042 15.8054 19.6673 15.7454 19.3118 15.7454C18.9193 15.7454 18.612 15.7867 18.3898 15.8692C18.1677 15.9517 17.9899 16.038 17.8567 16.128L18.0344 14.294H21.2446C21.3187 14.294 21.3816 14.2677 21.4335 14.2152C21.4853 14.1627 21.5112 14.0989 21.5112 14.0239V13.27C21.5112 13.195 21.4853 13.1313 21.4335 13.0788C21.3816 13.0263 21.3187 13 21.2446 13H17.068C16.9865 13 16.9162 13.0263 16.8569 13.0788C16.7977 13.1313 16.7643 13.2063 16.7569 13.3038L16.3682 17.1519C16.3682 17.2194 16.3904 17.2794 16.4348 17.3319C16.4866 17.3769 16.5459 17.3994 16.6125 17.3994H17.6345C17.7234 17.3994 17.8011 17.3732 17.8678 17.3207C17.9418 17.2682 18.0233 17.2082 18.1121 17.1406C18.2084 17.0731 18.3232 17.0131 18.4565 16.9606C18.5898 16.9081 18.7601 16.8819 18.9675 16.8819C19.2489 16.8819 19.497 16.9419 19.7117 17.0619C19.9339 17.1744 20.1079 17.3319 20.2338 17.5345C20.3597 17.737 20.4226 17.977 20.4226 18.2546C20.4226 18.5696 20.356 18.8359 20.2227 19.0534C20.0894 19.271 19.9117 19.436 19.6895 19.5485C19.4747 19.6535 19.2341 19.706 18.9675 19.706C18.7675 19.706 18.575 19.6723 18.3898 19.6048C18.2121 19.5373 18.0529 19.4323 17.9122 19.2897C17.7789 19.1472 17.6752 18.9634 17.6012 18.7384C17.5715 18.6559 17.5271 18.5996 17.4679 18.5696C17.416 18.5321 17.3494 18.5134 17.2679 18.5134H16.2349C16.1682 18.5134 16.109 18.5359 16.0571 18.5809C16.0127 18.6184 15.9942 18.6709 16.0016 18.7384C16.0164 19.1285 16.1349 19.496 16.357 19.8411C16.5866 20.1861 16.9199 20.4674 17.3568 20.685Z" fill="#1D1E1F"/>
</svg>
