<svg width="24" height="24" viewBox="0 0 24 24" fill="none" xmlns="http://www.w3.org/2000/svg">
<path fill-rule="evenodd" clip-rule="evenodd" d="M8.37505 7.75H11.25V11.25H4.50005C3.99944 11.25 3.85867 11.2464 3.75618 11.226C3.26032 11.1273 2.8727 10.7397 2.77407 10.2439C2.75368 10.1414 2.75005 10.0006 2.75005 9.5C2.75005 8.9994 2.75368 8.85862 2.77407 8.75614C2.8727 8.26027 3.26032 7.87265 3.75618 7.77402C3.85867 7.75363 3.99944 7.75 4.50005 7.75H8.37505ZM19.5 11.25H12.75V7.75H15.625H19.5C20.0007 7.75 20.1414 7.75363 20.2439 7.77402C20.7398 7.87265 21.1274 8.26027 21.226 8.75614C21.2464 8.85862 21.25 8.9994 21.25 9.5C21.25 10.0006 21.2464 10.1414 21.226 10.2439C21.1274 10.7397 20.7398 11.1273 20.2439 11.226C20.1414 11.2464 20.0007 11.25 19.5 11.25ZM19.25 12.75H12.75V21.25H15.2C16.0525 21.25 16.6467 21.2494 17.1094 21.2116C17.5632 21.1745 17.824 21.1054 18.0215 21.0048C18.4449 20.789 18.7891 20.4448 19.0048 20.0215C19.1055 19.824 19.1746 19.5632 19.2117 19.1093C19.2495 18.6467 19.25 18.0525 19.25 17.2V12.75ZM20.75 12.6458C21.7376 12.3662 22.4946 11.5551 22.6972 10.5365C22.7504 10.269 22.7503 9.96601 22.7501 9.57329L22.75 9.5L22.7501 9.42671C22.7503 9.03399 22.7504 8.731 22.6972 8.4635C22.4802 7.3726 21.6274 6.51983 20.5365 6.30284C20.269 6.24963 19.9661 6.24978 19.5733 6.24998L19.5 6.25H18.5095C18.8401 5.7173 19 5.10321 19 4.5C19 3.70499 18.7222 2.89108 18.1421 2.26951C17.5517 1.63693 16.6911 1.25 15.625 1.25C14.0365 1.25 12.756 2.20186 12 3.67226C11.2441 2.20186 9.96355 1.25 8.37505 1.25C7.30896 1.25 6.44842 1.63693 5.85801 2.26951C5.27788 2.89108 5.00005 3.70499 5.00005 4.5C5.00005 5.10321 5.15999 5.7173 5.49057 6.25H4.50005L4.42677 6.24998C4.03405 6.24978 3.73105 6.24963 3.46355 6.30284C2.37265 6.51983 1.51988 7.3726 1.30289 8.4635C1.24968 8.73101 1.24983 9.034 1.25002 9.42672L1.25005 9.5L1.25002 9.57328C1.24983 9.966 1.24968 10.269 1.30289 10.5365C1.50551 11.5551 2.26248 12.3662 3.25005 12.6458V17.2L3.25005 17.2321C3.25004 18.0449 3.25003 18.7006 3.29341 19.2315C3.33807 19.7781 3.43243 20.2582 3.65877 20.7025C4.0183 21.4081 4.59197 21.9818 5.29758 22.3413C5.7418 22.5676 6.22194 22.662 6.76858 22.7066C7.29948 22.75 7.95509 22.75 8.76792 22.75H8.80005H15.2H15.2322C16.045 22.75 16.7006 22.75 17.2315 22.7066C17.7782 22.662 18.2583 22.5676 18.7025 22.3413C19.4081 21.9818 19.9818 21.4081 20.3413 20.7025C20.5677 20.2582 20.662 19.7781 20.7067 19.2315C20.7501 18.7006 20.7501 18.045 20.75 17.2321V17.2V12.6458ZM4.75005 12.75V17.2C4.75005 18.0525 4.75063 18.6467 4.78843 19.1093C4.82551 19.5632 4.89464 19.824 4.99528 20.0215C5.211 20.4448 5.5552 20.789 5.97857 21.0048C6.17609 21.1054 6.43685 21.1745 6.89073 21.2116C7.35336 21.2494 7.94759 21.25 8.80005 21.25H11.25V12.75H4.75005ZM15.625 6.25C16.309 6.25 16.7609 6.01193 17.0455 5.70701C17.3404 5.39108 17.5 4.95499 17.5 4.5C17.5 4.04501 17.3404 3.60892 17.0455 3.29299C16.7609 2.98807 16.309 2.75 15.625 2.75C14.356 2.75 13.0252 3.9415 12.7875 6.25H15.625ZM11.2126 6.25H8.37505C7.69114 6.25 7.23917 6.01193 6.95459 5.70701C6.65972 5.39108 6.50005 4.95499 6.50005 4.5C6.50005 4.04501 6.65972 3.60892 6.95459 3.29299C7.23917 2.98807 7.69114 2.75 8.37505 2.75C9.64413 2.75 10.9748 3.9415 11.2126 6.25Z" fill="#18191A"/>
</svg>
