<svg width="24" height="24" viewBox="0 0 24 24" fill="none" xmlns="http://www.w3.org/2000/svg">
<path d="M4.5 22.5L5.06265 21.9373C5.40856 21.5914 5.58151 21.4184 5.78335 21.2947C5.9623 21.1851 6.15739 21.1043 6.36147 21.0553C6.59166 21 6.83626 21 7.32545 21H13M15.5 17.5L14.9121 19.5577C14.6682 20.4114 13.8879 21 13 21V21M15.5 17.5L16.3571 14.5L10.8249 14.5C10.2357 14.5 9.7011 14.8449 9.45826 15.3818V15.3818C9.00909 16.3747 9.73515 17.5 10.8249 17.5H11.5M15.5 17.5H11.5M13 21V21C12.9534 21 12.9301 21 12.9138 20.9997C11.4071 20.9752 10.4677 19.3564 11.194 18.0361C11.2018 18.0219 11.2134 18.0016 11.2365 17.9612L11.5 17.5" stroke="#18191A" stroke-width="1.5" stroke-linecap="round" stroke-linejoin="round"/>
<path d="M1.43066 12.235L2.8934 9.67511C3.09264 9.32641 3.19226 9.15206 3.32099 9.00376C3.43522 8.87217 3.56615 8.75607 3.71047 8.65841C3.87311 8.54835 4.05813 8.47031 4.42816 8.31423L8.93308 6.41406C9.17357 6.31262 9.29381 6.2619 9.39469 6.24206C9.87338 6.14789 10.3502 6.41289 10.5229 6.86914C10.5593 6.9653 10.5797 7.09419 10.6206 7.35198V7.35198C10.6728 7.682 10.6989 7.84701 10.7001 7.99668C10.7054 8.69387 10.3473 9.34353 9.75493 9.71123C9.62776 9.79016 9.47428 9.85616 9.16733 9.98816L8.39857 10.3188C8.0485 10.4693 7.87346 10.5446 7.74499 10.6656C7.63144 10.7726 7.54448 10.9046 7.49108 11.0512C7.43066 11.217 7.43066 11.4075 7.43066 11.7886L7.43066 12.3604C7.43066 12.961 7.43066 13.2613 7.35049 13.5358C7.27949 13.779 7.16295 14.0064 7.00707 14.2061C6.83104 14.4315 6.5873 14.6069 6.09982 14.9577L5.84574 15.1406" stroke="#18191A" stroke-width="1.5" stroke-linecap="round" stroke-linejoin="round"/>
<path fill-rule="evenodd" clip-rule="evenodd" d="M8 2.25C6.48122 2.25 5.25 3.48122 5.25 5V7V7.75H6.75V7V5C6.75 4.30964 7.30964 3.75 8 3.75H21C21.6904 3.75 22.25 4.30964 22.25 5V12.5C22.25 13.1904 21.6904 13.75 21 13.75H7.5H6.75V15.25H7.5H21C22.5188 15.25 23.75 14.0188 23.75 12.5V5C23.75 3.48122 22.5188 2.25 21 2.25H8ZM16.0392 12.3875C16.0791 12.4273 16.1303 12.4472 16.1928 12.4472H16.7986C16.8555 12.4472 16.9039 12.4273 16.9437 12.3875C16.9835 12.3477 17.0034 12.2965 17.0034 12.2339V11.6452C17.4073 11.594 17.7571 11.4916 18.0529 11.338C18.3544 11.1844 18.5876 10.9825 18.7526 10.7322C18.9175 10.4763 19 10.1833 19 9.85339C19 9.51209 18.9261 9.23052 18.7782 9.00868C18.636 8.78115 18.4084 8.59628 18.0956 8.45407C17.7827 8.31187 17.376 8.18957 16.8754 8.08718C16.5455 8.00185 16.2838 7.92506 16.0904 7.8568C15.897 7.78286 15.7577 7.70038 15.6724 7.60936C15.587 7.51266 15.5444 7.39605 15.5444 7.25953C15.5444 7.04907 15.6268 6.89264 15.7918 6.79025C15.9568 6.68786 16.1786 6.63667 16.4573 6.63667C16.719 6.63667 16.9352 6.69355 17.1058 6.80732C17.2765 6.91539 17.376 7.04338 17.4044 7.19127C17.4386 7.24816 17.4784 7.28798 17.5239 7.31073C17.5694 7.33348 17.6177 7.34486 17.6689 7.34486H18.6331C18.6843 7.34486 18.727 7.32779 18.7611 7.29366C18.7952 7.25385 18.8123 7.21118 18.8123 7.16568C18.8066 6.9609 18.7327 6.75043 18.5904 6.53428C18.4539 6.31243 18.252 6.11619 17.9846 5.94554C17.723 5.7692 17.3959 5.64975 17.0034 5.58718V4.98138C17.0034 4.91881 16.9835 4.86761 16.9437 4.82779C16.9039 4.78798 16.8555 4.76807 16.7986 4.76807H16.1928C16.1303 4.76807 16.0791 4.78798 16.0392 4.82779C15.9994 4.86761 15.9795 4.91881 15.9795 4.98138V5.57011C15.4107 5.64406 14.9642 5.83746 14.6399 6.15032C14.3214 6.46317 14.1621 6.84429 14.1621 7.29366C14.1621 7.63496 14.2361 7.92222 14.384 8.15544C14.5375 8.38297 14.7622 8.57068 15.058 8.71858C15.3538 8.86079 15.715 8.9774 16.1416 9.06841C16.5 9.15373 16.7844 9.23337 16.9949 9.30732C17.211 9.38126 17.3675 9.46374 17.4642 9.55476C17.5666 9.64577 17.6177 9.76522 17.6177 9.91312C17.6177 10.1179 17.5239 10.28 17.3362 10.3995C17.1542 10.5189 16.8783 10.5786 16.5085 10.5786C16.281 10.5786 16.0904 10.5502 15.9369 10.4933C15.7833 10.4308 15.661 10.354 15.57 10.2629C15.4846 10.1719 15.4221 10.0781 15.3823 9.98138C15.3481 9.93587 15.3111 9.8989 15.2713 9.87046C15.2315 9.83633 15.1746 9.81926 15.1007 9.81926H14.1877C14.1365 9.81926 14.091 9.83917 14.0512 9.87899C14.0171 9.91312 14 9.95294 14 9.99844C14.0114 10.2544 14.091 10.499 14.2389 10.7322C14.3868 10.9655 14.6058 11.1645 14.8959 11.3295C15.186 11.4888 15.5472 11.594 15.9795 11.6452V12.2339C15.9795 12.2965 15.9994 12.3477 16.0392 12.3875Z" fill="#18191A"/>
</svg>
