<svg width="24" height="24" viewBox="0 0 24 24" fill="none" xmlns="http://www.w3.org/2000/svg">
<path d="M15.9999 16.5L15.9177 16.9936C15.8498 17.4009 15.8158 17.6046 15.7619 17.7849C15.477 18.7382 14.7379 19.4883 13.7889 19.7872C13.6094 19.8437 13.4062 19.8807 12.9999 19.9545V19.9545M15.9999 16.5L16.4999 13.5L11.6856 14.3753C11.2509 14.4544 10.8734 14.7215 10.6542 15.1051V15.1051C10.0135 16.2263 10.9987 17.578 12.2623 17.3113L13.9999 16.9444L15.9999 16.5ZM15.9999 16.5L12.6294 17.2282C12.2306 17.3144 11.8906 17.5733 11.7015 17.9349L11.6235 18.0842C11.125 19.0376 11.9415 20.147 12.9999 19.9545V19.9545M12.9999 19.9545L8.34951 20.8001C7.98416 20.8665 7.80149 20.8997 7.6311 20.9641C7.47988 21.0213 7.33615 21.0966 7.20305 21.1884C7.05309 21.2918 6.9218 21.4231 6.65923 21.6857L5.34489 23" stroke="#18191A" stroke-width="1.5" stroke-linecap="round" stroke-linejoin="round"/>
<path d="M1.43064 13.235L2.89337 10.6751C3.09261 10.3264 3.19223 10.1521 3.32096 10.0038C3.43519 9.87216 3.56612 9.75606 3.71044 9.6584C3.87308 9.54834 4.0581 9.4703 4.42814 9.31422L8.93305 7.41405C9.17354 7.31261 9.29378 7.2619 9.39466 7.24205C9.87336 7.14788 10.3501 7.41288 10.5229 7.86913C10.5593 7.96529 10.5797 8.09418 10.6205 8.35197V8.35197C10.6728 8.68199 10.6989 8.847 10.7001 8.99667C10.7054 9.69387 10.3473 10.3435 9.7549 10.7112C9.62773 10.7902 9.47425 10.8562 9.1673 10.9882L8.39854 11.3188C8.04847 11.4693 7.87343 11.5446 7.74496 11.6656C7.63141 11.7725 7.54445 11.9046 7.49105 12.0512C7.43063 12.217 7.43063 12.4075 7.43063 12.7886L7.43063 13.3604C7.43063 13.961 7.43063 14.2613 7.35046 14.5358C7.27946 14.779 7.16292 15.0064 7.00704 15.206C6.83102 15.4315 6.58727 15.6069 6.09979 15.9577L5.84571 16.1406" stroke="#18191A" stroke-width="1.5" stroke-linecap="round" stroke-linejoin="round"/>
<path fill-rule="evenodd" clip-rule="evenodd" d="M17.7188 3.02693C18.3157 2.92273 18.9014 3.26169 19.1085 3.83118L21.4796 10.3526C21.7454 11.0836 21.2861 11.8773 20.5198 12.0111L7.63039 14.2611L6.89156 14.3901L7.1495 15.8677L7.88833 15.7387L20.7777 13.4887C22.4636 13.1944 23.4741 11.4483 22.8893 9.84001L20.5182 3.31862C20.0627 2.06574 18.7741 1.32003 17.4608 1.54928L6.22235 3.51111C4.53652 3.8054 3.52602 5.55151 4.11078 7.15982L4.23502 7.50154L4.70494 8.79399C4.84647 9.18327 5.27679 9.38411 5.66607 9.24257C6.05535 9.10103 6.25619 8.67072 6.11465 8.28144L5.64474 6.98899L5.52049 6.64727C5.25469 5.91622 5.71401 5.12253 6.4803 4.98877L17.7188 3.02693ZM15.5764 12.0967C15.6247 12.1269 15.6798 12.1347 15.7415 12.1204L16.3387 11.9814C16.3948 11.9683 16.4379 11.9376 16.468 11.8892C16.4981 11.8408 16.506 11.7858 16.4916 11.7241L16.3565 11.1437C16.7429 11.0006 17.0643 10.8194 17.3207 10.6001C17.5827 10.3796 17.7662 10.127 17.8714 9.84241C17.9753 9.55222 17.9894 9.2445 17.9137 8.91926C17.8354 8.5828 17.6979 8.32219 17.5012 8.13742C17.3089 7.94574 17.0421 7.81569 16.7011 7.74728C16.36 7.67886 15.931 7.65161 15.4141 7.66551C15.0693 7.65709 14.7937 7.64142 14.5874 7.6185C14.3797 7.58997 14.2234 7.54063 14.1184 7.47049C14.0121 7.39473 13.9433 7.28956 13.912 7.15498C13.8637 6.94749 13.9091 6.77436 14.0483 6.63558C14.1874 6.49679 14.3944 6.39543 14.6691 6.33148C14.9271 6.27145 15.1532 6.27794 15.3476 6.35094C15.5406 6.41833 15.6681 6.52167 15.73 6.66094C15.7767 6.70919 15.8251 6.73931 15.8752 6.7513C15.9253 6.76329 15.9756 6.76341 16.026 6.75166L16.9765 6.53046C17.027 6.51872 17.0651 6.49211 17.091 6.45063C17.1155 6.40355 17.1225 6.35757 17.1121 6.31271C17.0595 6.11214 16.9383 5.92162 16.7485 5.74116C16.563 5.55378 16.3189 5.40665 16.0162 5.29975C15.7178 5.18595 15.368 5.14323 14.9667 5.17159L14.8277 4.57437C14.8133 4.51269 14.782 4.46679 14.7336 4.43667C14.6852 4.40655 14.633 4.39802 14.5769 4.41107L13.9797 4.55005C13.918 4.56441 13.8721 4.59578 13.842 4.64417C13.8119 4.69256 13.804 4.7476 13.8183 4.80928L13.9534 5.38967C13.4096 5.59307 13.0138 5.88618 12.7659 6.26899C12.5237 6.65049 12.4541 7.06274 12.5572 7.50575C12.6355 7.84221 12.7743 8.10843 12.9736 8.30441C13.1772 8.49348 13.4418 8.62698 13.7673 8.70492C14.0915 8.77725 14.4744 8.80934 14.9158 8.80118C15.2887 8.80308 15.5873 8.81634 15.8118 8.84095C16.0418 8.86426 16.215 8.90968 16.3312 8.97722C16.453 9.04345 16.5309 9.14946 16.5648 9.29526C16.6118 9.49714 16.5564 9.67849 16.3988 9.83932C16.2468 9.99884 15.9885 10.121 15.624 10.2058C15.3997 10.258 15.2053 10.2737 15.0408 10.2529C14.8751 10.2264 14.7369 10.1788 14.6263 10.1099C14.5213 10.0398 14.4381 9.96163 14.3766 9.87543C14.3326 9.8384 14.2876 9.81043 14.2418 9.79153C14.1948 9.76702 14.1348 9.76325 14.0619 9.78021L13.1618 9.98967C13.1114 10.0014 13.0711 10.0315 13.041 10.0799C13.0151 10.1213 13.0075 10.1645 13.0179 10.2094C13.0878 10.4591 13.2225 10.682 13.4218 10.878C13.6211 11.0739 13.8826 11.22 14.2065 11.316C14.529 11.4065 14.9092 11.4274 15.3472 11.3786L15.4822 11.959C15.4966 12.0207 15.528 12.0666 15.5764 12.0967Z" fill="#18191A"/>
</svg>
