<svg width="24" height="24" viewBox="0 0 24 24" fill="none" xmlns="http://www.w3.org/2000/svg">
<path d="M10 1.1814H10.75V0.281086L9.8645 0.443738L10 1.1814ZM10 7.41608L10.3003 8.10334L10.75 7.90685V7.41608H10ZM16.584 14V13.25H16.0932L15.8967 13.6997L16.584 14ZM22.8186 14L23.5562 14.1355L23.7189 13.25H22.8186V14ZM22.8186 10V10.75H23.7189L23.5562 9.86451L22.8186 10ZM14 1.1814L14.1355 0.443744L13.25 0.281089V1.1814H14ZM14 7.41608H13.25V7.90685L13.6997 8.10334L14 7.41608ZM16.5839 10L15.8967 10.3003L16.0932 10.75H16.5839V10ZM9.8645 0.443738C4.3947 1.44845 0.25 6.23942 0.25 12H1.75C1.75 6.97632 5.36483 2.79535 10.1355 1.91906L9.8645 0.443738ZM10.75 7.41608V1.1814H9.25V7.41608H10.75ZM7.75001 12C7.75001 10.2584 8.7977 8.75985 10.3003 8.10334L9.69972 6.72881C7.6705 7.61542 6.25001 9.641 6.25001 12H7.75001ZM12 16.25C9.65279 16.25 7.75001 14.3472 7.75001 12H6.25001C6.25001 15.1757 8.82437 17.75 12 17.75V16.25ZM15.8967 13.6997C15.2402 15.2023 13.7416 16.25 12 16.25V17.75C14.359 17.75 16.3846 16.3295 17.2712 14.3003L15.8967 13.6997ZM22.8186 13.25H16.584V14.75H22.8186V13.25ZM12 23.75C17.7606 23.75 22.5515 19.6053 23.5562 14.1355L22.0809 13.8645C21.2046 18.6352 17.0237 22.25 12 22.25V23.75ZM0.25 12C0.25 18.4893 5.51065 23.75 12 23.75V22.25C6.33907 22.25 1.75 17.6609 1.75 12H0.25ZM23.5562 9.86451C22.6786 5.08658 18.9134 1.32139 14.1355 0.443744L13.8645 1.91906C18.0299 2.68419 21.3158 5.9701 22.0809 10.1355L23.5562 9.86451ZM13.25 1.1814V7.41608H14.75V1.1814H13.25ZM13.6997 8.10334C14.68 8.53165 15.4684 9.31999 15.8967 10.3003L17.2712 9.69972C16.6916 8.37316 15.6268 7.30841 14.3003 6.72881L13.6997 8.10334ZM16.5839 10.75H22.8186V9.25H16.5839V10.75Z" fill="#18191A"/>
</svg>
