<svg width="24" height="24" viewBox="0 0 24 24" fill="none" xmlns="http://www.w3.org/2000/svg">
<path d="M10 1.1814H10.75V0.281085L9.8645 0.443738L10 1.1814ZM10 7.41606L10.3003 8.10333L10.75 7.90684V7.41606H10ZM10 16.584H10.75V16.0932L10.3003 15.8967L10 16.584ZM10 22.8186L9.8645 23.5563L10.75 23.719V22.8186H10ZM14 16.584L13.6997 15.8967L13.25 16.0932V16.584H14ZM16.584 14V13.25H16.0932L15.8967 13.6997L16.584 14ZM14 22.8186H13.25V23.719L14.1355 23.5563L14 22.8186ZM22.8186 14L23.5563 14.1355L23.7189 13.25H22.8186V14ZM16.5839 10L15.8967 10.3003L16.0932 10.75H16.5839V10ZM22.8186 10V10.75H23.7189L23.5563 9.8645L22.8186 10ZM14 1.1814L14.1355 0.443738L13.25 0.281085V1.1814H14ZM14 7.41606H13.25V7.90684L13.6997 8.10333L14 7.41606ZM9.8645 0.443738C4.3947 1.44846 0.25 6.23943 0.25 12H1.75C1.75 6.97633 5.36483 2.79536 10.1355 1.91906L9.8645 0.443738ZM10.75 7.41606V1.1814H9.25V7.41606H10.75ZM7.75 12C7.75 10.2584 8.79769 8.75984 10.3003 8.10333L9.69972 6.7288C7.6705 7.6154 6.25 9.64099 6.25 12H7.75ZM10.3003 15.8967C8.79769 15.2402 7.75 13.7416 7.75 12H6.25C6.25 14.3591 7.6705 16.3846 9.69972 17.2712L10.3003 15.8967ZM10.75 22.8186V16.584H9.25V22.8186H10.75ZM0.25 12C0.25 17.7606 4.3947 22.5516 9.8645 23.5563L10.1355 22.081C5.36483 21.2047 1.75 17.0237 1.75 12H0.25ZM14.3003 17.2712C15.6269 16.6916 16.6916 15.6269 17.2712 14.3003L15.8967 13.6997C15.4684 14.68 14.68 15.4684 13.6997 15.8967L14.3003 17.2712ZM14.75 22.8186V16.584H13.25V22.8186H14.75ZM22.081 13.8645C21.3158 18.0299 18.0299 21.3159 13.8645 22.081L14.1355 23.5563C18.9134 22.6787 22.6787 18.9135 23.5563 14.1355L22.081 13.8645ZM22.8186 13.25H16.584V14.75H22.8186V13.25ZM16.5839 10.75H22.8186V9.25H16.5839V10.75ZM13.8645 1.91906C18.0299 2.68418 21.3158 5.97009 22.081 10.1355L23.5563 9.8645C22.6786 5.08657 18.9134 1.32138 14.1355 0.443738L13.8645 1.91906ZM14.75 7.41606V1.1814H13.25V7.41606H14.75ZM17.2712 9.69972C16.6916 8.37315 15.6268 7.3084 14.3003 6.7288L13.6997 8.10333C14.68 8.53164 15.4684 9.31998 15.8967 10.3003L17.2712 9.69972Z" fill="#18191A"/>
</svg>
