<svg width="24" height="24" viewBox="0 0 24 24" fill="none" xmlns="http://www.w3.org/2000/svg">
<path fill-rule="evenodd" clip-rule="evenodd" d="M15 9.2501C14.8619 9.2501 14.75 9.13817 14.75 9.0001V2.00009C14.75 1.92801 14.7792 1.87105 14.8143 1.83717C14.8457 1.80679 14.8775 1.79681 14.9148 1.80097C15.6841 1.88681 16.4391 2.08068 17.1571 2.37809C18.1581 2.79269 19.0676 3.40038 19.8336 4.16646C20.5997 4.93255 21.2074 5.84202 21.622 6.84296C21.9194 7.56096 22.1133 8.31595 22.1991 9.08531C22.2033 9.12259 22.1933 9.15439 22.1629 9.18584C22.129 9.22091 22.0721 9.25009 22 9.25009L15 9.2501ZM13.25 9.0001C13.25 9.96659 14.0335 10.7501 15 10.7501L22 10.7501C22.941 10.7501 23.807 9.96836 23.6899 8.91898C23.5884 8.00975 23.3593 7.11749 23.0078 6.26893C22.5178 5.08601 21.7997 4.01118 20.8943 3.1058C19.9889 2.20043 18.9141 1.48225 17.7312 0.992269C16.8826 0.640785 15.9904 0.411664 15.0811 0.310218C14.0317 0.193138 13.25 1.0591 13.25 2.0001V9.0001ZM10.0852 4.80096C10.1225 4.7968 10.1543 4.80678 10.1858 4.83717C10.2208 4.87105 10.25 4.92802 10.25 5.0001V12.0001C10.25 12.9666 11.0335 13.7501 12 13.7501H19C19.0721 13.7501 19.129 13.7793 19.1629 13.8144C19.1933 13.8458 19.2033 13.8776 19.1991 13.9149C19.0532 15.2229 18.5958 16.4818 17.8596 17.5835C16.9531 18.9403 15.6646 19.9977 14.1571 20.6221C12.6497 21.2465 10.9909 21.4099 9.39051 21.0916C7.79017 20.7732 6.32016 19.9875 5.16637 18.8337C4.01259 17.6799 3.22685 16.2099 2.90853 14.6096C2.5902 13.0092 2.75358 11.3504 3.378 9.84296C4.00242 8.33547 5.05984 7.04699 6.41655 6.14047C7.51826 5.40433 8.77715 4.9469 10.0852 4.80096ZM11.75 5.0001C11.75 4.05909 10.9683 3.19314 9.91888 3.31021C8.37301 3.48269 6.88523 4.02328 5.58319 4.89327C3.97982 5.96461 2.73013 7.48735 1.99218 9.26893C1.25422 11.0505 1.06114 13.0109 1.43735 14.9022C1.81355 16.7935 2.74215 18.5308 4.10571 19.8944C5.46927 21.2579 7.20656 22.1865 9.09787 22.5628C10.9892 22.939 12.9496 22.7459 14.7312 22.0079C16.5127 21.27 18.0355 20.0203 19.1068 18.4169C19.9768 17.1149 20.5174 15.6271 20.6899 14.0812C20.807 13.0318 19.941 12.2501 19 12.2501H12C11.8619 12.2501 11.75 12.1382 11.75 12.0001V5.0001Z" fill="#18191A"/>
</svg>
