<svg width="24" height="24" viewBox="0 0 24 24" fill="none" xmlns="http://www.w3.org/2000/svg">
<path d="M10 1.1814H10.75V0.281085L9.8645 0.443738L10 1.1814ZM1.61771 15.6434L0.910014 15.8917L1.20947 16.7451L1.99271 16.2929L1.61771 15.6434ZM7.02676 12.5205L7.40176 13.17L7.82279 12.9269L7.77278 12.4433L7.02676 12.5205ZM10 7.41606L10.3003 8.10333L10.75 7.90684V7.41606H10ZM3.60865 19.1127L3.23365 18.4632L2.45527 18.9126L3.03676 19.5979L3.60865 19.1127ZM8.99971 16.0002L9.45019 15.4005L9.05393 15.1028L8.62471 15.3506L8.99971 16.0002ZM20.3677 19.1405L20.938 19.6276L21.5237 18.9419L20.7427 18.491L20.3677 19.1405ZM14.969 16.0235L15.344 15.374L14.9184 15.1283L14.5232 15.4204L14.969 16.0235ZM22.3701 15.6778L21.9951 16.3273L22.7757 16.778L23.077 15.9285L22.3701 15.6778ZM16.9691 12.5595L16.2237 12.4765L16.1694 12.9638L16.5941 13.209L16.9691 12.5595ZM14 7.41606H13.25V7.90684L13.6997 8.10333L14 7.41606ZM14 1.1814L14.1355 0.443738L13.25 0.281085V1.1814H14ZM1.75 12C1.75 6.97633 5.36483 2.79536 10.1355 1.91906L9.8645 0.443738C4.3947 1.44846 0.25 6.23943 0.25 12H1.75ZM2.3254 15.395C1.9529 14.3335 1.75 13.1912 1.75 12H0.25C0.25 13.3627 0.482276 14.6727 0.910014 15.8917L2.3254 15.395ZM6.65176 11.8709L1.24271 14.9938L1.99271 16.2929L7.40176 13.17L6.65176 11.8709ZM6.25 12C6.25 12.2016 6.2604 12.401 6.28074 12.5976L7.77278 12.4433C7.75773 12.2978 7.75 12.1499 7.75 12H6.25ZM9.69972 6.7288C7.6705 7.6154 6.25 9.64099 6.25 12H7.75C7.75 10.2584 8.79769 8.75984 10.3003 8.10333L9.69972 6.7288ZM9.25 1.1814V7.41606H10.75V1.1814H9.25ZM3.98365 19.7622L9.37471 16.6497L8.62471 15.3506L3.23365 18.4632L3.98365 19.7622ZM12 22.25C8.86644 22.25 6.06185 20.8448 4.18054 18.6275L3.03676 19.5979C5.1909 22.1368 8.40744 23.75 12 23.75V22.25ZM19.7974 18.6534C17.9163 20.8557 15.1214 22.25 12 22.25V23.75C15.5785 23.75 18.784 22.1494 20.938 19.6276L19.7974 18.6534ZM14.594 16.673L19.9927 19.79L20.7427 18.491L15.344 15.374L14.594 16.673ZM12 17.75C13.2776 17.75 14.4598 17.3325 15.4147 16.6266L14.5232 15.4204C13.8175 15.9419 12.9458 16.25 12 16.25V17.75ZM8.54923 16.5998C9.51037 17.3219 10.7063 17.75 12 17.75V16.25C11.0423 16.25 10.1605 15.9341 9.45019 15.4005L8.54923 16.5998ZM23.077 15.9285C23.513 14.6991 23.75 13.3764 23.75 12H22.25C22.25 13.2032 22.043 14.3565 21.6633 15.4271L23.077 15.9285ZM16.5941 13.209L21.9951 16.3273L22.7451 15.0283L17.3441 11.91L16.5941 13.209ZM16.25 12C16.25 12.1614 16.241 12.3203 16.2237 12.4765L17.7144 12.6425C17.738 12.4313 17.75 12.2169 17.75 12H16.25ZM13.6997 8.10333C15.2023 8.75984 16.25 10.2584 16.25 12H17.75C17.75 9.64099 16.3295 7.6154 14.3003 6.7288L13.6997 8.10333ZM13.25 1.1814V7.41606H14.75V1.1814H13.25ZM23.75 12C23.75 6.23943 19.6053 1.44846 14.1355 0.443738L13.8645 1.91906C18.6352 2.79536 22.25 6.97633 22.25 12H23.75Z" fill="#18191A"/>
</svg>
