<svg width="24" height="24" viewBox="0 0 24 24" fill="none" xmlns="http://www.w3.org/2000/svg">
<path d="M2 7.2V9.8C2 10.9201 2 11.4802 2.21799 11.908C2.40973 12.2843 2.71569 12.5903 3.09202 12.782C3.51984 13 4.0799 13 5.2 13H6.8C7.9201 13 8.48016 13 8.90798 12.782C9.28431 12.5903 9.59027 12.2843 9.78201 11.908C10 11.4802 10 10.9201 10 9.8V7.2C10 6.0799 10 5.51984 9.78201 5.09202C9.59027 4.71569 9.28431 4.40973 8.90798 4.21799C8.48016 4 7.9201 4 6.8 4H5.2C4.0799 4 3.51984 4 3.09202 4.21799C2.71569 4.40973 2.40973 4.71569 2.21799 5.09202C2 5.51984 2 6.07989 2 7.2Z" stroke="#18191A" stroke-width="1.5"/>
<path d="M13 16.8V14.2C13 13.0799 13 12.5198 13.218 12.092C13.4097 11.7157 13.7157 11.4097 14.092 11.218C14.5198 11 15.0799 11 16.2 11H18.8C19.9201 11 20.4802 11 20.908 11.218C21.2843 11.4097 21.5903 11.7157 21.782 12.092C22 12.5198 22 13.0799 22 14.2V16.8C22 17.9201 22 18.4802 21.782 18.908C21.5903 19.2843 21.2843 19.5903 20.908 19.782C20.4802 20 19.9201 20 18.8 20H16.2C15.0799 20 14.5198 20 14.092 19.782C13.7157 19.5903 13.4097 19.2843 13.218 18.908C13 18.4802 13 17.9201 13 16.8Z" stroke="#18191A" stroke-width="1.5"/>
<path d="M8 16H4C2.89543 16 2 16.8954 2 18C2 19.1046 2.89543 20 4 20H8C9.10457 20 10 19.1046 10 18C10 16.8954 9.10457 16 8 16Z" stroke="#18191A" stroke-width="1.5"/>
<path d="M20 8H15C13.8954 8 13 7.10457 13 6C13 4.89543 13.8954 4 15 4H20C21.1046 4 22 4.89543 22 6C22 7.10457 21.1046 8 20 8Z" stroke="#18191A" stroke-width="1.5"/>
</svg>
