<svg width="24" height="24" viewBox="0 0 24 24" fill="none" xmlns="http://www.w3.org/2000/svg">
<path d="M3.06251 14L2.32535 14.1382L2.33663 14.1983L2.35749 14.2558L3.06251 14ZM20.9375 14L21.6425 14.2558L21.6634 14.1983L21.6746 14.1382L20.9375 14ZM15.5635 15.1963L16.2926 15.372L15.5635 15.1963ZM19.0195 19.2859L19.7245 19.5418L19.0195 19.2859ZM6.25216 13.6788L6.17701 12.9326L6.25216 13.6788ZM9.19356 18.8621L8.46069 19.0215L9.19356 18.8621ZM4.9947 19.3251L4.28967 19.5809L4.9947 19.3251ZM21.2235 12.4743L20.4864 12.3361L21.2235 12.4743ZM10.6394 3.75H12V2.25H10.6394V3.75ZM9.92644 18.7028L9.13977 15.0845L7.67401 15.4032L8.46069 19.0215L9.92644 18.7028ZM5.69972 19.0693L3.76753 13.7442L2.35749 14.2558L4.28967 19.5809L5.69972 19.0693ZM3.79966 13.8618L3.5136 12.3361L2.03929 12.6125L2.32535 14.1382L3.79966 13.8618ZM6.17701 12.9326L2.98736 13.2538L3.13765 14.7462L6.3273 14.425L6.17701 12.9326ZM13.3606 2.25H12V3.75H13.3606V2.25ZM15.4295 18.9546L16.2926 15.372L14.8344 15.0207L13.9713 18.6033L15.4295 18.9546ZM19.7245 19.5418L21.6425 14.2558L20.2325 13.7442L18.3145 19.0301L19.7245 19.5418ZM21.6746 14.1382L21.9607 12.6125L20.4864 12.3361L20.2003 13.8618L21.6746 14.1382ZM17.6331 14.421L20.8623 14.7462L21.0126 13.2538L17.7834 12.9286L17.6331 14.421ZM16.2926 15.372C16.439 14.7645 17.0114 14.3584 17.6331 14.421L17.7834 12.9286C16.4157 12.7909 15.1563 13.6843 14.8344 15.0207L16.2926 15.372ZM15.8682 19.9495C15.5146 19.7545 15.335 19.3472 15.4295 18.9546L13.9713 18.6033C13.7184 19.6529 14.1986 20.742 15.1441 21.2631L15.8682 19.9495ZM15.1441 21.2631C16.8756 22.2175 19.0502 21.4003 19.7245 19.5418L18.3145 19.0301C17.9543 20.0227 16.7929 20.4592 15.8682 19.9495L15.1441 21.2631ZM9.13977 15.0845C8.84275 13.7184 7.56802 12.7925 6.17701 12.9326L6.3273 14.425C6.95958 14.3614 7.539 14.7822 7.67401 15.4032L9.13977 15.0845ZM8.80572 21.2308C9.6899 20.7221 10.1432 19.6996 9.92644 18.7028L8.46069 19.0215C8.53864 19.38 8.37561 19.7477 8.0576 19.9307L8.80572 21.2308ZM8.0576 19.9307C7.17472 20.4388 6.04716 20.0268 5.69972 19.0693L4.28967 19.5809C4.95512 21.4149 7.11474 22.2039 8.80572 21.2308L8.0576 19.9307ZM13.3606 3.75C17.9001 3.75 21.323 7.87435 20.4864 12.3361L21.9607 12.6125C22.9704 7.22766 18.8393 2.25 13.3606 2.25V3.75ZM10.6394 2.25C5.16071 2.25 1.02962 7.22766 2.03929 12.6125L3.5136 12.3361C2.67701 7.87435 6.09992 3.75 10.6394 3.75V2.25Z" fill="#1D1E1F"/>
</svg>
