<svg width="24" height="24" viewBox="0 0 24 24" fill="none" xmlns="http://www.w3.org/2000/svg">
<path fill-rule="evenodd" clip-rule="evenodd" d="M11.7697 3.00752C11.9221 2.97894 12.0784 2.97894 12.2307 3.00752C12.3785 3.03524 12.5323 3.10457 13.0959 3.38638L20.6648 7.17084C21.0352 7.35608 21.4858 7.20591 21.671 6.83543C21.8562 6.46494 21.7061 6.01444 21.3356 5.8292L13.7667 2.04474L13.6884 2.00554C13.2404 1.78116 12.888 1.60468 12.5073 1.53324C12.1722 1.47037 11.8283 1.47036 11.4931 1.53324C11.1124 1.60467 10.76 1.78115 10.312 2.00554L10.2337 2.04473L2.66476 5.8292C2.29427 6.01444 2.1441 6.46494 2.32934 6.83542C2.51458 7.20591 2.96509 7.35608 3.33557 7.17084L10.9045 3.38638C11.4682 3.10457 11.622 3.03524 11.7697 3.00752ZM11.7697 7.00752C11.9221 6.97894 12.0784 6.97894 12.2307 7.00752C12.3785 7.03524 12.5323 7.10457 13.0959 7.38638L18.1243 9.90059C19.0205 10.3487 19.3242 10.5091 19.5472 10.7203C19.831 10.989 20.0399 11.3271 20.1533 11.7011C20.2425 11.995 20.2502 12.3384 20.2502 13.3404V14.75C20.2502 15.9476 20.2465 16.4369 20.1685 16.8292C19.8332 18.5151 18.5152 19.833 16.8293 20.1684C16.4968 20.2345 16.0945 20.2472 15.2502 20.2495V17C15.2502 15.2051 13.7951 13.75 12.0002 13.75C10.2053 13.75 8.75018 15.2051 8.75018 17V20.2495C7.90584 20.2472 7.50361 20.2345 7.17107 20.1684C5.48512 19.833 4.16719 18.5151 3.83183 16.8291C3.7538 16.4369 3.75017 15.9476 3.75017 14.75L3.75017 13.3404C3.75017 12.3384 3.75787 11.995 3.84701 11.7011C3.96045 11.3271 4.16936 10.989 4.45318 10.7203C4.6762 10.5091 4.97985 10.3487 5.87607 9.9006L10.9045 7.38638C11.4682 7.10457 11.622 7.03524 11.7697 7.00752ZM12.5073 5.53324C12.1722 5.47037 11.8283 5.47036 11.4931 5.53324C11.1124 5.60467 10.76 5.78115 10.312 6.00554L10.2337 6.04473L5.20525 8.55895L5.10372 8.60969L5.10371 8.60969C4.3484 8.987 3.82707 9.24743 3.42186 9.6311C2.94883 10.079 2.60063 10.6424 2.41157 11.2658C2.24962 11.7998 2.24983 12.3826 2.25014 13.2269L2.25017 13.3404L2.25017 14.75L2.25016 14.8511C2.25006 15.9163 2.24999 16.5654 2.36065 17.1218C2.81437 19.4028 4.59745 21.1858 6.87844 21.6395C7.43476 21.7502 8.08385 21.7501 9.14908 21.75H9.14915L9.25019 21.75L9.2543 21.7501C9.278 21.7504 9.38379 21.752 9.48552 21.7317C9.86237 21.6568 10.157 21.3622 10.2319 20.9853C10.2522 20.8836 10.2506 20.7778 10.2502 20.7541L10.2502 20.75V17C10.2502 16.0335 11.0337 15.25 12.0002 15.25C12.9667 15.25 13.7502 16.0335 13.7502 17V20.75L13.7501 20.7541C13.7498 20.7779 13.7482 20.8836 13.7684 20.9854C13.8434 21.3622 14.138 21.6568 14.5148 21.7318C14.6166 21.752 14.7224 21.7504 14.7461 21.7501L14.7502 21.75L14.8512 21.75H14.8512C15.9165 21.7501 16.5656 21.7502 17.1219 21.6395C19.4029 21.1858 21.186 19.4028 21.6397 17.1218C21.7504 16.5655 21.7503 15.9164 21.7502 14.8511L21.7502 14.75V13.3404L21.7502 13.2269C21.7505 12.3825 21.7507 11.7998 21.5888 11.2658C21.3997 10.6424 21.0515 10.079 20.5785 9.63111C20.1733 9.24743 19.652 8.987 18.8966 8.60969L18.7951 8.55895L13.7667 6.04474L13.6884 6.00554L13.6884 6.00554C13.2404 5.78116 12.888 5.60467 12.5073 5.53324Z" fill="#18191A"/>
</svg>
