<svg width="24" height="24" viewBox="0 0 24 24" fill="none" xmlns="http://www.w3.org/2000/svg">
<path d="M21 9.46656V13C21 15.8003 21 17.2004 20.455 18.27C19.9757 19.2108 19.2108 19.9757 18.27 20.455C17.2004 21 15.8003 21 13 21H11C8.19974 21 6.79961 21 5.73006 20.455C4.78925 19.9757 4.02434 19.2108 3.54498 18.27C3.00001 17.2004 3.00001 15.8003 3.00001 13L3 9.46657C3 8.3897 3 7.85126 3.16397 7.37589C3.30896 6.95552 3.5456 6.57263 3.85675 6.25495C4.2086 5.8957 4.6902 5.65491 5.65339 5.17331L10.569 2.71554C11.0937 2.45318 11.3561 2.32199 11.6313 2.27036C11.875 2.22464 12.1251 2.22464 12.3688 2.27037C12.644 2.322 12.9064 2.45318 13.4311 2.71554L18.3466 5.17331L18.3467 5.17332C19.3098 5.65491 19.7914 5.8957 20.1433 6.25494C20.4544 6.57263 20.6911 6.95551 20.836 7.37589C21 7.85125 21 8.38969 21 9.46656Z" stroke="#18191A" stroke-width="1.5" stroke-linecap="round"/>
</svg>
