<svg width="24" height="24" viewBox="0 0 24 24" fill="none" xmlns="http://www.w3.org/2000/svg">
<path fill-rule="evenodd" clip-rule="evenodd" d="M12.2306 3.00752C12.0783 2.97894 11.922 2.97894 11.7696 3.00752C11.6219 3.03524 11.4681 3.10457 10.9044 3.38638L5.98886 5.84415C4.97704 6.35006 4.63552 6.53176 4.39263 6.77975C4.15927 7.01802 3.98179 7.30518 3.87304 7.62046C3.75985 7.94862 3.75007 8.33534 3.75007 9.46659L3.75007 14.75C3.75007 15.9476 3.75371 16.4369 3.83173 16.8291C4.16709 18.5151 5.48502 19.833 7.17097 20.1684C7.50351 20.2345 7.90574 20.2472 8.75008 20.2495V17C8.75008 15.2051 10.2052 13.75 12.0001 13.75C13.795 13.75 15.2501 15.2051 15.2501 17V20.2495C16.0944 20.2472 16.4967 20.2345 16.8292 20.1684C18.5151 19.833 19.8331 18.5151 20.1684 16.8292C20.2464 16.4369 20.2501 15.9476 20.2501 14.75V9.46658C20.2501 8.33533 20.2403 7.94861 20.1271 7.62046C20.0184 7.30518 19.8409 7.01801 19.6075 6.77975C19.3646 6.53176 19.0231 6.35006 18.0113 5.84415L13.0958 3.38638C12.5322 3.10457 12.3784 3.03524 12.2306 3.00752ZM11.493 1.53324C11.8282 1.47036 12.1721 1.47037 12.5072 1.53324C12.888 1.60468 13.2403 1.78116 13.6883 2.00554C13.7141 2.01845 13.7402 2.03152 13.7666 2.04474L18.6821 4.50251C18.7208 4.52186 18.759 4.54093 18.7967 4.55975C19.649 4.98547 20.2378 5.27959 20.6791 5.73017C21.0681 6.12728 21.3639 6.60588 21.5451 7.13135C21.7508 7.72758 21.7505 8.38578 21.7501 9.33852C21.7501 9.38062 21.7501 9.4233 21.7501 9.46658V14.75C21.7501 14.7841 21.7501 14.8178 21.7501 14.8511C21.7502 15.9164 21.7503 16.5655 21.6396 17.1218C21.1859 19.4028 19.4028 21.1858 17.1218 21.6395C16.5655 21.7502 15.9164 21.7501 14.8511 21.75C14.8179 21.75 14.7842 21.75 14.7501 21.75C14.7493 21.75 14.7479 21.7501 14.746 21.7501C14.7223 21.7504 14.6165 21.752 14.5147 21.7318C14.1379 21.6568 13.8433 21.3622 13.7683 20.9854C13.7481 20.8836 13.7497 20.7779 13.75 20.7541C13.7501 20.7522 13.7501 20.7508 13.7501 20.75V17C13.7501 16.0335 12.9666 15.25 12.0001 15.25C11.0336 15.25 10.2501 16.0335 10.2501 17V20.75C10.2501 20.7508 10.2501 20.7522 10.2501 20.7541C10.2505 20.7778 10.2521 20.8836 10.2318 20.9853C10.1569 21.3622 9.86227 21.6568 9.48542 21.7317C9.38369 21.752 9.2779 21.7504 9.2542 21.7501C9.25227 21.75 9.25088 21.75 9.25009 21.75C9.21597 21.75 9.18227 21.75 9.14898 21.75C8.08375 21.7501 7.43466 21.7502 6.87835 21.6395C4.59735 21.1858 2.81427 19.4028 2.36056 17.1218C2.2499 16.5654 2.24996 15.9163 2.25007 14.8511C2.25007 14.8178 2.25007 14.7841 2.25007 14.75L2.25007 9.46659C2.25007 9.42331 2.25005 9.38063 2.25003 9.33852C2.24964 8.38578 2.24937 7.72758 2.45502 7.13135C2.63627 6.60589 2.93206 6.12728 3.321 5.73017C3.76232 5.27959 4.35115 4.98548 5.20348 4.55975C5.24115 4.54094 5.27934 4.52186 5.31804 4.50251L10.2336 2.04473C10.2601 2.03152 10.2862 2.01845 10.3119 2.00554C10.7599 1.78115 11.1123 1.60467 11.493 1.53324Z" fill="#18191A"/>
</svg>
