<svg width="24" height="24" viewBox="0 0 24 24" fill="none" xmlns="http://www.w3.org/2000/svg">
<path fill-rule="evenodd" clip-rule="evenodd" d="M3.68499 17.1676C4.20628 18.9921 5.87392 20.25 7.77147 20.25H16.2285C18.126 20.25 19.7936 18.9921 20.3149 17.1676L20.8745 15.2091C20.9178 15.0576 20.9525 14.9043 20.9786 14.75H17.0703C16.6524 14.75 16.2621 14.9589 16.0303 15.3066L15.5146 16.0801C14.8191 17.1234 13.6482 17.75 12.3944 17.75H11.6055C10.3517 17.75 9.18083 17.1234 8.48534 16.0801L7.96967 15.3066C7.73784 14.9589 7.34755 14.75 6.92961 14.75H3.02138C3.04747 14.9043 3.08215 15.0576 3.12543 15.2091L3.68499 17.1676ZM3.03627 13.25C3.06439 13.1016 3.10049 12.9544 3.14456 12.809L4.97531 6.76748C5.51834 4.97548 7.17019 3.75 9.04267 3.75H14.9573C16.8297 3.75 18.4816 4.97547 19.0246 6.76746L20.8554 12.809C20.8994 12.9544 20.9355 13.1016 20.9637 13.25H17.0703C16.1509 13.25 15.2922 13.7095 14.7822 14.4746L14.2665 15.2481C13.8492 15.874 13.1467 16.25 12.3944 16.25H11.6055C10.8532 16.25 10.1507 15.874 9.73341 15.2481L9.21775 14.4746C8.70771 13.7095 7.84908 13.25 6.92961 13.25H3.03627ZM7.77147 21.75C5.2042 21.75 2.94798 20.0481 2.2427 17.5796L1.68315 15.6212C1.37961 14.5588 1.38859 13.4314 1.70902 12.374L3.53977 6.33247C4.27446 3.908 6.50932 2.25 9.04267 2.25H14.9573C17.4906 2.25 19.7254 3.90798 20.4601 6.33245L22.2909 12.374C22.6114 13.4314 22.6203 14.5588 22.3168 15.6212L21.7572 17.5797C21.0519 20.0481 18.7957 21.75 16.2285 21.75H7.77147ZM15 7.75C15.4142 7.75 15.75 7.41421 15.75 7C15.75 6.58579 15.4142 6.25 15 6.25L8.99998 6.25C8.58576 6.25 8.24998 6.58579 8.24998 7C8.24998 7.41421 8.58576 7.75 8.99998 7.75L15 7.75ZM15.75 10.5C15.75 10.9142 15.4142 11.25 15 11.25H8.99998C8.58576 11.25 8.24998 10.9142 8.24998 10.5C8.24998 10.0858 8.58576 9.75 8.99998 9.75L15 9.75C15.4142 9.75 15.75 10.0858 15.75 10.5Z" fill="#18191A"/>
</svg>
