<svg width="24" height="24" viewBox="0 0 24 24" fill="none" xmlns="http://www.w3.org/2000/svg">
<path fill-rule="evenodd" clip-rule="evenodd" d="M20.5303 2.46958C19.6852 1.6244 18.3148 1.6244 17.4697 2.46958L8.23753 11.7017C7.54914 11.4107 6.79263 11.2499 6 11.2499C2.82436 11.2499 0.25 13.8243 0.25 16.9999C0.25 20.1755 2.82436 22.7499 6 22.7499C9.17564 22.7499 11.75 20.1755 11.75 16.9999C11.75 16.2073 11.5892 15.4508 11.2982 14.7624L13 13.0606L14.4697 14.5302C15.3148 15.3754 16.6852 15.3754 17.5303 14.5302C18.3755 13.6851 18.3755 12.3148 17.5303 11.4696L16.0607 9.99991L17.5 8.56057L18.9697 10.0302C19.8148 10.8754 21.1852 10.8754 22.0303 10.0302C22.8755 9.18506 22.8755 7.81475 22.0303 6.96958L20.5604 5.49961C21.3754 4.65228 21.3654 3.30462 20.5303 2.46958ZM18.5303 3.53024C18.7897 3.27085 19.2103 3.27085 19.4697 3.53024C19.7291 3.78963 19.7291 4.21019 19.4697 4.46958L18.9697 4.96958C18.6768 5.26247 18.6768 5.73734 18.9697 6.03024L20.9697 8.03024C21.2291 8.28963 21.2291 8.71019 20.9697 8.96958C20.7103 9.22897 20.2897 9.22897 20.0303 8.96958L18.0303 6.96958C17.7374 6.67668 17.2626 6.67668 16.9697 6.96958L14.4697 9.46958C14.1768 9.76247 14.1768 10.2373 14.4697 10.5302L16.4697 12.5302C16.7291 12.7896 16.7291 13.2102 16.4697 13.4696C16.2103 13.729 15.7897 13.729 15.5303 13.4696L13.5303 11.4696C13.2374 11.1767 12.7626 11.1767 12.4697 11.4696L9.86153 14.0777C9.62623 14.313 9.57411 14.6752 9.73353 14.9673C10.0627 15.5704 10.25 16.2621 10.25 16.9999C10.25 19.3471 8.34721 21.2499 6 21.2499C3.65279 21.2499 1.75 19.3471 1.75 16.9999C1.75 14.6527 3.65279 12.7499 6 12.7499C6.73776 12.7499 7.42952 12.9373 8.03257 13.2664C8.32467 13.4258 8.68689 13.3737 8.92219 13.1384L18.5303 3.53024ZM4.75 16.9999C4.75 16.3096 5.30964 15.7499 6 15.7499C6.69036 15.7499 7.25 16.3096 7.25 16.9999C7.25 17.6903 6.69036 18.2499 6 18.2499C5.30964 18.2499 4.75 17.6903 4.75 16.9999ZM6 14.2499C4.48122 14.2499 3.25 15.4811 3.25 16.9999C3.25 18.5187 4.48122 19.7499 6 19.7499C7.51878 19.7499 8.75 18.5187 8.75 16.9999C8.75 15.4811 7.51878 14.2499 6 14.2499Z" fill="#18191A"/>
</svg>
