<svg width="24" height="24" viewBox="0 0 24 24" fill="none" xmlns="http://www.w3.org/2000/svg">
<path fill-rule="evenodd" clip-rule="evenodd" d="M7.85669 4.31339C8.14696 3.40654 8.99681 2.75 10 2.75C11.032 2.75 11.9018 3.44482 12.1669 4.39218C11.444 4.50676 10.7381 4.75971 10.0922 5.15142C9.4277 4.72671 8.67002 4.43488 7.85669 4.31339ZM6.25 5.81597V8C6.25 8.41421 6.58579 8.75 7 8.75C7.41421 8.75 7.75 8.41421 7.75 8V5.81597C9.73951 6.1702 11.25 7.9087 11.25 10C11.25 11.6813 10.2738 13.136 8.854 13.8256C8.26101 14.1136 7.75 14.7216 7.75 15.5052V21.5C7.75 21.9142 7.41421 22.25 7 22.25C6.58579 22.25 6.25 21.9142 6.25 21.5V15.5052C6.25 14.7216 5.73899 14.1136 5.146 13.8256C3.72617 13.136 2.75 11.6813 2.75 10C2.75 7.9087 4.26049 6.1702 6.25 5.81597ZM6.3171 4.29013C6.64888 2.5585 8.17163 1.25 10 1.25C11.851 1.25 13.3888 2.59115 13.6947 4.35475C14.9515 4.49121 16.1732 5.04138 17.137 6.00513C18.7473 7.61539 19.2017 9.94214 18.5046 11.9558C18.4345 12.1585 18.4912 12.3091 18.5549 12.3728L23.0303 16.8482C23.909 17.7269 23.909 19.1515 23.0303 20.0302C22.1517 20.9089 20.727 20.9089 19.8484 20.0302L15.3729 15.5547C15.3091 15.491 15.1586 15.4343 14.956 15.5045C14.3201 15.7246 13.6539 15.8298 12.9895 15.8204L13.0106 14.3206C13.503 14.3275 13.9958 14.2495 14.4653 14.087C15.0883 13.8713 15.8795 13.94 16.4335 14.4941L20.909 18.9695C21.2019 19.2624 21.6768 19.2624 21.9697 18.9695C22.2626 18.6766 22.2626 18.2018 21.9697 17.9089L17.4942 13.4334C16.9401 12.8793 16.8715 12.0881 17.0872 11.4651C17.6035 9.97349 17.2652 8.25461 16.0763 7.06579C15.231 6.22046 14.1196 5.80575 13.0106 5.82142C12.4303 5.82962 11.8522 5.95575 11.3149 6.19935C12.2081 7.21264 12.75 8.54304 12.75 10C12.75 12.2773 11.4261 14.2439 9.50933 15.1748C9.3164 15.2685 9.25 15.4151 9.25 15.5052V21.5C9.25 22.7426 8.24264 23.75 7 23.75C5.75736 23.75 4.75 22.7426 4.75 21.5V15.5052C4.75 15.4151 4.6836 15.2685 4.49067 15.1748C2.57391 14.2439 1.25 12.2773 1.25 10C1.25 7.05543 3.46335 4.62783 6.3171 4.29013Z" fill="#18191A"/>
</svg>
