<svg width="24" height="24" viewBox="0 0 24 24" fill="none" xmlns="http://www.w3.org/2000/svg">
<path fill-rule="evenodd" clip-rule="evenodd" d="M11.6647 2.32918C11.8759 2.22361 12.1244 2.22361 12.3355 2.32918L21.3355 6.82918C21.5896 6.95622 21.7501 7.21592 21.7501 7.5C21.7501 7.78408 21.5896 8.04378 21.3355 8.17082L12.3355 12.6708C12.1244 12.7764 11.8759 12.7764 11.6647 12.6708L2.66473 8.17082C2.41064 8.04378 2.25014 7.78408 2.25014 7.5C2.25014 7.21592 2.41064 6.95622 2.66473 6.82918L11.6647 2.32918ZM4.67719 7.5L12.0001 11.1615L19.3231 7.5L12.0001 3.83853L4.67719 7.5ZM2.34452 16.6358C2.54568 16.2737 3.00228 16.1432 3.36437 16.3444L12.0001 21.142L20.6359 16.3444C20.998 16.1432 21.4546 16.2737 21.6558 16.6358C21.8569 16.9979 21.7265 17.4545 21.3644 17.6556L12.3644 22.6556C12.1379 22.7815 11.8624 22.7815 11.6359 22.6556L2.6359 17.6556C2.27382 17.4545 2.14336 16.9979 2.34452 16.6358ZM3.36437 11.3444C3.00228 11.1432 2.54568 11.2737 2.34452 11.6358C2.14336 11.9979 2.27382 12.4545 2.6359 12.6556L11.6359 17.6556C11.8624 17.7815 12.1379 17.7815 12.3644 17.6556L21.3644 12.6556C21.7265 12.4545 21.8569 11.9979 21.6558 11.6358C21.4546 11.2737 20.998 11.1432 20.6359 11.3444L12.0001 16.142L3.36437 11.3444Z" fill="#18191A"/>
</svg>
