<svg width="24" height="24" viewBox="0 0 24 24" fill="none" xmlns="http://www.w3.org/2000/svg">
<path fill-rule="evenodd" clip-rule="evenodd" d="M17.2 3.75C18.0525 3.75 18.6467 3.75058 19.1093 3.78838C19.5632 3.82547 19.824 3.8946 20.0215 3.99524C20.4448 4.21095 20.789 4.55516 21.0048 4.97852C21.1054 5.17604 21.1745 5.4368 21.2116 5.89068C21.2494 6.35331 21.25 6.94755 21.25 7.8V16.2C21.25 17.0525 21.2494 17.6467 21.2116 18.1093C21.1745 18.5632 21.1054 18.824 21.0048 19.0215C20.789 19.4448 20.4448 19.789 20.0215 20.0048C19.824 20.1054 19.5632 20.1745 19.1093 20.2116C18.6467 20.2494 18.0525 20.25 17.2 20.25H12C10.7574 20.25 9.75 19.2426 9.75 18V17.5C9.75 17.0858 9.41421 16.75 9 16.75C8.58579 16.75 8.25 17.0858 8.25 17.5V18C8.25 20.0711 9.92893 21.75 12 21.75H17.2H17.2321C18.045 21.75 18.7006 21.75 19.2315 21.7066C19.7781 21.662 20.2582 21.5676 20.7025 21.3413C21.4081 20.9817 21.9817 20.4081 22.3413 19.7025C22.5676 19.2582 22.662 18.7781 22.7066 18.2315C22.75 17.7006 22.75 17.0449 22.75 16.2321V16.2V7.8V7.76793C22.75 6.95507 22.75 6.29945 22.7066 5.76853C22.662 5.2219 22.5676 4.74175 22.3413 4.29754C21.9817 3.59193 21.4081 3.01825 20.7025 2.65873C20.2582 2.43239 19.7781 2.33803 19.2315 2.29336C18.7006 2.24999 18.0449 2.24999 17.2321 2.25H17.2321H17.2H14.5C14.0858 2.25 13.75 2.58579 13.75 3C13.75 3.41421 14.0858 3.75 14.5 3.75H17.2ZM7.50009 3.75C6.53359 3.75 5.75009 4.5335 5.75009 5.5V6.25061C5.88337 6.24999 6.02315 6.25 6.16956 6.25H6.16965H6.16966L6.20009 6.25H8.80009L8.83053 6.25H8.83062C8.97703 6.25 9.11681 6.24999 9.25009 6.25061V5.5C9.25009 4.5335 8.46659 3.75 7.50009 3.75ZM4.25009 5.5V6.36732C4.0792 6.40912 3.91318 6.46741 3.75162 6.54973C3.23417 6.81338 2.81347 7.23408 2.54982 7.75153C2.37798 8.08879 2.31087 8.44545 2.27983 8.82533C2.25007 9.18956 2.25008 9.63541 2.25009 10.1696L2.25009 10.2V10.8L2.25009 10.8304C2.25008 11.3646 2.25007 11.8104 2.27983 12.1747C2.31087 12.5546 2.37798 12.9112 2.54982 13.2485C2.81347 13.7659 3.23417 14.1866 3.75162 14.4503C4.08888 14.6221 4.44554 14.6892 4.82542 14.7203C5.18966 14.75 5.63551 14.75 6.16966 14.75H6.20009H8.80009H8.83052C9.36468 14.75 9.81053 14.75 10.1748 14.7203C10.5546 14.6892 10.9113 14.6221 11.2486 14.4503C11.766 14.1866 12.1867 13.7659 12.4504 13.2485C12.6222 12.9112 12.6893 12.5546 12.7204 12.1747C12.7501 11.8104 12.7501 11.3646 12.7501 10.8305V10.8305V10.8V10.2V10.1695V10.1695C12.7501 9.63538 12.7501 9.18955 12.7204 8.82533C12.6893 8.44545 12.6222 8.08879 12.4504 7.75153C12.1867 7.23408 11.766 6.81338 11.2486 6.54973C11.087 6.46741 10.921 6.40912 10.7501 6.36732V5.5C10.7501 3.70508 9.29502 2.25 7.50009 2.25C5.70517 2.25 4.25009 3.70508 4.25009 5.5ZM4.94757 7.77476C4.66044 7.79822 4.52316 7.8401 4.4326 7.88624C4.1974 8.00608 4.00617 8.19731 3.88633 8.43251C3.84019 8.52307 3.79831 8.66036 3.77485 8.94748C3.75067 9.24336 3.75009 9.62757 3.75009 10.2V10.8C3.75009 11.3724 3.75067 11.7566 3.77485 12.0525C3.79831 12.3396 3.84019 12.4769 3.88633 12.5675C4.00617 12.8027 4.1974 12.9939 4.4326 13.1138C4.52316 13.1599 4.66044 13.2018 4.94757 13.2252C5.24345 13.2494 5.62766 13.25 6.20009 13.25H8.80009C9.37252 13.25 9.75673 13.2494 10.0526 13.2252C10.3397 13.2018 10.477 13.1599 10.5676 13.1138C10.8028 12.9939 10.994 12.8027 11.1138 12.5675C11.16 12.4769 11.2019 12.3396 11.2253 12.0525C11.2495 11.7566 11.2501 11.3724 11.2501 10.8V10.2C11.2501 9.62757 11.2495 9.24336 11.2253 8.94748C11.2019 8.66036 11.16 8.52307 11.1138 8.43251C10.994 8.19731 10.8028 8.00608 10.5676 7.88624C10.477 7.8401 10.3397 7.79822 10.0526 7.77476C9.75673 7.75058 9.37252 7.75 8.80009 7.75H6.20009C5.62766 7.75 5.24345 7.75058 4.94757 7.77476Z" fill="#18191A"/>
</svg>
