<svg width="24" height="24" viewBox="0 0 24 24" fill="none" xmlns="http://www.w3.org/2000/svg">
<path fill-rule="evenodd" clip-rule="evenodd" d="M12.2321 1.75H12.2H10C7.92893 1.75 6.25 3.42893 6.25 5.5H7.75C7.75 4.25736 8.75736 3.25 10 3.25H12.2C13.0525 3.25 13.6467 3.25058 14.1093 3.28838C14.5632 3.32547 14.824 3.3946 15.0215 3.49524C15.4448 3.71095 15.789 4.05516 16.0048 4.47852C16.1054 4.67604 16.1745 4.9368 16.2116 5.39068C16.2487 5.84421 16.25 6.42422 16.25 7.25H12H9.4H9.367H9.36699H9.36697C8.27484 7.24999 7.40935 7.24999 6.71173 7.30699C5.99834 7.36527 5.39472 7.48688 4.84355 7.76772C3.94978 8.22312 3.22312 8.94978 2.76772 9.84354C2.48688 10.3947 2.36527 10.9983 2.30699 11.7117C2.24999 12.4094 2.24999 13.2749 2.25 14.367V14.4V15.6V15.633C2.24999 16.7251 2.24999 17.5906 2.30699 18.2883C2.36527 19.0017 2.48688 19.6053 2.76772 20.1565C3.22312 21.0502 3.94978 21.7769 4.84355 22.2323C5.39472 22.5131 5.99834 22.6347 6.71173 22.693C7.40934 22.75 8.27481 22.75 9.36691 22.75H9.36698H9.4H14.6H14.633H14.6331C15.7252 22.75 16.5907 22.75 17.2883 22.693C18.0017 22.6347 18.6053 22.5131 19.1565 22.2323C20.0502 21.7769 20.7769 21.0502 21.2323 20.1565C21.5131 19.6053 21.6347 19.0017 21.693 18.2883C21.75 17.5906 21.75 16.7252 21.75 15.633V15.6V12.5L21.75 12.4524V12.4523V12.4522C21.75 12.0335 21.7501 11.7672 21.7271 11.5344C21.5144 9.37491 19.8694 7.64724 17.75 7.3095V7.3V7.2679C17.75 6.45506 17.75 5.79944 17.7066 5.26853C17.662 4.7219 17.5676 4.24175 17.3413 3.79754C16.9817 3.09193 16.4081 2.51825 15.7025 2.15873C15.2582 1.93239 14.7781 1.83803 14.2315 1.79336C13.7006 1.74999 13.0449 1.74999 12.2321 1.75H12.2321ZM17.3186 8.76565C17.1689 8.75091 16.9822 8.75 16.5 8.75H12H9.4C8.26752 8.75 7.46326 8.75058 6.83388 8.80201C6.21325 8.85271 5.829 8.94909 5.52453 9.10423C4.913 9.41582 4.41582 9.913 4.10423 10.5245C3.94909 10.829 3.85271 11.2133 3.80201 11.8339C3.75058 12.4633 3.75 13.2675 3.75 14.4V15.6C3.75 16.7325 3.75058 17.5367 3.80201 18.1661C3.85271 18.7867 3.94909 19.171 4.10423 19.4755C4.41582 20.087 4.913 20.5842 5.52453 20.8958C5.829 21.0509 6.21325 21.1473 6.83388 21.198C7.46326 21.2494 8.26752 21.25 9.4 21.25H14.6C15.7325 21.25 16.5367 21.2494 17.1661 21.198C17.7867 21.1473 18.171 21.0509 18.4755 20.8958C19.087 20.5842 19.5842 20.087 19.8958 19.4755C20.0509 19.171 20.1473 18.7867 20.198 18.1661C20.2494 17.5367 20.25 16.7325 20.25 15.6V12.5C20.25 12.0178 20.2491 11.8311 20.2344 11.6814C20.0824 10.1384 18.8616 8.91762 17.3186 8.76565ZM12.75 13C12.75 12.5858 12.4142 12.25 12 12.25C11.5858 12.25 11.25 12.5858 11.25 13V16C11.25 16.4142 11.5858 16.75 12 16.75C12.4142 16.75 12.75 16.4142 12.75 16V13Z" fill="#18191A"/>
</svg>
