<svg width="24" height="24" viewBox="0 0 24 24" fill="none" xmlns="http://www.w3.org/2000/svg">
<path fill-rule="evenodd" clip-rule="evenodd" d="M3.75 10.5C3.75 6.44167 7.38622 2.75 12 2.75C16.6138 2.75 20.25 6.44167 20.25 10.5C20.25 13.4471 18.4244 16.1384 16.3526 18.1492C15.3286 19.1431 14.2749 19.9404 13.4237 20.4854C12.9976 20.7583 12.6311 20.9623 12.352 21.0949C12.2118 21.1614 12.1033 21.2054 12.0266 21.2313C12.0167 21.2346 12.0078 21.2375 12 21.2399C11.9922 21.2375 11.9833 21.2346 11.9734 21.2313C11.8967 21.2054 11.7882 21.1614 11.648 21.0949C11.3689 20.9623 11.0024 20.7583 10.5763 20.4854C9.72511 19.9404 8.67138 19.1431 7.64735 18.1492C5.57559 16.1384 3.75 13.4471 3.75 10.5ZM12 1.25C6.61378 1.25 2.25 5.55833 2.25 10.5C2.25 14.0529 4.42441 17.1115 6.60265 19.2256C7.70362 20.2942 8.83739 21.1531 9.76744 21.7486C10.232 22.0461 10.6545 22.2835 11.0043 22.4497C11.1786 22.5325 11.3445 22.6023 11.4949 22.6529C11.6282 22.6978 11.8121 22.7498 12 22.7498C12.1879 22.7498 12.3718 22.6978 12.5051 22.6529C12.6555 22.6023 12.8214 22.5325 12.9957 22.4497C13.3455 22.2835 13.768 22.0461 14.2326 21.7486C15.1626 21.1531 16.2964 20.2942 17.3974 19.2256C19.5756 17.1115 21.75 14.0529 21.75 10.5C21.75 5.55833 17.3862 1.25 12 1.25ZM9.75 11C9.75 9.75736 10.7574 8.75 12 8.75C13.2426 8.75 14.25 9.75736 14.25 11C14.25 12.2426 13.2426 13.25 12 13.25C10.7574 13.25 9.75 12.2426 9.75 11ZM12 7.25C9.92893 7.25 8.25 8.92893 8.25 11C8.25 13.0711 9.92893 14.75 12 14.75C14.0711 14.75 15.75 13.0711 15.75 11C15.75 8.92893 14.0711 7.25 12 7.25Z" fill="#18191A"/>
</svg>
