<svg width="24" height="24" viewBox="0 0 24 24" fill="none" xmlns="http://www.w3.org/2000/svg">
<g clip-path="url(#clip0_640_133)">
<path fill-rule="evenodd" clip-rule="evenodd" d="M7.46967 5.53044C7.76256 5.82334 8.23744 5.82334 8.53033 5.53044L11.25 2.81077V8.00011C11.25 8.41433 11.5858 8.75011 12 8.75011C12.4142 8.75011 12.75 8.41433 12.75 8.00011V2.81077L15.4697 5.53044C15.7626 5.82334 16.2374 5.82334 16.5303 5.53044C16.8232 5.23755 16.8232 4.76268 16.5303 4.46978L12.5303 0.469783L12 -0.0605469L11.4697 0.469783L7.46967 4.46978C7.17678 4.76268 7.17678 5.23755 7.46967 5.53044ZM15.4697 18.4697L12.75 21.1893V16C12.75 15.5858 12.4142 15.25 12 15.25C11.5858 15.25 11.25 15.5858 11.25 16V21.1893L8.53033 18.4697C8.23744 18.1768 7.76256 18.1768 7.46967 18.4697C7.17678 18.7626 7.17678 19.2374 7.46967 19.5303L11.4697 23.5303L12 24.0607L12.5303 23.5303L16.5303 19.5303C16.8232 19.2374 16.8232 18.7626 16.5303 18.4697C16.2374 18.1768 15.7626 18.1768 15.4697 18.4697ZM5.53044 8.53033C5.82334 8.23744 5.82334 7.76256 5.53044 7.46967C5.23755 7.17678 4.76268 7.17678 4.46978 7.46967L0.469783 11.4697L-0.0605469 12L0.469783 12.5303L4.46978 16.5303C4.76268 16.8232 5.23755 16.8232 5.53044 16.5303C5.82334 16.2374 5.82334 15.7626 5.53044 15.4697L2.81077 12.75H8.00036C8.41457 12.75 8.75036 12.4142 8.75036 12C8.75036 11.5858 8.41457 11.25 8.00036 11.25H2.81077L5.53044 8.53033ZM19.5303 16.5303C19.2374 16.8232 18.7626 16.8232 18.4697 16.5303C18.1768 16.2374 18.1768 15.7626 18.4697 15.4697L21.1893 12.75H16C15.5858 12.75 15.25 12.4142 15.25 12C15.25 11.5858 15.5858 11.25 16 11.25H21.1893L18.4697 8.53033C18.1768 8.23744 18.1768 7.76256 18.4697 7.46967C18.7626 7.17678 19.2374 7.17678 19.5303 7.46967L23.5303 11.4697L24.0607 12L23.5309 12.5297L23.5298 12.5309L19.5303 16.5303Z" fill="#18191A"/>
</g>
<defs>
<clipPath id="clip0_640_133">
<rect width="24" height="24" fill="white"/>
</clipPath>
</defs>
</svg>
