<svg width="24" height="24" viewBox="0 0 24 24" fill="none" xmlns="http://www.w3.org/2000/svg">
<path fill-rule="evenodd" clip-rule="evenodd" d="M20.25 10V4.81066L14.5303 10.5303C14.2374 10.8232 13.7626 10.8232 13.4697 10.5303C13.1768 10.2374 13.1768 9.76256 13.4697 9.46967L19.1893 3.75H14C13.5858 3.75 13.25 3.41421 13.25 3C13.25 2.58579 13.5858 2.25 14 2.25H21H21.75V3V10C21.75 10.4142 21.4142 10.75 21 10.75C20.5858 10.75 20.25 10.4142 20.25 10ZM3 13.25C3.41421 13.25 3.75 13.5858 3.75 14V19.1893L9.46967 13.4697C9.76256 13.1768 10.2374 13.1768 10.5303 13.4697C10.8232 13.7626 10.8232 14.2374 10.5303 14.5303L4.81066 20.25H10C10.4142 20.25 10.75 20.5858 10.75 21C10.75 21.4142 10.4142 21.75 10 21.75H3H2.25V21V14C2.25 13.5858 2.58579 13.25 3 13.25Z" fill="#18191A"/>
</svg>
