<svg width="24" height="24" viewBox="0 0 24 24" fill="none" xmlns="http://www.w3.org/2000/svg">
<path fill-rule="evenodd" clip-rule="evenodd" d="M3.75 7C3.75 5.20507 5.20507 3.75 7 3.75H8C8.41421 3.75 8.75 3.41421 8.75 3C8.75 2.58579 8.41421 2.25 8 2.25H7C4.37665 2.25 2.25 4.37665 2.25 7V8C2.25 8.41421 2.58579 8.75 3 8.75C3.41421 8.75 3.75 8.41421 3.75 8V7ZM3.75 17C3.75 18.7949 5.20507 20.25 7 20.25H8C8.41421 20.25 8.75 20.5858 8.75 21C8.75 21.4142 8.41421 21.75 8 21.75H7C4.37665 21.75 2.25 19.6234 2.25 17V16C2.25 15.5858 2.58579 15.25 3 15.25C3.41421 15.25 3.75 15.5858 3.75 16V17ZM17 3.75C18.7949 3.75 20.25 5.20507 20.25 7V8C20.25 8.41421 20.5858 8.75 21 8.75C21.4142 8.75 21.75 8.41421 21.75 8V7C21.75 4.37665 19.6234 2.25 17 2.25H16C15.5858 2.25 15.25 2.58579 15.25 3C15.25 3.41421 15.5858 3.75 16 3.75H17ZM20.25 17C20.25 18.7949 18.7949 20.25 17 20.25H16C15.5858 20.25 15.25 20.5858 15.25 21C15.25 21.4142 15.5858 21.75 16 21.75H17C19.6234 21.75 21.75 19.6234 21.75 17V16C21.75 15.5858 21.4142 15.25 21 15.25C20.5858 15.25 20.25 15.5858 20.25 16V17Z" fill="#B9C3CD"/>
</svg>
