<svg width="24" height="24" viewBox="0 0 24 24" fill="none" xmlns="http://www.w3.org/2000/svg">
<path fill-rule="evenodd" clip-rule="evenodd" d="M14.4696 9.53031C14.1768 9.23742 14.1768 8.76254 14.4696 8.46965L19.1893 3.75H16C15.5858 3.75 15.25 3.41421 15.25 3C15.25 2.58579 15.5858 2.25 16 2.25H20.9946H21.0053H21.75V3V8C21.75 8.41421 21.4142 8.75 21 8.75C20.5858 8.75 20.25 8.41421 20.25 8V4.81062L15.5303 9.53031C15.2374 9.8232 14.7625 9.8232 14.4696 9.53031ZM9.5303 14.4696C9.82319 14.7625 9.82319 15.2374 9.5303 15.5303L4.81061 20.25H7.99998C8.41419 20.25 8.74998 20.5858 8.74998 21C8.74998 21.4142 8.41419 21.75 7.99998 21.75H2.99998H2.24998V21.0045V20.9954V16C2.24998 15.5858 2.58577 15.25 2.99998 15.25C3.41419 15.25 3.74998 15.5858 3.74998 16V19.1893L8.46964 14.4696C8.76253 14.1767 9.2374 14.1767 9.5303 14.4696ZM3.75 4.81066V8C3.75 8.41421 3.41421 8.75 3 8.75C2.58579 8.75 2.25 8.41421 2.25 8V3V2.25H3H8C8.41421 2.25 8.75 2.58579 8.75 3C8.75 3.41421 8.41421 3.75 8 3.75H4.81066L9.53033 8.46967C9.82322 8.76256 9.82322 9.23744 9.53033 9.53033C9.23744 9.82322 8.76256 9.82322 8.46967 9.53033L3.75 4.81066ZM14.4697 14.4697C14.1768 14.7625 14.1768 15.2374 14.4697 15.5303L19.1893 20.25H16C15.5858 20.25 15.25 20.5858 15.25 21C15.25 21.4142 15.5858 21.75 16 21.75H21H21.75V21V16C21.75 15.5858 21.4142 15.25 21 15.25C20.5858 15.25 20.25 15.5858 20.25 16V19.1893L15.5303 14.4697C15.2374 14.1768 14.7625 14.1768 14.4697 14.4697Z" fill="#18191A"/>
</svg>
