<svg width="24" height="24" viewBox="0 0 24 24" fill="none" xmlns="http://www.w3.org/2000/svg">
<path fill-rule="evenodd" clip-rule="evenodd" d="M12 2.75C6.81508 2.75 2.75 6.51603 2.75 11C2.75 12.9663 3.84782 14.8969 5.60514 16.3613C7.35852 17.8225 9.69187 18.75 12 18.75C12.4142 18.75 12.75 19.0858 12.75 19.5V20.8478C14.2544 20.1222 16.133 18.9749 17.7452 17.5078C19.7651 15.6697 21.25 13.4396 21.25 11H22.75C22.75 14.0604 20.9016 16.6636 18.7548 18.6172C16.5952 20.5825 14.015 22.0018 12.2785 22.6964C12.0475 22.7888 11.7856 22.7606 11.5795 22.621C11.3734 22.4815 11.25 22.2489 11.25 22V20.2225C8.81784 20.0454 6.45576 19.0227 4.64486 17.5137C2.65218 15.8531 1.25 13.5337 1.25 11C1.25 5.54285 6.13922 1.25 12 1.25V2.75ZM15.9697 1.96967C16.2626 1.67678 16.7374 1.67678 17.0303 1.96967L19 3.93934L20.9697 1.96967C21.2626 1.67678 21.7374 1.67678 22.0303 1.96967C22.3232 2.26256 22.3232 2.73744 22.0303 3.03033L20.0607 5L22.0303 6.96967C22.3232 7.26256 22.3232 7.73744 22.0303 8.03033C21.7374 8.32322 21.2626 8.32322 20.9697 8.03033L19 6.06066L17.0303 8.03033C16.7374 8.32322 16.2626 8.32322 15.9697 8.03033C15.6768 7.73744 15.6768 7.26256 15.9697 6.96967L17.9393 5L15.9697 3.03033C15.6768 2.73744 15.6768 2.26256 15.9697 1.96967Z" fill="#1D1E1F"/>
</svg>
