<svg width="24" height="24" viewBox="0 0 24 24" fill="none" xmlns="http://www.w3.org/2000/svg">
<path fill-rule="evenodd" clip-rule="evenodd" d="M2.75 11C2.75 6.51603 6.81508 2.75 12 2.75V1.25C6.13922 1.25 1.25 5.54285 1.25 11C1.25 13.5337 2.65218 15.8531 4.64486 17.5137C6.45576 19.0227 8.81784 20.0454 11.25 20.2225V22C11.25 22.2489 11.3734 22.4815 11.5795 22.621C11.7856 22.7606 12.0475 22.7888 12.2785 22.6964C14.015 22.0018 16.5952 20.5825 18.7548 18.6172C20.9016 16.6636 22.75 14.0604 22.75 11H21.25C21.25 13.4396 19.7651 15.6697 17.7452 17.5078C16.133 18.9749 14.2544 20.1222 12.75 20.8478V19.5C12.75 19.0858 12.4142 18.75 12 18.75C9.69187 18.75 7.35852 17.8225 5.60514 16.3613C3.84782 14.8969 2.75 12.9663 2.75 11ZM22 5.75C22.4142 5.75 22.75 5.41421 22.75 5C22.75 4.58579 22.4142 4.25 22 4.25L16 4.25C15.5858 4.25 15.25 4.58579 15.25 5C15.25 5.41421 15.5858 5.75 16 5.75H22Z" fill="#1D1E1F"/>
</svg>
