<svg width="24" height="24" viewBox="0 0 24 24" fill="none" xmlns="http://www.w3.org/2000/svg">
<path fill-rule="evenodd" clip-rule="evenodd" d="M3.55396 9.07453L9.07453 3.55396C7.42766 2.38106 5.22289 2.50678 3.86483 3.86483C2.50678 5.22289 2.38106 7.42766 3.55396 9.07453ZM10.1349 4.6149L4.6149 10.1349C5.32794 10.6418 6.14866 10.9076 6.9597 10.9339L10.9339 6.9597C10.9076 6.14866 10.6418 5.32795 10.1349 4.6149ZM12.4343 6.9525C12.3984 5.52292 11.8171 4.08731 10.7095 2.97968C8.50398 0.774187 4.964 0.644346 2.80417 2.80417C0.644346 4.964 0.774187 8.50398 2.97968 10.7095C4.08731 11.8171 5.52291 12.3984 6.95249 12.4343L11.2499 16.2264V22.9999C11.2499 23.4141 11.5857 23.7499 11.9999 23.7499C12.4142 23.7499 12.7499 23.4141 12.7499 22.9999V17.5501L15.4195 19.9057L15.4634 19.9445L15.5127 19.9759L17.7832 21.4224C18.4753 21.8633 19.3807 21.7642 19.961 21.1839L21.1838 19.9611C21.764 19.3809 21.8632 18.4754 21.4223 17.7833L19.9758 15.5129L19.9443 15.4635L19.9056 15.4196L12.4343 6.9525ZM11.666 8.34891L8.3489 11.666L15.8836 18.3148L18.3147 15.8838L11.666 8.34891ZM19.2128 17.107L17.1068 19.2129L18.5892 20.1573C18.688 20.2203 18.8174 20.2062 18.9003 20.1233L20.1231 18.9004C20.206 18.8175 20.2202 18.6882 20.1572 18.5893L19.2128 17.107ZM12.3198 11.2591C12.0269 10.9662 11.552 10.9662 11.2592 11.2591C10.9663 11.552 10.9663 12.0269 11.2592 12.3198L11.8486 12.9092C12.1415 13.2021 12.6164 13.2021 12.9093 12.9092C13.2022 12.6163 13.2022 12.1415 12.9093 11.8486L12.3198 11.2591Z" fill="#1D1E1F"/>
</svg>
