<svg width="24" height="24" viewBox="0 0 24 24" fill="none" xmlns="http://www.w3.org/2000/svg">
<path fill-rule="evenodd" clip-rule="evenodd" d="M12 1.25C8.82436 1.25 6.25 3.82436 6.25 7V12C6.25 15.1756 8.82436 17.75 12 17.75C15.1756 17.75 17.75 15.1756 17.75 12H16.25C16.25 14.3472 14.3472 16.25 12 16.25C9.65279 16.25 7.75 14.3472 7.75 12V7C7.75 4.65279 9.65279 2.75 12 2.75V1.25ZM4.75 11C4.75 10.5858 4.41421 10.25 4 10.25C3.58579 10.25 3.25 10.5858 3.25 11C3.25 14.0514 3.75177 16.5237 5.17383 18.2301C6.50432 19.8267 8.51928 20.6154 11.25 20.7341V23C11.25 23.4142 11.5858 23.75 12 23.75C12.4142 23.75 12.75 23.4142 12.75 23V20.7342C14.488 20.6589 15.9368 20.3127 17.1084 19.6537C18.4628 18.8918 19.3847 17.7467 19.9583 16.2718C20.1084 15.8858 19.9171 15.4511 19.5311 15.301C19.145 15.1509 18.7104 15.3421 18.5603 15.7282C18.0968 16.92 17.389 17.7748 16.373 18.3463C15.339 18.928 13.9247 19.25 12 19.25C9.11477 19.25 7.37666 18.5305 6.32617 17.2699C5.24823 15.9763 4.75 13.9486 4.75 11Z" fill="#1D1E1F"/>
<path fill-rule="evenodd" clip-rule="evenodd" d="M17.75 3C17.75 2.30964 18.3096 1.75 19 1.75C19.6904 1.75 20.25 2.30964 20.25 3V3.75H17.75L17.75 3ZM16.25 3.8796V3C16.25 1.48122 17.4812 0.25 19 0.25C20.5188 0.25 21.75 1.48122 21.75 3V3.8796C21.7871 3.89213 21.8241 3.90597 21.861 3.92127C22.4124 4.14963 22.8504 4.58765 23.0787 5.13896C23.18 5.38341 23.2171 5.63084 23.234 5.87821C23.25 6.11315 23.25 6.39701 23.25 6.72599V6.72601V6.75V6.77399V6.77401C23.25 7.10299 23.25 7.38685 23.234 7.62179C23.2171 7.86916 23.18 8.11659 23.0787 8.36104C22.8504 8.91235 22.4124 9.35037 21.861 9.57873C21.6166 9.67998 21.3692 9.71711 21.1218 9.73399C20.8868 9.75002 20.603 9.75001 20.274 9.75H20.25H17.75H17.726C17.397 9.75001 17.1132 9.75002 16.8782 9.73399C16.6308 9.71711 16.3834 9.67998 16.139 9.57873C15.5876 9.35037 15.1496 8.91235 14.9213 8.36104C14.82 8.11659 14.7829 7.86916 14.766 7.62179C14.75 7.38684 14.75 7.10298 14.75 6.77399V6.77399V6.75V6.72601V6.72601C14.75 6.39702 14.75 6.11316 14.766 5.87821C14.7829 5.63084 14.82 5.38341 14.9213 5.13896C15.1496 4.58765 15.5876 4.14963 16.139 3.92127C16.1759 3.90597 16.2129 3.89213 16.25 3.8796ZM16.713 5.30709C16.7442 5.29416 16.8093 5.2742 16.9803 5.26253C17.1581 5.25041 17.3903 5.25 17.75 5.25H20.25C20.6097 5.25 20.8419 5.25041 21.0197 5.26253C21.1907 5.2742 21.2558 5.29416 21.287 5.30709C21.4708 5.38321 21.6168 5.52922 21.6929 5.71299C21.7058 5.7442 21.7258 5.80932 21.7375 5.98032C21.7496 6.15806 21.75 6.39028 21.75 6.75C21.75 7.10972 21.7496 7.34194 21.7375 7.51968C21.7258 7.69068 21.7058 7.7558 21.6929 7.78701C21.6168 7.97078 21.4708 8.11679 21.287 8.19291C21.2558 8.20584 21.1907 8.2258 21.0197 8.23747C20.8419 8.24959 20.6097 8.25 20.25 8.25H17.75C17.3903 8.25 17.1581 8.24959 16.9803 8.23747C16.8093 8.2258 16.7442 8.20584 16.713 8.19291C16.5292 8.11679 16.3832 7.97078 16.3071 7.78701C16.2942 7.7558 16.2742 7.69068 16.2625 7.51968C16.2504 7.34194 16.25 7.10972 16.25 6.75C16.25 6.39028 16.2504 6.15806 16.2625 5.98032C16.2742 5.80932 16.2942 5.7442 16.3071 5.71299C16.3832 5.52922 16.5292 5.38321 16.713 5.30709Z" fill="#1D1E1F"/>
</svg>
