<svg width="24" height="24" viewBox="0 0 24 24" fill="none" xmlns="http://www.w3.org/2000/svg">
<path fill-rule="evenodd" clip-rule="evenodd" d="M12 1.25C8.82436 1.25 6.25 3.82436 6.25 7V12C6.25 15.1756 8.82436 17.75 12 17.75C15.1756 17.75 17.75 15.1756 17.75 12V7C17.75 3.82436 15.1756 1.25 12 1.25ZM7.75 7C7.75 4.65279 9.65279 2.75 12 2.75C14.3472 2.75 16.25 4.65279 16.25 7V12C16.25 14.3472 14.3472 16.25 12 16.25C9.65279 16.25 7.75 14.3472 7.75 12V7ZM4.75 11C4.75 10.5858 4.41421 10.25 4 10.25C3.58579 10.25 3.25 10.5858 3.25 11C3.25 14.0514 3.75177 16.5237 5.17383 18.2301C6.50432 19.8267 8.51928 20.6154 11.25 20.7341V23C11.25 23.4142 11.5858 23.75 12 23.75C12.4142 23.75 12.75 23.4142 12.75 23V20.7341C15.4807 20.6154 17.4957 19.8267 18.8262 18.2301C20.2482 16.5237 20.75 14.0514 20.75 11C20.75 10.5858 20.4142 10.25 20 10.25C19.5858 10.25 19.25 10.5858 19.25 11C19.25 13.9486 18.7518 15.9763 17.6738 17.2699C16.6233 18.5305 14.8852 19.25 12 19.25C9.11477 19.25 7.37666 18.5305 6.32617 17.2699C5.24823 15.9763 4.75 13.9486 4.75 11ZM10.5466 8.56525L10.3354 8.67082C9.96493 8.85606 9.51442 8.70589 9.32918 8.33541C9.14394 7.96493 9.29411 7.51442 9.66459 7.32918L9.87574 7.22361C11.213 6.55498 12.787 6.55498 14.1243 7.22361L14.3354 7.32918C14.7059 7.51442 14.8561 7.96493 14.6708 8.33541C14.4856 8.70589 14.0351 8.85606 13.6646 8.67082L13.4534 8.56525C12.5385 8.10777 11.4615 8.10777 10.5466 8.56525ZM11.3354 12.1708L11.441 12.118C11.7929 11.9421 12.2071 11.9421 12.559 12.118L12.6646 12.1708C13.0351 12.3561 13.4856 12.2059 13.6708 11.8354C13.8561 11.4649 13.7059 11.0144 13.3354 10.8292L13.2298 10.7764C12.4556 10.3893 11.5444 10.3893 10.7702 10.7764L10.6646 10.8292C10.2941 11.0144 10.1439 11.4649 10.3292 11.8354C10.5144 12.2059 10.9649 12.3561 11.3354 12.1708Z" fill="#1D1E1F"/>
</svg>
