<svg width="24" height="24" viewBox="0 0 24 24" fill="none" xmlns="http://www.w3.org/2000/svg">
<path fill-rule="evenodd" clip-rule="evenodd" d="M6.25 7C6.25 3.82436 8.82436 1.25 12 1.25V2.75C9.65279 2.75 7.75 4.65279 7.75 7V12C7.75 14.3472 9.65279 16.25 12 16.25C14.3472 16.25 16.25 14.3472 16.25 12H17.75C17.75 15.1756 15.1756 17.75 12 17.75C8.82436 17.75 6.25 15.1756 6.25 12V7ZM4 10.25C4.41421 10.25 4.75 10.5858 4.75 11C4.75 13.9486 5.24823 15.9763 6.32617 17.2699C7.37666 18.5305 9.11477 19.25 12 19.25C13.9247 19.25 15.339 18.928 16.373 18.3463C17.389 17.7748 18.0968 16.92 18.5603 15.7282C18.7104 15.3421 19.145 15.1509 19.5311 15.301C19.9171 15.4511 20.1084 15.8858 19.9583 16.2718C19.3847 17.7467 18.4628 18.8918 17.1084 19.6537C15.9368 20.3127 14.488 20.6589 12.75 20.7342V23C12.75 23.4142 12.4142 23.75 12 23.75C11.5858 23.75 11.25 23.4142 11.25 23V20.7341C8.51928 20.6154 6.50432 19.8267 5.17383 18.2301C3.75177 16.5237 3.25 14.0514 3.25 11C3.25 10.5858 3.58579 10.25 4 10.25ZM19 1.25C19.4142 1.25 19.75 1.58579 19.75 2V4.25H22C22.4142 4.25 22.75 4.58579 22.75 5C22.75 5.41421 22.4142 5.75 22 5.75H19.75V8C19.75 8.41421 19.4142 8.75 19 8.75C18.5858 8.75 18.25 8.41421 18.25 8V5.75H16C15.5858 5.75 15.25 5.41421 15.25 5C15.25 4.58579 15.5858 4.25 16 4.25H18.25V2C18.25 1.58579 18.5858 1.25 19 1.25Z" fill="#1D1E1F"/>
</svg>
