<svg width="24" height="24" viewBox="0 0 24 24" fill="none" xmlns="http://www.w3.org/2000/svg">
<path d="M13.25 23L13.25 23.75L14.75 23.75L14.75 23L13.25 23ZM14.75 19L14.75 18.25L13.25 18.25L13.25 19L14.75 19ZM14.75 23L14.75 19L13.25 19L13.25 23L14.75 23Z" fill="#1D1E1F"/>
<path d="M14.4556 8.92011L13.9253 8.38977L13.9253 8.38977L14.4556 8.92011ZM5.31802 9.68198L5.84835 9.15165L5.31802 9.68198ZM11.682 3.31802L11.1517 3.84835V3.84835L11.682 3.31802ZM7.62155 10.9139L8.15187 11.4442H8.15187L7.62155 10.9139ZM12.9139 5.6216L13.4442 6.15193L12.9139 5.6216ZM19.9787 15.6679L19.3983 16.143L19.9787 15.6679ZM19.912 17.0084L20.4423 17.5387L19.912 17.0084ZM19.0083 17.9121L19.5386 18.4424L19.0083 17.9121ZM17.6678 17.9788L18.1428 17.3985L17.6678 17.9788ZM7.23516 11.3003L6.70484 10.77L7.23516 11.3003ZM10.1856 14.2508L11.4504 12.986L10.3898 11.9253L9.12494 13.1901L10.1856 14.2508ZM14.986 9.45044L16.2508 8.18565L15.1901 7.12499L13.9253 8.38977L14.986 9.45044ZM20.5591 15.1929L15.036 8.44507L13.8753 9.39514L19.3983 16.143L20.5591 15.1929ZM11.4504 12.986L14.986 9.45044L13.9253 8.38977L10.3898 11.9253L11.4504 12.986ZM5.84835 9.15165C4.38388 7.68718 4.38388 5.31282 5.84835 3.84835L4.78769 2.78769C2.73744 4.83794 2.73744 8.16206 4.78769 10.2123L5.84835 9.15165ZM5.84835 3.84835C7.31282 2.38388 9.68718 2.38388 11.1517 3.84835L12.2123 2.78769C10.1621 0.737437 6.83794 0.737437 4.78769 2.78769L5.84835 3.84835ZM7.76726 10.1782C7.06439 10.039 6.39419 9.69749 5.84835 9.15165L4.78769 10.2123C5.55006 10.9747 6.49062 11.4545 7.47583 11.6496L7.76726 10.1782ZM7.09122 10.3836L6.70484 10.77L7.76549 11.8306L8.15187 11.4442L7.09122 10.3836ZM12.77 4.70485L12.3836 5.09127L13.4442 6.15193L13.8307 5.76552L12.77 4.70485ZM12.3836 5.09127L7.09122 10.3836L8.15187 11.4442L13.4442 6.15193L12.3836 5.09127ZM11.1517 3.84835C11.6975 4.3942 12.039 5.06442 12.1782 5.76731L13.6496 5.47589C13.4545 4.49066 12.9747 3.55008 12.2123 2.78769L11.1517 3.84835ZM19.5386 18.4424L20.4423 17.5387L19.3817 16.4781L18.4779 17.3818L19.5386 18.4424ZM10.445 13.036L14.1691 16.0843L15.1192 14.9235L11.3951 11.8753L10.445 13.036ZM14.1691 16.0843L17.1927 18.5592L18.1428 17.3985L15.1192 14.9235L14.1691 16.0843ZM19.3983 16.143C19.4797 16.2424 19.4725 16.3872 19.3817 16.4781L20.4423 17.5387C21.0781 16.9029 21.1286 15.8887 20.5591 15.1929L19.3983 16.143ZM16.2508 4.70485C15.2896 3.74367 13.7312 3.74367 12.77 4.70485L13.8307 5.76552C14.2061 5.39012 14.8147 5.39012 15.1901 5.76551L16.2508 4.70485ZM15.1901 5.76551C15.5655 6.14092 15.5655 6.74958 15.1901 7.12499L16.2508 8.18565C17.212 7.22446 17.212 5.66604 16.2508 4.70485L15.1901 5.76551ZM6.70484 14.2508C7.66603 15.2119 9.22441 15.2119 10.1856 14.2508L9.12494 13.1901C8.74954 13.5655 8.1409 13.5655 7.76549 13.1901L6.70484 14.2508ZM18.4779 17.3818C18.3871 17.4726 18.2422 17.4798 18.1428 17.3985L17.1927 18.5592C17.8885 19.1288 18.9028 19.0783 19.5386 18.4424L18.4779 17.3818ZM7.76549 13.1901C7.39008 12.8147 7.39008 12.206 7.76549 11.8306L6.70484 10.77C5.74363 11.7311 5.74363 13.2896 6.70484 14.2508L7.76549 13.1901Z" fill="#1D1E1F"/>
<path d="M12.3818 13.6519L12.8569 13.0715L11.6318 12.0687V13.6519H12.3818ZM14.1541 18.0145L14.1479 18.7645L14.1541 18.0145ZM11.6318 13.6519V16.3234H13.1318V13.6519H11.6318ZM14.052 18.7637L14.1479 18.7645L14.1603 17.2645L14.0645 17.2637L14.052 18.7637ZM11.9068 14.2322L15.2876 16.9996L16.2377 15.8388L12.8569 13.0715L11.9068 14.2322ZM14.1479 18.7645C15.4507 18.7753 16.5127 17.7221 16.5127 16.4192H15.0127C15.0127 16.8888 14.6299 17.2684 14.1603 17.2645L14.1479 18.7645ZM11.6318 16.3234C11.6318 17.6633 12.7122 18.7526 14.052 18.7637L14.0645 17.2637C13.5481 17.2595 13.1318 16.8397 13.1318 16.3234H11.6318Z" fill="#1D1E1F"/>
</svg>
