<svg width="24" height="24" viewBox="0 0 24 24" fill="none" xmlns="http://www.w3.org/2000/svg">
<path d="M18.5 14.4073L19.1492 14.0317C19.1226 13.9858 19.0913 13.9428 19.0557 13.9036L18.5 14.4073ZM15.4073 17.5L14.9035 18.0557C14.9428 18.0913 14.9858 18.1226 15.0317 18.1492L15.4073 17.5ZM8.13928 10.9104L8.66961 10.3801L8.44063 10.1511L8.11694 10.1607L8.13928 10.9104ZM11.9105 7.13916L11.1609 7.11683L11.1512 7.44051L11.3802 7.6695L11.9105 7.13916ZM8.15307 10.9242L7.62274 11.4545L7.63574 11.4675L7.64936 11.4799L8.15307 10.9242ZM11.9243 7.15295L12.48 6.64925L12.4676 6.63563L12.4546 6.62262L11.9243 7.15295ZM17.3352 18.6154L16.9596 19.2646L17.3352 18.6154ZM17.8508 14.7828L18.9662 16.7108L20.2646 15.9596L19.1492 14.0317L17.8508 14.7828ZM17.7108 17.9662L15.7828 16.8508L15.0317 18.1492L16.9596 19.2646L17.7108 17.9662ZM15.9376 18.0303L19.0303 14.9376L17.9697 13.8769L14.8769 16.9697L15.9376 18.0303ZM5.50762 9.1037C4.13024 7.72632 4.11486 5.60254 5.35876 4.35864L4.2981 3.29798C2.4178 5.17828 2.53572 8.25312 4.44696 10.1644L5.50762 9.1037ZM5.35876 4.35864C6.60266 3.11474 8.72644 3.13013 10.1038 4.50751L11.1645 3.44685C9.25323 1.5356 6.17839 1.41769 4.2981 3.29798L5.35876 4.35864ZM8.11694 10.1607C7.19766 10.1881 6.24182 9.8379 5.50762 9.1037L4.44696 10.1644C5.47631 11.1937 6.83328 11.6996 8.16162 11.6601L8.11694 10.1607ZM10.1038 4.50751C10.838 5.2417 11.1882 6.19754 11.1609 7.11683L12.6602 7.1615C12.6998 5.83317 12.1938 4.4762 11.1645 3.44685L10.1038 4.50751ZM15.911 16.9443L8.65678 10.3685L7.64936 11.4799L14.9035 18.0557L15.911 16.9443ZM8.6834 10.3939L8.66961 10.3801L7.60895 11.4407L7.62274 11.4545L8.6834 10.3939ZM11.3802 7.6695L11.394 7.68328L12.4546 6.62262L12.4408 6.60883L11.3802 7.6695ZM11.3686 7.65666L17.9443 14.911L19.0557 13.9036L12.48 6.64925L11.3686 7.65666ZM8.6834 11.4545L12.4546 7.68328L11.394 6.62262L7.62274 10.3939L8.6834 11.4545ZM5.50762 10.1644L11.1645 4.50751L10.1038 3.44685L4.44696 9.1037L5.50762 10.1644ZM18.9266 17.0128L18.4697 17.4697L19.5303 18.5303L19.9872 18.0734L18.9266 17.0128ZM18.4697 17.4697L18.0128 17.9266L19.0734 18.9872L19.5303 18.5303L18.4697 17.4697ZM16.9596 19.2646C17.6457 19.6615 18.5129 19.5477 19.0734 18.9872L18.0128 17.9266C17.9327 18.0067 17.8088 18.0229 17.7108 17.9662L16.9596 19.2646ZM18.9662 16.7108C19.0229 16.8088 19.0067 16.9327 18.9266 17.0128L19.9872 18.0734C20.5477 17.5129 20.6615 16.6457 20.2646 15.9596L18.9662 16.7108Z" fill="#1D1E1F"/>
<path d="M19.5303 17.4698C19.2375 17.1769 18.7626 17.1769 18.4697 17.4698C18.1768 17.7627 18.1768 18.2375 18.4697 18.5304L19.5303 17.4698ZM2.32036 20.183C2.1452 20.5583 2.30748 21.0046 2.68284 21.1798C3.05819 21.3549 3.50447 21.1926 3.67964 20.8173L2.32036 20.183ZM18.4697 18.5304C19.381 19.4418 19.507 20.1062 19.4289 20.4922C19.35 20.8824 19.0022 21.2874 18.302 21.5467C16.8963 22.0673 14.6026 21.7639 13.0644 20.0061L11.9356 20.9939C13.8974 23.2359 16.8537 23.6826 18.823 22.9533C19.8103 22.5877 20.6812 21.8678 20.8992 20.7893C21.118 19.7066 20.619 18.5585 19.5303 17.4698L18.4697 18.5304ZM13.0644 20.0061C12.2064 19.0255 11.3653 18.0232 10.5589 17.2249C9.76116 16.4351 8.89944 15.7416 7.95999 15.4676C6.94134 15.1705 5.93439 15.3934 4.98301 16.2021C4.07774 16.9716 3.20993 18.2767 2.32036 20.183L3.67964 20.8173C4.54007 18.9735 5.29726 17.9037 5.95449 17.345C6.56561 16.8256 7.05866 16.7672 7.54001 16.9076C8.10056 17.0711 8.73884 17.5338 9.5036 18.2909C10.2597 19.0394 11.0436 19.9745 11.9356 20.9939L13.0644 20.0061Z" fill="#1D1E1F"/>
</svg>
