<svg width="24" height="24" viewBox="0 0 24 24" fill="none" xmlns="http://www.w3.org/2000/svg">
<path fill-rule="evenodd" clip-rule="evenodd" d="M6.25 7C6.25 3.82436 8.82436 1.25 12 1.25C15.1756 1.25 17.75 3.82436 17.75 7V12C17.75 15.1756 15.1756 17.75 12 17.75C8.82436 17.75 6.25 15.1756 6.25 12V7ZM7.75 7.75H10C10.4142 7.75 10.75 7.41421 10.75 7C10.75 6.58579 10.4142 6.25 10 6.25H7.81597C8.1702 4.26049 9.9087 2.75 12 2.75C14.0913 2.75 15.8298 4.26049 16.184 6.25H14C13.5858 6.25 13.25 6.58579 13.25 7C13.25 7.41421 13.5858 7.75 14 7.75H16.25V11.25H14C13.5858 11.25 13.25 11.5858 13.25 12C13.25 12.4142 13.5858 12.75 14 12.75H16.184C15.8298 14.7395 14.0913 16.25 12 16.25C9.9087 16.25 8.1702 14.7395 7.81597 12.75H10C10.4142 12.75 10.75 12.4142 10.75 12C10.75 11.5858 10.4142 11.25 10 11.25H7.75V7.75ZM4 10.25C4.41421 10.25 4.75 10.5858 4.75 11C4.75 13.9486 5.24823 15.9763 6.32617 17.2699C7.37666 18.5305 9.11477 19.25 12 19.25C14.8852 19.25 16.6233 18.5305 17.6738 17.2699C18.7518 15.9763 19.25 13.9486 19.25 11C19.25 10.5858 19.5858 10.25 20 10.25C20.4142 10.25 20.75 10.5858 20.75 11C20.75 14.0514 20.2482 16.5237 18.8262 18.2301C17.4957 19.8267 15.4807 20.6154 12.75 20.7341V23C12.75 23.4142 12.4142 23.75 12 23.75C11.5858 23.75 11.25 23.4142 11.25 23V20.7341C8.51928 20.6154 6.50432 19.8267 5.17383 18.2301C3.75177 16.5237 3.25 14.0514 3.25 11C3.25 10.5858 3.58579 10.25 4 10.25Z" fill="#1D1E1F"/>
</svg>
