<svg width="24" height="24" viewBox="0 0 24 24" fill="none" xmlns="http://www.w3.org/2000/svg">
<path fill-rule="evenodd" clip-rule="evenodd" d="M1.46967 1.46967C1.76256 1.17678 2.23744 1.17678 2.53033 1.46967L7.53033 6.46967L16.0659 15.0052L18.5448 17.4841L22.5303 21.4697C22.8232 21.7626 22.8232 22.2374 22.5303 22.5303C22.2374 22.8232 21.7626 22.8232 21.4697 22.5303L17.993 19.0537C16.7013 20.1041 14.9589 20.6382 12.75 20.7341V23C12.75 23.4142 12.4142 23.75 12 23.75C11.5858 23.75 11.25 23.4142 11.25 23V20.7341C8.51928 20.6154 6.50432 19.8267 5.17383 18.2301C3.75177 16.5237 3.25 14.0514 3.25 11C3.25 10.5858 3.58579 10.25 4 10.25C4.41421 10.25 4.75 10.5858 4.75 11C4.75 13.9486 5.24823 15.9763 6.32617 17.2699C7.37666 18.5305 9.11477 19.25 12 19.25C14.2881 19.25 15.8531 18.7967 16.9245 17.9852L15.501 16.5616C14.5317 17.3065 13.3171 17.75 12 17.75C8.82436 17.75 6.25 15.1756 6.25 12V7.31066L1.46967 2.53033C1.17678 2.23744 1.17678 1.76256 1.46967 1.46967ZM7.75 8.81066V12C7.75 14.3472 9.65279 16.25 12 16.25C12.903 16.25 13.7396 15.9689 14.428 15.4887L7.75 8.81066ZM7.93414 2.93414C8.97386 1.89441 10.4124 1.25 12 1.25C15.1756 1.25 17.75 3.82436 17.75 7V12H16.25V7C16.25 4.65279 14.3472 2.75 12 2.75C10.8262 2.75 9.76472 3.22488 8.9948 3.9948L7.93414 2.93414ZM20 10.25C20.4142 10.25 20.75 10.5858 20.75 11C20.75 12.4132 20.6421 13.6907 20.3915 14.8215L18.927 14.497C19.1469 13.5049 19.25 12.3428 19.25 11C19.25 10.5858 19.5858 10.25 20 10.25Z" fill="#1D1E1F"/>
</svg>
