<svg width="24" height="24" viewBox="0 0 24 24" fill="none" xmlns="http://www.w3.org/2000/svg">
<path d="M13.4584 6.83016L12.8089 6.45516L12.8089 6.45516L13.4584 6.83016ZM4.82936 9.93107L5.20436 9.28155L4.82936 9.93107ZM9.32936 2.13684L8.95436 2.78636L9.32936 2.13684ZM7.37325 10.5248L8.02276 10.8998H8.02276L7.37325 10.5248ZM20.5028 13.7841L19.8532 13.4091L20.5028 13.7841ZM20.5398 11.9186L20.1021 12.5276L20.5398 11.9186ZM20.8223 13.2307L21.4718 13.6057L20.8223 13.2307ZM11.3888 3.56982L10.7393 3.19481L11.3888 3.56982ZM18.9057 14.7489L18.597 15.4324L18.9057 14.7489ZM20.1832 14.3375L20.8328 14.7125L20.1832 14.3375ZM7.10003 10.998L6.45051 10.623L7.10003 10.998ZM10.7136 13.0843L11.6079 11.5353L10.3089 10.7853L9.41454 12.3343L10.7136 13.0843ZM10.6498 11.8438L18.597 15.4324L19.2143 14.0653L11.2671 10.4767L10.6498 11.8438ZM14.108 7.20517L15.0023 5.65612L13.7033 4.90611L12.8089 6.45516L14.108 7.20517ZM20.9774 11.3095L13.8961 6.2211L13.0208 7.43923L20.1021 12.5276L20.9774 11.3095ZM11.6079 11.5353L14.108 7.20517L12.8089 6.45516L10.3089 10.7853L11.6079 11.5353ZM5.20436 9.28155C3.41077 8.24602 2.79624 5.95255 3.83177 4.15895L2.53273 3.40895C1.08298 5.91999 1.94333 9.13084 4.45436 10.5806L5.20436 9.28155ZM3.83177 4.15895C4.8673 2.36536 7.16077 1.75083 8.95436 2.78636L9.70436 1.48732C7.19333 0.0375737 3.98248 0.897918 2.53273 3.40895L3.83177 4.15895ZM7.32359 9.77647C6.60863 9.82391 5.87288 9.66752 5.20436 9.28155L4.45436 10.5806C5.38808 11.1197 6.42077 11.3397 7.42291 11.2732L7.32359 9.77647ZM6.72373 10.1498L6.45051 10.623L7.74955 11.373L8.02276 10.8998L6.72373 10.1498ZM10.7393 3.19481L10.466 3.66807L11.7651 4.41808L12.0383 3.94482L10.7393 3.19481ZM10.466 3.66807L6.72373 10.1498L8.02276 10.8998L11.7651 4.41808L10.466 3.66807ZM8.95436 2.78636C9.62289 3.17234 10.1262 3.73133 10.4426 4.37424L11.7885 3.71192C11.345 2.81076 10.6381 2.02641 9.70436 1.48732L8.95436 2.78636ZM20.8328 14.7125L21.1523 14.1591L19.8532 13.4091L19.5337 13.9625L20.8328 14.7125ZM21.1523 14.1591L21.4718 13.6057L20.1728 12.8557L19.8532 13.4091L21.1523 14.1591ZM20.1021 12.5276C20.2064 12.6026 20.237 12.7444 20.1728 12.8557L21.4718 13.6057C21.9214 12.8269 21.7077 11.8342 20.9774 11.3095L20.1021 12.5276ZM14.1014 2.29392C12.9242 1.61427 11.4189 2.01761 10.7393 3.19481L12.0383 3.94482C12.3037 3.48505 12.8916 3.32752 13.3514 3.59297L14.1014 2.29392ZM13.3514 3.59297C13.8112 3.85842 13.9687 4.44634 13.7033 4.90611L15.0023 5.65612C15.682 4.4789 15.2786 2.97358 14.1014 2.29392L13.3514 3.59297ZM7.35142 13.9852C8.52863 14.6649 10.0339 14.2615 10.7136 13.0843L9.41454 12.3343C9.14909 12.7941 8.56118 12.9516 8.10141 12.6862L7.35142 13.9852ZM18.597 15.4324C19.4166 15.8025 20.3832 15.4912 20.8328 14.7125L19.5337 13.9625C19.4695 14.0737 19.3314 14.1182 19.2143 14.0653L18.597 15.4324ZM8.10141 12.6862C7.64162 12.4207 7.48409 11.8328 7.74955 11.373L6.45051 10.623C5.77083 11.8003 6.17419 13.3056 7.35142 13.9852L8.10141 12.6862Z" fill="#1D1E1F"/>
<path d="M13 12.0823L13.3205 11.4042L12.25 10.8983V12.0823H13ZM16 13.5L15.6795 14.1781L16.75 14.684V13.5H16ZM12.25 12.0823V14.7109H13.75V12.0823H12.25ZM12.6795 12.7604L15.6795 14.1781L16.3205 12.8219L13.3205 11.4042L12.6795 12.7604ZM16.75 13.5V13.4369H15.25V13.5H16.75ZM15.25 13.4369V14.7109H16.75V13.4369H15.25ZM13.6018 16.7738C15.0879 17.4209 16.75 16.3318 16.75 14.7109H15.25C15.25 15.2512 14.696 15.6142 14.2006 15.3985L13.6018 16.7738ZM12.25 14.7109C12.25 15.6062 12.7809 16.4164 13.6018 16.7738L14.2006 15.3985C13.927 15.2794 13.75 15.0093 13.75 14.7109H12.25Z" fill="#1D1E1F"/>
<path d="M11.5 21.25C11.0858 21.25 10.75 21.5858 10.75 22C10.75 22.4142 11.0858 22.75 11.5 22.75L11.5 21.25ZM17.5 22.75C17.9142 22.75 18.25 22.4142 18.25 22C18.25 21.5858 17.9142 21.25 17.5 21.25L17.5 22.75ZM11.5 22.75L17.5 22.75L17.5 21.25L11.5 21.25L11.5 22.75Z" fill="#1D1E1F"/>
<path d="M13.75 22L13.75 22.75L15.25 22.75L15.25 22L13.75 22ZM15.25 17L15.25 16.25L13.75 16.25L13.75 17L15.25 17ZM15.25 22L15.25 17L13.75 17L13.75 22L15.25 22Z" fill="#1D1E1F"/>
</svg>
