<svg width="24" height="24" viewBox="0 0 24 24" fill="none" xmlns="http://www.w3.org/2000/svg">
<path fill-rule="evenodd" clip-rule="evenodd" d="M12 2.75C6.91627 2.75 2.75 7.02804 2.75 12.3619C2.75 14.7127 3.56115 16.862 4.90508 18.5293C5.16501 18.8518 5.1143 19.324 4.7918 19.5839C4.4693 19.8439 3.99714 19.7932 3.7372 19.4707C2.18292 17.5423 1.25 15.0624 1.25 12.3619C1.25 6.25032 6.03803 1.25 12 1.25C17.962 1.25 22.75 6.25032 22.75 12.3619C22.75 15.0003 21.8595 17.4282 20.3689 19.3369C20.1139 19.6634 19.6426 19.7214 19.3162 19.4664C18.9897 19.2115 18.9317 18.7402 19.1867 18.4137C20.4757 16.7631 21.25 14.6587 21.25 12.3619C21.25 7.02804 17.0837 2.75 12 2.75ZM12.75 13.8546C13.483 13.5579 14 12.8393 14 12C14 10.8954 13.1046 10 12 10C10.8954 10 10 10.8954 10 12C10 12.8393 10.517 13.5579 11.25 13.8546V21C11.25 21.4142 11.5858 21.75 12 21.75C12.4142 21.75 12.75 21.4142 12.75 21V13.8546ZM6.75 12.0952C6.75 9.13197 9.1116 6.75 12 6.75C14.8884 6.75 17.25 9.13197 17.25 12.0952C17.25 13.3721 16.8113 14.5414 16.08 15.4594C15.822 15.7834 15.8754 16.2552 16.1994 16.5133C16.5234 16.7714 16.9952 16.7179 17.2533 16.3939C18.1898 15.2182 18.75 13.7215 18.75 12.0952C18.75 8.3259 15.739 5.25 12 5.25C8.26099 5.25 5.25 8.3259 5.25 12.0952C5.25 13.7598 5.83685 15.2885 6.81334 16.4763C7.07639 16.7963 7.54901 16.8424 7.86898 16.5793C8.18894 16.3163 8.23508 15.8437 7.97203 15.5237C7.20959 14.5963 6.75 13.402 6.75 12.0952Z" fill="#18191A"/>
</svg>
