<svg width="24" height="24" viewBox="0 0 24 24" fill="none" xmlns="http://www.w3.org/2000/svg">
<path fill-rule="evenodd" clip-rule="evenodd" d="M12 1.25C8.82436 1.25 6.25 3.82436 6.25 7V12C6.25 15.1756 8.82436 17.75 12 17.75C15.1756 17.75 17.75 15.1756 17.75 12V7C17.75 3.82436 15.1756 1.25 12 1.25ZM7.75 7C7.75 4.65279 9.65279 2.75 12 2.75C14.3472 2.75 16.25 4.65279 16.25 7V12C16.25 14.3472 14.3472 16.25 12 16.25C9.65279 16.25 7.75 14.3472 7.75 12V7ZM20.75 6C20.75 5.58579 20.4142 5.25 20 5.25C19.5858 5.25 19.25 5.58579 19.25 6V8C19.25 8.41421 19.5858 8.75 20 8.75C20.4142 8.75 20.75 8.41421 20.75 8V6ZM4 5.25C3.58579 5.25 3.25 5.58579 3.25 6V8C3.25 8.41421 3.58579 8.75 4 8.75C4.41421 8.75 4.75 8.41421 4.75 8V6C4.75 5.58579 4.41421 5.25 4 5.25ZM23.75 4C23.75 3.58579 23.4142 3.25 23 3.25C22.5858 3.25 22.25 3.58579 22.25 4V10C22.25 10.4142 22.5858 10.75 23 10.75C23.4142 10.75 23.75 10.4142 23.75 10V4ZM1 3.25C0.585787 3.25 0.25 3.58579 0.25 4V10C0.25 10.4142 0.585787 10.75 1 10.75C1.41421 10.75 1.75 10.4142 1.75 10L1.75 4C1.75 3.58579 1.41421 3.25 1 3.25ZM4.83365 12.9294C4.79466 12.517 4.42877 12.2143 4.01639 12.2533C3.60402 12.2923 3.30132 12.6582 3.3403 13.0706C3.56939 15.494 4.26213 17.4568 5.71543 18.8007C7.03472 20.0206 8.87279 20.631 11.25 20.7342V23C11.25 23.4142 11.5858 23.75 12 23.75C12.4142 23.75 12.75 23.4142 12.75 23V20.7342C15.1273 20.631 16.9653 20.0206 18.2846 18.8007C19.7379 17.4568 20.4306 15.494 20.6597 13.0706C20.6987 12.6582 20.396 12.2923 19.9837 12.2533C19.5713 12.2143 19.2054 12.517 19.1664 12.9294C18.9543 15.1727 18.3363 16.7099 17.2662 17.6993C16.1977 18.6874 14.5476 19.25 12 19.25C9.45249 19.25 7.8023 18.6874 6.73381 17.6993C5.66375 16.7099 5.04571 15.1727 4.83365 12.9294Z" fill="#1D1E1F"/>
</svg>
