<svg width="24" height="24" viewBox="0 0 24 24" fill="none" xmlns="http://www.w3.org/2000/svg">
<path fill-rule="evenodd" clip-rule="evenodd" d="M14.75 3V8.18934L20.4697 2.46967C20.7626 2.17678 21.2374 2.17678 21.5303 2.46967C21.8232 2.76256 21.8232 3.23744 21.5303 3.53033L15.8107 9.25H21C21.4142 9.25 21.75 9.58579 21.75 10C21.75 10.4142 21.4142 10.75 21 10.75H14H13.25V10V3C13.25 2.58579 13.5858 2.25 14 2.25C14.4142 2.25 14.75 2.58579 14.75 3ZM2.46967 21.5303C2.17678 21.2374 2.17678 20.7626 2.46967 20.4697L8.18934 14.75H3C2.58579 14.75 2.25 14.4142 2.25 14C2.25 13.5858 2.58579 13.25 3 13.25H9.99927H10H10.0007H10.75V14V21C10.75 21.4142 10.4142 21.75 10 21.75C9.58579 21.75 9.25 21.4142 9.25 21V15.8107L3.53033 21.5303C3.23744 21.8232 2.76256 21.8232 2.46967 21.5303Z" fill="#18191A"/>
</svg>
