<svg width="24" height="24" viewBox="0 0 24 24" fill="none" xmlns="http://www.w3.org/2000/svg">
<path fill-rule="evenodd" clip-rule="evenodd" d="M15.4697 3.46967L12.75 6.18934V1C12.75 0.585786 12.4142 0.25 12 0.25C11.5858 0.25 11.25 0.585786 11.25 1V6.18934L8.53033 3.46967C8.23744 3.17678 7.76256 3.17678 7.46967 3.46967C7.17678 3.76256 7.17678 4.23744 7.46967 4.53033L11.4697 8.53033L12 9.06066L12.5303 8.53033L16.5303 4.53033C16.8232 4.23744 16.8232 3.76256 16.5303 3.46967C16.2374 3.17678 15.7626 3.17678 15.4697 3.46967ZM7.46967 20.5304C7.76256 20.8233 8.23744 20.8233 8.53033 20.5304L11.25 17.8108V23.0001C11.25 23.4143 11.5858 23.7501 12 23.7501C12.4142 23.7501 12.75 23.4143 12.75 23.0001V17.8108L15.4697 20.5304C15.7626 20.8233 16.2374 20.8233 16.5303 20.5304C16.8232 20.2376 16.8232 19.7627 16.5303 19.4698L12.5303 15.4698L12 14.9395L11.4697 15.4698L7.46967 19.4698C7.17678 19.7627 7.17678 20.2376 7.46967 20.5304ZM3.46967 15.4697C3.17678 15.7626 3.17678 16.2374 3.46967 16.5303C3.76256 16.8232 4.23744 16.8232 4.53033 16.5303L8.52976 12.5309L8.53093 12.5297L9.06066 12L8.53033 11.4697L4.53033 7.46967C4.23744 7.17678 3.76256 7.17678 3.46967 7.46967C3.17678 7.76256 3.17678 8.23744 3.46967 8.53033L6.18934 11.25H1C0.585786 11.25 0.25 11.5858 0.25 12C0.25 12.4142 0.585786 12.75 1 12.75H6.18934L3.46967 15.4697ZM20.5304 16.5303C20.8233 16.2374 20.8233 15.7626 20.5304 15.4697L17.8108 12.75H23.0001C23.4143 12.75 23.7501 12.4142 23.7501 12C23.7501 11.5858 23.4143 11.25 23.0001 11.25H17.8108L20.5304 8.53033C20.8233 8.23744 20.8233 7.76256 20.5304 7.46967C20.2376 7.17678 19.7627 7.17678 19.4698 7.46967L15.4698 11.4697L14.9395 12L15.4692 12.5297L15.4704 12.5309L19.4698 16.5303C19.7627 16.8232 20.2376 16.8232 20.5304 16.5303Z" fill="#18191A"/>
</svg>
