<svg width="24" height="24" viewBox="0 0 24 24" fill="none" xmlns="http://www.w3.org/2000/svg">
<path fill-rule="evenodd" clip-rule="evenodd" d="M11.8232 3.23753C11.9209 3.1399 12.0791 3.1399 12.1768 3.23753L13.0034 4.06416C13.4984 4.55917 14.2408 4.71155 14.8908 4.45156L16.7205 3.71968C16.9374 3.63291 17.1442 3.86462 17.0334 4.07032L15.052 7.75009H12.75H11H8.94797L6.96655 4.07032C6.85579 3.86462 7.0626 3.63291 7.27952 3.71968L9.10922 4.45156C9.7592 4.71155 10.5016 4.55917 10.9966 4.06416L11.8232 3.23753ZM12.75 9.25009H15.1307L18.8223 14.0492C19.4239 14.8312 19.75 15.7901 19.75 16.7767C19.75 19.2473 17.7472 21.2501 15.2766 21.2501H8.72341C6.25281 21.2501 4.25 19.2473 4.25 16.7767C4.25 15.7901 4.57615 14.8312 5.17768 14.0492L8.8693 9.25009H11H12.75ZM5.64585 4.78147L7.60931 8.4279L3.98874 13.1346C3.18551 14.1788 2.75 15.4593 2.75 16.7767C2.75 20.0757 5.42438 22.7501 8.72341 22.7501H15.2766C18.5756 22.7501 21.25 20.0757 21.25 16.7767C21.25 15.4593 20.8145 14.1788 20.0113 13.1346L16.3907 8.4279L18.3542 4.78147C19.1295 3.34157 17.6818 1.7196 16.1634 2.32696L14.3337 3.05884C14.2408 3.09598 14.1348 3.07422 14.0641 3.0035L13.2374 2.17687C12.554 1.49345 11.446 1.49345 10.7626 2.17687L9.93593 3.0035C9.86522 3.07422 9.75916 3.09598 9.66631 3.05884L7.83661 2.32696C6.31821 1.7196 4.87052 3.34157 5.64585 4.78147ZM10.2619 19.1445C10.7217 19.3816 11.2762 19.5001 11.9254 19.5001C12.392 19.5001 12.8112 19.4371 13.1831 19.3112C13.5618 19.1853 13.8864 19.0112 14.1569 18.789C14.4273 18.5668 14.6336 18.3075 14.7756 18.0112C14.9243 17.7075 14.9987 17.3816 14.9987 17.0334C15.0055 16.9668 14.9852 16.9112 14.9379 16.8668C14.8973 16.8223 14.8466 16.8001 14.7857 16.8001H13.6294C13.5483 16.8001 13.4806 16.8223 13.4266 16.8668C13.3792 16.9038 13.3386 16.9742 13.3048 17.0779C13.2102 17.4408 13.0445 17.6964 12.8078 17.8445C12.5712 17.9927 12.277 18.0668 11.9254 18.0668C11.4858 18.0668 11.1444 17.9297 10.9009 17.6556C10.6575 17.3816 10.5392 16.9186 10.5459 16.2668V16.1445H12.1282C12.2026 16.1445 12.2635 16.1186 12.3108 16.0668C12.3581 16.0149 12.3818 15.9482 12.3818 15.8668V15.1223C12.3818 15.0408 12.3581 14.9742 12.3108 14.9223C12.2635 14.8705 12.2026 14.8445 12.1282 14.8445H10.5459V14.7223C10.5392 14.0779 10.6575 13.6186 10.9009 13.3445C11.1444 13.0705 11.4858 12.9334 11.9254 12.9334C12.277 12.9334 12.5712 13.0075 12.8078 13.1556C13.0445 13.3038 13.2102 13.5594 13.3048 13.9223C13.3386 14.026 13.3792 14.1001 13.4266 14.1445C13.4806 14.1816 13.5483 14.2001 13.6294 14.2001H14.7857C14.8466 14.2001 14.8973 14.1779 14.9379 14.1334C14.9852 14.089 15.0055 14.0334 14.9987 13.9668C14.9987 13.6186 14.9243 13.2964 14.7756 13.0001C14.6336 12.6964 14.4273 12.4334 14.1569 12.2112C13.8864 11.989 13.5618 11.8149 13.1831 11.689C12.8112 11.5631 12.392 11.5001 11.9254 11.5001C11.2762 11.5001 10.7251 11.6223 10.2721 11.8668C9.81899 12.1038 9.47413 12.4594 9.23746 12.9334C9.00078 13.4001 8.87907 13.9779 8.87231 14.6668V14.8445H8.24343C8.17581 14.8445 8.11834 14.8705 8.071 14.9223C8.02367 14.9742 8 15.0408 8 15.1223V15.8668C8 15.9482 8.02367 16.0149 8.071 16.0668C8.11834 16.1186 8.17581 16.1445 8.24343 16.1445H8.87231V16.3334C8.87231 17.0149 8.99064 17.5927 9.22731 18.0668C9.46399 18.5408 9.80885 18.9001 10.2619 19.1445Z" fill="#18191A"/>
</svg>
