<svg width="24" height="24" viewBox="0 0 24 24" fill="none" xmlns="http://www.w3.org/2000/svg">
<path fill-rule="evenodd" clip-rule="evenodd" d="M11.8232 3.23753C11.9209 3.1399 12.0791 3.1399 12.1768 3.23753L13.0034 4.06416C13.4984 4.55917 14.2408 4.71155 14.8908 4.45156L16.7205 3.71968C16.9374 3.63291 17.1442 3.86462 17.0334 4.07032L15.052 7.75009H12.7675C12.7559 7.74982 12.7442 7.74982 12.7326 7.75009H11.0152C11.0046 7.74987 10.994 7.74987 10.9835 7.75009H8.94797L6.96655 4.07032C6.85579 3.86462 7.0626 3.63291 7.27952 3.71968L9.10922 4.45156C9.7592 4.71155 10.5016 4.55917 10.9966 4.06416L11.8232 3.23753ZM10.053 9.25009H8.8693L5.17768 14.0492C4.57615 14.8312 4.25 15.7901 4.25 16.7767C4.25 19.2473 6.25281 21.2501 8.72341 21.2501H15.2766C17.7472 21.2501 19.75 19.2473 19.75 16.7767C19.75 15.7901 19.4239 14.8312 18.8223 14.0492L15.1307 9.25009H13.8071L15.2079 13.2523C15.3447 13.6433 15.1387 14.0712 14.7478 14.208C14.3568 14.3448 13.9289 14.1388 13.7921 13.7479L12.2179 9.25009H11.594L9.73006 17.1719C9.63519 17.5751 9.23142 17.825 8.82822 17.7302C8.42502 17.6353 8.17507 17.2315 8.26994 16.8283L10.053 9.25009ZM5.64585 4.78147L7.60931 8.4279L3.98874 13.1346C3.18551 14.1788 2.75 15.4593 2.75 16.7767C2.75 20.0757 5.42438 22.7501 8.72341 22.7501H15.2766C18.5756 22.7501 21.25 20.0757 21.25 16.7767C21.25 15.4593 20.8145 14.1788 20.0113 13.1346L16.3907 8.4279L18.3542 4.78147C19.1295 3.34157 17.6818 1.7196 16.1634 2.32696L14.3337 3.05884C14.2408 3.09598 14.1348 3.07422 14.0641 3.0035L13.2374 2.17687C12.554 1.49345 11.446 1.49345 10.7626 2.17687L9.93593 3.0035C9.86522 3.07422 9.75916 3.09598 9.66631 3.05884L7.83661 2.32696C6.31821 1.7196 4.87052 3.34157 5.64585 4.78147Z" fill="#18191A"/>
</svg>
