<svg width="24" height="24" viewBox="0 0 24 24" fill="none" xmlns="http://www.w3.org/2000/svg">
<path d="M8.5 8.5L6.3062 4.4258C5.86316 3.603 6.69041 2.67616 7.55806 3.02323L9.38776 3.75511C9.75918 3.90367 10.1834 3.8166 10.4663 3.53374L11.2929 2.70711C11.6834 2.31658 12.3166 2.31658 12.7071 2.70711L13.5337 3.53374C13.8166 3.8166 14.2408 3.90367 14.6122 3.75511L16.4419 3.02323C17.3096 2.67616 18.1368 3.603 17.6938 4.4258L15.5 8.5M8.5 8.5L4.58321 13.5918C3.88083 14.5049 3.5 15.6246 3.5 16.7766V16.7766C3.5 19.6614 5.8386 22 8.72341 22H15.2766C18.1614 22 20.5 19.6614 20.5 16.7766V16.7766C20.5 15.6246 20.1192 14.5049 19.4168 13.5918L15.5 8.5M8.5 8.5H11H12.75H15.5" stroke="#18191A" stroke-width="1.5" stroke-linecap="round"/>
<path d="M11.6314 20.0075C11.5563 20.0075 11.4949 19.9836 11.4471 19.9358C11.3993 19.888 11.3754 19.8266 11.3754 19.7515V19.045C10.8567 18.9836 10.4232 18.8573 10.0751 18.6662C9.72696 18.4682 9.46416 18.2293 9.28669 17.9495C9.10922 17.6696 9.01365 17.3761 9 17.0689C9 17.0143 9.02048 16.9665 9.06143 16.9256C9.10922 16.8778 9.16382 16.8539 9.22526 16.8539H10.3208C10.4096 16.8539 10.4778 16.8744 10.5256 16.9153C10.5734 16.9495 10.6177 16.9938 10.6587 17.0485C10.7065 17.1645 10.7816 17.2771 10.884 17.3863C10.9932 17.4956 11.1399 17.5877 11.3242 17.6628C11.5085 17.731 11.7372 17.7652 12.0102 17.7652C12.4539 17.7652 12.785 17.6935 13.0034 17.5502C13.2287 17.4068 13.3413 17.2123 13.3413 16.9665C13.3413 16.7891 13.2799 16.6457 13.157 16.5365C13.041 16.4273 12.8532 16.3283 12.5939 16.2396C12.3413 16.1508 12 16.0553 11.57 15.9529C11.058 15.8437 10.6246 15.7037 10.2696 15.5331C9.91468 15.3556 9.64505 15.1304 9.46075 14.8573C9.28328 14.5775 9.19454 14.2328 9.19454 13.8232C9.19454 13.2839 9.38567 12.8266 9.76792 12.4512C10.157 12.0758 10.6928 11.8437 11.3754 11.7549V11.0485C11.3754 10.9734 11.3993 10.9119 11.4471 10.8642C11.4949 10.8164 11.5563 10.7925 11.6314 10.7925H12.3584C12.4266 10.7925 12.4846 10.8164 12.5324 10.8642C12.5802 10.9119 12.6041 10.9734 12.6041 11.0485V11.7754C13.0751 11.8505 13.4676 11.9938 13.7816 12.2054C14.1024 12.4102 14.3447 12.6457 14.5085 12.9119C14.6792 13.1713 14.7679 13.4239 14.7747 13.6696C14.7747 13.7242 14.7543 13.7754 14.7133 13.8232C14.6724 13.8642 14.6212 13.8846 14.5597 13.8846H13.4027C13.3413 13.8846 13.2833 13.871 13.2287 13.8437C13.1741 13.8164 13.1263 13.7686 13.0853 13.7003C13.0512 13.5229 12.9317 13.3693 12.727 13.2396C12.5222 13.1031 12.2628 13.0348 11.9488 13.0348C11.6143 13.0348 11.3481 13.0962 11.1502 13.2191C10.9522 13.342 10.8532 13.5297 10.8532 13.7822C10.8532 13.9461 10.9044 14.086 11.0068 14.202C11.1092 14.3113 11.2765 14.4102 11.5085 14.499C11.7406 14.5809 12.0546 14.673 12.4505 14.7754C13.0512 14.8983 13.5392 15.045 13.9147 15.2157C14.2901 15.3863 14.5631 15.6082 14.7338 15.8812C14.9113 16.1474 15 16.4853 15 16.8949C15 17.2908 14.901 17.6423 14.7031 17.9495C14.5051 18.2498 14.2253 18.4921 13.8635 18.6764C13.5085 18.8607 13.0887 18.9836 12.6041 19.045V19.7515C12.6041 19.8266 12.5802 19.888 12.5324 19.9358C12.4846 19.9836 12.4266 20.0075 12.3584 20.0075H11.6314Z" fill="#18191A"/>
</svg>
