<svg width="25" height="24" viewBox="0 0 25 24" fill="none" xmlns="http://www.w3.org/2000/svg">
<path fill-rule="evenodd" clip-rule="evenodd" d="M18.5001 3C18.5001 4.25 17.2501 5.5 16.0001 5.5C17.2501 5.5 18.5001 6.75 18.5001 8C18.5001 6.75 19.7501 5.5 21.0001 5.5C19.7501 5.5 18.5001 4.25 18.5001 3ZM22.5001 11C22.5001 12.25 21.2501 13.5 20.0001 13.5C21.2501 13.5 22.5001 14.75 22.5001 16C22.5001 14.75 23.7501 13.5 25.0001 13.5C23.7501 13.5 22.5001 12.25 22.5001 11ZM12.0001 10.5C13.2501 10.5 14.5001 9.25 14.5001 8C14.5001 9.25 15.7501 10.5 17.0001 10.5C15.7501 10.5 14.5001 11.75 14.5001 13C14.5001 11.75 13.2501 10.5 12.0001 10.5ZM10.7953 3.18631C3.80565 3.24955 -0.614191 11.0034 2.55769 17.1452C4.16328 20.2541 7.5167 22.0617 10.8289 22.322C14.1518 22.5833 17.6093 21.2929 19.3019 17.9876C19.4384 17.7211 19.4033 17.399 19.2126 17.1681C19.022 16.9374 18.7126 16.8421 18.4253 16.9255L18.4248 16.9256L18.4246 16.9257L18.4146 16.9285C18.4047 16.9312 18.3884 16.9356 18.3662 16.9414C18.3216 16.953 18.2529 16.9702 18.1629 16.9906C17.9826 17.0315 17.7176 17.0851 17.3891 17.1331C16.7294 17.2296 15.8271 17.3019 14.8464 17.2108C12.8932 17.0293 10.696 16.2153 9.3855 13.6981C8.05855 11.1491 8.52098 8.88054 9.33582 7.20602C9.74601 6.36307 10.2434 5.67866 10.6398 5.20452C10.8373 4.9683 11.0077 4.78659 11.1266 4.66591C11.186 4.60563 11.2323 4.56076 11.2626 4.53211C11.2777 4.51779 11.2887 4.50754 11.2953 4.50146L11.3014 4.49586L11.3019 4.49548L11.3019 4.49546L11.3019 4.49542L11.3025 4.49495C11.5347 4.28692 11.6141 3.95681 11.5016 3.66589C11.389 3.37453 11.1076 3.18348 10.7953 3.18631ZM14.7076 18.7043C15.5592 18.7834 16.3514 18.7556 17.0071 18.6907C15.5129 20.3239 13.2641 21.0088 10.9465 20.8267C8.04514 20.5986 5.21264 19.0171 3.89046 16.4569C1.50422 11.8363 4.23098 6.16814 8.95529 4.9315C8.63078 5.38415 8.28958 5.92796 7.98704 6.54968C7.02782 8.5209 6.44933 11.3064 8.05499 14.3907C9.67712 17.5067 12.4369 18.4934 14.7076 18.7043Z" fill="#18191A"/>
</svg>
