<svg width="24" height="24" viewBox="0 0 24 24" fill="none" xmlns="http://www.w3.org/2000/svg">
<path fill-rule="evenodd" clip-rule="evenodd" d="M17.6301 3.32207C19.0015 3.09349 20.25 4.15109 20.25 5.54146V6.86473L9.75 8.61473V6.54146C9.75 5.44157 10.5452 4.50289 11.6301 4.32207L17.6301 3.32207ZM21.75 5.54146C21.75 3.22418 19.6692 1.46152 17.3835 1.84248L11.3835 2.84248C9.5753 3.14385 8.25 4.70831 8.25 6.54146V9.50007V10.3854L8.25 15.4998C7.62326 15.029 6.8442 14.7501 6 14.7501C3.92893 14.7501 2.25 16.429 2.25 18.5001C2.25 20.5711 3.92893 22.2501 6 22.2501C8.07107 22.2501 9.75 20.5711 9.75 18.5001L9.75 10.1354L20.25 8.38542V13.4998C19.6233 13.029 18.8442 12.7501 18 12.7501C15.9289 12.7501 14.25 14.429 14.25 16.5001C14.25 18.5711 15.9289 20.2501 18 20.2501C20.0711 20.2501 21.75 18.5711 21.75 16.5001V8.13542V7.50007V5.54146ZM18 14.2501C19.2426 14.2501 20.25 15.2574 20.25 16.5001C20.25 17.7427 19.2426 18.7501 18 18.7501C16.7574 18.7501 15.75 17.7427 15.75 16.5001C15.75 15.2574 16.7574 14.2501 18 14.2501ZM8.25 18.5001C8.25 17.2574 7.24264 16.2501 6 16.2501C4.75736 16.2501 3.75 17.2574 3.75 18.5001C3.75 19.7427 4.75736 20.7501 6 20.7501C7.24264 20.7501 8.25 19.7427 8.25 18.5001Z" fill="#1D1E1F"/>
</svg>
