<svg width="24" height="24" viewBox="0 0 24 24" fill="none" xmlns="http://www.w3.org/2000/svg">
<path fill-rule="evenodd" clip-rule="evenodd" d="M17.5021 3.04344L17.4674 3.03187C16.6081 2.74543 15.915 2.5144 15.3492 2.38069C14.7722 2.24431 14.2343 2.18439 13.7085 2.3164C12.9035 2.51855 12.2063 3.02106 11.7599 3.72087C11.4684 4.1779 11.3551 4.70719 11.302 5.29775C11.25 5.87674 11.25 6.6073 11.25 7.51309V7.5131V7.54969V7.99998V8.0001C11.25 8.0001 11.25 8.00011 11.25 8.00011L11.25 8.54055L11.25 14.5358C10.4003 13.7384 9.25721 13.25 8 13.25C5.37665 13.25 3.25 15.3766 3.25 18C3.25 20.6233 5.37665 22.75 8 22.75C10.6234 22.75 12.75 20.6233 12.75 18V9.04055L17.0168 10.4628L17.0759 10.4825L17.0759 10.4825C17.426 10.5993 17.6733 10.6818 17.8838 10.7225C19.7211 11.0773 21.4778 9.81115 21.7222 7.9559C21.7501 7.74345 21.7501 7.48279 21.75 7.11378V7.11365L21.75 7.0513L21.75 7.01914V7.0191C21.75 6.81186 21.7501 6.66196 21.7379 6.52128C21.6347 5.33094 20.8867 4.29319 19.7901 3.81891C19.6605 3.76285 19.5183 3.71547 19.3217 3.64996L19.2911 3.63979L17.5021 3.04344ZM14.0738 3.77124C14.2555 3.72562 14.5157 3.725 15.0042 3.84047C15.4965 3.95682 16.1256 4.16575 17.0277 4.46647L18.8168 5.06281C19.0564 5.1427 19.1324 5.16874 19.1947 5.19567C19.7852 5.45105 20.1879 6.00984 20.2435 6.65079C20.2493 6.71837 20.25 6.79869 20.25 7.0513C20.25 7.50768 20.2483 7.65911 20.235 7.75999C20.1034 8.75897 19.1575 9.44073 18.1682 9.24967C18.0683 9.23038 17.9241 9.18411 17.4911 9.03979L12.75 7.45942C12.7501 6.55653 12.7522 5.91979 12.796 5.43207C12.841 4.93204 12.9238 4.68542 13.0246 4.52749C13.2649 4.15067 13.6403 3.88009 14.0738 3.77124ZM8 14.75C9.79493 14.75 11.25 16.205 11.25 18C11.25 19.7949 9.79493 21.25 8 21.25C6.20507 21.25 4.75 19.7949 4.75 18C4.75 16.205 6.20507 14.75 8 14.75Z" fill="#1D1E1F"/>
</svg>
