<svg width="24" height="24" viewBox="0 0 24 24" fill="none" xmlns="http://www.w3.org/2000/svg">
<path fill-rule="evenodd" clip-rule="evenodd" d="M5.75 8C5.75 4.54822 8.54822 1.75 12 1.75C15.4518 1.75 18.25 4.54822 18.25 8C18.25 10.2881 17.0208 12.29 15.1832 13.3799C14.2515 13.9325 13.164 14.25 12 14.25C10.8363 14.25 9.74909 13.9327 8.81752 13.3803C6.97948 12.2905 5.75 10.2884 5.75 8ZM12 0.25C7.71979 0.25 4.25 3.71979 4.25 8C4.25 10.7087 5.64001 13.092 7.74251 14.4768L6.61245 20.8805C6.36073 22.3069 7.85191 23.4041 9.13887 22.7394L11.8853 21.321C11.9572 21.2838 12.0428 21.2838 12.1147 21.321L14.8611 22.7394C16.1481 23.4041 17.6393 22.3069 17.3876 20.8805L16.2575 14.4768C18.36 13.092 19.75 10.7087 19.75 8C19.75 3.71979 16.2802 0.25 12 0.25ZM14.8626 15.2039C13.9765 15.5563 13.0103 15.75 12 15.75C10.9897 15.75 10.0235 15.5563 9.13736 15.2039L8.08962 21.1411C8.05366 21.3449 8.26669 21.5017 8.45054 21.4067L11.1969 19.9883C11.7007 19.7281 12.2993 19.7281 12.8031 19.9883L15.5495 21.4067C15.7333 21.5017 15.9463 21.3449 15.9104 21.1411L14.8626 15.2039Z" fill="#18191A"/>
</svg>
