<svg width="24" height="24" viewBox="0 0 24 24" fill="none" xmlns="http://www.w3.org/2000/svg">
<path fill-rule="evenodd" clip-rule="evenodd" d="M16 2.25H21H21.75V3V8C21.75 8.41421 21.4142 8.75 21 8.75C20.5858 8.75 20.25 8.41421 20.25 8V4.81066L11.5303 13.5303C11.2374 13.8232 10.7626 13.8232 10.4697 13.5303C10.1768 13.2374 10.1768 12.7626 10.4697 12.4697L19.1893 3.75H16C15.5858 3.75 15.25 3.41421 15.25 3C15.25 2.58579 15.5858 2.25 16 2.25ZM8.4 4.25L8.367 4.25C7.27486 4.24999 6.40936 4.24999 5.71173 4.30699C4.99835 4.36527 4.39472 4.48688 3.84355 4.76772C2.94978 5.22312 2.22312 5.94977 1.76772 6.84354C1.48688 7.39472 1.36527 7.99834 1.30699 8.71173C1.24999 9.40935 1.25 10.2748 1.25 11.367V11.367V11.4V15.6V15.633V15.633C1.25 16.7252 1.24999 17.5907 1.30699 18.2883C1.36527 19.0017 1.48688 19.6053 1.76772 20.1565C2.22312 21.0502 2.94978 21.7769 3.84355 22.2323C4.39472 22.5131 4.99835 22.6347 5.71173 22.693C6.40935 22.75 7.27485 22.75 8.36698 22.75H8.4H12.6H12.633C13.7252 22.75 14.5906 22.75 15.2883 22.693C16.0017 22.6347 16.6053 22.5131 17.1565 22.2323C18.0502 21.7769 18.7769 21.0502 19.2323 20.1565C19.5131 19.6053 19.6347 19.0017 19.693 18.2883C19.75 17.5906 19.75 16.7252 19.75 15.633V15.6V14H18.25V15.6C18.25 16.7325 18.2494 17.5367 18.198 18.1661C18.1473 18.7867 18.0509 19.171 17.8958 19.4755C17.5842 20.087 17.087 20.5842 16.4755 20.8958C16.171 21.0509 15.7867 21.1473 15.1661 21.198C14.5367 21.2494 13.7325 21.25 12.6 21.25H8.4C7.26752 21.25 6.46327 21.2494 5.83388 21.198C5.21325 21.1473 4.829 21.0509 4.52453 20.8958C3.91301 20.5842 3.41582 20.087 3.10423 19.4755C2.94909 19.171 2.85271 18.7867 2.80201 18.1661C2.75058 17.5367 2.75 16.7325 2.75 15.6V11.4C2.75 10.2675 2.75058 9.46326 2.80201 8.83388C2.85271 8.21325 2.94909 7.829 3.10423 7.52453C3.41582 6.913 3.91301 6.41582 4.52453 6.10423C4.829 5.94909 5.21325 5.85271 5.83388 5.80201C6.46327 5.75058 7.26752 5.75 8.4 5.75H10V4.25H8.4Z" fill="#18191A"/>
</svg>
