<svg width="24" height="24" viewBox="0 0 24 24" fill="none" xmlns="http://www.w3.org/2000/svg">
<path fill-rule="evenodd" clip-rule="evenodd" d="M8.31507 3.75C7.37789 3.75 6.48634 4.15456 5.8692 4.85986L4.65283 6.25H19.3472L18.1308 4.85986C17.5137 4.15456 16.6221 3.75 15.6849 3.75H8.31507ZM2.25 7C2.25 6.80953 2.321 6.63565 2.43797 6.50337L4.74033 3.8721C5.6423 2.84128 6.94535 2.25 8.31507 2.25H15.6849C17.0546 2.25 18.3577 2.84128 19.2597 3.8721L21.562 6.50335C21.679 6.63563 21.75 6.80952 21.75 7V18C21.75 20.6234 19.6234 22.75 17 22.75H7C4.37665 22.75 2.25 20.6234 2.25 18V7ZM20.25 18V7.75H3.75V18C3.75 19.7949 5.20507 21.25 7 21.25H17C18.7949 21.25 20.25 19.7949 20.25 18ZM8.75 11C8.75 10.5858 8.41421 10.25 8 10.25C7.58579 10.25 7.25 10.5858 7.25 11C7.25 12.5369 7.83378 13.7446 8.75173 14.5606C9.65587 15.3642 10.8402 15.75 12 15.75C13.1598 15.75 14.3441 15.3642 15.2483 14.5606C16.1662 13.7446 16.75 12.5369 16.75 11C16.75 10.5858 16.4142 10.25 16 10.25C15.5858 10.25 15.25 10.5858 15.25 11C15.25 12.1298 14.8338 12.9221 14.2517 13.4394C13.6559 13.9691 12.8402 14.25 12 14.25C11.1598 14.25 10.3441 13.9691 9.74827 13.4394C9.16622 12.9221 8.75 12.1298 8.75 11Z" fill="#18191A"/>
</svg>
