<svg width="24" height="24" viewBox="0 0 24 24" fill="none" xmlns="http://www.w3.org/2000/svg">
<path fill-rule="evenodd" clip-rule="evenodd" d="M12 1.25H11.9692H11.9692C10.8294 1.25 9.93146 1.24999 9.20713 1.30484C8.46847 1.36078 7.84953 1.4769 7.28125 1.74189C6.16261 2.26352 5.26352 3.16261 4.74189 4.28125C4.4769 4.84953 4.36078 5.46847 4.30484 6.20713C4.24999 6.93146 4.25 7.82939 4.25 8.96919V8.96922V9V15V15.0308V15.0308C4.25 16.1706 4.24999 17.0685 4.30484 17.7929C4.36078 18.5315 4.4769 19.1505 4.74189 19.7187C5.26352 20.8374 6.16261 21.7365 7.28125 22.2581C7.84953 22.5231 8.46847 22.6392 9.20713 22.6952C9.93145 22.75 10.8294 22.75 11.9691 22.75H11.9692H12H12.0308H12.0309C13.1706 22.75 14.0686 22.75 14.7929 22.6952C15.5315 22.6392 16.1505 22.5231 16.7187 22.2581C17.8374 21.7365 18.7365 20.8374 19.2581 19.7187C19.5231 19.1505 19.6392 18.5315 19.6952 17.7929C19.75 17.0685 19.75 16.1706 19.75 15.0308V15V9V8.96923C19.75 7.82941 19.75 6.93147 19.6952 6.20713C19.6392 5.46847 19.5231 4.84953 19.2581 4.28125C18.7365 3.16261 17.8374 2.26352 16.7187 1.74189C16.1505 1.4769 15.5315 1.36078 14.7929 1.30484C14.0685 1.24999 13.1706 1.25 12.0308 1.25H12.0308H12ZM7.91518 3.10135C8.25107 2.94472 8.66714 2.85003 9.32039 2.80056C9.98146 2.7505 10.8227 2.75 12 2.75C13.1773 2.75 14.0185 2.7505 14.6796 2.80056C15.3329 2.85003 15.7489 2.94472 16.0848 3.10135C16.8839 3.47394 17.5261 4.11615 17.8987 4.91518C18.0553 5.25107 18.15 5.66714 18.1994 6.32039C18.2495 6.98146 18.25 7.82269 18.25 9V15C18.25 16.1773 18.2495 17.0185 18.1994 17.6796C18.15 18.3329 18.0553 18.7489 17.8987 19.0848C17.5261 19.8839 16.8839 20.5261 16.0848 20.8987C15.7489 21.0553 15.3329 21.15 14.6796 21.1994C14.0185 21.2495 13.1773 21.25 12 21.25C10.8227 21.25 9.98146 21.2495 9.32039 21.1994C8.66714 21.15 8.25107 21.0553 7.91518 20.8987C7.11615 20.5261 6.47394 19.8839 6.10135 19.0848C5.94472 18.7489 5.85003 18.3329 5.80056 17.6796C5.7505 17.0185 5.75 16.1773 5.75 15V9C5.75 7.82269 5.7505 6.98146 5.80056 6.32039C5.85003 5.66714 5.94472 5.25107 6.10135 4.91518C6.47394 4.11615 7.11615 3.47394 7.91518 3.10135ZM12 15.5C11.1716 15.5 10.5 16.1716 10.5 17C10.5 17.8284 11.1716 18.5 12 18.5C12.8284 18.5 13.5 17.8284 13.5 17C13.5 16.1716 12.8284 15.5 12 15.5Z" fill="#18191A"/>
</svg>
