<svg width="24" height="24" viewBox="0 0 24 24" fill="none" xmlns="http://www.w3.org/2000/svg">
<path fill-rule="evenodd" clip-rule="evenodd" d="M1.46967 1.46967C1.76256 1.17678 2.23744 1.17678 2.53033 1.46967L6.53033 5.46967L6 6L6.53041 5.46975L9.80298 8.74328L9.81332 8.73612L10.256 9.17876L15.8212 14.744L16.2639 15.1867L16.2559 15.1981L20.8113 19.7549L20.8121 19.7556L22.5297 21.469C22.8229 21.7616 22.8235 22.2364 22.531 22.5297C22.2384 22.8229 21.7636 22.8235 21.4703 22.531L20.165 21.2289C19.5154 21.562 18.779 21.75 18 21.75H7C4.1005 21.75 1.75 19.3995 1.75 16.5V9.5C1.75 7.69132 2.87983 6.14652 4.47221 5.53287L1.46967 2.53033C1.17678 2.23744 1.17678 1.76256 1.46967 1.46967ZM5.70492 6.76565L8.61064 9.67222C7.76981 10.5286 7.25 11.7036 7.25 13C7.25 15.6234 9.37665 17.75 12 17.75C13.2959 17.75 14.4704 17.2306 15.3268 16.3903L19.0217 20.0864C18.7007 20.1925 18.3574 20.25 18 20.25H7C4.92893 20.25 3.25 18.5711 3.25 16.5V9.5C3.25 8.08091 4.32489 6.91287 5.70492 6.76565ZM14.2663 15.3296L9.67111 10.733C9.10036 11.3191 8.75 12.1187 8.75 13C8.75 14.7949 10.2051 16.25 12 16.25C12.881 16.25 13.6803 15.8999 14.2663 15.3296ZM7.46802 3.38188C7.744 2.41595 8.62687 1.75 9.63145 1.75H13.2371C14.9114 1.75 16.3828 2.85992 16.8428 4.4698L17.0239 5.10378C17.0487 5.19033 17.1278 5.25 17.2178 5.25C19.997 5.25 22.25 7.503 22.25 10.2822V17.5H20.75V10.2822C20.75 8.33142 19.1686 6.75 17.2178 6.75C16.4581 6.75 15.7904 6.24636 15.5817 5.51586L15.4005 4.88188C15.1245 3.91595 14.2417 3.25 13.2371 3.25H9.63145C9.29659 3.25 9.0023 3.47198 8.91031 3.79396L8.72114 4.45604L7.27886 4.04396L7.46802 3.38188ZM12.8131 9.8523C13.954 10.146 14.854 11.0459 15.1477 12.1869L16.6003 11.813C16.1704 10.1428 14.8572 8.82954 13.1869 8.39965L12.8131 9.8523Z" fill="#1D1E1F"/>
</svg>
