<svg width="24" height="24" viewBox="0 0 24 24" fill="none" xmlns="http://www.w3.org/2000/svg">
<path fill-rule="evenodd" clip-rule="evenodd" d="M10.1667 2.25H10.2H13.8H13.8333C15.0652 2.24999 16.0357 2.24999 16.8167 2.3138C17.6134 2.3789 18.2788 2.51413 18.8835 2.82222C19.8713 3.32555 20.6744 4.1287 21.1778 5.11655C21.4859 5.7212 21.6211 6.38657 21.6862 7.18333C21.75 7.96431 21.75 8.93477 21.75 10.1667V10.2V13.8V13.8333C21.75 15.0652 21.75 16.0357 21.6862 16.8167C21.6495 17.2659 21.5905 17.6734 21.4908 18.0518L21.5525 18.1311L21.4446 18.2151C21.3743 18.4476 21.2869 18.6693 21.1778 18.8835C20.6744 19.8713 19.8713 20.6744 18.8835 21.1778C18.2788 21.4859 17.6134 21.6211 16.8167 21.6862C16.0357 21.75 15.0652 21.75 13.8333 21.75H13.8H10.2H10.1667C8.93477 21.75 7.96432 21.75 7.18333 21.6862C6.38657 21.6211 5.7212 21.4859 5.11655 21.1778C4.1287 20.6744 3.32555 19.8713 2.82222 18.8835C2.51413 18.2788 2.3789 17.6134 2.3138 16.8167C2.24999 16.0357 2.24999 15.0652 2.25 13.8333V13.8V10.2V10.1667C2.24999 8.93478 2.24999 7.96432 2.3138 7.18333C2.3789 6.38657 2.51413 5.7212 2.82222 5.11655C3.32555 4.1287 4.1287 3.32555 5.11655 2.82222C5.7212 2.51413 6.38657 2.3789 7.18333 2.3138C7.96432 2.24999 8.93478 2.24999 10.1667 2.25ZM20.25 13.8C20.25 14.908 20.2496 15.7405 20.211 16.4078L19.8901 15.9956L19.8701 15.9698C19.4995 15.4937 19.1921 15.0989 18.9161 14.8008C18.63 14.4919 18.3269 14.2291 17.9445 14.0682C17.3631 13.8236 16.7153 13.7863 16.1096 13.9625C15.7112 14.0784 15.3798 14.3047 15.0601 14.5789C14.7949 14.8062 14.4984 15.102 14.1517 15.4541L12.2932 13.2184L12.2727 13.1938C11.9012 12.7469 11.5925 12.3756 11.3165 12.0954C11.0299 11.8044 10.7285 11.5584 10.3535 11.4093C9.78174 11.1819 9.15024 11.1529 8.56002 11.3269C8.17296 11.4409 7.85027 11.6583 7.53813 11.9217C7.23759 12.1754 6.89613 12.5169 6.48524 12.9278L6.4626 12.9504L3.76112 15.6519C3.75019 15.1319 3.75 14.5249 3.75 13.8V10.2C3.75 8.92751 3.75058 8.01824 3.80882 7.30548C3.86634 6.60148 3.97634 6.15549 4.15873 5.79754C4.51825 5.09193 5.09193 4.51825 5.79754 4.15873C6.15549 3.97634 6.60148 3.86634 7.30548 3.80882C8.01824 3.75058 8.92751 3.75 10.2 3.75H13.8C15.0725 3.75 15.9818 3.75058 16.6945 3.80882C17.3985 3.86634 17.8445 3.97634 18.2025 4.15873C18.9081 4.51825 19.4817 5.09193 19.8413 5.79754C20.0237 6.15549 20.1337 6.60148 20.1912 7.30548C20.2494 8.01824 20.25 8.92751 20.25 10.2V13.8ZM4.15873 18.2025C4.06946 18.0273 3.99753 17.831 3.94061 17.5937L4.03029 17.504L7.52326 14.0111C7.96257 13.5718 8.25934 13.2759 8.50561 13.068C8.74579 12.8653 8.88249 12.7956 8.98406 12.7657C9.25234 12.6866 9.53939 12.6998 9.79928 12.8031C9.89768 12.8423 10.0274 12.9242 10.248 13.1481C10.4741 13.3777 10.7425 13.6995 11.1397 14.1773L13.5285 17.0509L13.5284 17.0509L13.5365 17.0603L16.252 20.2192C15.6118 20.2496 14.8234 20.25 13.8 20.25H10.2C8.92751 20.25 8.01824 20.2494 7.30548 20.1912C6.60148 20.1337 6.15549 20.0237 5.79754 19.8413C5.09193 19.4817 4.51825 18.9081 4.15873 18.2025ZM18.2025 19.8413C18.1345 19.8759 18.0634 19.9079 17.9879 19.9375L17.6214 19.5111L15.1234 16.6053C15.5219 16.2 15.8014 15.9191 16.0364 15.7176C16.2847 15.5048 16.4254 15.4328 16.5287 15.4028C16.804 15.3227 17.0985 15.3396 17.3628 15.4508C17.462 15.4926 17.5935 15.5802 17.8155 15.8199C18.0426 16.0652 18.3107 16.4086 18.7065 16.917L19.787 18.3051C19.4253 18.9637 18.8736 19.4993 18.2025 19.8413ZM14.75 9C14.75 8.30964 15.3096 7.75 16 7.75C16.6904 7.75 17.25 8.30964 17.25 9C17.25 9.69036 16.6904 10.25 16 10.25C15.3096 10.25 14.75 9.69036 14.75 9ZM16 6.25C14.4812 6.25 13.25 7.48122 13.25 9C13.25 10.5188 14.4812 11.75 16 11.75C17.5188 11.75 18.75 10.5188 18.75 9C18.75 7.48122 17.5188 6.25 16 6.25Z" fill="#1D1E1F"/>
</svg>
