<svg width="24" height="24" viewBox="0 0 24 24" fill="none" xmlns="http://www.w3.org/2000/svg">
<path d="M11.4626 4.97504L16.0092 8.00616C18.0123 9.34153 19.0138 10.0092 19.3628 10.8508C19.668 11.5866 19.668 12.4134 19.3628 13.1492C19.0138 13.9908 18.0123 14.6585 16.0092 15.9938L11.4626 19.025L11.4625 19.025C9.03838 20.6411 7.8263 21.4491 6.82119 21.3891C5.94557 21.3368 5.13668 20.9039 4.60747 20.2044C4 19.4014 4 17.9446 4 15.0311V8.96888C4 6.05539 4 4.59865 4.60747 3.79563C5.13668 3.09607 5.94557 2.66317 6.82119 2.61088C7.82631 2.55087 9.03839 3.35893 11.4626 4.97504Z" stroke="#1D1E1F" stroke-width="1.5"/>
</svg>
