<svg width="24" height="24" viewBox="0 0 24 24" fill="none" xmlns="http://www.w3.org/2000/svg">
<path fill-rule="evenodd" clip-rule="evenodd" d="M16.6868 5.02368C18.1753 3.95378 20.25 5.01757 20.25 6.8507V17.4429C20.25 19.2326 18.2618 20.3059 16.7655 19.324L9.06214 14.2688C7.74228 13.4026 7.70149 11.482 8.9834 10.5606L16.6868 5.02368ZM21.75 6.8507C21.75 3.79548 18.2922 2.0225 15.8113 3.80566L8.10793 9.3426C5.97142 10.8783 6.0394 14.0793 8.23917 15.5228L15.9426 20.5781C18.4363 22.2146 21.75 20.4257 21.75 17.4429V6.8507ZM3.75 3.99994C3.33579 3.99994 3 4.33573 3 4.74994V19.2499C3 19.6642 3.33579 19.9999 3.75 19.9999C4.16421 19.9999 4.5 19.6642 4.5 19.2499V4.74994C4.5 4.33573 4.16421 3.99994 3.75 3.99994Z" fill="#1D1E1F"/>
</svg>
