<svg width="24" height="24" viewBox="0 0 24 24" fill="none" xmlns="http://www.w3.org/2000/svg">
<path fill-rule="evenodd" clip-rule="evenodd" d="M7.3132 5.02368C5.82467 3.95378 3.75 5.01757 3.75 6.8507V17.4429C3.75 19.2326 5.73819 20.3059 7.23446 19.324L14.9379 14.2688C16.2577 13.4026 16.2985 11.482 15.0166 10.5606L7.3132 5.02368ZM2.25 6.8507C2.25 3.79548 5.70779 2.0225 8.18866 3.80566L15.8921 9.3426C18.0286 10.8783 17.9606 14.0793 15.7608 15.5228L8.05743 20.5781C5.56365 22.2146 2.25 20.4257 2.25 17.4429V6.8507ZM20.25 3.99988C20.6642 3.99988 21 4.33567 21 4.74988V19.2499C21 19.6641 20.6642 19.9999 20.25 19.9999C19.8358 19.9999 19.5 19.6641 19.5 19.2499V4.74988C19.5 4.33567 19.8358 3.99988 20.25 3.99988Z" fill="#1D1E1F"/>
</svg>
