<svg width="24" height="24" viewBox="0 0 24 24" fill="none" xmlns="http://www.w3.org/2000/svg">
<path fill-rule="evenodd" clip-rule="evenodd" d="M1.25 1.25H2H10H10.75V2V10V10.75H10H2H1.25V10V2V1.25ZM2.75 2.75V9.25H9.25V2.75H2.75ZM4.5 4.5H7.5V7.5H4.5V4.5ZM1.25 13.25H2H10H10.75V14V22V22.75H10H2H1.25V22V14V13.25ZM2.75 14.75V21.25H9.25V14.75H2.75ZM4.5 16.5H7.5V19.5H4.5V16.5ZM14 1.25H13.25V2V10V10.75H14H22H22.75V10V2V1.25H22H14ZM14.75 9.25V2.75H21.25V9.25H14.75ZM19.5 4.5H16.5V7.5H19.5V4.5ZM16.5 13.5H13.5V16.5H16.5V19.5H13.5V22.5H16.5V19.5H19.5V22.5H22.5V19.5H19.5V16.5H22.5V13.5H19.5V16.5H16.5V13.5Z" fill="#18191A"/>
</svg>
