<svg width="24" height="24" viewBox="0 0 24 24" fill="none" xmlns="http://www.w3.org/2000/svg">
<path fill-rule="evenodd" clip-rule="evenodd" d="M6.53033 2.46967L6 1.93934L5.46967 2.46967L1.46967 6.46967C1.17678 6.76256 1.17678 7.23744 1.46967 7.53033C1.76256 7.82322 2.23744 7.82322 2.53033 7.53033L5.25 4.81066L5.25 8.24302L5.24997 8.36193C5.24963 9.25149 5.24939 9.86636 5.43198 10.4309C5.59301 10.9288 5.85645 11.3874 6.20536 11.7774C6.601 12.2196 7.13223 12.5292 7.90079 12.9771L8.00352 13.037L15.2407 17.2587C16.1519 17.7902 16.4589 17.9793 16.6768 18.2228C16.8861 18.4568 17.0442 18.732 17.1408 19.0307C17.2414 19.3416 17.25 19.702 17.25 20.757L17.25 22C17.25 22.4142 17.5858 22.75 18 22.75C18.4142 22.75 18.75 22.4142 18.75 22L18.75 20.757L18.75 20.6381C18.7504 19.7485 18.7506 19.1336 18.568 18.5691C18.407 18.0712 18.1435 17.6126 17.7946 17.2226C17.399 16.7804 16.8678 16.4708 16.0992 16.0229L16.0992 16.0229L15.9965 15.963L8.75932 11.7413C7.84808 11.2098 7.54109 11.0207 7.32321 10.7772C7.11387 10.5432 6.95581 10.268 6.85919 9.9693C6.75864 9.65841 6.75 9.29798 6.75 8.24302L6.75 4.81066L9.46967 7.53033C9.76256 7.82322 10.2374 7.82322 10.5303 7.53033C10.8232 7.23744 10.8232 6.76256 10.5303 6.46967L6.53033 2.46967ZM9.27574 16.9574L8.6279 17.3353L7.8779 17.7728L7.85839 17.7842C7.17443 18.187 6.75325 18.9202 6.75002 19.714L6.75 19.7366L6.75 22C6.75 22.4142 6.41421 22.75 6 22.75C5.58578 22.75 5.25 22.4142 5.25 22L5.25 19.7366L5.25003 19.7079C5.25541 18.385 5.95738 17.1628 7.09732 16.4917L7.12209 16.4772L7.87209 16.0397L8.51993 15.6618L9.27574 16.9574ZM18 1.93928L17.4697 2.46961L17.4694 2.46991L13.4697 6.46961C13.1768 6.76251 13.1768 7.23738 13.4697 7.53027C13.7626 7.82317 14.2374 7.82317 14.5303 7.53027L17.25 4.8106L17.25 9.26339L17.25 9.28598C17.2467 10.0797 16.8256 10.813 16.1416 11.2157L16.1221 11.2271L15.3721 11.6646L14.7243 12.0425L15.4801 13.3382L16.1279 12.9603L16.8779 12.5228L16.9027 12.5083C18.0426 11.8371 18.7446 10.6149 18.75 9.29209L18.75 9.26339L18.75 4.8106L21.4697 7.53027C21.7626 7.82316 22.2374 7.82316 22.5303 7.53027C22.8232 7.23738 22.8232 6.7625 22.5303 6.46961L18.5309 2.47021L18.5297 2.46902L18 1.93928Z" fill="#18191A"/>
</svg>
