<svg width="24" height="24" viewBox="0 0 24 24" fill="none" xmlns="http://www.w3.org/2000/svg">
<path fill-rule="evenodd" clip-rule="evenodd" d="M6 1.93934L6.53033 2.46967L10.5303 6.46967C10.8232 6.76256 10.8232 7.23744 10.5303 7.53033C10.2374 7.82322 9.76256 7.82322 9.46967 7.53033L6.75 4.81066L6.75 9.01175C6.75 9.78123 6.75482 10.0437 6.81217 10.2826C6.86729 10.5122 6.9582 10.7317 7.08157 10.933C7.20992 11.1424 7.39213 11.3315 7.93624 11.8756L11.1244 15.0637L11.1849 15.1241C11.6457 15.5847 11.9647 15.9035 12.1974 16.2832C12.403 16.6187 12.5545 16.9845 12.6464 17.3671C12.7503 17.8001 12.7502 18.2511 12.75 18.9027L12.75 18.9882L12.75 21C12.75 21.4142 12.4142 21.75 12 21.75C11.5858 21.75 11.25 21.4142 11.25 21L11.25 18.9882C11.25 18.2187 11.2452 17.9562 11.1878 17.7173C11.1327 17.4877 11.0418 17.2682 10.9184 17.0669C10.7901 16.8575 10.6079 16.6684 10.0638 16.1243L6.87559 12.9362L6.81515 12.8758C6.35428 12.4152 6.03527 12.0964 5.80261 11.7167C5.597 11.3812 5.44548 11.0154 5.35361 10.6328C5.24966 10.1998 5.24979 9.74878 5.24998 9.09722L5.25 9.01175L5.25 4.81066L2.53033 7.53033C2.23744 7.82322 1.76256 7.82322 1.46967 7.53033C1.17678 7.23744 1.17678 6.76256 1.46967 6.46967L5.46967 2.46967L6 1.93934ZM18 1.93945L17.4705 2.46899L17.4689 2.47055L13.4697 6.46978C13.1768 6.76268 13.1768 7.23755 13.4697 7.53044C13.7626 7.82334 14.2374 7.82334 14.5303 7.53044L17.25 4.81078L17.25 9.01189C17.25 9.78136 17.2452 10.0439 17.1878 10.2827C17.1327 10.5123 17.0418 10.7318 16.9184 10.9331C16.7901 11.1426 16.6079 11.3316 16.0638 11.8757L14.4697 13.4698L13.9393 14.0001L15 15.0608L15.5303 14.5304L17.1244 12.9363L17.1849 12.8759L17.1849 12.8759L17.1849 12.8759C17.6457 12.4153 17.9647 12.0965 18.1974 11.7168C18.403 11.3813 18.5545 11.0155 18.6464 10.6329C18.7503 10.1999 18.7502 9.74891 18.75 9.09735L18.75 9.01189L18.75 4.81077L21.4697 7.53044C21.7626 7.82334 22.2374 7.82334 22.5303 7.53044C22.8232 7.23755 22.8232 6.76268 22.5303 6.46978L18.5303 2.46978L18 1.93945Z" fill="#18191A"/>
</svg>
