<svg width="24" height="24" viewBox="0 0 24 24" fill="none" xmlns="http://www.w3.org/2000/svg">
<path fill-rule="evenodd" clip-rule="evenodd" d="M22.0607 6L21.5303 6.53033L17.5303 10.5303C17.2374 10.8232 16.7626 10.8232 16.4697 10.5303C16.1768 10.2374 16.1768 9.76256 16.4697 9.46967L19.1893 6.75H14.9882C14.2188 6.75 13.9563 6.75482 13.7174 6.81217C13.4878 6.86729 13.2683 6.9582 13.067 7.08157C12.8576 7.20992 12.6685 7.39213 12.1244 7.93624L8.93632 11.1244L8.8759 11.1849C8.41531 11.6457 8.09649 11.9647 7.71683 12.1974C7.3813 12.403 7.01551 12.5545 6.63287 12.6464C6.19989 12.7503 5.74888 12.7502 5.09731 12.75L5.01185 12.75H3C2.58579 12.75 2.25 12.4142 2.25 12C2.25 11.5858 2.58579 11.25 3 11.25H5.01185C5.78133 11.25 6.04382 11.2452 6.2827 11.1878C6.51228 11.1327 6.73176 11.0418 6.93307 10.9184C7.14253 10.7901 7.33155 10.6079 7.87565 10.0638L11.0638 6.87559L11.1242 6.81515C11.5848 6.35428 11.9036 6.03527 12.2833 5.80261C12.6188 5.597 12.9846 5.44548 13.3672 5.35361C13.8002 5.24966 14.2512 5.24979 14.9028 5.24998L14.9882 5.25H19.1893L16.4697 2.53033C16.1768 2.23744 16.1768 1.76256 16.4697 1.46967C16.7626 1.17678 17.2374 1.17678 17.5303 1.46967L21.5303 5.46967L22.0607 6ZM22.0607 18L21.5314 17.4708L21.5293 17.4686L17.5303 13.4697C17.2374 13.1768 16.7626 13.1768 16.4697 13.4697C16.1768 13.7626 16.1768 14.2374 16.4697 14.5303L19.1893 17.25H14.9882C14.2188 17.25 13.9563 17.2452 13.7174 17.1878C13.4878 17.1327 13.2683 17.0418 13.067 16.9184C12.8576 16.7901 12.6685 16.6079 12.1244 16.0638L10.5303 14.4697L10 13.9393L8.93934 15L9.46967 15.5303L11.0638 17.1244L11.1242 17.1849L11.1242 17.1849L11.1242 17.1849C11.5848 17.6457 11.9036 17.9647 12.2833 18.1974C12.6188 18.403 12.9846 18.5545 13.3672 18.6464C13.8002 18.7503 14.2512 18.7502 14.9028 18.75L14.9882 18.75H19.1893L16.4697 21.4697C16.1768 21.7626 16.1768 22.2374 16.4697 22.5303C16.7626 22.8232 17.2374 22.8232 17.5303 22.5303L21.5303 18.5303L22.0607 18Z" fill="#18191A"/>
</svg>
