<svg width="24" height="24" viewBox="0 0 24 24" fill="none" xmlns="http://www.w3.org/2000/svg">
<path fill-rule="evenodd" clip-rule="evenodd" d="M22.0303 7.03033L22.5607 6.5L22.0303 5.96967L18.0303 1.96967C17.7374 1.67678 17.2626 1.67678 16.9697 1.96967C16.6768 2.26256 16.6768 2.73744 16.9697 3.03033L19.6893 5.75H16.257L16.1381 5.74997C15.2485 5.74963 14.6336 5.74939 14.0691 5.93199C13.5712 6.09301 13.1126 6.35645 12.7226 6.70536C12.2804 7.101 11.9708 7.63224 11.5229 8.40079L11.463 8.50352L7.24133 15.7407C6.70977 16.6519 6.52069 16.9589 6.27719 17.1768C6.04322 17.3861 5.76802 17.5442 5.4693 17.6408C5.15841 17.7414 4.79798 17.75 3.74302 17.75H2.5C2.08579 17.75 1.75 18.0858 1.75 18.5C1.75 18.9142 2.08579 19.25 2.5 19.25H3.74302L3.86193 19.25C4.75149 19.2504 5.36636 19.2506 5.93091 19.068C6.42878 18.907 6.88743 18.6435 7.27739 18.2946C7.71957 17.899 8.02918 17.3678 8.4771 16.5992L8.53699 16.4965L12.7587 9.25932C13.2902 8.34808 13.4793 8.04109 13.7228 7.82322C13.9568 7.61387 14.232 7.45581 14.5307 7.35919C14.8416 7.25864 15.202 7.25 16.257 7.25H19.6893L16.9697 9.96967C16.6768 10.2626 16.6768 10.7374 16.9697 11.0303C17.2626 11.3232 17.7374 11.3232 18.0303 11.0303L22.0303 7.03033ZM7.54257 9.77574L7.16467 9.1279L6.72717 8.3779L6.71576 8.35839C6.31305 7.67443 5.57975 7.25325 4.78604 7.25002L4.76344 7.25H2.5C2.08579 7.25 1.75 6.91421 1.75 6.5C1.75 6.08579 2.08579 5.75 2.5 5.75H4.76344L4.79214 5.75003C6.115 5.75541 7.33715 6.45738 8.00835 7.59732L8.02283 7.6221L8.46033 8.3721L8.83824 9.01993L7.54257 9.77574ZM22.5608 18.5L22.0312 17.9705L22.0297 17.9689L18.0305 13.9697C17.7376 13.6768 17.2627 13.6768 16.9698 13.9697C16.6769 14.2626 16.6769 14.7374 16.9698 15.0303L19.6895 17.75H15.2367L15.2141 17.75C14.4204 17.7468 13.6871 17.3256 13.2844 16.6416L13.273 16.6221L12.8355 15.8721L12.4576 15.2243L11.1619 15.9801L11.5398 16.6279L11.9773 17.3779L11.9918 17.4027C12.663 18.5426 13.8851 19.2446 15.208 19.25L15.2367 19.25H19.6895L16.9698 21.9697C16.6769 22.2626 16.6769 22.7374 16.9698 23.0303C17.2627 23.3232 17.7376 23.3232 18.0305 23.0303L22.0305 19.0303L22.5608 18.5Z" fill="#18191A"/>
</svg>
