<svg width="24" height="24" viewBox="0 0 24 24" fill="none" xmlns="http://www.w3.org/2000/svg">
<path fill-rule="evenodd" clip-rule="evenodd" d="M16.0608 5L15.5351 4.47437L15.5257 4.46492L11.5304 0.46967C11.2375 0.176777 10.7627 0.176777 10.4698 0.46967C10.1769 0.762563 10.1769 1.23744 10.4698 1.53033L13.1894 4.24996L10.4537 4.24996H10.4402H10.44C9.51808 4.24996 8.80877 4.24996 8.26081 4.26654C7.71743 4.28299 7.28117 4.31646 6.9246 4.39937C3.20932 5.26326 1.34955 9.4391 3.19281 12.7786C3.36971 13.0991 3.63667 13.4457 3.98795 13.8606C4.34218 14.279 4.81667 14.8062 5.43341 15.4915L5.43345 15.4915L5.43352 15.4916L5.44262 15.5017L6.55756 14.4983C5.92982 13.8008 5.47054 13.2903 5.13274 12.8914C4.79024 12.4868 4.60635 12.2354 4.50604 12.0537C3.14363 9.58541 4.51824 6.49892 7.26432 5.86039C7.4665 5.81338 7.77638 5.78189 8.30619 5.76585C8.82872 5.75004 9.51536 5.74996 10.4537 5.74996L13.1895 5.74996L10.4698 8.46967C10.1769 8.76256 10.1769 9.23744 10.4698 9.53033C10.7627 9.82322 11.2375 9.82322 11.5304 9.53033L15.5304 5.53033L16.0608 5ZM16.7359 18.1396C19.482 17.5011 20.8566 14.4146 19.4942 11.9463C19.3939 11.7646 19.21 11.5132 18.8675 11.1086C18.5297 10.7097 18.0704 10.1992 17.4426 9.50174L18.5576 8.49829L18.5667 8.50845L18.5668 8.50852L18.567 8.50879C19.1837 9.19393 19.6581 9.72106 20.0123 10.1394C20.3635 10.5543 20.6305 10.9009 20.8074 11.2214C22.6507 14.5609 20.7909 18.7367 17.0756 19.6006C16.719 19.6836 16.2828 19.717 15.7394 19.7335C15.1915 19.7501 14.4822 19.7501 13.5604 19.7501H13.5602H13.5465H10.8108L13.5304 22.4697C13.8233 22.7626 13.8233 23.2374 13.5304 23.5303C13.2376 23.8232 12.7627 23.8232 12.4698 23.5303L8.46978 19.5303L7.93945 19L8.46978 18.4697L12.4698 14.4697C12.7627 14.1768 13.2375 14.1768 13.5304 14.4697C13.8233 14.7626 13.8233 15.2374 13.5304 15.5303L10.8107 18.2501H13.5465C14.4848 18.2501 15.1715 18.25 15.694 18.2342C16.2238 18.2181 16.5337 18.1866 16.7359 18.1396Z" fill="#1F222D"/>
</svg>
