<svg width="24" height="24" viewBox="0 0 24 24" fill="none" xmlns="http://www.w3.org/2000/svg">
<path fill-rule="evenodd" clip-rule="evenodd" d="M4.03982 9.83171C3.43632 12.084 3.83292 14.3689 4.96047 16.2205C5.37639 16.9036 5.89149 17.527 6.49191 18.0673L7.86008 12.9612C7.96729 12.5611 8.37854 12.3237 8.77864 12.4309C9.17874 12.5381 9.41618 12.9494 9.30897 13.3495L7.49724 20.1109L7.30312 20.8354L6.57868 20.6413L0.783123 19.0884C0.383023 18.9811 0.145586 18.5699 0.252793 18.1698C0.359999 17.7697 0.771252 17.5323 1.17135 17.6395L4.94131 18.6496C4.46186 18.1448 4.03909 17.5915 3.67931 17.0007C2.34788 14.8142 1.87675 12.1088 2.59094 9.44348C3.98045 4.25774 9.32469 1.18905 14.5234 2.58204L14.1352 4.03093C9.73148 2.85096 5.21354 5.45134 4.03982 9.83171ZM23.7472 5.83014C23.64 6.23024 23.2287 6.46767 22.8286 6.36047L19.0586 5.35031C19.5381 5.8551 19.9609 6.4084 20.3207 6.99925C21.6521 9.18573 22.1232 11.8911 21.409 14.5565C20.0195 19.7422 14.6753 22.8109 9.47656 21.4179L9.86479 19.969C14.2685 21.149 18.7864 18.5486 19.9601 14.1682C20.5636 11.9159 20.167 9.63105 19.0395 7.77939C18.6236 7.09636 18.1085 6.47291 17.5081 5.93261L16.1399 11.0387C16.0327 11.4388 15.6214 11.6762 15.2213 11.569C14.8212 11.4618 14.5838 11.0506 14.691 10.6505L16.5027 3.889L16.6968 3.16455L17.4213 3.35866L23.2168 4.91158C23.6169 5.01879 23.8544 5.43004 23.7472 5.83014Z" fill="#18191A"/>
</svg>
