<svg width="24" height="24" viewBox="0 0 24 24" fill="none" xmlns="http://www.w3.org/2000/svg">
<path fill-rule="evenodd" clip-rule="evenodd" d="M18.1396 7.26432C17.5011 4.51824 14.4146 3.14363 11.9463 4.50604C11.7646 4.60635 11.5132 4.79024 11.1086 5.13274C10.7097 5.47055 10.1992 5.92982 9.50174 6.55756L8.49829 5.44262L8.5084 5.43352L8.5085 5.43343C9.19378 4.81668 9.721 4.34218 10.1394 3.98795C10.5543 3.63667 10.9009 3.36971 11.2214 3.19281C14.5609 1.34955 18.7367 3.20932 19.6006 6.9246C19.6836 7.28117 19.717 7.71743 19.7335 8.26081C19.7501 8.80876 19.7501 9.51806 19.7501 10.44V10.4402V10.4537V13.1894L22.4697 10.4698C22.7626 10.1769 23.2374 10.1769 23.5303 10.4698C23.8232 10.7627 23.8232 11.2375 23.5303 11.5304L19.5351 15.5256L19.5256 15.5352L19 16.0608L18.4697 15.5304L14.4697 11.5304C14.1768 11.2375 14.1768 10.7627 14.4697 10.4698C14.7626 10.1769 15.2374 10.1769 15.5303 10.4698L18.2501 13.1895V10.4537C18.2501 9.51536 18.25 8.82872 18.2342 8.30619C18.2181 7.77638 18.1866 7.4665 18.1396 7.26432ZM5 7.93945L4.46967 8.46978L0.46967 12.4698C0.176777 12.7627 0.176777 13.2376 0.46967 13.5304C0.762563 13.8233 1.23744 13.8233 1.53033 13.5304L4.24996 10.8108L4.24996 13.5465V13.5602V13.5604C4.24996 14.4822 4.24996 15.1915 4.26654 15.7394C4.28299 16.2828 4.31646 16.719 4.39937 17.0756C5.26326 20.7909 9.4391 22.6507 12.7786 20.8074C13.0991 20.6305 13.4457 20.3635 13.8606 20.0123C14.279 19.6581 14.8062 19.1836 15.4914 18.5669L15.4915 18.5668L15.4916 18.5667L15.5017 18.5576L14.4983 17.4426C13.8008 18.0704 13.2903 18.5297 12.8914 18.8675C12.4868 19.21 12.2354 19.3939 12.0537 19.4942C9.58541 20.8566 6.49892 19.482 5.86039 16.7359C5.81338 16.5337 5.78189 16.2238 5.76585 15.694C5.75004 15.1715 5.74996 14.4848 5.74996 13.5465L5.74996 10.8107L8.46967 13.5304C8.76256 13.8233 9.23744 13.8233 9.53033 13.5304C9.82322 13.2375 9.82322 12.7627 9.53033 12.4698L5.53033 8.46978L5 7.93945Z" fill="#1F222D"/>
</svg>
