<svg width="24" height="24" viewBox="0 0 24 24" fill="none" xmlns="http://www.w3.org/2000/svg">
<path fill-rule="evenodd" clip-rule="evenodd" d="M7.93945 5L8.46513 4.47432L8.47448 4.46497L12.4698 0.46967C12.7627 0.176777 13.2376 0.176777 13.5304 0.46967C13.8233 0.762563 13.8233 1.23744 13.5304 1.53033L10.8108 4.24996L13.5465 4.24996H13.56H13.5602C14.4821 4.24996 15.1914 4.24996 15.7394 4.26654C16.2828 4.28299 16.719 4.31646 17.0756 4.39937C20.7909 5.26326 22.6507 9.4391 20.8074 12.7786C20.6305 13.0991 20.3635 13.4457 20.0123 13.8606C19.6581 14.279 19.1837 14.8061 18.567 15.4912L18.5668 15.4915L18.5667 15.4916L18.5576 15.5017L17.4426 14.4983C18.0704 13.8008 18.5297 13.2903 18.8675 12.8914C19.21 12.4868 19.3939 12.2354 19.4942 12.0537C20.8566 9.58541 19.482 6.49892 16.7359 5.86039C16.5337 5.81338 16.2238 5.78189 15.694 5.76585C15.1715 5.75004 14.4848 5.74996 13.5465 5.74996L10.8107 5.74996L13.5304 8.46967C13.8233 8.76256 13.8233 9.23744 13.5304 9.53033C13.2375 9.82322 12.7627 9.82322 12.4698 9.53033L8.46978 5.53033L7.93945 5ZM7.26432 18.1396C4.51824 17.5011 3.14363 14.4146 4.50604 11.9463C4.60635 11.7646 4.79024 11.5132 5.13274 11.1086C5.47054 10.7097 5.92982 10.1992 6.55756 9.50174L5.44262 8.49829L5.43348 8.50845L5.43345 8.50848L5.43344 8.5085C4.81669 9.19378 4.34218 9.721 3.98795 10.1394C3.63667 10.5543 3.36971 10.9009 3.19281 11.2214C1.34955 14.5609 3.20932 18.7367 6.9246 19.6006C7.28117 19.6836 7.71743 19.717 8.26081 19.7335C8.80873 19.7501 9.51799 19.7501 10.4399 19.7501H10.44H10.4537H13.1894L10.4698 22.4697C10.1769 22.7626 10.1769 23.2374 10.4698 23.5303C10.7627 23.8232 11.2375 23.8232 11.5304 23.5303L15.5304 19.5303L16.0608 19L15.5304 18.4697L11.5304 14.4697C11.2375 14.1768 10.7627 14.1768 10.4698 14.4697C10.1769 14.7626 10.1769 15.2374 10.4698 15.5303L13.1895 18.2501H10.4537C9.51536 18.2501 8.82873 18.25 8.30619 18.2342C7.77638 18.2181 7.4665 18.1866 7.26432 18.1396Z" fill="#1F222D"/>
</svg>
