<svg width="24" height="24" viewBox="0 0 24 24" fill="none" xmlns="http://www.w3.org/2000/svg">
<path fill-rule="evenodd" clip-rule="evenodd" d="M3 2.25C3.41421 2.25 3.75 2.58579 3.75 3V6.90281C4.11347 6.30912 4.53846 5.75763 5.01599 5.25724C6.78337 3.40527 9.27462 2.25 12.034 2.25C17.4027 2.25 21.75 6.6179 21.75 12H20.25C20.25 7.44097 16.5689 3.75 12.034 3.75C9.70224 3.75 7.59788 4.72446 6.10115 6.29283C5.54905 6.87134 5.08018 7.53023 4.71369 8.25H10C10.4142 8.25 10.75 8.58579 10.75 9C10.75 9.41421 10.4142 9.75 10 9.75H3H2.25V9V3C2.25 2.58579 2.58579 2.25 3 2.25ZM11.966 20.25C14.2978 20.25 16.4021 19.2755 17.8989 17.7072C18.451 17.1287 18.9198 16.4698 19.2863 15.75H14C13.5858 15.75 13.25 15.4142 13.25 15C13.25 14.5858 13.5858 14.25 14 14.25H21H21.75V15V21C21.75 21.4142 21.4142 21.75 21 21.75C20.5858 21.75 20.25 21.4142 20.25 21V17.0972C19.8865 17.6909 19.4615 18.2424 18.984 18.7428C17.2166 20.5947 14.7254 21.75 11.966 21.75C6.59732 21.75 2.25 17.3821 2.25 12H3.75C3.75 16.559 7.4311 20.25 11.966 20.25Z" fill="#18191A"/>
</svg>
