<svg width="24" height="24" viewBox="0 0 24 24" fill="none" xmlns="http://www.w3.org/2000/svg">
<path fill-rule="evenodd" clip-rule="evenodd" d="M5.86039 7.26432C6.49892 4.51824 9.58541 3.14363 12.0537 4.50604C12.2354 4.60635 12.4868 4.79024 12.8914 5.13274C13.2903 5.47054 13.8008 5.92982 14.4983 6.55756L15.5017 5.44262L15.4916 5.43348C14.8063 4.81671 14.279 4.34219 13.8606 3.98795C13.4457 3.63667 13.0991 3.36971 12.7786 3.19281C9.4391 1.34955 5.26326 3.20932 4.39937 6.9246C4.31646 7.28117 4.28299 7.71743 4.26654 8.26081C4.24996 8.80872 4.24996 9.51797 4.24996 10.4398V10.44V10.4537L4.24996 13.1894L1.53033 10.4698C1.23744 10.1769 0.762563 10.1769 0.46967 10.4698C0.176777 10.7627 0.176777 11.2375 0.46967 11.5304L4.46967 15.5304L5 16.0608L5.53033 15.5304L9.53033 11.5304C9.82322 11.2375 9.82322 10.7627 9.53033 10.4698C9.23744 10.1769 8.76256 10.1769 8.46967 10.4698L5.74996 13.1895L5.74996 10.4537C5.74996 9.51536 5.75004 8.82873 5.76585 8.30619C5.78189 7.77638 5.81338 7.4665 5.86039 7.26432ZM19 7.93945L19.5257 8.46513L19.535 8.47449L23.5303 12.4698C23.8232 12.7627 23.8232 13.2376 23.5303 13.5304C23.2374 13.8233 22.7626 13.8233 22.4697 13.5304L19.7501 10.8108V13.5465V13.56V13.5602C19.7501 14.4822 19.7501 15.1915 19.7335 15.7394C19.717 16.2828 19.6836 16.719 19.6006 17.0756C18.7367 20.7909 14.5609 22.6507 11.2214 20.8074C10.9009 20.6305 10.5543 20.3635 10.1394 20.0123C9.72102 19.658 9.19383 19.1836 8.50859 18.5669L8.50853 18.5668L8.5084 18.5667L8.49829 18.5576L9.50174 17.4426C10.1992 18.0704 10.7097 18.5297 11.1086 18.8675C11.5132 19.21 11.7646 19.3939 11.9463 19.4942C14.4146 20.8566 17.5011 19.482 18.1396 16.7359C18.1866 16.5337 18.2181 16.2238 18.2342 15.694C18.25 15.1715 18.2501 14.4848 18.2501 13.5465V10.8107L15.5303 13.5304C15.2374 13.8233 14.7626 13.8233 14.4697 13.5304C14.1768 13.2375 14.1768 12.7627 14.4697 12.4698L18.4697 8.46978L19 7.93945Z" fill="#1F222D"/>
</svg>
