<svg width="24" height="24" viewBox="0 0 24 24" fill="none" xmlns="http://www.w3.org/2000/svg">
<path fill-rule="evenodd" clip-rule="evenodd" d="M11.966 3.75C14.2978 3.75 16.4021 4.72446 17.8989 6.29283C18.451 6.87134 18.9198 7.53023 19.2863 8.25H14C13.5858 8.25 13.25 8.58579 13.25 9C13.25 9.41421 13.5858 9.75 14 9.75H21H21.75V9V3C21.75 2.58579 21.4142 2.25 21 2.25C20.5858 2.25 20.25 2.58579 20.25 3V6.90281C19.8865 6.30912 19.4615 5.75763 18.984 5.25724C17.2166 3.40527 14.7254 2.25 11.966 2.25C6.59732 2.25 2.25 6.6179 2.25 12H3.75C3.75 7.44097 7.4311 3.75 11.966 3.75ZM12.034 20.25C9.70224 20.25 7.59788 19.2755 6.10115 17.7072C5.54905 17.1287 5.08018 16.4698 4.71369 15.75H10C10.4142 15.75 10.75 15.4142 10.75 15C10.75 14.5858 10.4142 14.25 10 14.25H3H2.25V15V21C2.25 21.4142 2.58579 21.75 3 21.75C3.41421 21.75 3.75 21.4142 3.75 21V17.0972C4.11347 17.6909 4.53846 18.2424 5.01599 18.7428C6.78337 20.5947 9.27462 21.75 12.034 21.75C17.4027 21.75 21.75 17.3821 21.75 12H20.25C20.25 16.559 16.5689 20.25 12.034 20.25Z" fill="#18191A"/>
</svg>
