<svg width="24" height="24" viewBox="0 0 24 24" fill="none" xmlns="http://www.w3.org/2000/svg">
<path fill-rule="evenodd" clip-rule="evenodd" d="M2.25 3C2.25 3.41421 2.58579 3.75 3 3.75L6.90281 3.75C6.30912 4.11347 5.75763 4.53846 5.25724 5.01599C3.40527 6.78337 2.25 9.27462 2.25 12.034C2.25 17.4027 6.6179 21.75 12 21.75V20.25C7.44097 20.25 3.75 16.5689 3.75 12.034C3.75 9.70224 4.72446 7.59788 6.29283 6.10115C6.87135 5.54905 7.53023 5.08018 8.25 4.71369L8.25 10C8.25 10.4142 8.58579 10.75 9 10.75C9.41421 10.75 9.75 10.4142 9.75 10L9.75 3V2.25H9H3C2.58579 2.25 2.25 2.58579 2.25 3ZM20.25 11.966C20.25 14.2978 19.2755 16.4021 17.7072 17.8989C17.1287 18.4509 16.4698 18.9198 15.75 19.2863V14C15.75 13.5858 15.4142 13.25 15 13.25C14.5858 13.25 14.25 13.5858 14.25 14V21V21.75H15H21C21.4142 21.75 21.75 21.4142 21.75 21C21.75 20.5858 21.4142 20.25 21 20.25H17.0972C17.6909 19.8865 18.2424 19.4615 18.7428 18.984C20.5947 17.2166 21.75 14.7254 21.75 11.966C21.75 6.59732 17.3821 2.25 12 2.25V3.75C16.559 3.75 20.25 7.4311 20.25 11.966Z" fill="#18191A"/>
</svg>
