<svg width="24" height="24" viewBox="0 0 24 24" fill="none" xmlns="http://www.w3.org/2000/svg">
<path fill-rule="evenodd" clip-rule="evenodd" d="M7.26432 5.86039C4.51824 6.49892 3.14363 9.58541 4.50604 12.0537C4.60635 12.2354 4.79024 12.4868 5.13274 12.8914C5.47054 13.2903 5.92982 13.8008 6.55756 14.4983L5.44262 15.5017L5.43352 15.4916L5.43348 15.4916C4.81671 14.8063 4.34219 14.279 3.98795 13.8606C3.63667 13.4457 3.36971 13.0991 3.19281 12.7786C1.34955 9.4391 3.20932 5.26326 6.9246 4.39937C7.28117 4.31646 7.71743 4.28299 8.26081 4.26654C8.80877 4.24996 9.51808 4.24996 10.44 4.24996H10.4402H10.4537L13.1894 4.24996L10.4698 1.53033C10.1769 1.23744 10.1769 0.762568 10.4698 0.469673C10.7627 0.176778 11.2375 0.176775 11.5304 0.469667L15.5304 4.46962L16.8108 5.74996H15.0001L10.4537 5.74996C9.51536 5.74996 8.82872 5.75004 8.30619 5.76585C7.77638 5.78189 7.4665 5.81338 7.26432 5.86039ZM16.7358 18.1396C19.4819 17.5011 20.8565 14.4146 19.4941 11.9463C19.3937 11.7646 19.2099 11.5132 18.8674 11.1086C18.5296 10.7096 18.0703 10.1992 17.4425 9.50172L18.5575 8.49828L18.5666 8.50839C19.1834 9.19371 19.6579 9.72097 20.0121 10.1394C20.3634 10.5543 20.6304 10.9009 20.8073 11.2214C22.6505 14.5609 20.7908 18.7367 17.0755 19.6006C16.7189 19.6835 16.2827 19.717 15.7393 19.7335C15.1914 19.75 14.4821 19.75 13.5602 19.75H13.5599H13.5464H10.8107L13.5303 22.4697C13.8232 22.7626 13.8232 23.2374 13.5303 23.5303C13.2374 23.8232 12.7626 23.8232 12.4697 23.5303L8.46967 19.5304L7.18932 18.25H9H13.5464C14.4847 18.25 15.1714 18.25 15.6939 18.2341C16.2237 18.2181 16.5336 18.1866 16.7358 18.1396ZM9 11.25C8.58579 11.25 8.25 11.5858 8.25 12C8.25 12.4142 8.58579 12.75 9 12.75H15C15.4142 12.75 15.75 12.4142 15.75 12C15.75 11.5858 15.4142 11.25 15 11.25H9Z" fill="#1D1E1F"/>
</svg>
