<svg width="24" height="24" viewBox="0 0 24 24" fill="none" xmlns="http://www.w3.org/2000/svg">
<path fill-rule="evenodd" clip-rule="evenodd" d="M6.76287 8.62956C6.95293 5.90292 9.22505 3.75 12 3.75C14.8995 3.75 17.25 6.10051 17.25 9C17.25 10.5843 16.5482 12.0047 15.4386 12.9673C14.5761 10.2327 12.0196 8.25 9 8.25C8.21588 8.25 7.46298 8.38371 6.76287 8.62956ZM5.2605 9.37965C5.25353 9.25399 5.25 9.12741 5.25 9C5.25 5.27208 8.27208 2.25 12 2.25C15.6721 2.25 18.6593 5.18222 18.748 8.83296C21.1055 9.88503 22.75 12.2496 22.75 14.9999C22.75 18.7278 19.7279 21.7499 16 21.7499C14.7196 21.7499 13.521 21.3927 12.5002 20.7727C11.4796 21.3929 10.2815 21.75 9 21.75C5.27208 21.75 2.25 18.7279 2.25 15C2.25 12.6552 3.44563 10.5896 5.2605 9.37965ZM18.5969 10.4359C18.2201 12.1752 17.173 13.6647 15.7395 14.6204C15.7465 14.746 15.75 14.8726 15.75 15C15.75 16.858 14.9993 18.5406 13.7847 19.7612C14.4574 20.0748 15.2077 20.2499 16 20.2499C18.8995 20.2499 21.25 17.8994 21.25 14.9999C21.25 13.0459 20.1822 11.34 18.5969 10.4359ZM14.2371 15.3704C14.0471 18.0971 11.775 20.25 9 20.25C6.10051 20.25 3.75 17.8995 3.75 15C3.75 13.4157 4.45178 11.9953 5.56143 11.0327C6.42393 13.7673 8.98042 15.75 12 15.75C12.7841 15.75 13.537 15.6163 14.2371 15.3704ZM14.1139 13.8071C13.4671 14.0919 12.752 14.25 12 14.25C9.51085 14.25 7.42629 12.5177 6.88612 10.1929C7.53286 9.90812 8.24797 9.75 9 9.75C11.4892 9.75 13.5737 11.4823 14.1139 13.8071Z" fill="#18191A"/>
</svg>
