<svg width="24" height="24" viewBox="0 0 24 24" fill="none" xmlns="http://www.w3.org/2000/svg">
<path fill-rule="evenodd" clip-rule="evenodd" d="M2.25 7.5C2.25 4.60051 4.60051 2.25 7.5 2.25H8H14.172C15.5395 2.25 16.853 2.78357 17.8332 3.73719L20.1611 6.00223C21.1769 6.9906 21.75 8.34771 21.75 9.76504V16.5C21.75 19.3995 19.3995 21.75 16.5 21.75H16H8H7.5C4.60051 21.75 2.25 19.3995 2.25 16.5V7.5ZM7.25 3.7582V5C7.25 7.07107 8.92893 8.75 11 8.75H16C16.4142 8.75 16.75 8.41421 16.75 8C16.75 7.58579 16.4142 7.25 16 7.25H11C9.75736 7.25 8.75 6.24264 8.75 5V3.75H14.172C15.1488 3.75 16.087 4.13112 16.7871 4.81228L19.1151 7.07731C19.8407 7.7833 20.25 8.75266 20.25 9.76504V16.5C20.25 18.4871 18.7045 20.1132 16.75 20.2418V16C16.75 13.9289 15.0711 12.25 13 12.25H11C8.92893 12.25 7.25 13.9289 7.25 16V20.2418C5.29549 20.1132 3.75 18.4871 3.75 16.5V7.5C3.75 5.51294 5.29549 3.88685 7.25 3.7582ZM8.75 16V20.25H15.25V16C15.25 14.7574 14.2426 13.75 13 13.75H11C9.75736 13.75 8.75 14.7574 8.75 16Z" fill="#18191A"/>
</svg>
