<svg width="24" height="24" viewBox="0 0 24 24" fill="none" xmlns="http://www.w3.org/2000/svg">
<path fill-rule="evenodd" clip-rule="evenodd" d="M10.1667 2.25002L10.2 2.25002H13.8L13.8333 2.25002C15.0652 2.25001 16.0357 2.25001 16.8167 2.31382C17.6134 2.37892 18.2788 2.51415 18.8835 2.82223C19.8713 3.32557 20.6745 4.12872 21.1778 5.11657C21.4859 5.72122 21.6211 6.38659 21.6862 7.18335C21.75 7.96433 21.75 8.93479 21.75 10.1667V10.2V13.8V13.8333C21.75 15.0652 21.75 16.0357 21.6862 16.8167C21.6211 17.6134 21.4859 18.2788 21.1778 18.8835C20.6745 19.8713 19.8713 20.6745 18.8835 21.1778C18.2788 21.4859 17.6134 21.6211 16.8167 21.6862C16.0357 21.75 15.0652 21.75 13.8333 21.75H13.8H10.2H10.1667C8.93479 21.75 7.96433 21.75 7.18335 21.6862C6.38659 21.6211 5.72122 21.4859 5.11657 21.1778C4.12872 20.6745 3.32557 19.8713 2.82223 18.8835C2.51415 18.2788 2.37892 17.6134 2.31382 16.8167C2.25001 16.0357 2.25001 15.0652 2.25002 13.8333L2.25002 13.8V10.2L2.25002 10.1667C2.25001 8.9348 2.25001 7.96434 2.31382 7.18335C2.37892 6.38659 2.51415 5.72122 2.82223 5.11657C3.32557 4.12872 4.12872 3.32557 5.11657 2.82223C5.72122 2.51415 6.38659 2.37892 7.18335 2.31382C7.96434 2.25001 8.9348 2.25001 10.1667 2.25002ZM7.3055 3.80884C6.6015 3.86636 6.1555 3.97636 5.79755 4.15874C5.09195 4.51827 4.51827 5.09195 4.15874 5.79755C3.9812 6.14601 3.87224 6.5779 3.81352 7.25002H20.1865C20.1278 6.5779 20.0188 6.14601 19.8413 5.79755C19.4818 5.09195 18.9081 4.51827 18.2025 4.15874C17.8445 3.97636 17.3985 3.86636 16.6945 3.80884C15.9818 3.7506 15.0725 3.75002 13.8 3.75002H10.2C8.92752 3.75002 8.01826 3.7506 7.3055 3.80884ZM3.75002 10.2C3.75002 9.65425 3.75013 9.1753 3.75484 8.75002H20.2452C20.2499 9.1753 20.25 9.65425 20.25 10.2V13.8C20.25 14.3458 20.2499 14.8247 20.2452 15.25H3.75484C3.75013 14.8247 3.75002 14.3458 3.75002 13.8V10.2ZM3.81352 16.75C3.87224 17.4221 3.9812 17.854 4.15874 18.2025C4.51827 18.9081 5.09195 19.4818 5.79755 19.8413C6.1555 20.0237 6.6015 20.1337 7.3055 20.1912C8.01826 20.2494 8.92752 20.25 10.2 20.25H13.8C15.0725 20.25 15.9818 20.2494 16.6945 20.1912C17.3985 20.1337 17.8445 20.0237 18.2025 19.8413C18.9081 19.4818 19.4818 18.9081 19.8413 18.2025C20.0188 17.854 20.1278 17.4221 20.1865 16.75H3.81352Z" fill="#1D1E1F"/>
</svg>
