<svg width="24" height="24" viewBox="0 0 24 24" fill="none" xmlns="http://www.w3.org/2000/svg">
<path fill-rule="evenodd" clip-rule="evenodd" d="M16.6662 4.30201C16.0368 4.25058 15.2326 4.25 14.1001 4.25H10V2.75H14.1001H14.1331C15.2252 2.74999 16.0907 2.74999 16.7884 2.80699C17.5018 2.86527 18.1054 2.98688 18.6566 3.26772C19.5503 3.72312 20.277 4.44978 20.7324 5.34355C21.0132 5.89472 21.1348 6.49835 21.1931 7.21173C21.2501 7.90935 21.2501 8.77485 21.2501 9.86698V9.9V14H19.7501V9.9C19.7501 8.76752 19.7495 7.96327 19.6981 7.33388C19.6474 6.71325 19.551 6.329 19.3959 6.02453C19.0843 5.413 18.5871 4.91582 17.9756 4.60423C17.6711 4.44909 17.2868 4.35271 16.6662 4.30201ZM3.75 15.0476L3.75 15H5.25C5.25 15.4822 5.25091 15.6689 5.26565 15.8186C5.41762 17.3616 6.63842 18.5824 8.18144 18.7344C8.33109 18.7491 8.51782 18.75 9 18.75V20.25L8.95241 20.25H8.95226H8.95221C8.53347 20.25 8.26716 20.2501 8.03442 20.2271C5.77923 20.005 3.99499 18.2208 3.77287 15.9656C3.74995 15.7328 3.74997 15.4665 3.75 15.0476V15.0476ZM2.03033 7.53022C1.73744 7.82311 1.26256 7.82311 0.96967 7.53022C0.676777 7.23732 0.676777 6.76245 0.96967 6.46956L3.96967 3.46956L4.5 2.93923L5.03033 3.46956L8.03033 6.46956C8.32322 6.76245 8.32322 7.23732 8.03033 7.53022C7.73744 7.82311 7.26256 7.82311 6.96967 7.53022L5.25 5.81055L5.25 11.0001L5.25 11.7501H3.75V11.0001V5.81055L2.03033 7.53022ZM16.4697 15.9696C16.1768 16.2625 16.1768 16.7374 16.4697 17.0303L18.1894 18.75H13H12.25V20.25H13H18.1893L16.4697 21.9696C16.1768 22.2625 16.1768 22.7374 16.4697 23.0303C16.7626 23.3232 17.2374 23.3232 17.5303 23.0303L20.5247 20.0359L20.5359 20.0247L21.0607 19.4999L20.5303 18.9696L17.5303 15.9696C17.2374 15.6767 16.7626 15.6767 16.4697 15.9696Z" fill="#18191A"/>
</svg>
