<svg width="24" height="24" viewBox="0 0 24 24" fill="none" xmlns="http://www.w3.org/2000/svg">
<path fill-rule="evenodd" clip-rule="evenodd" d="M10.1667 2.25H10.2H13.8H13.8333C15.0652 2.24999 16.0357 2.24999 16.8167 2.3138C17.6134 2.3789 18.2788 2.51413 18.8835 2.82222C19.8713 3.32555 20.6744 4.1287 21.1778 5.11655C21.4859 5.7212 21.6211 6.38657 21.6862 7.18333C21.75 7.96432 21.75 8.93477 21.75 10.1667V10.2V13.8V13.8333C21.75 15.0652 21.75 16.0357 21.6862 16.8167C21.6211 17.6134 21.4859 18.2788 21.1778 18.8835C20.6744 19.8713 19.8713 20.6744 18.8835 21.1778C18.2788 21.4859 17.6134 21.6211 16.8167 21.6862C16.0357 21.75 15.0652 21.75 13.8333 21.75H13.8H10.2H10.1667C8.93477 21.75 7.96431 21.75 7.18333 21.6862C6.38657 21.6211 5.7212 21.4859 5.11655 21.1778C4.1287 20.6744 3.32555 19.8713 2.82222 18.8835C2.51413 18.2788 2.3789 17.6134 2.3138 16.8167C2.24999 16.0357 2.24999 15.0652 2.25 13.8333V13.8V10.2V10.1667V10.1667C2.24999 8.93478 2.24999 7.96432 2.3138 7.18333C2.3789 6.38657 2.51413 5.7212 2.82222 5.11655C3.32555 4.1287 4.1287 3.32555 5.11655 2.82222C5.7212 2.51413 6.38657 2.3789 7.18333 2.3138C7.96432 2.24999 8.93478 2.24999 10.1667 2.25H10.1667ZM7.30548 3.80882C6.60148 3.86634 6.15549 3.97634 5.79754 4.15873C5.09193 4.51825 4.51825 5.09193 4.15873 5.79754C3.97634 6.15549 3.86634 6.60148 3.80882 7.30548C3.75058 8.01824 3.75 8.92751 3.75 10.2V13.8C3.75 15.0725 3.75058 15.9818 3.80882 16.6945C3.86634 17.3985 3.97634 17.8445 4.15873 18.2025C4.51825 18.9081 5.09193 19.4817 5.79754 19.8413C6.15549 20.0237 6.60148 20.1337 7.30548 20.1912C8.01824 20.2494 8.92751 20.25 10.2 20.25H13.8C15.0725 20.25 15.9818 20.2494 16.6945 20.1912C17.3985 20.1337 17.8445 20.0237 18.2025 19.8413C18.9081 19.4817 19.4817 18.9081 19.8413 18.2025C20.0237 17.8445 20.1337 17.3985 20.1912 16.6945C20.2494 15.9818 20.25 15.0725 20.25 13.8V10.2C20.25 8.92751 20.2494 8.01824 20.1912 7.30548C20.1337 6.60148 20.0237 6.15549 19.8413 5.79754C19.4817 5.09193 18.9081 4.51825 18.2025 4.15873C17.8445 3.97634 17.3985 3.86634 16.6945 3.80882C15.9818 3.75058 15.0725 3.75 13.8 3.75H10.2C8.92751 3.75 8.01824 3.75058 7.30548 3.80882ZM12 5.93934L11.4697 6.46967L8.46967 9.46967C8.17678 9.76256 8.17678 10.2374 8.46967 10.5303C8.76256 10.8232 9.23744 10.8232 9.53033 10.5303L12 8.06066L14.4697 10.5303C14.7626 10.8232 15.2374 10.8232 15.5303 10.5303C15.8232 10.2374 15.8232 9.76256 15.5303 9.46967L12.5303 6.46967L12 5.93934ZM11.4697 17.5303L12 18.0607L12.5303 17.5303L15.5303 14.5303C15.8232 14.2374 15.8232 13.7626 15.5303 13.4697C15.2374 13.1768 14.7626 13.1768 14.4697 13.4697L12 15.9393L9.53033 13.4697C9.23744 13.1768 8.76256 13.1768 8.46967 13.4697C8.17678 13.7626 8.17678 14.2374 8.46967 14.5303L11.4697 17.5303Z" fill="#1D1E1F"/>
</svg>
