<svg width="24" height="24" viewBox="0 0 24 24" fill="none" xmlns="http://www.w3.org/2000/svg">
<path fill-rule="evenodd" clip-rule="evenodd" d="M1.25 6C1.25 3.92893 2.92893 2.25 5 2.25H19C21.0711 2.25 22.75 3.92893 22.75 6V14C22.75 16.0711 21.0711 17.75 19 17.75H15.1537L15.6224 20.25H17C17.4142 20.25 17.75 20.5858 17.75 21C17.75 21.4142 17.4142 21.75 17 21.75H15.0133C15.0039 21.7502 14.9944 21.7502 14.985 21.75H9.01501C9.00559 21.7502 8.99615 21.7502 8.98667 21.75H7C6.58579 21.75 6.25 21.4142 6.25 21C6.25 20.5858 6.58579 20.25 7 20.25H8.37756L8.84631 17.75H5C2.92893 17.75 1.25 16.0711 1.25 14V6ZM13.6276 17.75L14.0963 20.25H9.9037L10.3724 17.75H13.6276ZM19 16.25H14.25H9.75H5C3.75736 16.25 2.75 15.2426 2.75 14V13.75H21.25V14C21.25 15.2426 20.2426 16.25 19 16.25ZM21.25 12.25H2.75V6C2.75 4.75736 3.75736 3.75 5 3.75H19C20.2426 3.75 21.25 4.75736 21.25 6V12.25ZM16.4211 10.8332C16.132 11.0293 15.7458 10.9999 15.4898 10.7623L11.9733 7.49851L9.48014 9.57617C9.18214 9.8245 8.74396 9.80462 8.46967 9.53033L5.46967 6.53033C5.17678 6.23744 5.17678 5.76257 5.46967 5.46967C5.76256 5.17678 6.23744 5.17678 6.53033 5.46967L9.04603 7.98537L11.5199 5.92384C11.8097 5.68234 12.2337 5.69367 12.5102 5.95029L16.0728 9.2569L17.3664 8.37935C17.7091 8.14681 18.1755 8.23617 18.4081 8.57895C18.6406 8.92173 18.5512 9.38812 18.2085 9.62066L16.4211 10.8332Z" fill="#18191A"/>
</svg>
