<svg width="24" height="24" viewBox="0 0 24 24" fill="none" xmlns="http://www.w3.org/2000/svg">
<path d="M14 12L14.1954 12.7241C14.5227 12.6358 14.75 12.339 14.75 12C14.75 11.661 14.5227 11.3642 14.1954 11.2759L14 12ZM4.35079 21.2496L3.98655 20.5939L4.35079 21.2496ZM3.5706 21.5734L3.71944 20.8383L3.5706 21.5734ZM3.28615 21.3475L2.60396 21.6592L3.28615 21.3475ZM5.07185 8.56175L4.4474 8.97716L5.07185 8.56175ZM8.66961 10.5615L8.86502 9.83739L8.66961 10.5615ZM6.23616 9.70898L6.6423 9.07847L6.23616 9.70898ZM3.5706 2.42664L3.42176 1.69156L3.5706 2.42664ZM5.07185 15.4382L5.6963 15.8537L5.07185 15.4382ZM6.23616 14.291L6.6423 14.9215L6.23616 14.291ZM19.8517 11.5872L20.5348 11.2777L19.8517 11.5872ZM18.4824 13.3987L18.1182 12.743L18.4824 13.3987ZM19.8517 12.4128L20.5348 12.7223L19.8517 12.4128ZM18.8467 9.94573L4.71502 2.09482L3.98655 3.40605L18.1182 11.257L18.8467 9.94573ZM2.70348 3.69185L3.46236 6.34726L4.90462 5.93508L4.14574 3.27967L2.70348 3.69185ZM8.4742 11.2856L13.8046 12.7241L14.1954 11.2759L8.86502 9.83739L8.4742 11.2856ZM18.1182 12.743L3.98655 20.5939L4.71502 21.9052L18.8467 14.0543L18.1182 12.743ZM4.14574 20.7203L4.90462 18.0649L3.46236 17.6528L2.70348 20.3082L4.14574 20.7203ZM8.86502 14.1626L14.1954 12.7241L13.8046 11.2759L8.4742 12.7144L8.86502 14.1626ZM3.98655 20.5939C3.87904 20.6537 3.79214 20.7019 3.71689 20.7422C3.64105 20.7827 3.58873 20.8088 3.5511 20.8255C3.51147 20.8431 3.5082 20.8413 3.52844 20.8367C3.55138 20.8315 3.6226 20.8187 3.71944 20.8383L3.42176 22.3084C3.74236 22.3734 4.02192 22.2578 4.16099 22.1959C4.32269 22.124 4.51614 22.0157 4.71502 21.9052L3.98655 20.5939ZM2.70348 20.3082C2.64097 20.5269 2.57936 20.7399 2.54593 20.9137C2.51719 21.0631 2.46804 21.3616 2.60396 21.6592L3.96834 21.0359C4.0094 21.1258 4.01302 21.198 4.01317 21.2216C4.0133 21.2423 4.01075 21.2395 4.01895 21.1969C4.02672 21.1565 4.04024 21.0996 4.06253 21.0166C4.08465 20.9342 4.11194 20.8386 4.14574 20.7203L2.70348 20.3082ZM3.71944 20.8383C3.82925 20.8605 3.92178 20.934 3.96834 21.0359L2.60396 21.6592C2.75693 21.994 3.06095 22.2354 3.42176 22.3084L3.71944 20.8383ZM3.46236 6.34726C3.81124 7.56803 4.02281 8.33891 4.4474 8.97716L5.6963 8.14634C5.43158 7.74842 5.28068 7.25097 4.90462 5.93508L3.46236 6.34726ZM8.86502 9.83739C7.54371 9.48081 7.04409 9.33727 6.6423 9.07847L5.83002 10.3395C6.47447 10.7546 7.2484 10.9548 8.4742 11.2856L8.86502 9.83739ZM4.4474 8.97716C4.80959 9.5216 5.28029 9.9854 5.83002 10.3395L6.6423 9.07847C6.26617 8.83619 5.94411 8.51885 5.6963 8.14634L4.4474 8.97716ZM4.71502 2.09482C4.51614 1.98433 4.32269 1.87604 4.16099 1.80408C4.02192 1.74219 3.74236 1.62664 3.42176 1.69156L3.71944 3.16172C3.6226 3.18133 3.55138 3.16848 3.52844 3.16329C3.5082 3.15871 3.51147 3.15686 3.5511 3.17449C3.58873 3.19124 3.64105 3.2173 3.71689 3.25784C3.79214 3.29807 3.87904 3.34633 3.98655 3.40605L4.71502 2.09482ZM4.14574 3.27967C4.11194 3.16142 4.08465 3.06583 4.06253 2.98342C4.04024 2.90037 4.02672 2.8435 4.01895 2.80306C4.01075 2.76046 4.0133 2.7577 4.01317 2.77844C4.01302 2.80197 4.0094 2.87424 3.96834 2.96412L2.60396 2.34084C2.46804 2.63836 2.51719 2.93685 2.54593 3.08632C2.57936 3.26013 2.64096 3.4731 2.70348 3.69185L4.14574 3.27967ZM3.42176 1.69156C3.06095 1.76462 2.75693 2.00599 2.60396 2.34084L3.96834 2.96412C3.92178 3.06603 3.82925 3.13949 3.71944 3.16172L3.42176 1.69156ZM4.90462 18.0649C5.28068 16.749 5.43158 16.2516 5.6963 15.8537L4.4474 15.0228C4.02281 15.6611 3.81124 16.432 3.46236 17.6528L4.90462 18.0649ZM8.4742 12.7144C7.2484 13.0452 6.47447 13.2454 5.83002 13.6605L6.6423 14.9215C7.04409 14.6627 7.54371 14.5192 8.86502 14.1626L8.4742 12.7144ZM5.6963 15.8537C5.94411 15.4811 6.26617 15.1638 6.6423 14.9215L5.83002 13.6605C5.28029 14.0146 4.80959 14.4784 4.4474 15.0228L5.6963 15.8537ZM18.1182 11.257C18.5421 11.4925 18.8142 11.6445 19.0016 11.7723C19.1936 11.9033 19.1878 11.9393 19.1686 11.8968L20.5348 11.2777C20.3792 10.9342 20.0998 10.7056 19.8468 10.5331C19.589 10.3573 19.2446 10.1668 18.8467 9.94573L18.1182 11.257ZM18.8467 14.0543C19.2446 13.8332 19.589 13.6427 19.8468 13.4669C20.0998 13.2944 20.3792 13.0658 20.5348 12.7223L19.1686 12.1032C19.1878 12.0607 19.1936 12.0967 19.0016 12.2277C18.8142 12.3555 18.5421 12.5075 18.1182 12.743L18.8467 14.0543ZM19.1686 11.8968C19.1983 11.9624 19.1983 12.0376 19.1686 12.1032L20.5348 12.7223C20.7429 12.2632 20.7429 11.7368 20.5348 11.2777L19.1686 11.8968Z" fill="#18191A"/>
</svg>
