<svg width="24" height="24" viewBox="0 0 24 24" fill="none" xmlns="http://www.w3.org/2000/svg">
<path fill-rule="evenodd" clip-rule="evenodd" d="M12 2.75C11.0071 2.75 10.295 3.70707 10.5803 4.65803L10.6167 4.77925C10.824 5.47034 10.3563 6.18266 9.69047 6.46058C9.02479 6.73844 8.21464 6.55202 7.87265 5.9169L7.81221 5.80467C7.34153 4.93054 6.16129 4.75732 5.45928 5.45933C4.75727 6.16134 4.93049 7.34158 5.80462 7.81227L5.91681 7.87268C6.55195 8.21468 6.73838 9.02485 6.46052 9.69055C6.18259 10.3564 5.47024 10.8241 4.77914 10.6168L4.65797 10.5805C3.70704 10.2952 2.75 11.0072 2.75 12C2.75 12.9928 3.70704 13.7049 4.65797 13.4196L4.77916 13.3833C5.47026 13.1759 6.18261 13.6437 6.46054 14.3095C6.73841 14.9752 6.55199 15.7854 5.91684 16.1274L5.80461 16.1878C4.93048 16.6585 4.75726 17.8388 5.45927 18.5408C6.16128 19.2428 7.34152 19.0696 7.81221 18.1954L7.87267 18.0831C8.21467 17.448 9.02482 17.2616 9.69052 17.5394C10.3564 17.8174 10.8241 18.5297 10.6168 19.2208L10.5804 19.342C10.2951 20.293 11.0072 21.25 12 21.25C12.9928 21.25 13.7048 20.293 13.4196 19.342L13.3832 19.2208C13.1759 18.5297 13.6436 17.8173 14.3094 17.5394C14.9751 17.2615 15.7853 17.448 16.1273 18.0831L16.1878 18.1955C16.6585 19.0696 17.8388 19.2428 18.5408 18.5408C19.2428 17.8388 19.0696 16.6585 18.1954 16.1879L18.0831 16.1273C17.4479 15.7853 17.2615 14.9752 17.5394 14.3095C17.8173 13.6436 18.5296 13.1759 19.2207 13.3832L19.342 13.4196C20.293 13.7049 21.25 12.9928 21.25 12C21.25 11.0072 20.293 10.2952 19.342 10.5804L19.2207 10.6168C18.5296 10.8242 17.8173 10.3564 17.5394 9.69056C17.2615 9.02486 17.4479 8.21469 18.0831 7.87269L18.1954 7.81221C19.0695 7.34153 19.2427 6.16129 18.5407 5.45928C17.8387 4.75726 16.6585 4.93049 16.1878 5.80462L16.1273 5.91689C15.7853 6.55204 14.9751 6.73847 14.3094 6.46059C13.6436 6.18266 13.1758 5.47031 13.3832 4.7792L13.4195 4.65797C13.7048 3.70704 12.9928 2.75 12 2.75ZM9.14359 5.08905C8.56958 3.17567 10.0023 1.25 12 1.25C13.9976 1.25 15.4303 3.17564 14.8563 5.08899C14.8543 5.09577 14.8637 5.0997 14.8671 5.09347C15.8141 3.33465 18.1889 2.98611 19.6014 4.39862C21.0139 5.81113 20.6654 8.18586 18.9065 9.13292C18.9003 9.13627 18.9042 9.14572 18.911 9.14369C20.8244 8.56969 22.75 10.0024 22.75 12C22.75 13.9976 20.8244 15.4304 18.911 14.8563C18.9042 14.8543 18.9004 14.8638 18.9066 14.8671C20.6654 15.8142 21.0139 18.1889 19.6014 19.6015C18.1889 21.014 15.8142 20.6654 14.8671 18.9066C14.8638 18.9004 14.8543 18.9042 14.8563 18.911C15.4303 20.8244 13.9976 22.75 12 22.75C10.0024 22.75 8.56965 20.8244 9.14365 18.911C9.14568 18.9043 9.13625 18.9004 9.13291 18.9066C8.18585 20.6654 5.81112 21.0139 4.39861 19.6014C2.9861 18.1889 3.33464 15.8142 5.09346 14.8671C5.09967 14.8638 5.09574 14.8543 5.08899 14.8564C3.17564 15.4304 1.25 13.9976 1.25 12C1.25 10.0024 3.17564 8.56971 5.08899 9.14372C5.09574 9.14574 5.09967 9.13631 5.09347 9.13297C3.33465 8.18592 2.98611 5.81118 4.39862 4.39867C5.81113 2.98616 8.18586 3.3347 9.13292 5.09352C9.13624 5.09968 9.1456 5.09575 9.14359 5.08905ZM9.75 12C9.75 10.7574 10.7574 9.75 12 9.75C13.2426 9.75 14.25 10.7574 14.25 12C14.25 13.2426 13.2426 14.25 12 14.25C10.7574 14.25 9.75 13.2426 9.75 12ZM12 8.25C9.92893 8.25 8.25 9.92893 8.25 12C8.25 14.0711 9.92893 15.75 12 15.75C14.0711 15.75 15.75 14.0711 15.75 12C15.75 9.92893 14.0711 8.25 12 8.25Z" fill="#18191A"/>
</svg>
