<svg width="24" height="24" viewBox="0 0 24 24" fill="none" xmlns="http://www.w3.org/2000/svg">
<path fill-rule="evenodd" clip-rule="evenodd" d="M11.9998 3.25C12.4141 3.25 12.7498 3.58579 12.7498 4V10.701L19.4191 6.85048C19.7779 6.64337 20.2366 6.76628 20.4437 7.125C20.6508 7.48372 20.5279 7.94241 20.1691 8.14952L13.4999 12L20.1691 15.8505C20.5279 16.0576 20.6508 16.5163 20.4437 16.875C20.2366 17.2337 19.7779 17.3566 19.4191 17.1495L12.7498 13.299V20C12.7498 20.4142 12.4141 20.75 11.9998 20.75C11.5856 20.75 11.2498 20.4142 11.2498 20V13.2991L4.58069 17.1495C4.22197 17.3566 3.76328 17.2337 3.55617 16.875C3.34906 16.5163 3.47197 16.0576 3.83069 15.8505L10.4999 12L3.83069 8.14952C3.47197 7.94241 3.34906 7.48372 3.55617 7.125C3.76328 6.76628 4.22197 6.64337 4.58069 6.85048L11.2498 10.7009V4C11.2498 3.58579 11.5856 3.25 11.9998 3.25Z" fill="#18191A"/>
</svg>
