<svg width="24" height="24" viewBox="0 0 24 24" fill="none" xmlns="http://www.w3.org/2000/svg">
<path fill-rule="evenodd" clip-rule="evenodd" d="M11.7348 1.97333C13.2286 0.95756 15.25 2.02749 15.25 3.83392V20.166C15.25 21.9725 13.2286 23.0424 11.7348 22.0266L3.32903 16.3107C2.02848 15.4263 1.25 13.9555 1.25 12.3828V11.6172C1.25 10.0444 2.02848 8.57363 3.32903 7.68926L11.7348 1.97333ZM13.75 3.83392C13.75 3.23177 13.0762 2.87513 12.5783 3.21372L4.17249 8.92965C3.28264 9.53474 2.75 10.5411 2.75 11.6172V12.3828C2.75 13.4589 3.28264 14.4652 4.17249 15.0703L12.5783 20.7862C13.0762 21.1248 13.75 20.7682 13.75 20.166V3.83392Z" fill="#1D1E1F"/>
<path d="M19.5303 9.46967C19.2374 9.17678 18.7626 9.17678 18.4697 9.46967C18.1768 9.76256 18.1768 10.2374 18.4697 10.5303L19.5303 9.46967ZM22.4691 14.5297C22.7619 14.8226 23.2368 14.8226 23.5297 14.5297C23.8226 14.2368 23.8226 13.7619 23.5297 13.4691L22.4691 14.5297ZM18.4697 10.5303L22.4691 14.5297L23.5297 13.4691L19.5303 9.46967L18.4697 10.5303Z" fill="#1D1E1F"/>
<path d="M23.5298 10.5303C23.8227 10.2374 23.8227 9.76256 23.5298 9.46967C23.2369 9.17678 22.7621 9.17678 22.4692 9.46967L23.5298 10.5303ZM18.4698 13.4691C18.1769 13.7619 18.1769 14.2368 18.4698 14.5297C18.7627 14.8226 19.2376 14.8226 19.5305 14.5297L18.4698 13.4691ZM22.4692 9.46967L18.4698 13.4691L19.5305 14.5297L23.5298 10.5303L22.4692 9.46967Z" fill="#1D1E1F"/>
</svg>
