<svg width="24" height="24" viewBox="0 0 24 24" fill="none" xmlns="http://www.w3.org/2000/svg">
<path fill-rule="evenodd" clip-rule="evenodd" d="M15.25 3.83392C15.25 2.02749 13.2286 0.95756 11.7348 1.97333L3.32903 7.68926C2.02848 8.57363 1.25 10.0444 1.25 11.6172V12.3828C1.25 13.9555 2.02848 15.4263 3.32903 16.3107L11.7348 22.0266C13.2286 23.0424 15.25 21.9725 15.25 20.166V3.83392ZM12.5783 3.21372C13.0762 2.87513 13.75 3.23177 13.75 3.83392V20.166C13.75 20.7682 13.0762 21.1248 12.5783 20.7862L4.17249 15.0703C3.28264 14.4652 2.75 13.4589 2.75 12.3828V11.6172C2.75 10.5411 3.28264 9.53474 4.17249 8.92965L12.5783 3.21372ZM17 8.49997C17 8.49997 19.5 9.49997 19.5 12C19.5 14.5 17 15.5 17 15.5V8.49997Z" fill="#1D1E1F"/>
</svg>
