<svg width="24" height="24" viewBox="0 0 24 24" fill="none" xmlns="http://www.w3.org/2000/svg">
<path fill-rule="evenodd" clip-rule="evenodd" d="M15.25 3.83391C15.25 2.02749 13.2286 0.95756 11.7348 1.97333L3.32903 7.68926C2.02848 8.57363 1.25 10.0444 1.25 11.6172V12.3828C1.25 13.9555 2.02848 15.4263 3.32903 16.3107L11.7348 22.0266C13.2286 23.0424 15.25 21.9725 15.25 20.166V3.83391ZM12.5783 3.21372C13.0762 2.87513 13.75 3.23177 13.75 3.83391V20.166C13.75 20.7682 13.0762 21.1248 12.5783 20.7862L4.17249 15.0703C3.28264 14.4652 2.75 13.4589 2.75 12.3828V11.6172C2.75 10.5411 3.28264 9.53474 4.17249 8.92965L12.5783 3.21372ZM18 11.25C17.5858 11.25 17.25 11.5858 17.25 12C17.25 12.4142 17.5858 12.75 18 12.75H23C23.4142 12.75 23.75 12.4142 23.75 12C23.75 11.5858 23.4142 11.25 23 11.25H18Z" fill="#1D1E1F"/>
</svg>
