<svg width="24" height="24" viewBox="0 0 24 24" fill="none" xmlns="http://www.w3.org/2000/svg">
<path fill-rule="evenodd" clip-rule="evenodd" d="M15.25 3.83391C15.25 2.02749 13.2286 0.95756 11.7348 1.97333L3.32903 7.68926C2.02848 8.57363 1.25 10.0444 1.25 11.6172V12.3828C1.25 13.9555 2.02848 15.4263 3.32903 16.3107L11.7348 22.0266C13.2286 23.0424 15.25 21.9725 15.25 20.166V3.83391ZM12.5783 3.21372C13.0762 2.87513 13.75 3.23177 13.75 3.83391V20.166C13.75 20.7682 13.0762 21.1248 12.5783 20.7862L4.17249 15.0703C3.28264 14.4652 2.75 13.4589 2.75 12.3828V11.6172C2.75 10.5411 3.28264 9.53474 4.17249 8.92965L12.5783 3.21372ZM17.9026 7.01692C17.4264 6.80869 17.0997 6.74997 17 6.74997V5.24997C17.4003 5.24997 17.9486 5.39987 18.5036 5.64257C19.0811 5.89507 19.74 6.28014 20.3645 6.8182C21.6239 7.90316 22.75 9.62061 22.75 12.0845C22.75 14.5516 21.6206 16.2316 20.3519 17.2769C19.7242 17.7941 19.0631 18.1566 18.4856 18.3914C17.9269 18.6185 17.3869 18.75 17 18.75V17.25C17.1131 17.25 17.4481 17.1939 17.9207 17.0018C18.3744 16.8174 18.9008 16.5289 19.3981 16.1192C20.3794 15.3106 21.25 14.0328 21.25 12.0845C21.25 10.1328 20.3761 8.80804 19.3855 7.95463C18.885 7.52349 18.3564 7.21534 17.9026 7.01692ZM19.5 12C19.5 9.49997 17 8.99997 17 8.99997V15C17 15 19.5 14.5 19.5 12Z" fill="#1D1E1F"/>
</svg>
