<svg width="24" height="24" viewBox="0 0 24 24" fill="none" xmlns="http://www.w3.org/2000/svg">
<path d="M12.1565 21.4064L11.7348 22.0266L12.1565 21.4064ZM12.1565 2.59356L11.7348 1.97336L12.1565 2.59356ZM3.32903 16.3107L11.7348 22.0266L12.5783 20.7862L4.17249 15.0703L3.32903 16.3107ZM2.75 12.3828V11.6172H1.25V12.3828H2.75ZM1.46967 2.53033L5.93396 6.99462L6.99462 5.93396L2.53033 1.46967L1.46967 2.53033ZM5.93396 6.99462L13.9697 15.0303L15.0303 13.9697L6.99462 5.93396L5.93396 6.99462ZM13.9697 15.0303L21.4697 22.5303L22.5303 21.4697L15.0303 13.9697L13.9697 15.0303ZM13.75 3.83395V9.25H15.25V3.83395H13.75ZM4.17249 8.92968L6.88602 7.08448L6.04255 5.84409L3.32903 7.68929L4.17249 8.92968ZM10.011 4.95948L12.5783 3.21375L11.7348 1.97336L9.16755 3.71909L10.011 4.95948ZM13.75 14.5V20.1661H15.25V14.5H13.75ZM2.75 11.6172C2.75 10.5411 3.28265 9.53477 4.17249 8.92968L3.32903 7.68929C2.02848 8.57366 1.25 10.0444 1.25 11.6172H2.75ZM11.7348 22.0266C13.2286 23.0424 15.25 21.9725 15.25 20.1661H13.75C13.75 20.7682 13.0762 21.1248 12.5783 20.7862L11.7348 22.0266ZM15.25 3.83395C15.25 2.02752 13.2286 0.957592 11.7348 1.97336L12.5783 3.21375C13.0762 2.87516 13.75 3.23181 13.75 3.83395H15.25ZM4.17249 15.0703C3.28264 14.4652 2.75 13.4589 2.75 12.3828H1.25C1.25 13.9556 2.02848 15.4263 3.32903 16.3107L4.17249 15.0703Z" fill="#1D1E1F"/>
</svg>
