<svg width="24" height="24" viewBox="0 0 24 24" fill="none" xmlns="http://www.w3.org/2000/svg">
<path fill-rule="evenodd" clip-rule="evenodd" d="M11 2.25H10.9664H10.9664C9.59472 2.25 8.51928 2.24999 7.65494 2.32061C6.77479 2.39252 6.04768 2.54138 5.38955 2.87671C4.30762 3.42798 3.42798 4.30762 2.87671 5.38955C2.54138 6.04769 2.39252 6.7748 2.32061 7.65494C2.24999 8.51929 2.25 9.59472 2.25 10.9664V11V13V13.0336C2.25 14.4053 2.24999 15.4807 2.32061 16.3451C2.39252 17.2252 2.54138 17.9523 2.87671 18.6104C3.42798 19.6924 4.30762 20.572 5.38955 21.1233C6.04768 21.4586 6.77479 21.6075 7.65494 21.6794C8.51927 21.75 9.59469 21.75 10.9664 21.75H10.9664H11H13H13.0336H13.0336C14.4053 21.75 15.4807 21.75 16.3451 21.6794C17.2252 21.6075 17.9523 21.4586 18.6104 21.1233C19.6924 20.572 20.572 19.6924 21.1233 18.6104C21.4586 17.9523 21.6075 17.2252 21.6794 16.3451C21.75 15.4807 21.75 14.4053 21.75 13.0336V13.0336V13V11V10.9664V10.9664C21.75 9.59469 21.75 8.51927 21.6794 7.65494C21.6075 6.7748 21.4586 6.04769 21.1233 5.38955C20.572 4.30762 19.6924 3.42798 18.6104 2.87671C17.9523 2.54138 17.2252 2.39252 16.3451 2.32061C15.4807 2.24999 14.4053 2.25 13.0336 2.25H13.0336H13H11ZM6.07054 4.21322C6.48197 4.00359 6.9897 3.87996 7.77708 3.81563C8.57322 3.75058 9.58749 3.75 11 3.75H13C14.4125 3.75 15.4268 3.75058 16.2229 3.81563C17.0103 3.87996 17.518 4.00359 17.9295 4.21322C18.7291 4.62068 19.3793 5.27085 19.7868 6.07054C19.9964 6.48197 20.12 6.9897 20.1844 7.77708C20.2494 8.57322 20.25 9.58749 20.25 11V13C20.25 14.4125 20.2494 15.4268 20.1844 16.2229C20.12 17.0103 19.9964 17.518 19.7868 17.9295C19.3793 18.7291 18.7291 19.3793 17.9295 19.7868C17.518 19.9964 17.0103 20.12 16.2229 20.1844C15.4268 20.2494 14.4125 20.25 13 20.25H11C9.58749 20.25 8.57322 20.2494 7.77708 20.1844C6.9897 20.12 6.48197 19.9964 6.07054 19.7868C5.27085 19.3793 4.62068 18.7291 4.21322 17.9295C4.00359 17.518 3.87996 17.0103 3.81563 16.2229C3.75058 15.4268 3.75 14.4125 3.75 13V11C3.75 9.58749 3.75058 8.57322 3.81563 7.77708C3.87996 6.9897 4.00359 6.48197 4.21322 6.07054C4.62068 5.27085 5.27085 4.62068 6.07054 4.21322ZM15.9697 17.0303C16.2626 17.3232 16.7374 17.3232 17.0303 17.0303C17.3232 16.7374 17.3232 16.2626 17.0303 15.9697L12.75 11.6893V7C12.75 6.58579 12.4142 6.25 12 6.25C11.5858 6.25 11.25 6.58579 11.25 7V12C11.25 12.1989 11.329 12.3897 11.4697 12.5303L15.9697 17.0303Z" fill="#18191A"/>
</svg>
