<svg width="24" height="24" viewBox="0 0 24 24" fill="none" xmlns="http://www.w3.org/2000/svg">
<path fill-rule="evenodd" clip-rule="evenodd" d="M10.2 2.25H10.1667C8.93478 2.24999 7.96432 2.24999 7.18333 2.3138C6.38657 2.3789 5.7212 2.51413 5.11655 2.82222C4.1287 3.32555 3.32555 4.1287 2.82222 5.11655C2.51413 5.7212 2.3789 6.38657 2.3138 7.18333C2.24999 7.96432 2.24999 8.93478 2.25 10.1667V10.2V13.8V13.8333C2.24999 15.0652 2.24999 16.0357 2.3138 16.8167C2.3789 17.6134 2.51413 18.2788 2.82222 18.8835C3.32555 19.8713 4.1287 20.6744 5.11655 21.1778C5.7212 21.4859 6.38657 21.6211 7.18333 21.6862C7.96432 21.75 8.93477 21.75 10.1667 21.75H10.2H13.8H13.8333C15.0652 21.75 16.0357 21.75 16.8167 21.6862C17.6134 21.6211 18.2788 21.4859 18.8835 21.1778C19.8713 20.6744 20.6744 19.8713 21.1778 18.8835C21.4859 18.2788 21.6211 17.6134 21.6862 16.8167C21.75 16.0357 21.75 15.0652 21.75 13.8333V13.8V10.2V10.1667C21.75 8.93477 21.75 7.96431 21.6862 7.18333C21.6211 6.38657 21.4859 5.7212 21.1778 5.11655C20.6744 4.1287 19.8713 3.32555 18.8835 2.82222C18.2788 2.51413 17.6134 2.3789 16.8167 2.3138C16.0357 2.24999 15.0652 2.24999 13.8333 2.25H13.8H10.2ZM5.79754 4.15873C6.15549 3.97634 6.60148 3.86634 7.30548 3.80882C8.01824 3.75058 8.92751 3.75 10.2 3.75H13.8C15.0725 3.75 15.9818 3.75058 16.6945 3.80882C17.3985 3.86634 17.8445 3.97634 18.2025 4.15873C18.9081 4.51825 19.4817 5.09193 19.8413 5.79754C20.0237 6.15549 20.1337 6.60148 20.1912 7.30548C20.2494 8.01824 20.25 8.92751 20.25 10.2V13.8C20.25 15.0725 20.2494 15.9818 20.1912 16.6945C20.1337 17.3985 20.0237 17.8445 19.8413 18.2025C19.4817 18.9081 18.9081 19.4817 18.2025 19.8413C17.8445 20.0237 17.3985 20.1337 16.6945 20.1912C15.9818 20.2494 15.0725 20.25 13.8 20.25H10.2C8.92751 20.25 8.01824 20.2494 7.30548 20.1912C6.60148 20.1337 6.15549 20.0237 5.79754 19.8413C5.09193 19.4817 4.51825 18.9081 4.15873 18.2025C3.97634 17.8445 3.86634 17.3985 3.80882 16.6945C3.75058 15.9818 3.75 15.0725 3.75 13.8V10.2C3.75 8.92751 3.75058 8.01824 3.80882 7.30548C3.86634 6.60148 3.97634 6.15549 4.15873 5.79754C4.51825 5.09193 5.09193 4.51825 5.79754 4.15873ZM10.6253 14.2822V14.4309H12.692V14.2822C12.6961 13.878 12.7479 13.5386 12.8472 13.2641C12.9506 12.9857 13.1078 12.7436 13.3189 12.5377C13.534 12.3317 13.8092 12.1335 14.1443 11.9428C14.525 11.7331 14.8539 11.4948 15.1311 11.2278C15.4083 10.9609 15.6214 10.6559 15.7704 10.3127C15.9235 9.96949 16 9.58055 16 9.14585C16 8.50143 15.8304 7.94471 15.4911 7.47569C15.1559 7.00286 14.6863 6.6387 14.0822 6.38322C13.4823 6.12774 12.7872 6 11.9969 6C11.2728 6 10.6108 6.12202 10.0109 6.36606C9.41505 6.6101 8.93509 6.97617 8.57099 7.46425C8.21102 7.95234 8.02069 8.55863 8 9.28313H10.2095C10.2302 8.92469 10.3253 8.62917 10.495 8.39657C10.6687 8.16015 10.886 7.98475 11.1466 7.87035C11.4114 7.75214 11.6907 7.69304 11.9845 7.69304C12.3031 7.69304 12.5906 7.75405 12.8472 7.87607C13.1078 7.99809 13.3147 8.16969 13.4678 8.39085C13.6209 8.61201 13.6974 8.87321 13.6974 9.17445C13.6974 9.44137 13.6395 9.68351 13.5237 9.90086C13.4078 10.1144 13.2485 10.3089 13.0458 10.4843C12.8472 10.6559 12.6217 10.8141 12.3693 10.959C12.001 11.1687 11.6886 11.3994 11.4321 11.6511C11.1756 11.899 10.977 12.2269 10.8363 12.6349C10.6998 13.0429 10.6294 13.592 10.6253 14.2822ZM10.7432 17.6339C11.0122 17.878 11.3328 18 11.7052 18C11.9535 18 12.1789 17.9447 12.3817 17.8341C12.5886 17.7197 12.7541 17.5672 12.8782 17.3765C13.0065 17.1859 13.0706 16.9743 13.0706 16.7417C13.0706 16.3985 12.9341 16.1049 12.661 15.8608C12.392 15.6168 12.0734 15.4948 11.7052 15.4948C11.3328 15.4948 11.0122 15.6168 10.7432 15.8608C10.4743 16.1049 10.3398 16.3985 10.3398 16.7417C10.3398 17.0925 10.4743 17.3899 10.7432 17.6339Z" fill="#18191A"/>
</svg>
