<svg width="24" height="24" viewBox="0 0 24 24" fill="none" xmlns="http://www.w3.org/2000/svg">
<path fill-rule="evenodd" clip-rule="evenodd" d="M10.2 2.25H10.1667H10.1667C8.93478 2.24999 7.96432 2.24999 7.18334 2.3138C6.38657 2.3789 5.7212 2.51413 5.11655 2.82222C4.1287 3.32555 3.32555 4.1287 2.82222 5.11655C2.51413 5.7212 2.3789 6.38657 2.3138 7.18334C2.24999 7.96432 2.24999 8.93478 2.25 10.1667V10.1667V10.2V13.8V13.8333C2.24999 15.0652 2.24999 16.0357 2.3138 16.8167C2.3789 17.6134 2.51413 18.2788 2.82222 18.8835C3.32555 19.8713 4.1287 20.6744 5.11655 21.1778C5.7212 21.4859 6.38657 21.6211 7.18334 21.6862C7.96432 21.75 8.93477 21.75 10.1667 21.75H10.2H13.8H13.8333C15.0652 21.75 16.0357 21.75 16.8167 21.6862C17.6134 21.6211 18.2788 21.4859 18.8835 21.1778C19.8713 20.6744 20.6744 19.8713 21.1778 18.8835C21.4859 18.2788 21.6211 17.6134 21.6862 16.8167C21.75 16.0357 21.75 15.0652 21.75 13.8333V13.8V10.2V10.1667C21.75 8.93477 21.75 7.96432 21.6862 7.18334C21.6211 6.38657 21.4859 5.7212 21.1778 5.11655C20.6744 4.1287 19.8713 3.32555 18.8835 2.82222C18.2788 2.51413 17.6134 2.3789 16.8167 2.3138C16.0357 2.24999 15.0652 2.24999 13.8333 2.25H13.8H10.2ZM5.79754 4.15873C6.15549 3.97634 6.60148 3.86634 7.30548 3.80882C8.01824 3.75058 8.92751 3.75 10.2 3.75H13.8C15.0725 3.75 15.9818 3.75058 16.6945 3.80882C17.3985 3.86634 17.8445 3.97634 18.2025 4.15873C18.9081 4.51825 19.4817 5.09193 19.8413 5.79754C20.0237 6.15549 20.1337 6.60148 20.1912 7.30548C20.2494 8.01824 20.25 8.92751 20.25 10.2V13.8C20.25 15.0725 20.2494 15.9818 20.1912 16.6945C20.1337 17.3985 20.0237 17.8445 19.8413 18.2025C19.4817 18.9081 18.9081 19.4817 18.2025 19.8413C17.8445 20.0237 17.3985 20.1337 16.6945 20.1912C15.9818 20.2494 15.0725 20.25 13.8 20.25H10.2C8.92751 20.25 8.01824 20.2494 7.30548 20.1912C6.60148 20.1337 6.15549 20.0237 5.79754 19.8413C5.09193 19.4817 4.51825 18.9081 4.15873 18.2025C3.97634 17.8445 3.86634 17.3985 3.80882 16.6945C3.75058 15.9818 3.75 15.0725 3.75 13.8V10.2C3.75 8.92751 3.75058 8.01824 3.80882 7.30548C3.86634 6.60148 3.97634 6.15549 4.15873 5.79754C4.51825 5.09193 5.09193 4.51825 5.79754 4.15873ZM12 7.25C11.5858 7.25 11.25 7.58579 11.25 8V14.1893L8.53033 11.4697C8.23744 11.1768 7.76256 11.1768 7.46967 11.4697C7.17678 11.7626 7.17678 12.2374 7.46967 12.5303L11.469 16.5297L11.4703 16.5309L12 17.0607L12.5303 16.5303L16.5303 12.5303C16.8232 12.2374 16.8232 11.7626 16.5303 11.4697C16.2374 11.1768 15.7626 11.1768 15.4697 11.4697L12.75 14.1893V8C12.75 7.58579 12.4142 7.25 12 7.25Z" fill="#18191A"/>
</svg>
