<svg width="24" height="24" viewBox="0 0 24 24" fill="none" xmlns="http://www.w3.org/2000/svg">
<path fill-rule="evenodd" clip-rule="evenodd" d="M10.9664 2.25H11H13H13.0336C14.4053 2.25 15.4807 2.24999 16.3451 2.32061C17.2252 2.39252 17.9523 2.54138 18.6104 2.87671C19.6924 3.42798 20.572 4.30762 21.1233 5.38955C21.4586 6.04768 21.6075 6.77479 21.6794 7.65494C21.75 8.51926 21.75 9.59466 21.75 10.9663V10.9664V10.9664V11V13V13.0336V13.0336V13.0337C21.75 14.4053 21.75 15.4807 21.6794 16.3451C21.6075 17.2252 21.4586 17.9523 21.1233 18.6104C20.572 19.6924 19.6924 20.572 18.6104 21.1233C17.9523 21.4586 17.2252 21.6075 16.3451 21.6794C15.4807 21.75 14.4053 21.75 13.0337 21.75H13.0336H13.0336H13H11H10.9664H10.9664H10.9663C9.59466 21.75 8.51926 21.75 7.65494 21.6794C6.77479 21.6075 6.04768 21.4586 5.38955 21.1233C4.30762 20.572 3.42798 19.6924 2.87671 18.6104C2.54138 17.9523 2.39252 17.2252 2.32061 16.3451C2.24999 15.4807 2.25 14.4053 2.25 13.0336V13V11V10.9664C2.25 9.59472 2.24999 8.51929 2.32061 7.65494C2.39252 6.77479 2.54138 6.04768 2.87671 5.38955C3.42798 4.30762 4.30762 3.42798 5.38955 2.87671C6.04768 2.54138 6.77479 2.39252 7.65494 2.32061C8.51929 2.24999 9.59472 2.25 10.9664 2.25ZM7.77708 3.81563C6.9897 3.87996 6.48197 4.00359 6.07054 4.21322C5.27085 4.62068 4.62068 5.27085 4.21322 6.07054C4.00359 6.48197 3.87996 6.9897 3.81563 7.77708C3.75058 8.57322 3.75 9.58749 3.75 11V13C3.75 14.4125 3.75058 15.4268 3.81563 16.2229C3.87996 17.0103 4.00359 17.518 4.21322 17.9295C4.62068 18.7291 5.27085 19.3793 6.07054 19.7868C6.48197 19.9964 6.9897 20.12 7.77708 20.1844C8.57322 20.2494 9.58749 20.25 11 20.25H13C14.4125 20.25 15.4268 20.2494 16.2229 20.1844C17.0103 20.12 17.518 19.9964 17.9295 19.7868C18.7291 19.3793 19.3793 18.7291 19.7868 17.9295C19.9964 17.518 20.12 17.0103 20.1844 16.2229C20.2494 15.4268 20.25 14.4125 20.25 13V11C20.25 9.58749 20.2494 8.57322 20.1844 7.77708C20.12 6.9897 19.9964 6.48197 19.7868 6.07054C19.3793 5.27085 18.7291 4.62068 17.9295 4.21322C17.518 4.00359 17.0103 3.87996 16.2229 3.81563C15.4268 3.75058 14.4125 3.75 13 3.75H11C9.58749 3.75 8.57322 3.75058 7.77708 3.81563ZM12.5584 14.0034L13.3247 7.48975C13.418 6.69677 12.7984 6.00002 12 6.00002C11.2016 6.00002 10.582 6.69677 10.6753 7.48975L11.4416 14.0034C11.4749 14.2866 11.7149 14.5 12 14.5C12.2851 14.5 12.5251 14.2866 12.5584 14.0034ZM12 18C12.5523 18 13 17.5523 13 17C13 16.4477 12.5523 16 12 16C11.4477 16 11 16.4477 11 17C11 17.5523 11.4477 18 12 18Z" fill="#18191A"/>
</svg>
