<svg width="24" height="24" viewBox="0 0 24 24" fill="none" xmlns="http://www.w3.org/2000/svg">
<path fill-rule="evenodd" clip-rule="evenodd" d="M10.835 1.86678C11.5734 1.52129 12.4271 1.52129 13.1656 1.86678C13.6751 2.10513 14.0398 2.55372 14.3645 3.06239C14.6899 3.57229 15.0474 4.26452 15.4919 5.12487L15.5097 5.1594L15.901 5.91692C16.0894 6.28166 16.1203 6.32569 16.1477 6.35425C16.1877 6.39589 16.2352 6.42946 16.2878 6.45315C16.3239 6.46939 16.3757 6.48378 16.7825 6.53922L17.0248 6.57225L17.0638 6.57756C18.1526 6.72596 19.0213 6.84436 19.6761 6.99435C20.3206 7.14196 20.9197 7.35142 21.3276 7.79317C21.9098 8.42368 22.1643 9.28984 22.0156 10.1351C21.9115 10.7273 21.5209 11.2275 21.0587 11.7002C20.589 12.1806 19.9225 12.75 19.087 13.4638L19.057 13.4894L18.9784 13.5565C18.5899 13.8884 18.5457 13.9403 18.5223 13.9814C18.4879 14.042 18.468 14.1097 18.4642 14.1793C18.4616 14.2266 18.4707 14.2941 18.618 14.7833L18.759 15.2517L18.7703 15.2894C19.1154 16.4358 19.3892 17.3453 19.5356 18.0518C19.6783 18.7403 19.7434 19.4129 19.4888 19.9859C19.1292 20.7947 18.4023 21.3811 17.5356 21.5613C16.9218 21.6889 16.2782 21.4828 15.6355 21.1976C14.976 20.9049 14.1451 20.4448 13.0977 19.8649L13.0632 19.8458L12.567 19.5711C12.1852 19.3596 12.1315 19.3392 12.0907 19.3308C12.031 19.3186 11.9695 19.3186 11.9099 19.3308C11.8691 19.3392 11.8154 19.3596 11.4335 19.5711L10.9374 19.8458L10.9029 19.8649C9.85551 20.4448 9.02458 20.9049 8.3651 21.1976C7.7224 21.4828 7.07883 21.6889 6.46498 21.5613C5.59831 21.3811 4.87136 20.7947 4.5118 19.9859C4.25713 19.4129 4.32232 18.7403 4.465 18.0518C4.61141 17.3453 4.88517 16.4358 5.23025 15.2894L5.24163 15.2517L5.38259 14.7833C5.52985 14.2941 5.539 14.2266 5.53642 14.1793C5.53262 14.1097 5.51272 14.042 5.47828 13.9814C5.4549 13.9403 5.41066 13.8884 5.0222 13.5565L4.94357 13.4894L4.91363 13.4638C4.07811 12.75 3.41154 12.1806 2.94189 11.7002C2.47971 11.2275 2.08909 10.7273 1.98495 10.1351C1.83631 9.28984 2.09078 8.42368 2.67299 7.79317C3.08089 7.35142 3.68001 7.14196 4.32445 6.99435C4.9793 6.84436 5.84795 6.72597 6.93675 6.57757L6.97578 6.57225L7.21808 6.53922C7.62485 6.48378 7.67669 6.46939 7.71277 6.45315C7.76537 6.42946 7.81293 6.39589 7.85285 6.35425C7.88024 6.32569 7.91115 6.28166 8.09956 5.91692L8.49088 5.1594L8.50872 5.12487C8.95315 4.26452 9.31073 3.57229 9.63613 3.06239C9.96075 2.55372 10.3255 2.10513 10.835 1.86678ZM12.53 3.22545C12.1943 3.06841 11.8063 3.06841 11.4706 3.22545C11.3632 3.27569 11.1898 3.41621 10.9006 3.86932C10.6166 4.3144 10.29 4.94493 9.82357 5.84784L9.43225 6.60536C9.42177 6.62565 9.41134 6.64593 9.40092 6.66616C9.26548 6.9294 9.13345 7.186 8.93558 7.39238C8.76257 7.57281 8.55649 7.71831 8.32854 7.82092C8.06783 7.9383 7.78184 7.97681 7.48845 8.01631C7.4659 8.01935 7.4433 8.02239 7.42066 8.02548L7.17836 8.0585C6.04168 8.21344 5.24043 8.32339 4.65935 8.45649C4.06004 8.59376 3.85452 8.72468 3.77502 8.81077C3.51039 9.09737 3.39472 9.49108 3.46228 9.87527C3.48257 9.99068 3.58462 10.212 4.01444 10.6516C4.43119 11.0778 5.04563 11.6037 5.91788 12.3489L5.99651 12.416C6.0183 12.4346 6.04008 12.4532 6.06182 12.4717C6.34031 12.7086 6.61121 12.9392 6.78227 13.24C6.93151 13.5025 7.01775 13.7961 7.03419 14.0976C7.05304 14.4432 6.94985 14.7836 6.84377 15.1336C6.83549 15.1609 6.82719 15.1882 6.81893 15.2157L6.67797 15.684C6.319 16.8766 6.06512 17.7225 5.93379 18.3562C5.79713 19.0156 5.8357 19.2713 5.88248 19.3766C6.04592 19.7442 6.37635 20.0108 6.77029 20.0927C6.88307 20.1161 7.14111 20.0997 7.75668 19.8265C8.34824 19.564 9.12122 19.1368 10.2108 18.5335L10.7069 18.2588C10.7282 18.247 10.7495 18.2352 10.7706 18.2234C11.0452 18.0708 11.3127 17.9221 11.6085 17.8614C11.867 17.8084 12.1336 17.8084 12.392 17.8614C12.6878 17.9221 12.9554 18.0708 13.23 18.2234C13.2511 18.2352 13.2724 18.247 13.2937 18.2588L13.7898 18.5335C14.8794 19.1368 15.6523 19.564 16.2439 19.8265C16.8595 20.0997 17.1175 20.1161 17.2303 20.0927C17.6242 20.0108 17.9547 19.7442 18.1181 19.3766C18.1649 19.2713 18.2034 19.0156 18.0668 18.3562C17.9355 17.7225 17.6816 16.8766 17.3226 15.684L17.1816 15.2157C17.1734 15.1882 17.1651 15.1609 17.1568 15.1336C17.0507 14.7836 16.9475 14.4432 16.9664 14.0976C16.9828 13.7961 17.0691 13.5025 17.2183 13.24C17.3894 12.9392 17.6603 12.7086 17.9387 12.4717C17.9605 12.4532 17.9823 12.4347 18.0041 12.416L18.0827 12.3489C18.9549 11.6037 19.5694 11.0778 19.9861 10.6516C20.416 10.212 20.518 9.99068 20.5383 9.87527C20.6059 9.49108 20.4902 9.09737 20.2256 8.81077C20.1461 8.72468 19.9405 8.59376 19.3412 8.45649C18.7602 8.32339 17.9589 8.21344 16.8222 8.0585L16.5799 8.02548C16.5573 8.02239 16.5347 8.01935 16.5121 8.01631C16.2187 7.97681 15.9327 7.9383 15.672 7.82092C15.4441 7.71831 15.238 7.57281 15.065 7.39238C14.8671 7.186 14.7351 6.9294 14.5997 6.66616C14.5892 6.64593 14.5788 6.62565 14.5683 6.60536L14.177 5.84784C13.7106 4.94493 13.384 4.3144 13.1 3.86932C12.8108 3.41621 12.6374 3.27569 12.53 3.22545Z" fill="#18191A"/>
</svg>
