<svg width="24" height="24" viewBox="0 0 24 24" fill="none" xmlns="http://www.w3.org/2000/svg">
<path fill-rule="evenodd" clip-rule="evenodd" d="M6.6 2.25H6.62891H6.62894C7.02429 2.24999 7.36535 2.24998 7.64627 2.27293C7.94278 2.29715 8.2377 2.35064 8.52148 2.49524C8.94484 2.71095 9.28905 3.05516 9.50477 3.47852C9.64936 3.76231 9.70285 4.05722 9.72707 4.35373C9.75003 4.63466 9.75002 4.97573 9.75 5.37109L9.75 5.4V18.6L9.75 18.6289C9.75002 19.0243 9.75003 19.3653 9.72707 19.6463C9.70285 19.9428 9.64936 20.2377 9.50477 20.5215C9.28905 20.9448 8.94484 21.2891 8.52148 21.5048C8.2377 21.6494 7.94278 21.7028 7.64627 21.7271C7.36537 21.75 7.02434 21.75 6.62902 21.75H6.62893H6.6H6.4H6.37108H6.37098C5.97567 21.75 5.63463 21.75 5.35373 21.7271C5.05722 21.7028 4.76231 21.6494 4.47852 21.5048C4.05516 21.2891 3.71095 20.9448 3.49524 20.5215C3.35064 20.2377 3.29715 19.9428 3.27293 19.6463C3.24998 19.3654 3.24999 19.0243 3.25 18.6289V18.6289V18.6V5.4V5.37108V5.37106C3.24999 4.97571 3.24998 4.63465 3.27293 4.35373C3.29715 4.05722 3.35064 3.76231 3.49524 3.47852C3.71095 3.05516 4.05516 2.71095 4.47852 2.49524C4.76231 2.35064 5.05722 2.29715 5.35373 2.27293C5.63465 2.24998 5.97571 2.24999 6.37106 2.25H6.37109H6.4H6.6ZM7.84049 3.83175C7.80341 3.81285 7.72787 3.78459 7.52412 3.76795C7.31162 3.75058 7.03242 3.75 6.6 3.75H6.4C5.96759 3.75 5.68838 3.75058 5.47588 3.76795C5.27213 3.78459 5.19659 3.81285 5.15951 3.83175C5.01839 3.90365 4.90365 4.01839 4.83175 4.15951C4.81285 4.19659 4.78459 4.27213 4.76795 4.47588C4.75058 4.68838 4.75 4.96759 4.75 5.4V18.6C4.75 19.0324 4.75058 19.3116 4.76795 19.5241C4.78459 19.7279 4.81285 19.8034 4.83175 19.8405C4.90365 19.9816 5.01839 20.0964 5.15951 20.1683C5.19659 20.1872 5.27213 20.2154 5.47588 20.2321C5.68838 20.2494 5.96759 20.25 6.4 20.25H6.6C7.03242 20.25 7.31162 20.2494 7.52412 20.2321C7.72787 20.2154 7.80341 20.1872 7.84049 20.1683C7.98162 20.0964 8.09635 19.9816 8.16826 19.8405C8.18715 19.8034 8.21541 19.7279 8.23206 19.5241C8.24942 19.3116 8.25 19.0324 8.25 18.6V5.4C8.25 4.96759 8.24942 4.68838 8.23206 4.47588C8.21541 4.27213 8.18715 4.19659 8.16826 4.15951C8.09635 4.01839 7.98162 3.90365 7.84049 3.83175ZM17.6 2.25H17.6289H17.6289C18.0243 2.24999 18.3654 2.24998 18.6463 2.27293C18.9428 2.29715 19.2377 2.35064 19.5215 2.49524C19.9448 2.71095 20.2891 3.05516 20.5048 3.47852C20.6494 3.76231 20.7028 4.05722 20.7271 4.35373C20.75 4.63466 20.75 4.97573 20.75 5.37109V5.4V18.6V18.6289C20.75 19.0243 20.75 19.3653 20.7271 19.6463C20.7028 19.9428 20.6494 20.2377 20.5048 20.5215C20.2891 20.9448 19.9448 21.2891 19.5215 21.5048C19.2377 21.6494 18.9428 21.7028 18.6463 21.7271C18.3654 21.75 18.0243 21.75 17.629 21.75H17.6289H17.6H17.4H17.3711H17.371C16.9757 21.75 16.6346 21.75 16.3537 21.7271C16.0572 21.7028 15.7623 21.6494 15.4785 21.5048C15.0552 21.2891 14.711 20.9448 14.4952 20.5215C14.3506 20.2377 14.2972 19.9428 14.2729 19.6463C14.25 19.3653 14.25 19.0243 14.25 18.6289L14.25 18.6V5.4L14.25 5.3711C14.25 4.97573 14.25 4.63466 14.2729 4.35373C14.2972 4.05722 14.3506 3.76231 14.4952 3.47852C14.711 3.05516 15.0552 2.71095 15.4785 2.49524C15.7623 2.35064 16.0572 2.29715 16.3537 2.27293C16.6347 2.24998 16.9757 2.24999 17.3711 2.25H17.3711H17.4H17.6ZM18.8405 3.83175C18.8034 3.81285 18.7279 3.78459 18.5241 3.76795C18.3116 3.75058 18.0324 3.75 17.6 3.75H17.4C16.9676 3.75 16.6884 3.75058 16.4759 3.76795C16.2721 3.78459 16.1966 3.81285 16.1595 3.83175C16.0184 3.90365 15.9037 4.01839 15.8317 4.15951C15.8129 4.19659 15.7846 4.27213 15.7679 4.47588C15.7506 4.68838 15.75 4.96759 15.75 5.4V18.6C15.75 19.0324 15.7506 19.3116 15.7679 19.5241C15.7846 19.7279 15.8129 19.8034 15.8317 19.8405C15.9037 19.9816 16.0184 20.0964 16.1595 20.1683C16.1966 20.1872 16.2721 20.2154 16.4759 20.2321C16.6884 20.2494 16.9676 20.25 17.4 20.25H17.6C18.0324 20.25 18.3116 20.2494 18.5241 20.2321C18.7279 20.2154 18.8034 20.1872 18.8405 20.1683C18.9816 20.0964 19.0964 19.9816 19.1683 19.8405C19.1872 19.8034 19.2154 19.7279 19.2321 19.5241C19.2494 19.3116 19.25 19.0324 19.25 18.6V5.4C19.25 4.96759 19.2494 4.68838 19.2321 4.47588C19.2154 4.27213 19.1872 4.19659 19.1683 4.15951C19.0964 4.01839 18.9816 3.90365 18.8405 3.83175Z" fill="#1D1E1F"/>
</svg>
