<svg width="24" height="24" viewBox="0 0 24 24" fill="none" xmlns="http://www.w3.org/2000/svg">
<path fill-rule="evenodd" clip-rule="evenodd" d="M9.2 3.25H9.16669C7.93478 3.24999 6.96432 3.24999 6.18334 3.3138C5.38657 3.3789 4.7212 3.51413 4.11655 3.82222C3.1287 4.32555 2.32555 5.1287 1.82222 6.11655C1.51413 6.7212 1.3789 7.38657 1.3138 8.18333C1.24999 8.96432 1.24999 9.93478 1.25 11.1667V11.1667V11.2V12.8V12.8333C1.24999 14.0652 1.24999 15.0357 1.3138 15.8167C1.3789 16.6134 1.51413 17.2788 1.82222 17.8835C2.32555 18.8713 3.1287 19.6744 4.11655 20.1778C4.7212 20.4859 5.38657 20.6211 6.18334 20.6862C6.96432 20.75 7.93477 20.75 9.16667 20.75H9.2H14.8H14.8333C16.0652 20.75 17.0357 20.75 17.8167 20.6862C18.6134 20.6211 19.2788 20.4859 19.8835 20.1778C20.8713 19.6744 21.6744 18.8713 22.1778 17.8835C22.4859 17.2788 22.6211 16.6134 22.6862 15.8167C22.75 15.0357 22.75 14.0652 22.75 12.8333V12.8V11.2V11.1667C22.75 9.93477 22.75 8.96432 22.6862 8.18334C22.6211 7.38657 22.4859 6.7212 22.1778 6.11655C21.6744 5.1287 20.8713 4.32555 19.8835 3.82222C19.2788 3.51413 18.6134 3.3789 17.8167 3.3138C17.0357 3.24999 16.0652 3.24999 14.8333 3.25H14.8H9.2ZM4.79754 5.15873C5.15549 4.97634 5.60148 4.86634 6.30548 4.80882C7.01824 4.75058 7.92751 4.75 9.2 4.75H14.8C16.0725 4.75 16.9818 4.75058 17.6945 4.80882C18.3985 4.86634 18.8445 4.97634 19.2025 5.15873C19.9081 5.51825 20.4818 6.09193 20.8413 6.79754C21.0237 7.15549 21.1337 7.60148 21.1912 8.30548C21.2494 9.01824 21.25 9.92751 21.25 11.2V12.8C21.25 14.0725 21.2494 14.9818 21.1912 15.6945C21.1337 16.3985 21.0237 16.8445 20.8413 17.2025C20.4818 17.9081 19.9081 18.4817 19.2025 18.8413C18.8445 19.0237 18.3985 19.1337 17.6945 19.1912C16.9818 19.2494 16.0725 19.25 14.8 19.25H9.2C7.92751 19.25 7.01824 19.2494 6.30548 19.1912C5.60148 19.1337 5.15549 19.0237 4.79754 18.8413C4.09193 18.4817 3.51825 17.9081 3.15873 17.2025C2.97634 16.8445 2.86634 16.3985 2.80882 15.6945C2.75058 14.9818 2.75 14.0725 2.75 12.8V11.2C2.75 9.92751 2.75058 9.01824 2.80882 8.30548C2.86634 7.60148 2.97634 7.15549 3.15873 6.79754C3.51825 6.09193 4.09193 5.51825 4.79754 5.15873ZM13.75 12C13.75 12.4142 13.4142 12.75 13 12.75H5C4.58579 12.75 4.25 12.4142 4.25 12C4.25 11.5858 4.58579 11.25 5 11.25H13C13.4142 11.25 13.75 11.5858 13.75 12ZM10.25 16C10.25 15.5858 10.5858 15.25 11 15.25L19 15.25C19.4142 15.25 19.75 15.5858 19.75 16C19.75 16.4142 19.4142 16.75 19 16.75H11C10.5858 16.75 10.25 16.4142 10.25 16ZM5 15.25C4.58579 15.25 4.25 15.5858 4.25 16C4.25 16.4142 4.58579 16.75 5 16.75H7C7.41421 16.75 7.75 16.4142 7.75 16C7.75 15.5858 7.41421 15.25 7 15.25H5ZM19.75 12C19.75 12.4142 19.4142 12.75 19 12.75H17C16.5858 12.75 16.25 12.4142 16.25 12C16.25 11.5858 16.5858 11.25 17 11.25H19C19.4142 11.25 19.75 11.5858 19.75 12Z" fill="#1D1E1F"/>
</svg>
