<svg width="24" height="24" viewBox="0 0 24 24" fill="none" xmlns="http://www.w3.org/2000/svg">
<path fill-rule="evenodd" clip-rule="evenodd" d="M7.8 20.25C6.94755 20.25 6.35331 20.2494 5.89068 20.2116C5.4368 20.1745 5.17604 20.1054 4.97852 20.0048C4.55516 19.789 4.21095 19.4448 3.99524 19.0215C3.8946 18.824 3.82547 18.5632 3.78838 18.1093C3.75058 17.6467 3.75 17.0525 3.75 16.2V7.8C3.75 6.94755 3.75058 6.35331 3.78838 5.89068C3.82547 5.4368 3.8946 5.17604 3.99524 4.97852C4.21095 4.55516 4.55516 4.21095 4.97852 3.99524C5.17604 3.8946 5.4368 3.82546 5.89068 3.78838C6.35331 3.75058 6.94755 3.75 7.8 3.75H13C14.2426 3.75 15.25 4.75736 15.25 6V6.5C15.25 6.91421 15.5858 7.25 16 7.25C16.4142 7.25 16.75 6.91421 16.75 6.5V6C16.75 3.92893 15.0711 2.25 13 2.25H7.8H7.76788C6.95505 2.24999 6.29944 2.24999 5.76853 2.29336C5.2219 2.33803 4.74175 2.43238 4.29754 2.65873C3.59193 3.01825 3.01825 3.59193 2.65873 4.29753C2.43239 4.74175 2.33803 5.2219 2.29336 5.76853C2.24999 6.29945 2.24999 6.95507 2.25 7.76793V7.8V16.2V16.2321C2.24999 17.0449 2.24999 17.7006 2.29336 18.2315C2.33803 18.7781 2.43239 19.2582 2.65873 19.7025C3.01825 20.4081 3.59193 20.9817 4.29754 21.3413C4.74175 21.5676 5.2219 21.662 5.76853 21.7066C6.29944 21.75 6.95506 21.75 7.7679 21.75H7.8H10.5C10.9142 21.75 11.25 21.4142 11.25 21C11.25 20.5858 10.9142 20.25 10.5 20.25H7.8ZM21.5333 10.5274C21.8245 10.2329 21.8219 9.75802 21.5274 9.46675C21.2329 9.17548 20.758 9.1781 20.4667 9.47261L14.0425 15.9682L11.497 13.7161C11.1867 13.4416 10.7127 13.4706 10.4383 13.7808C10.1638 14.091 10.1928 14.565 10.503 14.8395L13.58 17.5617C13.8781 17.8255 14.3303 17.8104 14.6102 17.5274L21.5333 10.5274Z" fill="#18191A"/>
</svg>
