<svg width="24" height="24" viewBox="0 0 24 24" fill="none" xmlns="http://www.w3.org/2000/svg">
<path fill-rule="evenodd" clip-rule="evenodd" d="M12 1.25C12.4142 1.25 12.75 1.58579 12.75 2V4C12.75 4.41421 12.4142 4.75 12 4.75C11.5858 4.75 11.25 4.41421 11.25 4V2C11.25 1.58579 11.5858 1.25 12 1.25ZM12 19.25C12.4142 19.25 12.75 19.5858 12.75 20V22C12.75 22.4142 12.4142 22.75 12 22.75C11.5858 22.75 11.25 22.4142 11.25 22V20C11.25 19.5858 11.5858 19.25 12 19.25ZM12 7.75C9.65279 7.75 7.75 9.65279 7.75 12C7.75 14.3472 9.65279 16.25 12 16.25C14.3472 16.25 16.25 14.3472 16.25 12C16.25 9.65279 14.3472 7.75 12 7.75ZM6.25 12C6.25 8.82436 8.82436 6.25 12 6.25C15.1756 6.25 17.75 8.82436 17.75 12C17.75 15.1756 15.1756 17.75 12 17.75C8.82436 17.75 6.25 15.1756 6.25 12ZM3 11.25C2.58579 11.25 2.25 11.5858 2.25 12C2.25 12.4142 2.58579 12.75 3 12.75H4.8C5.21421 12.75 5.55 12.4142 5.55 12C5.55 11.5858 5.21421 11.25 4.8 11.25H3ZM19.2 11.25C18.7858 11.25 18.45 11.5858 18.45 12C18.45 12.4142 18.7858 12.75 19.2 12.75H21C21.4142 12.75 21.75 12.4142 21.75 12C21.75 11.5858 21.4142 11.25 21 11.25H19.2ZM4.71967 4.71921C5.01257 4.42631 5.48744 4.42632 5.78033 4.71921L7.13035 6.06926C7.42325 6.36215 7.42324 6.83702 7.13035 7.12992C6.83745 7.42281 6.36258 7.4228 6.06969 7.12991L4.71967 5.77987C4.42677 5.48697 4.42678 5.0121 4.71967 4.71921ZM16.8697 16.8692C17.1626 16.5763 17.6374 16.5763 17.9303 16.8692L19.2803 18.2192C19.5732 18.5121 19.5732 18.987 19.2803 19.2799C18.9874 19.5728 18.5126 19.5728 18.2197 19.2799L16.8697 17.9299C16.5768 17.637 16.5768 17.1621 16.8697 16.8692ZM4.71967 18.2197C4.42678 18.5126 4.42678 18.9874 4.71967 19.2803C5.01256 19.5732 5.48744 19.5732 5.78033 19.2803L7.13033 17.9303C7.42322 17.6374 7.42322 17.1626 7.13033 16.8697C6.83744 16.5768 6.36256 16.5768 6.06967 16.8697L4.71967 18.2197ZM16.8697 6.06967C16.5768 6.36256 16.5768 6.83744 16.8697 7.13033C17.1626 7.42322 17.6374 7.42322 17.9303 7.13033L19.2803 5.78033C19.5732 5.48744 19.5732 5.01256 19.2803 4.71967C18.9874 4.42678 18.5126 4.42678 18.2197 4.71967L16.8697 6.06967Z" fill="#18191A"/>
</svg>
