<svg width="24" height="24" viewBox="0 0 24 24" fill="none" xmlns="http://www.w3.org/2000/svg">
<path fill-rule="evenodd" clip-rule="evenodd" d="M4 2.25C3.0335 2.25 2.25 3.0335 2.25 4V12.1716C2.25 12.9009 2.53973 13.6004 3.05546 14.1161L11.0555 22.1161C12.1294 23.1901 13.8706 23.1901 14.9445 22.1161L22.1161 14.9445C23.1901 13.8706 23.1901 12.1294 22.1161 11.0555L14.1161 3.05546C13.6004 2.53973 12.9009 2.25 12.1716 2.25H4ZM3.75 4C3.75 3.86193 3.86193 3.75 4 3.75H12.1716C12.5031 3.75 12.821 3.8817 13.0555 4.11612L21.0555 12.1161C21.5436 12.6043 21.5436 13.3957 21.0555 13.8839L13.8839 21.0555C13.3957 21.5436 12.6043 21.5436 12.1161 21.0555L4.11612 13.0555C3.8817 12.821 3.75 12.5031 3.75 12.1716V4ZM8 7C7.44772 7 7 7.44772 7 8C7 8.55228 7.44772 9 8 9H8.1C8.65228 9 9.1 8.55228 9.1 8C9.1 7.44772 8.65228 7 8.1 7H8Z" fill="#18191A"/>
</svg>
