<svg width="24" height="24" viewBox="0 0 24 24" fill="none" xmlns="http://www.w3.org/2000/svg">
<path fill-rule="evenodd" clip-rule="evenodd" d="M3 5.75C3 6.16421 3.33579 6.5 3.75 6.5L20.25 6.5C20.6642 6.5 21 6.16421 21 5.75C21 5.33579 20.6642 5 20.25 5H3.75C3.33579 5 3 5.33579 3 5.75ZM3 14.75C3 15.1642 3.33579 15.5 3.75 15.5H20.25C20.6642 15.5 21 15.1642 21 14.75C21 14.3358 20.6642 14 20.25 14H3.75C3.33579 14 3 14.3358 3 14.75ZM6.75 11C6.33579 11 6 10.6642 6 10.25C6 9.83579 6.33579 9.5 6.75 9.5L17.25 9.5C17.6642 9.5 18 9.83579 18 10.25C18 10.6642 17.6642 11 17.25 11L6.75 11ZM7 19.25C7 19.6642 7.33579 20 7.75 20L16.25 20C16.6642 20 17 19.6642 17 19.25C17 18.8358 16.6642 18.5 16.25 18.5L7.75 18.5C7.33579 18.5 7 18.8358 7 19.25Z" fill="#18191A"/>
</svg>
