<svg width="24" height="23" viewBox="0 0 24 23" fill="none" xmlns="http://www.w3.org/2000/svg">
<path fill-rule="evenodd" clip-rule="evenodd" d="M21 4.75C21 5.16421 20.6642 5.5 20.25 5.5L3.75 5.5C3.33579 5.5 3 5.16421 3 4.75C3 4.33579 3.33579 4 3.75 4H20.25C20.6642 4 21 4.33579 21 4.75ZM21 13.75C21 14.1642 20.6642 14.5 20.25 14.5H3.75C3.33579 14.5 3 14.1642 3 13.75C3 13.3358 3.33579 13 3.75 13H20.25C20.6642 13 21 13.3358 21 13.75ZM20.25 10C20.6642 10 21 9.66421 21 9.25C21 8.83579 20.6642 8.5 20.25 8.5L3.75 8.5C3.33579 8.5 3 8.83579 3 9.25C3 9.66421 3.33579 10 3.75 10H20.25ZM21 18.25C21 18.6642 20.6642 19 20.25 19L3.75 19C3.33579 19 3 18.6642 3 18.25C3 17.8358 3.33579 17.5 3.75 17.5L20.25 17.5C20.6642 17.5 21 17.8358 21 18.25Z" fill="#B9C3CD"/>
</svg>
