<svg width="24" height="24" viewBox="0 0 24 24" fill="none" xmlns="http://www.w3.org/2000/svg">
<path fill-rule="evenodd" clip-rule="evenodd" d="M21 5.75C21 6.16421 20.6642 6.5 20.25 6.5L3.75 6.5C3.33579 6.5 3 6.16421 3 5.75C3 5.33579 3.33579 5 3.75 5H20.25C20.6642 5 21 5.33579 21 5.75ZM21 14.75C21 15.1642 20.6642 15.5 20.25 15.5H3.75C3.33579 15.5 3 15.1642 3 14.75C3 14.3358 3.33579 14 3.75 14H20.25C20.6642 14 21 14.3358 21 14.75ZM20.25 11C20.6642 11 21 10.6642 21 10.25C21 9.83579 20.6642 9.5 20.25 9.5L8.75 9.5C8.33579 9.5 8 9.83579 8 10.25C8 10.6642 8.33579 11 8.75 11L20.25 11ZM21 19.25C21 19.6642 20.6642 20 20.25 20L12.75 20C12.3358 20 12 19.6642 12 19.25C12 18.8358 12.3358 18.5 12.75 18.5L20.25 18.5C20.6642 18.5 21 18.8358 21 19.25Z" fill="#B9C3CD"/>
</svg>
