<svg width="24" height="24" viewBox="0 0 24 24" fill="none" xmlns="http://www.w3.org/2000/svg">
<path fill-rule="evenodd" clip-rule="evenodd" d="M7.61543 9.15792L11.8632 3.75171C12.7301 3.79862 13.211 4.80205 12.6799 5.51019L11.525 7.04996C10.6907 8.16242 11.4844 9.74995 12.875 9.74995H16.9015C17.6138 9.74995 18.0986 9.75065 18.4668 9.78322C18.8294 9.8153 18.9904 9.87287 19.0862 9.93087C19.3479 10.0894 19.5424 10.3385 19.6327 10.6308C19.6658 10.7378 19.6826 10.908 19.6257 11.2676C19.568 11.6326 19.4511 12.1032 19.2784 12.7942L18.1814 17.1822C17.8395 18.5498 17.7084 19.0151 17.4587 19.3486C17.2189 19.6688 16.898 19.9193 16.5292 20.0743C16.1452 20.2357 15.6619 20.25 14.2523 20.25H9.2C8.62757 20.25 8.24336 20.2494 7.94748 20.2252C7.66035 20.2017 7.52307 20.1599 7.43251 20.1137C7.19731 19.9939 7.00608 19.8026 6.88624 19.5674C6.8401 19.4769 6.79822 19.3396 6.77476 19.0525C6.75058 18.7566 6.75 18.3724 6.75 17.8V11.6601C6.75 11.015 6.75345 10.795 6.79476 10.591C6.83447 10.3949 6.90016 10.205 6.9901 10.0262C7.08366 9.84028 7.21686 9.66517 7.61543 9.15792ZM11.7998 2.25C11.3804 2.25 10.9842 2.44255 10.7251 2.77232L6.43595 8.23118L6.39191 8.28721L6.3919 8.28723C6.05378 8.71733 5.81964 9.01518 5.65016 9.35201C5.50027 9.6499 5.39078 9.96646 5.3246 10.2933C5.24976 10.6629 5.24986 11.0417 5.24999 11.5888L5.25 11.6601V17.8L5.25 17.8304C5.24999 18.3645 5.24998 18.8104 5.27974 19.1746C5.31078 19.5545 5.37789 19.9112 5.54973 20.2484C5.81338 20.7659 6.23408 21.1866 6.75153 21.4502C7.08879 21.6221 7.44545 21.6892 7.82533 21.7202C8.18956 21.75 8.6354 21.75 9.16955 21.75H9.2H14.2523L14.4146 21.75C15.5964 21.7506 16.411 21.751 17.1102 21.4572C17.725 21.1989 18.2597 20.7814 18.6594 20.2476C19.114 19.6405 19.3112 18.8502 19.5972 17.7036L19.6366 17.546L20.7336 13.158L20.7419 13.1245L20.7419 13.1245C20.9043 12.4753 21.038 11.9402 21.1073 11.5017C21.1787 11.0502 21.1977 10.6147 21.0658 10.1879C20.867 9.54474 20.4392 8.99682 19.8635 8.64797C19.4814 8.41651 19.0544 8.32934 18.599 8.28906C18.1568 8.24993 17.6052 8.24994 16.936 8.24995H16.9015H12.875C12.7205 8.24995 12.6323 8.07357 12.725 7.94997L13.8799 6.4102C15.1654 4.69611 13.9424 2.25 11.7998 2.25ZM3.25 10C3.25 9.58579 2.91421 9.25 2.5 9.25C2.08579 9.25 1.75 9.58579 1.75 10V21C1.75 21.4142 2.08579 21.75 2.5 21.75C2.91421 21.75 3.25 21.4142 3.25 21L3.25 10Z" fill="#18191A"/>
</svg>
