<svg width="24" height="24" viewBox="0 0 24 24" fill="none" xmlns="http://www.w3.org/2000/svg">
<path fill-rule="evenodd" clip-rule="evenodd" d="M7.61543 15.8421L11.8632 21.2484C12.7301 21.2014 13.211 20.198 12.6799 19.4899L11.525 17.9501C10.6907 16.8376 11.4844 15.2501 12.875 15.2501H16.9015C17.6138 15.2501 18.0986 15.2494 18.4668 15.2168C18.8294 15.1848 18.9904 15.1272 19.0862 15.0692C19.3479 14.9106 19.5424 14.6616 19.6327 14.3692C19.6658 14.2623 19.6826 14.0921 19.6257 13.7325C19.568 13.3674 19.4511 12.8969 19.2784 12.2059L18.1814 7.81783C17.8395 6.45028 17.7084 5.98492 17.4587 5.6515C17.2189 5.33124 16.898 5.08072 16.5292 4.92575C16.1452 4.76441 15.6619 4.7501 14.2523 4.7501H9.2C8.62757 4.7501 8.24336 4.75069 7.94748 4.77486C7.66035 4.79832 7.52307 4.8402 7.43251 4.88635C7.19731 5.00619 7.00608 5.19741 6.88624 5.43262C6.8401 5.52318 6.79822 5.66046 6.77476 5.94758C6.75058 6.24346 6.75 6.62768 6.75 7.20011V13.3399C6.75 13.9851 6.75345 14.205 6.79476 14.4091C6.83447 14.6052 6.90016 14.7951 6.9901 14.9738C7.08366 15.1598 7.21686 15.3349 7.61543 15.8421ZM11.7998 22.7501C11.3804 22.7501 10.9842 22.5575 10.7251 22.2277L6.43595 16.7689L6.39191 16.7128L6.39189 16.7128C6.05378 16.2827 5.81964 15.9849 5.65016 15.6481C5.50027 15.3502 5.39078 15.0336 5.3246 14.7068C5.24976 14.3372 5.24986 13.9583 5.24999 13.4112L5.25 13.3399V7.20011L5.25 7.16967V7.16967C5.24999 6.63552 5.24998 6.18967 5.27974 5.82544C5.31078 5.44555 5.37789 5.08889 5.54973 4.75163C5.81338 4.23419 6.23408 3.81349 6.75153 3.54984C7.08879 3.37799 7.44545 3.31088 7.82533 3.27984C8.18956 3.25009 8.6354 3.25009 9.16955 3.2501H9.2H14.2523L14.4146 3.25005C15.5964 3.24947 16.411 3.24907 17.1102 3.54284C17.725 3.80113 18.2597 4.21867 18.6594 4.75244C19.114 5.35954 19.3112 6.14985 19.5972 7.2965L19.6366 7.45403L20.7336 11.8421L20.7419 11.8755L20.7419 11.8755C20.9043 12.5248 21.038 13.0599 21.1073 13.4984C21.1787 13.9499 21.1977 14.3854 21.0658 14.8121C20.867 15.4553 20.4392 16.0032 19.8635 16.3521C19.4814 16.5835 19.0544 16.6707 18.599 16.711C18.1568 16.7501 17.6052 16.7501 16.936 16.7501H16.9015H12.875C12.7205 16.7501 12.6323 16.9265 12.725 17.0501L13.8799 18.5899C15.1654 20.304 13.9424 22.7501 11.7998 22.7501ZM3.25 15.0001C3.25 15.4143 2.91421 15.7501 2.5 15.7501C2.08579 15.7501 1.75 15.4143 1.75 15.0001V4.00006C1.75 3.58585 2.08579 3.25006 2.5 3.25006C2.91421 3.25006 3.25 3.58585 3.25 4.00006L3.25 15.0001Z" fill="#18191A"/>
</svg>
