<svg width="24" height="24" viewBox="0 0 24 24" fill="none" xmlns="http://www.w3.org/2000/svg">
<path fill-rule="evenodd" clip-rule="evenodd" d="M22.75 17.75C22.75 19.683 21.183 21.25 19.25 21.25C18.8178 21.25 18.4212 21.0105 18.2199 20.6281L17.8993 20.019C17.3064 18.8926 15.6935 18.8926 15.1007 20.019C14.7022 20.776 13.9172 21.25 13.0617 21.25H8.40001H8.36701H8.36694C7.27483 21.25 6.40935 21.25 5.71175 21.193C4.99836 21.1347 4.39473 21.0131 3.84356 20.7323C2.94979 20.2769 2.22313 19.5502 1.76773 18.6565C1.4869 18.1053 1.36529 17.5017 1.307 16.7883C1.25 16.0907 1.25 15.2252 1.25001 14.1331L1.25001 14.133L1.25001 14.1L1.25 9.90001V9.86697C1.24999 8.77484 1.24999 7.90936 1.30698 7.21174C1.36527 6.49835 1.48688 5.89472 1.76771 5.34355C2.22311 4.44978 2.94977 3.72312 3.84354 3.26772C4.39472 2.98688 4.99834 2.86527 5.71173 2.80699C6.40935 2.74999 7.27484 2.74999 8.36698 2.75H8.4H13.0209C13.571 2.75 14.0846 3.0249 14.3897 3.48256C15.1557 4.63159 16.8442 4.63159 17.6102 3.48256C17.9153 3.0249 18.429 2.75 18.979 2.75H19.0298C21.0844 2.75 22.75 4.41556 22.75 6.47014L22.75 17.75ZM19.2267 19.3204L19.4477 19.7403C20.4595 19.6411 21.25 18.7878 21.25 17.75L21.25 6.47015C21.25 5.24399 20.256 4.25 19.0298 4.25H18.979C18.9305 4.25 18.8852 4.27424 18.8583 4.31461C17.4985 6.35424 14.5014 6.35424 13.1416 4.31461C13.1147 4.27424 13.0694 4.25 13.0209 4.25L8.4 4.25C7.26752 4.25 6.46326 4.25058 5.83388 4.30201C5.21325 4.35271 4.829 4.44909 4.52453 4.60423C3.913 4.91582 3.41581 5.41301 3.10422 6.02453C2.94909 6.32901 2.85271 6.71326 2.802 7.33389C2.75058 7.96327 2.75 8.76753 2.75 9.90001L2.75001 14.1C2.75001 15.2325 2.7506 16.0367 2.80202 16.6661C2.85273 17.2867 2.94911 17.671 3.10424 17.9755C3.41583 18.587 3.91302 19.0842 4.52454 19.3958C4.82902 19.5509 5.21327 19.6473 5.83389 19.698C6.46328 19.7494 7.26753 19.75 8.40001 19.75H13.0617C13.3603 19.75 13.6343 19.5846 13.7733 19.3204C14.9285 17.1255 18.0714 17.1255 19.2267 19.3204ZM17.0001 7.50004C17.0001 7.08583 16.6644 6.75002 16.2501 6.75C15.8359 6.74998 15.5001 7.08574 15.5001 7.49996L15.5 8.49996C15.5 8.91417 15.8358 9.24998 16.25 9.25C16.6642 9.25002 17 8.91426 17 8.50004L17.0001 7.50004ZM17 11C17 10.5857 16.6642 10.25 16.25 10.25C15.8358 10.25 15.5 10.5857 15.5 11V12.5C15.5 12.9142 15.8358 13.25 16.25 13.25C16.6642 13.25 17 12.9142 17 12.5V11ZM16.25 14.25C16.6642 14.25 17 14.5858 17 15V16C17 16.4142 16.6642 16.75 16.25 16.75C15.8358 16.75 15.5 16.4142 15.5 16V15C15.5 14.5858 15.8358 14.25 16.25 14.25Z" fill="#18191A"/>
</svg>
