<svg width="24" height="24" viewBox="0 0 24 24" fill="none" xmlns="http://www.w3.org/2000/svg">
<path fill-rule="evenodd" clip-rule="evenodd" d="M10.7298 1.24997L10.621 1.24986C10.1084 1.2491 9.65851 1.24842 9.25762 1.40609C8.90709 1.54396 8.59677 1.76762 8.35513 2.05657C8.07878 2.38703 7.93715 2.81406 7.77577 3.3006L7.74147 3.40385L7.45943 4.24997H4H2C1.58579 4.24997 1.25 4.58576 1.25 4.99997C1.25 5.41418 1.58579 5.74997 2 5.74997H3.29282L3.84024 15.0561L3.84177 15.0822C3.90335 16.129 3.95168 16.9506 4.03388 17.6146C4.1176 18.2909 4.24147 18.8529 4.47666 19.3721C5.10057 20.7498 6.24212 21.8262 7.65402 22.3681C8.18623 22.5724 8.75449 22.663 9.4345 22.7069C10.1022 22.75 10.9253 22.75 11.9739 22.75H12H12.0261C13.0747 22.75 13.8978 22.75 14.5655 22.7069C15.2455 22.663 15.8138 22.5724 16.346 22.3681C17.7579 21.8262 18.8994 20.7498 19.5233 19.3721C19.7585 18.8529 19.8824 18.2909 19.9661 17.6146C20.0483 16.9506 20.0967 16.129 20.1582 15.0822L20.1598 15.0561L20.7072 5.74997H22C22.4142 5.74997 22.75 5.41418 22.75 4.99997C22.75 4.58576 22.4142 4.24997 22 4.24997H20H16.5406L16.2585 3.40385L16.2242 3.3006C16.0629 2.81406 15.9212 2.38703 15.6449 2.05657C15.4032 1.76762 15.0929 1.54396 14.7424 1.40609C14.3415 1.24842 13.8916 1.2491 13.379 1.24986L13.2702 1.24997H10.7298ZM15.9825 5.74997C15.9941 5.75024 16.0057 5.75024 16.0173 5.74997H19.2046L18.6623 14.968C18.5989 16.0465 18.553 16.82 18.4775 17.4303C18.4028 18.034 18.3041 18.4285 18.1569 18.7533C17.6958 19.7716 16.852 20.5672 15.8085 20.9677C15.4756 21.0955 15.0759 21.1709 14.4689 21.21C13.8552 21.2496 13.0803 21.25 12 21.25C10.9197 21.25 10.1448 21.2496 9.53105 21.21C8.92408 21.1709 8.52444 21.0955 8.19154 20.9677C7.14797 20.5672 6.30421 19.7716 5.84306 18.7533C5.69595 18.4285 5.59724 18.034 5.52252 17.4303C5.44695 16.82 5.40109 16.0465 5.33765 14.968L4.79541 5.74997H7.9827C7.99433 5.75024 8.00594 5.75024 8.01751 5.74997H15.9825ZM14.9594 4.24997L14.8355 3.87819C14.6186 3.22737 14.5633 3.10149 14.4942 3.01884C14.4137 2.92252 14.3102 2.84796 14.1934 2.80201C14.0931 2.76257 13.9562 2.74997 13.2702 2.74997H10.7298C10.0438 2.74997 9.90691 2.76257 9.80663 2.80201C9.68979 2.84796 9.58635 2.92252 9.5058 3.01884C9.43668 3.10149 9.38144 3.22737 9.16449 3.87819L9.04057 4.24997H14.9594ZM10.75 9.99997C10.75 9.58576 10.4142 9.24997 10 9.24997C9.58579 9.24997 9.25 9.58576 9.25 9.99997V17C9.25 17.4142 9.58579 17.75 10 17.75C10.4142 17.75 10.75 17.4142 10.75 17V9.99997ZM14 9.24997C14.4142 9.24997 14.75 9.58576 14.75 9.99997V17C14.75 17.4142 14.4142 17.75 14 17.75C13.5858 17.75 13.25 17.4142 13.25 17V9.99997C13.25 9.58576 13.5858 9.24997 14 9.24997Z" fill="#18191A"/>
</svg>
