<svg width="24" height="24" viewBox="0 0 24 24" fill="none" xmlns="http://www.w3.org/2000/svg">
<path fill-rule="evenodd" clip-rule="evenodd" d="M10.8819 3.91315C11.3425 2.99184 12.6573 2.99184 13.1179 3.91315L20.8819 19.441C21.2974 20.2721 20.6931 21.25 19.7638 21.25H4.23597C3.30674 21.25 2.70237 20.2721 3.11794 19.441L10.8819 3.91315ZM14.4596 3.24233C13.4461 1.21545 10.5537 1.21545 9.54023 3.24233L1.7763 18.7702C0.862056 20.5987 2.19167 22.75 4.23597 22.75H19.7638C21.8081 22.75 23.1377 20.5987 22.2235 18.7702L14.4596 3.24233ZM12.5583 15.0035L13.3246 8.48978C13.4179 7.6968 12.7984 7.00005 11.9999 7.00005C11.2015 7.00005 10.5819 7.6968 10.6752 8.48978L11.4415 15.0035C11.4748 15.2866 11.7148 15.5 11.9999 15.5C12.285 15.5 12.525 15.2866 12.5583 15.0035ZM12.9999 18C12.9999 18.5523 12.5522 19 11.9999 19C11.4476 19 10.9999 18.5523 10.9999 18C10.9999 17.4477 11.4476 17 11.9999 17C12.5522 17 12.9999 17.4477 12.9999 18Z" fill="#18191A"/>
</svg>
