<svg width="24" height="24" viewBox="0 0 24 24" fill="none" xmlns="http://www.w3.org/2000/svg">
<path fill-rule="evenodd" clip-rule="evenodd" d="M10.8819 3.91315C11.3425 2.99184 12.6573 2.99184 13.1179 3.91315L20.8819 19.441C21.2974 20.2721 20.6931 21.25 19.7638 21.25H4.23597C3.30674 21.25 2.70237 20.2721 3.11794 19.441L10.8819 3.91315ZM14.4596 3.24233C13.4461 1.21545 10.5537 1.21545 9.54023 3.24233L1.7763 18.7702C0.862056 20.5987 2.19167 22.75 4.23597 22.75H19.7638C21.8081 22.75 23.1377 20.5987 22.2235 18.7702L14.4596 3.24233ZM10.9689 15.9018V16.0258H12.5189V15.9018C12.522 15.565 12.5608 15.2822 12.6353 15.0534C12.7129 14.8214 12.8308 14.6197 12.989 14.4481C13.1504 14.2765 13.3568 14.1112 13.6081 13.9524C13.8936 13.7776 14.1403 13.579 14.3482 13.3566C14.5561 13.1341 14.716 12.8799 14.8277 12.5939C14.9425 12.3079 14.9999 11.9838 14.9999 11.6216C14.9999 11.0846 14.8727 10.6206 14.6182 10.2298C14.3669 9.83575 14.0146 9.53228 13.5616 9.31938C13.1116 9.10648 12.5903 9.00003 11.9976 9.00003C11.4545 9.00003 10.958 9.10172 10.508 9.30508C10.0612 9.50845 9.70122 9.81351 9.42814 10.2202C9.15816 10.627 9.01542 11.1322 8.9999 11.736H10.657C10.6725 11.4373 10.7439 11.191 10.8711 10.9972C11.0015 10.8002 11.1644 10.654 11.3599 10.5587C11.5585 10.4602 11.7679 10.4109 11.9883 10.4109C12.2272 10.4109 12.4429 10.4617 12.6353 10.5634C12.8308 10.6651 12.9859 10.8081 13.1008 10.9924C13.2156 11.1767 13.273 11.3944 13.273 11.6454C13.273 11.8678 13.2295 12.0696 13.1426 12.2507C13.0558 12.4287 12.9363 12.5908 12.7842 12.7369C12.6353 12.8799 12.4662 13.0118 12.2769 13.1325C12.0007 13.3073 11.7664 13.4996 11.574 13.7093C11.3816 13.9158 11.2326 14.1891 11.1271 14.5291C11.0247 14.8691 10.972 15.3267 10.9689 15.9018ZM11.0573 18.695C11.259 18.8983 11.4995 19 11.7788 19C11.965 19 12.1341 18.954 12.2862 18.8618C12.4413 18.7665 12.5655 18.6394 12.6586 18.4805C12.7548 18.3216 12.8029 18.1453 12.8029 17.9514C12.8029 17.6654 12.7004 17.4207 12.4956 17.2174C12.2939 17.014 12.055 16.9123 11.7788 16.9123C11.4995 16.9123 11.259 17.014 11.0573 17.2174C10.8556 17.4207 10.7548 17.6654 10.7548 17.9514C10.7548 18.2438 10.8556 18.4916 11.0573 18.695Z" fill="#18191A"/>
</svg>
