<svg width="24" height="24" viewBox="0 0 24 24" fill="none" xmlns="http://www.w3.org/2000/svg">
<path fill-rule="evenodd" clip-rule="evenodd" d="M7.46967 0.46967C7.76256 0.176777 8.23744 0.176777 8.53033 0.46967L12 3.93934L15.4697 0.46967C15.7626 0.176777 16.2374 0.176777 16.5303 0.46967C16.8232 0.762563 16.8232 1.23744 16.5303 1.53033L13.8107 4.25H13.8333C15.0652 4.24999 16.0357 4.24999 16.8167 4.3138C17.6134 4.3789 18.2788 4.51413 18.8835 4.82222C19.8713 5.32555 20.6744 6.1287 21.1778 7.11655C21.4859 7.7212 21.6211 8.38657 21.6862 9.18333C21.75 9.96432 21.75 10.9348 21.75 12.1667V12.2V14.8V14.8333C21.75 16.0652 21.75 17.0357 21.6862 17.8167C21.6211 18.6134 21.4859 19.2788 21.1778 19.8834C20.6744 20.8713 19.8713 21.6744 18.8835 22.1778C18.2788 22.4859 17.6134 22.6211 16.8167 22.6862C16.0357 22.75 15.0652 22.75 13.8333 22.75H13.8H10.2H10.1667C8.93477 22.75 7.96432 22.75 7.18333 22.6862C6.38657 22.6211 5.7212 22.4859 5.11655 22.1778C4.1287 21.6744 3.32555 20.8713 2.82222 19.8834C2.51413 19.2788 2.3789 18.6134 2.3138 17.8167C2.24999 17.0357 2.24999 16.0652 2.25 14.8333V14.8V12.2V12.1667C2.24999 10.9348 2.24999 9.96432 2.3138 9.18333C2.3789 8.38657 2.51413 7.7212 2.82222 7.11655C3.32555 6.1287 4.1287 5.32555 5.11655 4.82222C5.7212 4.51413 6.38657 4.3789 7.18333 4.3138C7.96432 4.24999 8.93478 4.24999 10.1667 4.25H10.1893L7.46967 1.53033C7.17678 1.23744 7.17678 0.762563 7.46967 0.46967ZM7.30548 5.80882C6.60148 5.86634 6.15549 5.97634 5.79754 6.15873C5.09193 6.51825 4.51825 7.09193 4.15873 7.79754C3.97634 8.15549 3.86634 8.60148 3.80882 9.30548C3.75058 10.0182 3.75 10.9275 3.75 12.2V14.8C3.75 16.0725 3.75058 16.9818 3.80882 17.6945C3.86634 18.3985 3.97634 18.8445 4.15873 19.2025C4.51825 19.9081 5.09193 20.4818 5.79754 20.8413C6.15549 21.0237 6.60148 21.1337 7.30548 21.1912C8.01824 21.2494 8.92751 21.25 10.2 21.25H13.8C15.0725 21.25 15.9818 21.2494 16.6945 21.1912C17.3985 21.1337 17.8445 21.0237 18.2025 20.8413C18.9081 20.4818 19.4817 19.9081 19.8413 19.2025C20.0237 18.8445 20.1337 18.3985 20.1912 17.6945C20.2494 16.9818 20.25 16.0725 20.25 14.8V12.2C20.25 10.9275 20.2494 10.0182 20.1912 9.30548C20.1337 8.60148 20.0237 8.15549 19.8413 7.79754C19.4817 7.09193 18.9081 6.51825 18.2025 6.15873C17.8445 5.97634 17.3985 5.86634 16.6945 5.80882C15.9818 5.75058 15.0725 5.75 13.8 5.75H10.2C8.92751 5.75 8.01824 5.75058 7.30548 5.80882ZM13.6876 10.3669C13.6408 10.1074 13.4612 9.89157 13.2145 9.79839C12.9679 9.70521 12.6904 9.74841 12.4837 9.91217L6.53421 14.6265C6.20957 14.8837 6.15492 15.3554 6.41217 15.6801C6.66942 16.0047 7.14114 16.0594 7.46579 15.8021L12.4336 11.8657L13.2931 16.6331C13.3427 16.9078 13.5407 17.1323 13.8071 17.2157C14.0735 17.2992 14.3642 17.2277 14.5616 17.0303L17.0616 14.5303C17.3545 14.2374 17.3545 13.7626 17.0616 13.4697C16.7687 13.1768 16.2938 13.1768 16.0009 13.4697L14.5149 14.9557L13.6876 10.3669Z" fill="#1D1E1F"/>
</svg>
