<svg width="24" height="24" viewBox="0 0 24 24" fill="none" xmlns="http://www.w3.org/2000/svg">
<path fill-rule="evenodd" clip-rule="evenodd" d="M14.1788 3.09337C13.3112 1.92243 11.6036 1.59388 10.344 2.51762L5.10943 6.3563C3.46827 6.75604 2.25 8.23571 2.25 9.99991V17.9999C2.25 20.071 3.92893 21.7499 6 21.7499H18C20.0711 21.7499 21.75 20.071 21.75 17.9999V17.1464C22.9043 16.8199 23.75 15.7587 23.75 14.4999C23.75 13.2411 22.9043 12.1799 21.75 11.8534V9.99991C21.75 8.52605 20.8997 7.25078 19.6629 6.63787L18.6426 4.08694C17.9803 2.43135 15.9419 1.83408 14.4909 2.8705L14.1788 3.09337ZM7.79101 6.24991H9.75969L12.9569 3.96619C12.5575 3.4525 11.7954 3.31339 11.231 3.72723L7.79101 6.24991ZM15.3627 4.0911C16.0223 3.62 16.9488 3.89149 17.2499 4.64403L17.8922 6.24991H12.3404L15.3627 4.0911ZM20.25 17.2499H19C17.4812 17.2499 16.25 16.0187 16.25 14.4999C16.25 12.9811 17.4812 11.7499 19 11.7499H20.25V9.99991C20.25 8.75727 19.2426 7.74991 18 7.74991H6C4.75736 7.74991 3.75 8.75727 3.75 9.99991V17.9999C3.75 19.2426 4.75736 20.2499 6 20.2499H18C19.2426 20.2499 20.25 19.2426 20.25 17.9999V17.2499ZM19 13.2499C18.3096 13.2499 17.75 13.8096 17.75 14.4999C17.75 15.1903 18.3096 15.7499 19 15.7499H21C21.6904 15.7499 22.25 15.1903 22.25 14.4999C22.25 13.8096 21.6904 13.2499 21 13.2499H19Z" fill="#18191A"/>
</svg>
