<svg width="24" height="24" viewBox="0 0 24 24" fill="none" xmlns="http://www.w3.org/2000/svg">
<path fill-rule="evenodd" clip-rule="evenodd" d="M10.344 2.51762C11.6036 1.59388 13.3112 1.92243 14.1788 3.09337L14.4909 2.8705C15.9419 1.83408 17.9803 2.43135 18.6426 4.08695L19.663 6.6379C20.8997 7.25081 21.75 8.52608 21.75 9.99994V11.8535C22.9043 12.1799 23.75 13.2412 23.75 14.4999C23.75 15.7587 22.9043 16.82 21.75 17.1464V17.9999C21.75 20.071 20.0711 21.7499 18 21.7499H6C3.92893 21.7499 2.25 20.071 2.25 17.9999V9.99994C2.25 8.23575 3.46825 6.75609 5.10938 6.35634L10.344 2.51762ZM9.75965 6.24994H7.79098L11.231 3.72723C11.7954 3.31339 12.5575 3.4525 12.9569 3.96619L9.75965 6.24994ZM17.2499 4.64403C16.9488 3.89149 16.0223 3.62 15.3627 4.0911L12.3403 6.24994H17.8922L17.2499 4.64403ZM19 17.2499H20.25V17.9999C20.25 19.2426 19.2426 20.2499 18 20.2499H6C4.75736 20.2499 3.75 19.2426 3.75 17.9999V9.99994C3.75 8.7573 4.75736 7.74994 6 7.74994H18C19.2426 7.74994 20.25 8.7573 20.25 9.99994V11.7499H19C17.4812 11.7499 16.25 12.9812 16.25 14.4999C16.25 16.0187 17.4812 17.2499 19 17.2499ZM17.75 14.4999C17.75 13.8096 18.3096 13.2499 19 13.2499H21C21.6904 13.2499 22.25 13.8096 22.25 14.4999C22.25 15.1903 21.6904 15.7499 21 15.7499H19C18.3096 15.7499 17.75 15.1903 17.75 14.4999ZM13 14.7499C13.4142 14.7499 13.75 14.4142 13.75 13.9999C13.75 13.5857 13.4142 13.2499 13 13.2499H7C6.58579 13.2499 6.25 13.5857 6.25 13.9999C6.25 14.4142 6.58579 14.7499 7 14.7499H13Z" fill="#18191A"/>
</svg>
