<svg width="24" height="24" viewBox="0 0 24 24" fill="none" xmlns="http://www.w3.org/2000/svg">
<path fill-rule="evenodd" clip-rule="evenodd" d="M10.344 2.51762C11.6036 1.59388 13.3112 1.92242 14.1788 3.09337L14.4909 2.8705C15.9419 1.83408 17.9803 2.43135 18.6426 4.08694L19.663 6.6379C20.8997 7.25081 21.75 8.52608 21.75 9.99994V11.8535C22.9043 12.1799 23.75 13.2412 23.75 14.4999C23.75 15.7587 22.9043 16.82 21.75 17.1464V17.9999C21.75 20.071 20.0711 21.7499 18 21.7499H6C3.92893 21.7499 2.25 20.071 2.25 17.9999V9.99994C2.25 8.23575 3.46825 6.75609 5.10938 6.35634L10.344 2.51762ZM9.75965 6.24994H7.79098L11.231 3.72723C11.7954 3.31339 12.5575 3.4525 12.9569 3.96619L9.75965 6.24994ZM17.2499 4.64403C16.9488 3.89149 16.0223 3.62 15.3627 4.0911L12.3403 6.24994H17.8922L17.2499 4.64403ZM19 17.2499H20.25V17.9999C20.25 19.2426 19.2426 20.2499 18 20.2499H6C4.75736 20.2499 3.75 19.2426 3.75 17.9999V9.99994C3.75 8.7573 4.75736 7.74994 6 7.74994H18C19.2426 7.74994 20.25 8.7573 20.25 9.99994V11.7499H19C17.4812 11.7499 16.25 12.9812 16.25 14.4999C16.25 16.0187 17.4812 17.2499 19 17.2499ZM17.75 14.4999C17.75 13.8096 18.3096 13.2499 19 13.2499H21C21.6904 13.2499 22.25 13.8096 22.25 14.4999C22.25 15.1903 21.6904 15.7499 21 15.7499H19C18.3096 15.7499 17.75 15.1903 17.75 14.4999ZM10.5303 10.4696C10.3897 10.329 10.1989 10.2499 10 10.2499C9.80109 10.2499 9.61032 10.329 9.46967 10.4696L6.46967 13.4696C6.17678 13.7625 6.17678 14.2374 6.46967 14.5303C6.76256 14.8232 7.23744 14.8232 7.53033 14.5303L9.25 12.8106V16.9999C9.25 17.4142 9.58579 17.7499 10 17.7499C10.4142 17.7499 10.75 17.4142 10.75 16.9999V12.8106L12.4697 14.5303C12.7626 14.8232 13.2374 14.8232 13.5303 14.5303C13.8232 14.2374 13.8232 13.7625 13.5303 13.4696L10.5303 10.4696Z" fill="#18191A"/>
</svg>
