<svg width="24" height="24" viewBox="0 0 24 24" fill="none" xmlns="http://www.w3.org/2000/svg">
<path fill-rule="evenodd" clip-rule="evenodd" d="M10.344 2.51762C11.6036 1.59388 13.3112 1.92243 14.1788 3.09337L14.4909 2.8705C15.9419 1.83408 17.9803 2.43135 18.6426 4.08694L19.6629 6.63787C20.8997 7.25078 21.75 8.52605 21.75 9.99991V11.8534C22.9043 12.1799 23.75 13.2411 23.75 14.4999C23.75 15.7587 22.9043 16.8199 21.75 17.1464V17.9999C21.75 20.071 20.0711 21.7499 18 21.7499H6C3.92893 21.7499 2.25 20.071 2.25 17.9999V9.99991C2.25 8.23571 3.46827 6.75604 5.10943 6.3563L10.344 2.51762ZM9.75969 6.24991H7.79101L11.231 3.72723C11.7954 3.31339 12.5575 3.4525 12.9569 3.96619L9.75969 6.24991ZM17.2499 4.64403C16.9488 3.89149 16.0223 3.62 15.3627 4.0911L12.3404 6.24991H17.8922L17.2499 4.64403ZM19 17.2499H20.25V17.9999C20.25 19.2426 19.2426 20.2499 18 20.2499H6C4.75736 20.2499 3.75 19.2426 3.75 17.9999V9.99991C3.75 8.75727 4.75736 7.74991 6 7.74991H18C19.2426 7.74991 20.25 8.75727 20.25 9.99991V11.7499H19C17.4812 11.7499 16.25 12.9811 16.25 14.4999C16.25 16.0187 17.4812 17.2499 19 17.2499ZM17.75 14.4999C17.75 13.8096 18.3096 13.2499 19 13.2499H21C21.6904 13.2499 22.25 13.8096 22.25 14.4999C22.25 15.1903 21.6904 15.7499 21 15.7499H19C18.3096 15.7499 17.75 15.1903 17.75 14.4999ZM10 10.25C10.4142 10.25 10.75 10.5858 10.75 11V13.25H13C13.4142 13.25 13.75 13.5858 13.75 14C13.75 14.4142 13.4142 14.75 13 14.75H10.75V17C10.75 17.4142 10.4142 17.75 10 17.75C9.58579 17.75 9.25 17.4142 9.25 17V14.75H7C6.58579 14.75 6.25 14.4142 6.25 14C6.25 13.5858 6.58579 13.25 7 13.25H9.25V11C9.25 10.5858 9.58579 10.25 10 10.25Z" fill="#18191A"/>
</svg>
