<svg width="24" height="24" viewBox="0 0 24 24" fill="none" xmlns="http://www.w3.org/2000/svg">
<path fill-rule="evenodd" clip-rule="evenodd" d="M5.97569 5.59465C6.30409 5.3422 6.36565 4.87133 6.1132 4.54294C5.86076 4.21454 5.38989 4.15298 5.0615 4.40543C2.74557 6.18577 1.25 8.92147 1.25 12C1.25 15.0786 2.74557 17.8143 5.0615 19.5946C5.38989 19.8471 5.86076 19.7855 6.1132 19.4571C6.36565 19.1287 6.30409 18.6579 5.97569 18.4054C3.99899 16.8859 2.75 14.576 2.75 12C2.75 9.42407 3.99899 7.11422 5.97569 5.59465ZM18.9385 4.40543C18.6101 4.15298 18.1392 4.21454 17.8868 4.54294C17.6343 4.87133 17.6959 5.3422 18.0243 5.59465C20.001 7.11422 21.25 9.42407 21.25 12C21.25 14.576 20.001 16.8859 18.0243 18.4054C17.6959 18.6579 17.6343 19.1287 17.8868 19.4571C18.1392 19.7855 18.6101 19.8471 18.9385 19.5946C21.2544 17.8143 22.75 15.0786 22.75 12C22.75 8.92147 21.2544 6.18577 18.9385 4.40543ZM8.56618 8.41997C8.88654 8.68254 8.93339 9.1551 8.67082 9.47546C8.0879 10.1867 7.75002 11.0599 7.75002 12C7.75002 12.9402 8.0879 13.8134 8.67082 14.5246C8.93339 14.845 8.88654 15.3175 8.56618 15.5801C8.24582 15.8427 7.77326 15.7958 7.5107 15.4755C6.72384 14.5154 6.25002 13.3111 6.25002 12C6.25002 10.689 6.72384 9.48466 7.5107 8.52461C7.77326 8.20425 8.24582 8.15741 8.56618 8.41997ZM15.5246 8.41997C15.845 8.15741 16.3175 8.20425 16.5801 8.52461C17.3669 9.48466 17.8408 10.689 17.8408 12C17.8408 13.3111 17.3669 14.5154 16.5801 15.4755C16.3175 15.7958 15.845 15.8427 15.5246 15.5801C15.2042 15.3175 15.1574 14.845 15.42 14.5246C16.0029 13.8134 16.3408 12.9402 16.3408 12C16.3408 11.0599 16.0029 10.1867 15.42 9.47546C15.1574 9.1551 15.2042 8.68254 15.5246 8.41997ZM13.5 12C13.5 13 13 13.5 12 13.5C11 13.5 10.5 13 10.5 12C10.5 11 11 10.5 12 10.5C13 10.5 13.5 11 13.5 12Z" fill="#B9C3CD"/>
</svg>
