<svg width="24" height="24" viewBox="0 0 24 24" fill="none" xmlns="http://www.w3.org/2000/svg">
<path fill-rule="evenodd" clip-rule="evenodd" d="M21.4103 9.46337C21.6662 9.78907 22.1377 9.84565 22.4634 9.58974C22.7891 9.33383 22.8457 8.86234 22.5898 8.53663C19.9591 5.18845 16.2871 3.25 12 3.25C7.71298 3.25 4.04101 5.18845 1.41029 8.53663C1.15438 8.86234 1.21096 9.33383 1.53667 9.58974C1.86237 9.84565 2.33386 9.78907 2.58977 9.46337C4.95906 6.44791 8.20918 4.75 12 4.75C15.7909 4.75 19.041 6.44791 21.4103 9.46337ZM12 18C11.4477 18 11 18.4477 11 19C11 19.5523 11.4477 20 12 20H12.01C12.5623 20 13.01 19.5523 13.01 19C13.01 18.4477 12.5623 18 12.01 18H12ZM19.5068 12.5529C19.2015 12.8328 18.7271 12.8121 18.4472 12.5068C16.8428 10.7565 14.6224 9.75 12 9.75C9.37769 9.75 7.1573 10.7565 5.5529 12.5068C5.273 12.8121 4.79858 12.8328 4.49324 12.5529C4.1879 12.273 4.16727 11.7985 4.44717 11.4932C6.34277 9.42528 8.96784 8.25 12 8.25C15.0322 8.25 17.6573 9.42528 19.5529 11.4932C19.8328 11.7985 19.8122 12.273 19.5068 12.5529ZM14.5148 15.5719C14.8306 15.8399 15.3039 15.8011 15.5719 15.4852C15.8399 15.1694 15.8011 14.6961 15.4853 14.4281C14.5793 13.6594 13.3606 13.25 12 13.25C10.6395 13.25 9.42081 13.6594 8.5148 14.4281C8.19896 14.6961 8.16016 15.1694 8.42815 15.4852C8.69614 15.8011 9.16942 15.8399 9.48526 15.5719C10.0793 15.0679 10.9372 14.75 12 14.75C13.0628 14.75 13.9208 15.0679 14.5148 15.5719Z" fill="#18191A"/>
</svg>
