<svg width="24" height="24" viewBox="0 0 24 24" fill="none" xmlns="http://www.w3.org/2000/svg">
<path fill-rule="evenodd" clip-rule="evenodd" d="M12.3406 3.47857C11.8391 3.96679 11.208 4.76736 10.3025 5.91983L6.64037 10.5807C5.96149 11.4447 5.50686 12.0265 5.2502 12.4739C5.12511 12.6919 5.07684 12.8291 5.06183 12.911C5.05091 12.9707 5.05914 12.9869 5.06339 12.9953C5.06365 12.9958 5.06389 12.9963 5.06411 12.9968C5.06433 12.9972 5.06456 12.9977 5.0648 12.9982C5.06878 13.0068 5.0765 13.0233 5.13012 13.0515C5.20382 13.0904 5.34152 13.1372 5.59026 13.1735C6.10061 13.2481 6.83897 13.2501 7.93779 13.2501H8.99988C9.0113 13.2501 9.02279 13.2501 9.03432 13.2501C9.23944 13.25 9.46123 13.2499 9.64845 13.2751C9.86778 13.3045 10.148 13.3804 10.3838 13.6162C10.6196 13.852 10.6954 14.1322 10.7249 14.3515C10.7501 14.5387 10.75 14.7605 10.7499 14.9656C10.7499 14.9772 10.7499 14.9886 10.7499 15.0001V17.0609C10.7499 18.5266 10.7515 19.546 10.8442 20.2397C10.8903 20.5844 10.9515 20.7813 11.0067 20.888C11.0315 20.936 11.0486 20.9526 11.0513 20.9552C11.0514 20.9553 11.0515 20.9553 11.0514 20.9553C11.0517 20.9554 11.0521 20.9555 11.0528 20.9558C11.0558 20.9568 11.0535 20.9563 11.0543 20.9562C11.058 20.9559 11.0818 20.9533 11.1309 20.931C11.2402 20.8812 11.41 20.7641 11.6592 20.5216C12.1607 20.0334 12.7918 19.2328 13.6973 18.0803L17.3594 13.4195C18.0383 12.5554 18.4929 11.9737 18.7496 11.5263C18.8747 11.3082 18.9229 11.171 18.9379 11.0891C18.9488 11.0295 18.9406 11.0132 18.9364 11.0048C18.9361 11.0043 18.9359 11.0038 18.9357 11.0034C18.9354 11.0029 18.9352 11.0024 18.935 11.0019C18.931 10.9934 18.9233 10.9768 18.8696 10.9486C18.7959 10.9098 18.6582 10.863 18.4095 10.8266C17.8991 10.752 17.1608 10.7501 16.062 10.7501H14.9999C14.9885 10.7501 14.977 10.7501 14.9654 10.7501C14.7603 10.7502 14.5385 10.7502 14.3513 10.7251C14.132 10.6956 13.8518 10.6198 13.616 10.384C13.3802 10.1482 13.3044 9.86796 13.2749 9.64864C13.2497 9.46142 13.2498 9.23963 13.2499 9.03451C13.2499 9.02298 13.2499 9.01149 13.2499 9.00007V6.93923C13.2499 5.47358 13.2482 4.45415 13.1555 3.76043C13.1095 3.41578 13.0483 3.21879 12.993 3.11209C12.9682 3.06419 12.9511 3.04749 12.9484 3.04495C12.9479 3.04444 12.9499 3.04539 12.947 3.04437C12.944 3.04334 12.9462 3.04387 12.9455 3.04393C12.9418 3.04424 12.918 3.04681 12.8689 3.06916C12.7596 3.11894 12.5897 3.23602 12.3406 3.47857ZM11.2942 2.40379C11.8407 1.87181 12.5752 1.32861 13.4373 1.62676C14.2993 1.92491 14.5413 2.80585 14.6423 3.56176C14.7499 4.36718 14.7499 5.48817 14.7499 6.87631V6.93923V9.00007C14.7499 9.09915 14.7499 9.17946 14.751 9.24892C14.8205 9.25004 14.9008 9.25007 14.9999 9.25007H16.062L16.1246 9.25007C17.1446 9.25003 17.9943 9.25 18.6264 9.34238C19.263 9.43542 19.9497 9.65841 20.2847 10.3477C20.6197 11.0369 20.3708 11.7147 20.0507 12.2727C19.7328 12.8268 19.2077 13.495 18.5776 14.2969L18.5389 14.3462L14.8768 19.007L14.8379 19.0565C13.9803 20.1481 13.2877 21.0295 12.7055 21.5964C12.1591 22.1283 11.4245 22.6715 10.5625 22.3734C9.70044 22.0752 9.45846 21.1943 9.35746 20.4384C9.24984 19.633 9.24986 18.512 9.24988 17.1238L9.24988 17.0609V15.0001C9.24988 14.901 9.24985 14.8207 9.24873 14.7512C9.17927 14.7501 9.09896 14.7501 8.99988 14.7501H7.93779L7.87511 14.7501C6.8552 14.7501 6.00547 14.7501 5.37334 14.6578C4.73675 14.5647 4.05001 14.3417 3.71502 13.6525C3.38002 12.9632 3.62896 12.2855 3.9491 11.7274C4.267 11.1733 4.79201 10.5052 5.42216 9.70322L5.46089 9.65393L9.12298 4.99309L9.16184 4.94363C10.0195 3.85209 10.712 2.97061 11.2942 2.40379Z" fill="#18191A"/>
</svg>
