<svg width="24" height="24" viewBox="0 0 24 24" fill="none" xmlns="http://www.w3.org/2000/svg">
<path fill-rule="evenodd" clip-rule="evenodd" d="M3.32698 3.63803C3 4.27976 3 5.11984 3 6.8V17.2C3 18.8802 3 19.7202 3.32698 20.362C3.6146 20.9265 4.07354 21.3854 4.63803 21.673C5.27337 21.9967 6.10311 22 7.75 22V21H7.5C6.39543 21 5.5 20.1046 5.5 19C5.5 17.8954 6.39543 17 7.5 17H7.75V12.5H7.5C6.39543 12.5 5.5 11.6046 5.5 10.5C5.5 9.39543 6.39543 8.5 7.5 8.5H7.75V7.5H7.5C6.39543 7.5 5.5 6.60457 5.5 5.5C5.5 4.39543 6.39543 3.5 7.5 3.5H7.75V2M7.8 2C7.78325 2 7.76658 2 7.75 2C6.10311 2.00003 5.27337 2.00326 4.63803 2.32698C4.07354 2.6146 3.6146 3.07354 3.32698 3.63803M8.25 2V3.5H8.5C9.60457 3.5 10.5 4.39543 10.5 5.5C10.5 6.60457 9.60457 7.5 8.5 7.5H8.25V8.5H8.5C9.60457 8.5 10.5 9.39543 10.5 10.5C10.5 11.6046 9.60457 12.5 8.5 12.5H8.25V17H8.5C9.60457 17 10.5 17.8954 10.5 19C10.5 20.1046 9.60457 21 8.5 21H8.25V22H15.75V19.5H15.5C14.3954 19.5 13.5 18.6046 13.5 17.5C13.5 16.3954 14.3954 15.5 15.5 15.5H15.75V14.5H15.5C14.3954 14.5 13.5 13.6046 13.5 12.5C13.5 11.3954 14.3954 10.5 15.5 10.5H15.75V8.5H15.5C14.3954 8.5 13.5 7.60457 13.5 6.5C13.5 5.39543 14.3954 4.5 15.5 4.5H15.75V2H8.25ZM16.25 2V4.5H16.5C17.6046 4.5 18.5 5.39543 18.5 6.5C18.5 7.60457 17.6046 8.5 16.5 8.5H16.25V10.5H16.5C17.6046 10.5 18.5 11.3954 18.5 12.5C18.5 13.6046 17.6046 14.5 16.5 14.5H16.25V15.5H16.5C17.6046 15.5 18.5 16.3954 18.5 17.5C18.5 18.6046 17.6046 19.5 16.5 19.5H16.25V22M16.25 2C17.8969 2.00003 18.7266 2.00326 19.362 2.32698C19.9265 2.6146 20.3854 3.07354 20.673 3.63803C21 4.27976 21 5.11984 21 6.8V17.2C21 18.8802 21 19.7202 20.673 20.362C20.3854 20.9265 19.9265 21.3854 19.362 21.673C18.7266 21.9967 17.8969 22 16.25 22M6.5 5.5C6.5 6.05228 6.94772 6.5 7.5 6.5H8.5C9.05228 6.5 9.5 6.05228 9.5 5.5C9.5 4.94772 9.05228 4.5 8.5 4.5H7.5C6.94772 4.5 6.5 4.94772 6.5 5.5ZM15.5 11.5C14.9477 11.5 14.5 11.9477 14.5 12.5C14.5 13.0523 14.9477 13.5 15.5 13.5H16.5C17.0523 13.5 17.5 13.0523 17.5 12.5C17.5 11.9477 17.0523 11.5 16.5 11.5H15.5ZM15.5 16.5C14.9477 16.5 14.5 16.9477 14.5 17.5C14.5 18.0523 14.9477 18.5 15.5 18.5H16.5C17.0523 18.5 17.5 18.0523 17.5 17.5C17.5 16.9477 17.0523 16.5 16.5 16.5H15.5ZM15.5 5.5C14.9477 5.5 14.5 5.94772 14.5 6.5C14.5 7.05228 14.9477 7.5 15.5 7.5H16.5C17.0523 7.5 17.5 7.05228 17.5 6.5C17.5 5.94772 17.0523 5.5 16.5 5.5H15.5ZM6.5 10.5C6.5 11.0523 6.94772 11.5 7.5 11.5H8.5C9.05228 11.5 9.5 11.0523 9.5 10.5C9.5 9.94772 9.05228 9.5 8.5 9.5H7.5C6.94772 9.5 6.5 9.94772 6.5 10.5ZM7.5 20C6.94772 20 6.5 19.5523 6.5 19C6.5 18.4477 6.94772 18 7.5 18H8.5C9.05228 18 9.5 18.4477 9.5 19C9.5 19.5523 9.05228 20 8.5 20H7.5Z" fill="#18191A"/>
</svg>
