<svg width="24" height="24" viewBox="0 0 24 24" fill="none" xmlns="http://www.w3.org/2000/svg">
<path fill-rule="evenodd" clip-rule="evenodd" d="M13.4839 13.9593C12.7985 12.8627 11.2014 12.8627 10.5159 13.9593L7.32019 19.0725C6.5917 20.2381 7.42968 21.75 8.80419 21.75H15.1957C16.5702 21.75 17.4082 20.2381 16.6797 19.0725L13.4839 13.9593ZM8.9 2.25H8.867C7.77486 2.24999 6.90936 2.24999 6.21173 2.30699C5.49835 2.36527 4.89472 2.48688 4.34355 2.76772C3.44978 3.22312 2.72312 3.94978 2.26772 4.84355C1.98688 5.39472 1.86527 5.99834 1.80699 6.71173C1.74999 7.40935 1.74999 8.27485 1.75 9.36699V9.367V9.4V13.2V13.2321V13.2321C1.74999 14.045 1.74999 14.7006 1.79336 15.2315C1.83803 15.7781 1.93239 16.2582 2.15873 16.7025C2.51825 17.4081 3.09193 17.9817 3.79754 18.3413C4.24175 18.5676 4.7219 18.662 5.26853 18.7066C5.79944 18.75 6.45505 18.75 7.26788 18.75H7.3H16.7H16.7321C17.545 18.75 18.2006 18.75 18.7315 18.7066C19.2781 18.662 19.7582 18.5676 20.2025 18.3413C20.9081 17.9817 21.4817 17.4081 21.8413 16.7025C22.0676 16.2582 22.162 15.7781 22.2066 15.2315C22.25 14.7006 22.25 14.045 22.25 13.2321V13.2V9.4V9.36698C22.25 8.27484 22.25 7.40935 22.193 6.71173C22.1347 5.99834 22.0131 5.39472 21.7323 4.84355C21.2769 3.94978 20.5502 3.22312 19.6565 2.76772C19.1053 2.48688 18.5017 2.36527 17.7883 2.30699C17.0906 2.24999 16.2251 2.24999 15.133 2.25H15.1H8.9Z" fill="#1D1E1F"/>
</svg>
