<svg width="24" height="24" viewBox="0 0 24 24" fill="none" xmlns="http://www.w3.org/2000/svg">
<path fill-rule="evenodd" clip-rule="evenodd" d="M21.25 4C21.6642 4 22 3.66421 22 3.25C22 2.83579 21.6642 2.5 21.25 2.5H2.75C2.33579 2.5 2 2.83579 2 3.25C2 3.66421 2.33579 4 2.75 4L21.25 4ZM8.6 22.5C9.44008 22.5 9.86012 22.5 10.181 22.3365C10.4632 22.1927 10.6927 21.9632 10.8365 21.681C11 21.3601 11 20.9401 11 20.1L11 9.4C11 8.55992 11 8.13988 10.8365 7.81901C10.6927 7.53677 10.4632 7.3073 10.181 7.16349C9.86012 7 9.44008 7 8.6 7H8.4C7.55992 7 7.13988 7 6.81901 7.16349C6.53677 7.3073 6.3073 7.53677 6.16349 7.81901C6 8.13988 6 8.55992 6 9.4L6 20.1C6 20.9401 6 21.3601 6.16349 21.681C6.3073 21.9632 6.53677 22.1927 6.81901 22.3365C7.13988 22.5 7.55992 22.5 8.4 22.5H8.6ZM18.181 15.3365C17.8601 15.5 17.4401 15.5 16.6 15.5H16.4C15.5599 15.5 15.1399 15.5 14.819 15.3365C14.5368 15.1927 14.3073 14.9632 14.1635 14.681C14 14.3601 14 13.9401 14 13.1V9.4C14 8.55992 14 8.13988 14.1635 7.81901C14.3073 7.53677 14.5368 7.3073 14.819 7.16349C15.1399 7 15.5599 7 16.4 7H16.6C17.4401 7 17.8601 7 18.181 7.16349C18.4632 7.3073 18.6927 7.53677 18.8365 7.81901C19 8.13988 19 8.55992 19 9.4V13.1C19 13.9401 19 14.3601 18.8365 14.681C18.6927 14.9632 18.4632 15.1927 18.181 15.3365Z" fill="#18191A"/>
</svg>
