<svg width="24" height="24" viewBox="0 0 24 24" fill="none" xmlns="http://www.w3.org/2000/svg">
<path fill-rule="evenodd" clip-rule="evenodd" d="M8.6 17C9.44008 17 9.86012 17 10.181 16.8365C10.4632 16.6927 10.6927 16.4632 10.8365 16.181C11 15.8601 11 15.4401 11 14.6L11 4.4C11 3.55992 11 3.13988 10.8365 2.81901C10.6927 2.53677 10.4632 2.3073 10.181 2.16349C9.86012 2 9.44008 2 8.6 2H8.4C7.55992 2 7.13988 2 6.81901 2.16349C6.53677 2.3073 6.3073 2.53677 6.16349 2.81901C6 3.13988 6 3.55992 6 4.4L6 14.6C6 15.4401 6 15.8601 6.16349 16.181C6.3073 16.4632 6.53677 16.6927 6.81902 16.8365C7.13988 17 7.55992 17 8.4 17H8.6ZM21.25 21.5C21.6642 21.5 22 21.1642 22 20.75C22 20.3358 21.6642 20 21.25 20H2.75C2.33579 20 2 20.3358 2 20.75C2 21.1642 2.33579 21.5 2.75 21.5H21.25ZM18.181 16.8365C17.8601 17 17.4401 17 16.6 17H16.4C15.5599 17 15.1399 17 14.819 16.8365C14.5368 16.6927 14.3073 16.4632 14.1635 16.181C14 15.8601 14 15.4401 14 14.6V11.4C14 10.5599 14 10.1399 14.1635 9.81901C14.3073 9.53677 14.5368 9.3073 14.819 9.16349C15.1399 9 15.5599 9 16.4 9H16.6C17.4401 9 17.8601 9 18.181 9.16349C18.4632 9.3073 18.6927 9.53677 18.8365 9.81901C19 10.1399 19 10.5599 19 11.4V14.6C19 15.4401 19 15.8601 18.8365 16.181C18.6927 16.4632 18.4632 16.6927 18.181 16.8365Z" fill="#18191A"/>
</svg>
