<svg width="24" height="24" viewBox="0 0 24 24" fill="none" xmlns="http://www.w3.org/2000/svg">
<path fill-rule="evenodd" clip-rule="evenodd" d="M8.6 21.5C9.44008 21.5 9.86012 21.5 10.181 21.3365C10.4632 21.1927 10.6927 20.9632 10.8365 20.681C11 20.3601 11 19.9401 11 19.1V14.5H14V16.1C14 16.9401 14 17.3601 14.1635 17.681C14.3073 17.9632 14.5368 18.1927 14.819 18.3365C15.1399 18.5 15.5599 18.5 16.4 18.5H16.6C17.4401 18.5 17.8601 18.5 18.181 18.3365C18.4632 18.1927 18.6927 17.9632 18.8365 17.681C19 17.3601 19 16.9401 19 16.1V14.5H21.25C21.6642 14.5 22 14.1642 22 13.75C22 13.3358 21.6642 13 21.25 13H19V12.4C19 11.5599 19 11.1399 18.8365 10.819C18.6927 10.5368 18.4632 10.3073 18.181 10.1635C17.8601 10 17.4401 10 16.6 10H16.4C15.5599 10 15.1399 10 14.819 10.1635C14.5368 10.3073 14.3073 10.5368 14.1635 10.819C14 11.1399 14 11.5599 14 12.4V13H11V8.4C11 7.55992 11 7.13988 10.8365 6.81901C10.6927 6.53677 10.4632 6.3073 10.181 6.16349C9.86012 6 9.44008 6 8.6 6H8.4C7.55992 6 7.13988 6 6.81901 6.16349C6.53677 6.3073 6.3073 6.53677 6.16349 6.81901C6 7.13988 6 7.55992 6 8.4L6 13H2.75C2.33579 13 2 13.3358 2 13.75C2 14.1642 2.33579 14.5 2.75 14.5H6L6 19.1C6 19.9401 6 20.3601 6.16349 20.681C6.3073 20.9632 6.53677 21.1927 6.81901 21.3365C7.13988 21.5 7.55992 21.5 8.4 21.5H8.6Z" fill="#18191A"/>
</svg>
