<svg width="24" height="24" viewBox="0 0 24 24" fill="none" xmlns="http://www.w3.org/2000/svg">
<path fill-rule="evenodd" clip-rule="evenodd" d="M11 21.25C11 21.6642 11.3358 22 11.75 22C12.1642 22 12.5 21.6642 12.5 21.25V19H13.6C14.4401 19 14.8601 19 15.181 18.8365C15.4632 18.6927 15.6927 18.4632 15.8365 18.181C16 17.8601 16 17.4401 16 16.6V16.4C16 15.5599 16 15.1399 15.8365 14.819C15.6927 14.5368 15.4632 14.3073 15.181 14.1635C14.8601 14 14.4401 14 13.6 14H12.5V11H17.1C17.9401 11 18.3601 11 18.681 10.8365C18.9632 10.6927 19.1927 10.4632 19.3365 10.181C19.5 9.86012 19.5 9.44008 19.5 8.6V8.4C19.5 7.55992 19.5 7.13988 19.3365 6.81901C19.1927 6.53677 18.9632 6.3073 18.681 6.16349C18.3601 6 17.9401 6 17.1 6H12.5V2.75C12.5 2.33579 12.1642 2 11.75 2C11.3358 2 11 2.33579 11 2.75V6H6.4C5.55992 6 5.13988 6 4.81901 6.16349C4.53677 6.3073 4.3073 6.53677 4.16349 6.81901C4 7.13988 4 7.55992 4 8.4V8.6C4 9.44008 4 9.86012 4.16349 10.181C4.3073 10.4632 4.53677 10.6927 4.81901 10.8365C5.13988 11 5.55992 11 6.4 11H11V14H9.9C9.05992 14 8.63988 14 8.31901 14.1635C8.03677 14.3073 7.8073 14.5368 7.66349 14.819C7.5 15.1399 7.5 15.5599 7.5 16.4V16.6C7.5 17.4401 7.5 17.8601 7.66349 18.181C7.8073 18.4632 8.03677 18.6927 8.31901 18.8365C8.63988 19 9.05992 19 9.9 19H11V21.25Z" fill="#18191A"/>
</svg>
