<svg width="24" height="24" viewBox="0 0 24 24" fill="none" xmlns="http://www.w3.org/2000/svg">
<path fill-rule="evenodd" clip-rule="evenodd" d="M20.5 21.25C20.5 21.6642 20.8358 22 21.25 22C21.6642 22 22 21.6642 22 21.25V2.75C22 2.33579 21.6642 2 21.25 2C20.8358 2 20.5 2.33579 20.5 2.75V21.25ZM2 8.6C2 9.44008 2 9.86012 2.16349 10.181C2.3073 10.4632 2.53677 10.6927 2.81901 10.8365C3.13988 11 3.55992 11 4.4 11H15.1C15.9401 11 16.3601 11 16.681 10.8365C16.9632 10.6927 17.1927 10.4632 17.3365 10.181C17.5 9.86012 17.5 9.44008 17.5 8.6V8.4C17.5 7.55992 17.5 7.13988 17.3365 6.81901C17.1927 6.53677 16.9632 6.3073 16.681 6.16349C16.3601 6 15.9401 6 15.1 6H4.4C3.55992 6 3.13988 6 2.81901 6.16349C2.53677 6.3073 2.3073 6.53677 2.16349 6.81901C2 7.13988 2 7.55992 2 8.4V8.6ZM9.16349 18.181C9 17.8601 9 17.4401 9 16.6V16.4C9 15.5599 9 15.1399 9.16349 14.819C9.3073 14.5368 9.53677 14.3073 9.81901 14.1635C10.1399 14 10.5599 14 11.4 14H15.1C15.9401 14 16.3601 14 16.681 14.1635C16.9632 14.3073 17.1927 14.5368 17.3365 14.819C17.5 15.1399 17.5 15.5599 17.5 16.4V16.6C17.5 17.4401 17.5 17.8601 17.3365 18.181C17.1927 18.4632 16.9632 18.6927 16.681 18.8365C16.3601 19 15.9401 19 15.1 19H11.4C10.5599 19 10.1399 19 9.81901 18.8365C9.53677 18.6927 9.3073 18.4632 9.16349 18.181Z" fill="#18191A"/>
</svg>
