<svg width="24" height="24" viewBox="0 0 24 24" fill="none" xmlns="http://www.w3.org/2000/svg">
<path fill-rule="evenodd" clip-rule="evenodd" d="M3.5 21.25C3.5 21.6642 3.16421 22 2.75 22C2.33579 22 2 21.6642 2 21.25V2.75C2 2.33579 2.33579 2 2.75 2C3.16421 2 3.5 2.33579 3.5 2.75V21.25ZM22 8.6C22 9.44008 22 9.86012 21.8365 10.181C21.6927 10.4632 21.4632 10.6927 21.181 10.8365C20.8601 11 20.4401 11 19.6 11H8.9C8.05992 11 7.63988 11 7.31901 10.8365C7.03677 10.6927 6.8073 10.4632 6.66349 10.181C6.5 9.86012 6.5 9.44008 6.5 8.6V8.4C6.5 7.55992 6.5 7.13988 6.66349 6.81901C6.8073 6.53677 7.03677 6.3073 7.31901 6.16349C7.63988 6 8.05992 6 8.9 6H19.6C20.4401 6 20.8601 6 21.181 6.16349C21.4632 6.3073 21.6927 6.53677 21.8365 6.81901C22 7.13988 22 7.55992 22 8.4V8.6ZM14.8365 18.181C15 17.8601 15 17.4401 15 16.6V16.4C15 15.5599 15 15.1399 14.8365 14.819C14.6927 14.5368 14.4632 14.3073 14.181 14.1635C13.8601 14 13.4401 14 12.6 14H8.9C8.05992 14 7.63988 14 7.31901 14.1635C7.03677 14.3073 6.8073 14.5368 6.66349 14.819C6.5 15.1399 6.5 15.5599 6.5 16.4V16.6C6.5 17.4401 6.5 17.8601 6.66349 18.181C6.8073 18.4632 7.03677 18.6927 7.31901 18.8365C7.63988 19 8.05992 19 8.9 19H12.6C13.4401 19 13.8601 19 14.181 18.8365C14.4632 18.6927 14.6927 18.4632 14.8365 18.181Z" fill="#18191A"/>
</svg>
