<svg width="24" height="24" viewBox="0 0 24 24" fill="none" xmlns="http://www.w3.org/2000/svg">
<path fill-rule="evenodd" clip-rule="evenodd" d="M14.292 2.51921L14.425 2.29606C17.3467 3.02384 19.7602 5.03658 21.0306 7.69943H14.1467H11.2034L14.292 2.51921ZM21.3513 9.19943H21.6025C21.8613 10.0881 22 11.0278 22 12C22 14.019 21.4017 15.8982 20.3727 17.47L16.8989 11.6172L15.4639 9.19943H21.3513ZM19.2513 18.5195L19.3842 18.7435C17.5556 20.7447 14.9244 22 12 22C11.7198 22 11.4422 21.9885 11.1678 21.9659L14.7742 15.9356L16.2515 13.4653L19.2513 18.5195ZM9.71043 21.4803L9.57644 21.7043C6.65408 20.9768 4.24002 18.9639 2.96942 16.3006H9.88308H12.8081L9.71043 21.4803ZM2.64868 14.8006H2.39747C2.13873 13.9119 2 12.9722 2 12C2 9.97956 2.59919 8.09907 3.62957 6.52654L7.12193 12.384L8.56273 14.8006H2.64868ZM12 2C9.07653 2 6.44607 3.25451 4.61757 5.25456L4.75 5.47667L7.76613 10.5354L9.23889 8.06534L9.23889 8.06534L12.8347 2.03434C12.5595 2.0116 12.2811 2 12 2ZM10.3091 9.19943L8.63932 12L10.3091 14.8006H13.7052L15.381 11.9985L13.7196 9.19943H10.3091Z" fill="#18191A"/>
</svg>
