<svg width="24" height="24" viewBox="0 0 24 24" fill="none" xmlns="http://www.w3.org/2000/svg">
<path fill-rule="evenodd" clip-rule="evenodd" d="M6.16957 2.25H6.2H6.8H6.83044H6.83045C7.3646 2.24999 7.81044 2.24998 8.17467 2.27974C8.55456 2.31078 8.91121 2.37789 9.24848 2.54973C9.76592 2.81338 10.1866 3.23408 10.4503 3.75153C10.6221 4.08879 10.6892 4.44545 10.7203 4.82533C10.75 5.18956 10.75 5.63539 10.75 6.16953V6.16957V6.2V6.8V6.83043V6.83047C10.75 7.36461 10.75 7.81045 10.7203 8.17467C10.6892 8.55456 10.6221 8.91121 10.4503 9.24848C10.1866 9.76592 9.76592 10.1866 9.24848 10.4503C8.91121 10.6221 8.55456 10.6892 8.17467 10.7203C7.81045 10.75 7.36461 10.75 6.83047 10.75H6.83043H6.8H6.2H6.16957H6.16953C5.63539 10.75 5.18956 10.75 4.82533 10.7203C4.44545 10.6892 4.08879 10.6221 3.75153 10.4503C3.23408 10.1866 2.81338 9.76592 2.54973 9.24848C2.37789 8.91121 2.31078 8.55456 2.27974 8.17467C2.24998 7.81044 2.24999 7.3646 2.25 6.83045V6.83044V6.8V6.2V6.16957V6.16955C2.24999 5.6354 2.24998 5.18956 2.27974 4.82533C2.31078 4.44545 2.37789 4.08879 2.54973 3.75153C2.81338 3.23408 3.23408 2.81338 3.75153 2.54973C4.08879 2.37789 4.44545 2.31078 4.82533 2.27974C5.18956 2.24998 5.6354 2.24999 6.16955 2.25H6.16957ZM17.1696 2.25H17.2H17.8H17.8304H17.8304C18.3646 2.24999 18.8104 2.24998 19.1747 2.27974C19.5546 2.31078 19.9112 2.37789 20.2485 2.54973C20.7659 2.81338 21.1866 3.23408 21.4503 3.75153C21.6221 4.08879 21.6892 4.44545 21.7203 4.82533C21.75 5.18957 21.75 5.63542 21.75 6.16957V6.2V6.8V6.83043C21.75 7.36459 21.75 7.81044 21.7203 8.17467C21.6892 8.55456 21.6221 8.91121 21.4503 9.24848C21.1866 9.76592 20.7659 10.1866 20.2485 10.4503C19.9112 10.6221 19.5546 10.6892 19.1747 10.7203C18.8104 10.75 18.3646 10.75 17.8305 10.75H17.8304H17.8H17.2H17.1696H17.1695C16.6354 10.75 16.1896 10.75 15.8253 10.7203C15.4454 10.6892 15.0888 10.6221 14.7515 10.4503C14.2341 10.1866 13.8134 9.76592 13.5497 9.24848C13.3779 8.91121 13.3108 8.55456 13.2797 8.17467C13.25 7.81044 13.25 7.36459 13.25 6.83044V6.8V6.2V6.16957C13.25 5.63541 13.25 5.18956 13.2797 4.82533C13.3108 4.44545 13.3779 4.08879 13.5497 3.75153C13.8134 3.23408 14.2341 2.81338 14.7515 2.54973C15.0888 2.37789 15.4454 2.31078 15.8253 2.27974C16.1896 2.24998 16.6354 2.24999 17.1696 2.25H17.1696ZM6.2 13.25H6.16957C5.63541 13.25 5.18956 13.25 4.82533 13.2797C4.44545 13.3108 4.08879 13.3779 3.75153 13.5497C3.23408 13.8134 2.81338 14.2341 2.54973 14.7515C2.37789 15.0888 2.31078 15.4454 2.27974 15.8253C2.24998 16.1896 2.24999 16.6354 2.25 17.1696V17.1696V17.2V17.8V17.8304V17.8304C2.24999 18.3646 2.24998 18.8104 2.27974 19.1747C2.31078 19.5546 2.37789 19.9112 2.54973 20.2485C2.81338 20.7659 3.23408 21.1866 3.75153 21.4503C4.08879 21.6221 4.44545 21.6892 4.82533 21.7203C5.18957 21.75 5.63542 21.75 6.16957 21.75H6.2H6.8H6.83043C7.36459 21.75 7.81044 21.75 8.17467 21.7203C8.55456 21.6892 8.91121 21.6221 9.24848 21.4503C9.76592 21.1866 10.1866 20.7659 10.4503 20.2485C10.6221 19.9112 10.6892 19.5546 10.7203 19.1747C10.75 18.8104 10.75 18.3646 10.75 17.8305V17.8304V17.8V17.2V17.1696V17.1695C10.75 16.6354 10.75 16.1896 10.7203 15.8253C10.6892 15.4454 10.6221 15.0888 10.4503 14.7515C10.1866 14.2341 9.76592 13.8134 9.24848 13.5497C8.91121 13.3779 8.55456 13.3108 8.17467 13.2797C7.81044 13.25 7.36459 13.25 6.83044 13.25H6.8H6.2ZM17.1696 13.25H17.2H17.8H17.8304C18.3646 13.25 18.8104 13.25 19.1747 13.2797C19.5546 13.3108 19.9112 13.3779 20.2485 13.5497C20.7659 13.8134 21.1866 14.2341 21.4503 14.7515C21.6221 15.0888 21.6892 15.4454 21.7203 15.8253C21.75 16.1896 21.75 16.6354 21.75 17.1696V17.2V17.8V17.8304C21.75 18.3646 21.75 18.8104 21.7203 19.1747C21.6892 19.5546 21.6221 19.9112 21.4503 20.2485C21.1866 20.7659 20.7659 21.1866 20.2485 21.4503C19.9112 21.6221 19.5546 21.6892 19.1747 21.7203C18.8104 21.75 18.3646 21.75 17.8304 21.75H17.8H17.2H17.1696C16.6354 21.75 16.1896 21.75 15.8253 21.7203C15.4454 21.6892 15.0888 21.6221 14.7515 21.4503C14.2341 21.1866 13.8134 20.7659 13.5497 20.2485C13.3779 19.9112 13.3108 19.5546 13.2797 19.1747C13.25 18.8104 13.25 18.3646 13.25 17.8304V17.8V17.2V17.1696C13.25 16.6354 13.25 16.1896 13.2797 15.8253C13.3108 15.4454 13.3779 15.0888 13.5497 14.7515C13.8134 14.2341 14.2341 13.8134 14.7515 13.5497C15.0888 13.3779 15.4454 13.3108 15.8253 13.2797C16.1896 13.25 16.6354 13.25 17.1696 13.25Z" fill="#18191A"/>
</svg>
