<svg width="24" height="24" viewBox="0 0 24 24" fill="none" xmlns="http://www.w3.org/2000/svg">
<path fill-rule="evenodd" clip-rule="evenodd" d="M6.5 1.25L6.50753 1.25004H6.49247L6.5 1.25ZM2.36665 7.11669L5.75 1.78222V2.00004V7.51843C5.75 7.93265 6.08579 8.26843 6.5 8.26843C6.91421 8.26843 7.25 7.93265 7.25 7.51843V2.00004V1.78221L10.6334 7.11669C10.7729 7.33667 10.7883 7.61329 10.674 7.84738L8.99556 11.286C9.7212 11.448 10.24 12.1342 10.1584 12.9075L9.26116 21.4075C9.1806 22.1707 8.53692 22.75 7.76945 22.75H5.23056C4.46309 22.75 3.81941 22.1707 3.73884 21.4075L2.84162 12.9075C2.76 12.1342 3.27881 11.448 4.00444 11.286L2.326 7.84738C2.21174 7.61329 2.22713 7.33667 2.36665 7.11669ZM18.25 2.00001C18.25 1.77252 18.1468 1.55732 17.9693 1.41498C17.7919 1.27263 17.5594 1.21852 17.3373 1.26787C14.7203 1.84943 13.4074 3.90754 13.1918 5.92011C13.0088 7.62805 13.6162 9.53145 15.1026 10.411L14.4344 12.75H15H20H20.5658L19.8698 10.3143C20.9808 9.45804 21.3952 8.33793 21.2425 7.26895C21.0798 6.13033 20.2732 5.13382 19.2372 4.78849C18.9315 4.68659 18.7536 4.57611 18.6424 4.47312C18.5372 4.37567 18.459 4.25503 18.3991 4.07533C18.2591 3.65557 18.25 3.05128 18.25 2.00001ZM15.6522 21.5107L14.3708 14.25H15H20H20.6293L19.348 21.5107C19.2216 22.2275 18.5987 22.75 17.8709 22.75H17.1293C16.4015 22.75 15.7787 22.2275 15.6522 21.5107ZM20.75 13.5112C20.7501 13.5038 20.7501 13.4963 20.75 13.4889V13.5112Z" fill="#18191A"/>
</svg>
