<svg width="24" height="24" viewBox="0 0 24 24" fill="none" xmlns="http://www.w3.org/2000/svg">
<path fill-rule="evenodd" clip-rule="evenodd" d="M3.75 3C3.75 2.58579 3.41421 2.25 3 2.25C2.58579 2.25 2.25 2.58579 2.25 3V9V9.75H3H10C10.4142 9.75 10.75 9.41421 10.75 9C10.75 8.58579 10.4142 8.25 10 8.25H4.64944C5.01719 7.53073 5.48764 6.87218 6.04165 6.29385C7.5443 4.72523 9.65766 3.75 12.0001 3.75C16.5564 3.75 20.2501 7.44365 20.2501 12C20.2501 16.5563 16.5564 20.25 12.0001 20.25V21.75C17.3848 21.75 21.7501 17.3848 21.7501 12C21.7501 6.61522 17.3848 2.25 12.0001 2.25C9.23198 2.25 6.7323 3.4045 4.95846 5.25621C4.50619 5.72834 4.10084 6.246 3.75 6.80174V3Z" fill="#B9C3CD"/>
<path d="M4.96747 21C4.3306 21 3.79371 20.895 3.35678 20.685C2.91986 20.4674 2.58662 20.1861 2.35705 19.8411C2.13488 19.496 2.0164 19.1285 2.00159 18.7384C1.99418 18.6709 2.0127 18.6184 2.05713 18.5809C2.10897 18.5359 2.16821 18.5134 2.23486 18.5134H3.26792C3.34938 18.5134 3.41603 18.5321 3.46787 18.5696C3.52711 18.5996 3.57154 18.6559 3.60116 18.7384C3.67522 18.9634 3.77889 19.1472 3.91219 19.2897C4.0529 19.4323 4.21211 19.5373 4.38984 19.6048C4.57498 19.6723 4.76752 19.706 4.96747 19.706C5.23406 19.706 5.47474 19.6535 5.6895 19.5485C5.91166 19.436 6.08939 19.271 6.22269 19.0534C6.35599 18.8359 6.42264 18.5696 6.42264 18.2546C6.42264 17.977 6.35969 17.737 6.2338 17.5345C6.10791 17.3319 5.93388 17.1744 5.71172 17.0619C5.49696 16.9419 5.24888 16.8819 4.96747 16.8819C4.76012 16.8819 4.58979 16.9081 4.45649 16.9606C4.32319 17.0131 4.20841 17.0731 4.11214 17.1406C4.02327 17.2082 3.94181 17.2682 3.86776 17.3207C3.80111 17.3732 3.72335 17.3994 3.63449 17.3994H2.61254C2.54589 17.3994 2.48664 17.3769 2.43481 17.3319C2.39037 17.2794 2.36816 17.2194 2.36816 17.1519L2.75694 13.3038C2.76435 13.2063 2.79767 13.1313 2.85692 13.0788C2.91616 13.0263 2.98651 13 3.06797 13H7.24464C7.3187 13 7.38164 13.0263 7.43348 13.0788C7.48532 13.1313 7.51124 13.195 7.51124 13.27V14.0239C7.51124 14.0989 7.48532 14.1627 7.43348 14.2152C7.38164 14.2677 7.3187 14.294 7.24464 14.294H4.03438L3.85665 16.128C3.98995 16.038 4.16768 15.9517 4.38984 15.8692C4.61201 15.7867 4.91933 15.7454 5.31182 15.7454C5.66728 15.7454 6.00423 15.8054 6.32267 15.9255C6.64851 16.038 6.93732 16.2068 7.1891 16.4318C7.44089 16.6493 7.63713 16.9156 7.77784 17.2307C7.92595 17.5382 8 17.8908 8 18.2883C8 18.8359 7.87411 19.3122 7.62232 19.7173C7.37054 20.1224 7.01878 20.4374 6.56705 20.6624C6.11531 20.8875 5.58212 21 4.96747 21Z" fill="#B9C3CD"/>
</svg>
