<svg width="24" height="24" viewBox="0 0 24 24" fill="none" xmlns="http://www.w3.org/2000/svg">
<g clip-path="url(#clip0_635_126)">
<path fill-rule="evenodd" clip-rule="evenodd" d="M3 2.25C3.41421 2.25 3.75 2.58579 3.75 3V6.80174C4.10084 6.246 4.50619 5.72834 4.95846 5.25621C6.7323 3.4045 9.23199 2.25 12.0001 2.25C17.3848 2.25 21.7501 6.61522 21.7501 12C21.7501 17.3848 17.3848 21.75 12.0001 21.75V20.25C16.5564 20.25 20.2501 16.5563 20.2501 12C20.2501 7.44365 16.5564 3.75 12.0001 3.75C9.65766 3.75 7.5443 4.72523 6.04165 6.29385C5.48764 6.87218 5.01719 7.53073 4.64944 8.25H10C10.4142 8.25 10.75 8.58579 10.75 9C10.75 9.41421 10.4142 9.75 10 9.75H3H2.25V9V3C2.25 2.58579 2.58579 2.25 3 2.25ZM6.19567 20.7958C6.51834 20.9319 6.90878 21 7.36698 21C7.82517 21 8.21561 20.9319 8.53829 20.7958C8.86741 20.6597 9.13523 20.4718 9.34174 20.2319C9.54826 19.9921 9.70314 19.7167 9.8064 19.4056C9.90965 19.088 9.96773 18.7509 9.98064 18.3944C9.99355 18.2194 10 18.0282 10 17.8208V17.1792C10 16.9653 9.99355 16.7676 9.98064 16.5861C9.96773 16.2296 9.90642 15.8958 9.79672 15.5847C9.69346 15.2671 9.53535 14.9917 9.32238 14.7583C9.11587 14.525 8.85128 14.3403 8.52861 14.2042C8.20593 14.0681 7.81872 14 7.36698 14C6.92169 14 6.5377 14.0681 6.21503 14.2042C5.89236 14.3403 5.62454 14.525 5.41157 14.7583C5.20506 14.9917 5.04695 15.2671 4.93724 15.5847C4.82753 15.8958 4.76622 16.2296 4.75332 16.5861C4.74686 16.7676 4.74041 16.9653 4.73396 17.1792V17.8208C4.74041 18.0282 4.74686 18.2194 4.75332 18.3944C4.77268 18.7509 4.83398 19.088 4.93724 19.4056C5.0405 19.7167 5.19538 19.9921 5.40189 20.2319C5.6084 20.4718 5.873 20.6597 6.19567 20.7958ZM8.2866 19.4736C8.09299 19.7458 7.78645 19.8819 7.36698 19.8819C6.96041 19.8819 6.65709 19.7458 6.45704 19.4736C6.25698 19.1949 6.1505 18.819 6.13759 18.3458C6.13759 18.1579 6.13436 17.9699 6.12791 17.7819V17.1986C6.13436 17.0042 6.13759 16.8194 6.13759 16.6444C6.1505 16.1843 6.25375 15.8148 6.44736 15.5361C6.64741 15.2509 6.95395 15.1083 7.36698 15.1083C7.78645 15.1083 8.09299 15.2509 8.2866 15.5361C8.48666 15.8148 8.58991 16.1843 8.59637 16.6444C8.60927 16.8194 8.61573 17.0042 8.61573 17.1986V17.7819C8.61573 17.9699 8.60927 18.1579 8.59637 18.3458C8.58991 18.819 8.48666 19.1949 8.2866 19.4736ZM2.25688 20.6694C2.25688 20.7343 2.27624 20.7894 2.31496 20.8347C2.36013 20.8801 2.41821 20.9028 2.4892 20.9028H3.3701C3.43464 20.9028 3.48949 20.8801 3.53467 20.8347C3.57984 20.7894 3.60243 20.7343 3.60243 20.6694V14.3306C3.60243 14.2657 3.57984 14.2106 3.53467 14.1653C3.48949 14.1199 3.43464 14.0972 3.3701 14.0972H2.51824C2.47307 14.0972 2.43112 14.1005 2.3924 14.1069C2.35368 14.1134 2.31496 14.1329 2.27624 14.1653L0.107865 15.8472C0.049784 15.8861 0.0142899 15.938 0.00138289 16.0028C-0.0050706 16.0676 0.0110631 16.1292 0.049784 16.1875L0.456354 16.7125C0.501528 16.7708 0.553156 16.8065 0.611237 16.8194C0.669319 16.8259 0.7274 16.8097 0.785481 16.7708L2.25688 15.6333V20.6694Z" fill="#B9C3CD"/>
</g>
<defs>
<clipPath id="clip0_635_126">
<rect width="24" height="24" fill="white"/>
</clipPath>
</defs>
</svg>
