<svg width="24" height="24" viewBox="0 0 24 24" fill="none" xmlns="http://www.w3.org/2000/svg">
<path fill-rule="evenodd" clip-rule="evenodd" d="M8.32501 6.25C8.67247 4.53832 10.1858 3.25 12 3.25C13.8142 3.25 15.3275 4.53832 15.675 6.25H8.32501ZM6.80317 6.25C7.16709 3.70578 9.35515 1.75 12 1.75C14.6449 1.75 16.8329 3.70578 17.1968 6.25H19C20.5567 6.25 21.8918 7.19851 22.459 8.54912C19.2882 11.709 15.6221 13.25 12 13.25C8.51807 13.25 4.99543 11.8259 1.91127 8.90867C2.37861 7.3699 3.80852 6.25 5.5 6.25H6.80317ZM1.75 10.775V18C1.75 20.6234 3.87665 22.75 6.5 22.75H18C20.6234 22.75 22.75 20.6234 22.75 18V10.3392C19.5084 13.2592 15.7731 14.75 12 14.75C8.41943 14.75 4.87287 13.4074 1.75 10.775ZM12 16.25C12.4142 16.25 12.75 16.5858 12.75 17V19C12.75 19.4142 12.4142 19.75 12 19.75C11.5858 19.75 11.25 19.4142 11.25 19V17C11.25 16.5858 11.5858 16.25 12 16.25Z" fill="#18191A"/>
</svg>
