<svg width="24" height="24" viewBox="0 0 24 24" fill="none" xmlns="http://www.w3.org/2000/svg">
<path fill-rule="evenodd" clip-rule="evenodd" d="M7.21068 2.79605C8.43285 1.78956 10.112 1.25 12.0001 1.25C13.8881 1.25 15.5672 1.78956 16.7894 2.79606C18.0232 3.81214 18.75 5.27371 18.75 7V7.0621L18.7402 7.1211L18.7401 7.12138L18.7401 7.12162L18.7401 7.12169L18.74 7.12239L18.7399 7.12283L18.7399 7.12305L18.7375 7.13916C18.7352 7.15521 18.7317 7.18165 18.7276 7.21754C18.7195 7.28939 18.7091 7.39857 18.7022 7.53749C18.6882 7.81639 18.6882 8.20915 18.7442 8.65699C18.857 9.55999 19.1891 10.6285 20.0303 11.4696C21.33 12.7692 21.4471 14.9416 20.1492 16.696C18.8471 18.4562 16.198 19.75 12.0001 19.75C7.80214 19.75 5.153 18.4562 3.85083 16.6961C2.5529 14.9416 2.66985 12.7693 3.96958 11.4696C4.81077 10.6285 5.1429 9.55999 5.25575 8.65699C5.31172 8.20915 5.31169 7.81639 5.29773 7.53749C5.29078 7.39857 5.28044 7.28939 5.27228 7.21754C5.2682 7.18165 5.26467 7.15521 5.2624 7.13916L5.26004 7.12305L5.25982 7.12165L5.25973 7.1211L5.24989 7.06208L5.24989 6.99997C5.24996 5.27368 5.97688 3.81212 7.21068 2.79605ZM12 21C11 21 10 21 10 21.6667C10 22.3333 11 23 12 23C13 23 14 22.3333 14 21.6667C14 21 13 21 12 21Z" fill="#18191A"/>
</svg>
