<svg width="24" height="24" viewBox="0 0 24 24" fill="none" xmlns="http://www.w3.org/2000/svg">
<path fill-rule="evenodd" clip-rule="evenodd" d="M1.46967 1.46967C1.76256 1.17678 2.23744 1.17678 2.53033 1.46967L6.61249 5.55183L18.2962 17.2356L22.5303 21.4697C22.8232 21.7626 22.8232 22.2374 22.5303 22.5303C22.2374 22.8232 21.7626 22.8232 21.4697 22.5303L17.6216 18.6822C16.2094 19.346 14.3515 19.75 12 19.75C7.80212 19.75 5.15298 18.4562 3.85081 16.6961C2.55289 14.9416 2.66983 12.7693 3.96957 11.4696C4.81075 10.6285 5.14288 9.55999 5.25573 8.65699C5.3117 8.20915 5.31167 7.81639 5.29771 7.53749C5.29076 7.39857 5.28043 7.28939 5.27226 7.21754C5.26818 7.18165 5.26465 7.15521 5.26238 7.13916L5.26002 7.12305L5.2598 7.12164L5.25971 7.1211L5.24987 7.06208L5.24987 6.99997C5.24988 6.77824 5.26188 6.5602 5.28563 6.34629L1.46967 2.53033C1.17678 2.23744 1.17678 1.76256 1.46967 1.46967ZM9.12029 1.72589C9.98935 1.4127 10.9623 1.25 12 1.25C13.8881 1.25 15.5672 1.78956 16.7894 2.79606C18.0231 3.81214 18.75 5.27371 18.75 7V7.0621L18.7402 7.1211C18.7402 7.12109 18.7401 7.12158 18.7401 7.12169L18.7399 7.12239L18.7399 7.12283L18.7399 7.12305L18.7398 7.12334L18.7375 7.13916C18.7352 7.15521 18.7317 7.18165 18.7276 7.21754C18.7194 7.28939 18.7091 7.39857 18.7022 7.53749C18.6882 7.81639 18.6882 8.20915 18.7441 8.65699C18.857 9.55999 19.1891 10.6285 20.0303 11.4696C20.6456 12.0849 20.9968 12.8994 21.0565 13.7729C21.0781 14.0832 21.0628 14.4009 21.0093 14.7195L21.007 14.7323C21.0055 14.7404 21.0039 14.7484 21.0022 14.7563C20.9181 15.2306 20.7499 15.7068 20.4935 16.1644L20.0092 17.0284L19.3089 16.328L7.01117 4.03033L6.44933 3.46849L7.04262 2.93998C7.62912 2.41752 8.33196 2.00983 9.12029 1.72589ZM12 21C11 21 10 21 10 21.6667C10 22.3333 11 23 12 23C13 23 14 22.3333 14 21.6667C14 21 13 21 12 21Z" fill="#18191A"/>
</svg>
