<svg width="24" height="24" viewBox="0 0 24 24" fill="none" xmlns="http://www.w3.org/2000/svg">
<path fill-rule="evenodd" clip-rule="evenodd" d="M1.46972 1.46967C1.76261 1.17678 2.23749 1.17678 2.53038 1.46967L5.53038 4.46967L16.5304 15.4697L22.5304 21.4697C22.8233 21.7626 22.8233 22.2374 22.5304 22.5303C22.2375 22.8232 21.7626 22.8232 21.4697 22.5303L16.4384 17.499C15.86 18.824 14.5382 19.75 13 19.75H5.80005H5.76793C4.95509 19.75 4.29949 19.75 3.76858 19.7066C3.22194 19.662 2.7418 19.5676 2.29759 19.3413C1.59198 18.9817 1.0183 18.4081 0.658775 17.7025C0.432434 17.2582 0.338075 16.7781 0.293413 16.2315C0.250036 15.7006 0.250042 15.0449 0.250049 14.2321L0.250049 14.2V9L0.250024 8.8842C0.249755 8.06624 0.249571 7.50809 0.377827 7.02943C0.724579 5.73533 1.73538 4.72453 3.02948 4.37778C3.10576 4.35734 3.18406 4.34016 3.26511 4.32573L1.46972 2.53033C1.17683 2.23744 1.17683 1.76256 1.46972 1.46967ZM13.1094 5.78838C12.6467 5.75058 12.0525 5.75 11.2 5.75H9.00005V4.25H11.2H11.2321C12.045 4.24999 12.7006 4.24999 13.2315 4.29336C13.7782 4.33803 14.2583 4.43238 14.7025 4.65873C15.4081 5.01825 15.9818 5.59193 16.3413 6.29754C16.5677 6.74175 16.662 7.22189 16.7067 7.76853C16.7501 8.29944 16.7501 8.95505 16.75 9.76788V9.8V12H15.25V9.8C15.25 8.94755 15.2495 8.35331 15.2117 7.89068C15.1746 7.4368 15.1055 7.17604 15.0048 6.97852C14.7891 6.55516 14.4449 6.21095 14.0215 5.99524C13.824 5.8946 13.5632 5.82546 13.1094 5.78838ZM21.1182 7.22943C22.2849 6.54888 23.75 7.39041 23.75 8.74104V15.259C23.75 16.6096 22.2849 17.4511 21.1182 16.7706L19.1182 15.6039C18.5806 15.2903 18.25 14.7147 18.25 14.0923V9.90771C18.25 9.28529 18.5806 8.70971 19.1182 8.39609L21.1182 7.22943Z" fill="#1D1E1F"/>
</svg>
