<svg width="24" height="24" viewBox="0 0 24 24" fill="none" xmlns="http://www.w3.org/2000/svg">
<path fill-rule="evenodd" clip-rule="evenodd" d="M5.7679 4.25H5.8H11.2H11.2321H11.2321C12.045 4.24999 12.7006 4.24999 13.2315 4.29336C13.7781 4.33803 14.2582 4.43239 14.7025 4.65873C15.4081 5.01825 15.9817 5.59193 16.3413 6.29754C16.5676 6.74175 16.662 7.2219 16.7066 7.76853C16.75 8.29944 16.75 8.95505 16.75 9.76788V9.8V14.2V14.2321C16.75 15.045 16.75 15.7006 16.7066 16.2315C16.662 16.7781 16.5676 17.2582 16.3413 17.7025C15.9817 18.4081 15.4081 18.9817 14.7025 19.3413C14.2582 19.5676 13.7781 19.662 13.2315 19.7066C12.7006 19.75 12.0449 19.75 11.2321 19.75H11.2H5.8H5.76793C4.95507 19.75 4.29945 19.75 3.76853 19.7066C3.2219 19.662 2.74175 19.5676 2.29754 19.3413C1.59193 18.9817 1.01825 18.4081 0.658726 17.7025C0.432386 17.2582 0.338026 16.7781 0.293364 16.2315C0.249987 15.7006 0.249993 15.045 0.25 14.2321V14.2321V14.2321V14.2V9.8V9.7679V9.76788V9.76788C0.249993 8.95505 0.249987 8.29944 0.293364 7.76853C0.338026 7.2219 0.432386 6.74175 0.658726 6.29754C1.01825 5.59193 1.59193 5.01825 2.29754 4.65873C2.74175 4.43239 3.2219 4.33803 3.76853 4.29336C4.29944 4.24999 4.95505 4.24999 5.76788 4.25H5.7679ZM21.1182 7.22943C22.2849 6.54888 23.75 7.39041 23.75 8.74104V15.259C23.75 16.6096 22.2849 17.4511 21.1182 16.7706L19.1182 15.6039C18.5806 15.2903 18.25 14.7147 18.25 14.0923V9.90771C18.25 9.28529 18.5806 8.70971 19.1182 8.39609L21.1182 7.22943Z" fill="#1D1E1F"/>
</svg>
