<svg width="24" height="24" viewBox="0 0 24 24" fill="none" xmlns="http://www.w3.org/2000/svg">
<path fill-rule="evenodd" clip-rule="evenodd" d="M4.25 3C4.25 2.86193 4.13807 2.75 4 2.75C3.86193 2.75 3.75 2.86193 3.75 3L3.75 14H2C1.44772 14 1 14.4477 1 15V16C1 16.5523 1.44772 17 2 17H3.75V19C3.75 19.1381 3.86193 19.25 4 19.25C4.13807 19.25 4.25 19.1381 4.25 19V17H6C6.55228 17 7 16.5523 7 16V15C7 14.4477 6.55228 14 6 14H4.25L4.25 3ZM19.75 15H18C17.4477 15 17 14.5523 17 14V4C17 3.44772 17.4477 3 18 3H22C22.5523 3 23 3.44772 23 4V14C23 14.5523 22.5523 15 22 15H20.25V18C20.25 18.1381 20.1381 18.25 20 18.25C19.8619 18.25 19.75 18.1381 19.75 18V15ZM12 6.75C12.1381 6.75 12.25 6.86193 12.25 7V10H14C14.5523 10 15 10.4477 15 11V18C15 18.5523 14.5523 19 14 19H12.25V21C12.25 21.1381 12.1381 21.25 12 21.25C11.8619 21.25 11.75 21.1381 11.75 21V19H10C9.44772 19 9 18.5523 9 18V11C9 10.4477 9.44772 10 10 10H11.75V7C11.75 6.86193 11.8619 6.75 12 6.75Z" fill="#18191A"/>
</svg>
