<svg width="24" height="24" viewBox="0 0 24 24" fill="none" xmlns="http://www.w3.org/2000/svg">
<path fill-rule="evenodd" clip-rule="evenodd" d="M12.25 1C12.25 0.861929 12.1381 0.75 12 0.75C11.8619 0.75 11.75 0.861929 11.75 1L11.75 12H10C9.44772 12 9 12.4477 9 13V14C9 14.5523 9.44772 15 10 15H11.75V18C11.75 18.1381 11.8619 18.25 12 18.25C12.1381 18.25 12.25 18.1381 12.25 18V15H14C14.5523 15 15 14.5523 15 14V13C15 12.4477 14.5523 12 14 12H12.25L12.25 1ZM19.75 11H18C17.4477 11 17 10.5523 17 10V3C17 2.44772 17.4477 2 18 2H22C22.5523 2 23 2.44772 23 3V10C23 10.5523 22.5523 11 22 11H20.25V13C20.25 13.1381 20.1381 13.25 20 13.25C19.8619 13.25 19.75 13.1381 19.75 13V11ZM4 6.75C4.13807 6.75 4.25 6.86193 4.25 7L4.25 10H6C6.55228 10 7 10.4477 7 11V18C7 18.5523 6.55228 19 6 19H4.25V21C4.25 21.1381 4.13807 21.25 4 21.25C3.86193 21.25 3.75 21.1381 3.75 21V19H2C1.44772 19 1 18.5523 1 18V11C1 10.4477 1.44772 10 2 10H3.75L3.75 7C3.75 6.86193 3.86193 6.75 4 6.75Z" fill="#18191A"/>
</svg>
