<svg width="24" height="24" viewBox="0 0 24 24" fill="none" xmlns="http://www.w3.org/2000/svg">
<path fill-rule="evenodd" clip-rule="evenodd" d="M5 3.25C2.92893 3.25 1.25 4.92893 1.25 7V7.75H2H22H22.75V7C22.75 4.92893 21.0711 3.25 19 3.25H5ZM1.25 17V9.25H2H22H22.75V13.0067C21.4856 11.1895 19.3817 10 17 10C13.134 10 10 13.134 10 17C10 18.3796 10.3991 19.666 11.0882 20.75H5C2.92893 20.75 1.25 19.0711 1.25 17ZM22.5 17C22.5 20 19.7614 22.5 17 22.5C14.2386 22.5 11.5 20 11.5 17C11.5 14 14 11.5 17 11.5C20 11.5 22.5 14 22.5 17ZM17 13.25C17.4142 13.25 17.75 13.5858 17.75 14V16.25H20C20.4142 16.25 20.75 16.5858 20.75 17C20.75 17.4142 20.4142 17.75 20 17.75H17.75V20C17.75 20.4142 17.4142 20.75 17 20.75C16.5858 20.75 16.25 20.4142 16.25 20V17.75H14C13.5858 17.75 13.25 17.4142 13.25 17C13.25 16.5858 13.5858 16.25 14 16.25H16.25V14C16.25 13.5858 16.5858 13.25 17 13.25Z" fill="#18191A"/>
</svg>
