<svg width="24" height="24" viewBox="0 0 24 24" fill="none" xmlns="http://www.w3.org/2000/svg">
<path fill-rule="evenodd" clip-rule="evenodd" d="M5 3.25C2.92893 3.25 1.25 4.92893 1.25 7V7.75H2H22H22.75V7C22.75 4.92893 21.0711 3.25 19 3.25H5ZM1.25 17V9.25H2H22H22.75V13.0067C21.4856 11.1895 19.3817 10 17 10C13.134 10 10 13.134 10 17C10 18.3796 10.3991 19.666 11.0882 20.75H5C2.92893 20.75 1.25 19.0711 1.25 17ZM22.5 17C22.5 20 19.7614 22.5 17 22.5C14.2386 22.5 11.5 20 11.5 17C11.5 14 14 11.5 17 11.5C20 11.5 22.5 14 22.5 17ZM20.0303 16.0303C20.3232 15.7374 20.3232 15.2626 20.0303 14.9697C19.7374 14.6768 19.2626 14.6768 18.9697 14.9697L16 17.9393L15.0303 16.9697C14.7374 16.6768 14.2626 16.6768 13.9697 16.9697C13.6768 17.2626 13.6768 17.7374 13.9697 18.0303L15.4697 19.5303C15.7626 19.8232 16.2374 19.8232 16.5303 19.5303L20.0303 16.0303Z" fill="#18191A"/>
</svg>
