<svg width="24" height="24" viewBox="0 0 24 24" fill="none" xmlns="http://www.w3.org/2000/svg">
<path fill-rule="evenodd" clip-rule="evenodd" d="M12.0001 1.25C11.5858 1.25 11.2501 1.58579 11.2501 2C11.2501 2.41421 11.5858 2.75 12.0001 2.75C17.1087 2.75 21.2501 6.89137 21.2501 12C21.2501 12.4142 21.5858 12.75 22.0001 12.75C22.4143 12.75 22.7501 12.4142 22.7501 12C22.7501 6.06294 17.9371 1.25 12.0001 1.25ZM10.2 20.25C8.92754 20.25 8.01827 20.2494 7.30551 20.1912C6.60151 20.1336 6.15551 20.0236 5.79756 19.8413C5.09195 19.4817 4.51827 18.9081 4.15874 18.2025C3.97636 17.8445 3.86635 17.3985 3.80883 16.6945C3.7506 15.9817 3.75001 15.0725 3.75001 13.8L3.75 8.00006C3.75 6.20512 5.20507 4.75003 7 4.75H7.49999H8.24999V3.25H7.49999H6.99998C4.37662 3.25004 2.24999 5.37671 2.25 8.00007L2.25001 13.8V13.8332C2.25001 15.0652 2.25 16.0357 2.31382 16.8167C2.37892 17.6134 2.51415 18.2788 2.82224 18.8834C3.32557 19.8713 4.12873 20.6744 5.11658 21.1778C5.72123 21.4859 6.3866 21.6211 7.18337 21.6862C7.96435 21.75 8.93482 21.75 10.1667 21.75H10.2L16.0001 21.75C18.6234 21.7499 20.75 19.6233 20.7499 17V17V16.5V15.75H19.2499V16.5V17C19.25 18.7949 17.795 20.25 16.0001 20.25L10.2 20.25ZM12.0001 11C11.4478 11 11.0001 11.4477 11.0001 12C11.0001 12.5523 11.4478 13 12.0001 13H12.0105C12.5628 13 13.0105 12.5523 13.0105 12C13.0105 11.4477 12.5628 11 12.0105 11H12.0001ZM11.2501 7C11.2501 6.58579 11.5858 6.25 12.0001 6.25C15.1757 6.25 17.7501 8.82436 17.7501 12C17.7501 12.4142 17.4143 12.75 17.0001 12.75C16.5858 12.75 16.2501 12.4142 16.2501 12C16.2501 9.65279 14.3473 7.75 12.0001 7.75C11.5858 7.75 11.2501 7.41421 11.2501 7Z" fill="#B9C3CD"/>
</svg>
