<svg width="24" height="24" viewBox="0 0 24 24" fill="none" xmlns="http://www.w3.org/2000/svg">
<path fill-rule="evenodd" clip-rule="evenodd" d="M1.25 12C1.25 6.06294 6.06294 1.25 12 1.25C17.9371 1.25 22.75 6.06294 22.75 12C22.75 17.9371 17.9371 22.75 12 22.75C6.06294 22.75 1.25 17.9371 1.25 12ZM12.5584 14.0034L13.3247 7.48973C13.418 6.69675 12.7984 6 11.9999 6C11.2015 6 10.5819 6.69675 10.6752 7.48973L11.4415 14.0034C11.4748 14.2866 11.7148 14.5 11.9999 14.5C12.2851 14.5 12.5251 14.2866 12.5584 14.0034ZM12.9999 17C12.9999 17.5523 12.5522 18 11.9999 18C11.4477 18 10.9999 17.5523 10.9999 17C10.9999 16.4477 11.4477 16 11.9999 16C12.5522 16 12.9999 16.4477 12.9999 17Z" fill="#18191A"/>
</svg>
