<svg width="24" height="24" viewBox="0 0 24 24" fill="none" xmlns="http://www.w3.org/2000/svg">
<path fill-rule="evenodd" clip-rule="evenodd" d="M1.25 12C1.25 6.06294 6.06294 1.25 12 1.25C17.9371 1.25 22.75 6.06294 22.75 12C22.75 17.9371 17.9371 22.75 12 22.75C6.06294 22.75 1.25 17.9371 1.25 12ZM10.6253 14.2822V14.4309H12.692V14.2822C12.6961 13.878 12.7479 13.5386 12.8472 13.2641C12.9506 12.9857 13.1078 12.7436 13.3189 12.5377C13.534 12.3317 13.8092 12.1335 14.1443 11.9428C14.525 11.7331 14.8539 11.4948 15.1311 11.2278C15.4083 10.9609 15.6214 10.6559 15.7704 10.3127C15.9235 9.96949 16 9.58055 16 9.14585C16 8.50143 15.8304 7.94471 15.4911 7.47569C15.1559 7.00286 14.6863 6.6387 14.0822 6.38322C13.4823 6.12774 12.7872 6 11.9969 6C11.2728 6 10.6108 6.12202 10.0109 6.36606C9.41505 6.6101 8.93509 6.97617 8.57099 7.46425C8.21102 7.95234 8.02069 8.55863 8 9.28313H10.2095C10.2302 8.92469 10.3253 8.62917 10.495 8.39657C10.6687 8.16015 10.886 7.98475 11.1466 7.87035C11.4114 7.75214 11.6907 7.69304 11.9845 7.69304C12.3031 7.69304 12.5906 7.75405 12.8472 7.87607C13.1078 7.99809 13.3147 8.16969 13.4678 8.39085C13.6209 8.61201 13.6974 8.87321 13.6974 9.17445C13.6974 9.44137 13.6395 9.68351 13.5237 9.90086C13.4078 10.1144 13.2485 10.3089 13.0458 10.4843C12.8472 10.6559 12.6217 10.8141 12.3693 10.959C12.001 11.1687 11.6886 11.3994 11.4321 11.6511C11.1756 11.899 10.977 12.2269 10.8363 12.6349C10.6998 13.0429 10.6294 13.592 10.6253 14.2822ZM10.7432 17.6339C11.0122 17.878 11.3328 18 11.7052 18C11.9535 18 12.1789 17.9447 12.3817 17.8341C12.5886 17.7197 12.7541 17.5672 12.8782 17.3765C13.0065 17.1859 13.0706 16.9743 13.0706 16.7417C13.0706 16.3985 12.9341 16.1049 12.661 15.8608C12.392 15.6168 12.0734 15.4948 11.7052 15.4948C11.3328 15.4948 11.0122 15.6168 10.7432 15.8608C10.4743 16.1049 10.3398 16.3985 10.3398 16.7417C10.3398 17.0925 10.4743 17.3899 10.7432 17.6339Z" fill="#18191A"/>
</svg>
