<svg width="24" height="24" viewBox="0 0 24 24" fill="none" xmlns="http://www.w3.org/2000/svg">
<path fill-rule="evenodd" clip-rule="evenodd" d="M9.38434 5.44575C11.7276 4.02113 14.7425 4.84944 16.1198 7.36148C16.2515 7.60163 16.5036 7.75091 16.7774 7.75091C19.2115 7.75091 21.25 9.84038 21.25 12.5005C21.25 14.4207 20.1801 16.0563 18.6668 16.8068C18.2957 16.9908 18.1441 17.4409 18.3281 17.8119C18.5121 18.183 18.9621 18.3347 19.3332 18.1506C21.3657 17.1427 22.75 14.9811 22.75 12.5005C22.75 9.23678 20.3399 6.50251 17.2151 6.26732C15.3544 3.32801 11.589 2.3499 8.60509 4.16404C6.74823 5.29297 5.64041 7.23584 5.43136 9.29218C4.19439 9.4397 3.20238 9.97128 2.49236 10.7426C1.6617 11.645 1.25739 12.8309 1.2501 13.9957C1.24281 15.1601 1.63207 16.3472 2.44591 17.2518C3.27133 18.1693 4.49291 18.7501 6.045 18.7501C6.45921 18.7501 6.795 18.4143 6.795 18.0001C6.795 17.5859 6.45921 17.2501 6.045 17.2501C4.89212 17.2501 4.08499 16.831 3.56106 16.2486C3.02556 15.6533 2.74484 14.8405 2.75007 14.0051C2.7553 13.17 3.04601 12.356 3.59599 11.7585C4.13484 11.1731 4.96294 10.7507 6.14513 10.7507C6.55908 10.7507 6.89476 10.4153 6.89513 10.0013C6.89676 8.16819 7.801 6.40838 9.38434 5.44575ZM11.3564 12.7283L9.52537 15.0587C8.86226 15.9027 8.5307 16.3247 8.69484 16.6624C8.85898 17.0001 9.39564 17.0001 10.469 17.0001H11C11.2357 17.0001 11.3536 17.0001 11.4268 17.0733C11.5 17.1466 11.5 17.2644 11.5 17.5001V18.5305C11.5 19.972 11.5 20.6927 11.9039 20.8324C12.3078 20.9721 12.753 20.4053 13.6436 19.2719L15.4746 16.9415C16.1377 16.0975 16.4693 15.6755 16.3052 15.3378C16.141 15.0001 15.6044 15.0001 14.531 15.0001H14C13.7643 15.0001 13.6464 15.0001 13.5732 14.9269C13.5 14.8537 13.5 14.7358 13.5 14.5001V13.4697C13.5 12.0283 13.5 11.3075 13.0961 11.1679C12.6922 11.0282 12.247 11.5949 11.3564 12.7283Z" fill="#18191A"/>
</svg>
