<svg width="24" height="24" viewBox="0 0 24 24" fill="none" xmlns="http://www.w3.org/2000/svg">
<path fill-rule="evenodd" clip-rule="evenodd" d="M2.53033 1.46967C2.23744 1.17678 1.76256 1.17678 1.46967 1.46967C1.17678 1.76256 1.17678 2.23744 1.46967 2.53033L6.37008 7.43074C5.85277 8.30156 5.5338 9.28222 5.43129 10.2921C4.19436 10.4396 3.20236 10.9712 2.49236 11.7425C1.6617 12.6449 1.25739 13.8308 1.2501 14.9956C1.24281 16.16 1.63207 17.347 2.44591 18.2517C3.27133 19.1692 4.49291 19.75 6.045 19.75H16.7775C17.355 19.75 17.914 19.664 18.443 19.5037L21.4697 22.5303C21.7626 22.8232 22.2374 22.8232 22.5303 22.5303C22.8232 22.2374 22.8232 21.7626 22.5303 21.4697L19.1703 18.1097L18.4081 17.3474L7.86313 6.80247L7.47159 6.41093L2.53033 1.46967ZM10.2548 6.02789C12.4218 5.24498 14.9066 6.14862 16.1198 8.36136C16.2515 8.60152 16.5036 8.7508 16.7774 8.7508C19.2115 8.7508 21.25 10.8403 21.25 13.5004C21.25 14.4605 20.9824 15.3501 20.5251 16.0935C20.3081 16.4463 20.4181 16.9082 20.771 17.1252C21.1238 17.3423 21.5857 17.2322 21.8027 16.8794C22.4033 15.903 22.75 14.7419 22.75 13.5004C22.75 10.2367 20.3399 7.5024 17.2151 7.26721C15.5866 4.69448 12.4996 3.62201 9.74516 4.61714C9.35559 4.75788 9.15388 5.18779 9.29462 5.57736C9.43537 5.96693 9.86527 6.16864 10.2548 6.02789Z" fill="#18191A"/>
</svg>
