<svg width="24" height="24" viewBox="0 0 24 24" fill="none" xmlns="http://www.w3.org/2000/svg">
<path fill-rule="evenodd" clip-rule="evenodd" d="M1.299 11.733C2.96389 7.36319 7.11929 4.25 11.9999 4.25C16.8804 4.25 21.0358 7.36319 22.7007 11.733L22.8024 12L22.7007 12.267C21.0358 16.6368 16.8804 19.75 11.9999 19.75C7.11929 19.75 2.96389 16.6368 1.299 12.267L1.19727 12L1.299 11.733ZM8.74988 12C8.74988 10.2051 10.205 8.75 11.9999 8.75C13.7948 8.75 15.2499 10.2051 15.2499 12C15.2499 13.7949 13.7948 15.25 11.9999 15.25C10.205 15.25 8.74988 13.7949 8.74988 12ZM11.9999 7.25C9.37653 7.25 7.24988 9.37665 7.24988 12C7.24988 14.6234 9.37653 16.75 11.9999 16.75C14.6232 16.75 16.7499 14.6234 16.7499 12C16.7499 9.37665 14.6232 7.25 11.9999 7.25Z" fill="#18191A"/>
</svg>
