<svg width="24" height="24" viewBox="0 0 24 24" fill="none" xmlns="http://www.w3.org/2000/svg">
<path fill-rule="evenodd" clip-rule="evenodd" d="M11.4426 1.25001C11.7443 1.24996 12.0097 1.24991 12.25 1.25502V5.8L12.25 5.83043C12.25 6.36459 12.25 6.81044 12.2797 7.17467C12.3108 7.55455 12.3779 7.91121 12.5497 8.24847C12.8134 8.76592 13.2341 9.18662 13.7515 9.45027C14.0888 9.62211 14.4454 9.68922 14.8253 9.72026C15.1895 9.75002 15.6354 9.75001 16.1695 9.75H16.1695H16.2H20.7359C20.7501 10.0445 20.7501 10.3774 20.75 10.784V10.7841L20.75 10.8675V15.6V15.633C20.75 16.7252 20.75 17.5907 20.693 18.2883C20.6347 19.0017 20.5131 19.6053 20.2323 20.1565C19.7769 21.0502 19.0502 21.7769 18.1565 22.2323C17.6053 22.5131 17.0017 22.6347 16.2883 22.693C15.5906 22.75 14.7252 22.75 13.633 22.75H13.6H10.4H10.367C9.27484 22.75 8.40935 22.75 7.71173 22.693C6.99834 22.6347 6.39472 22.5131 5.84355 22.2323C4.94978 21.7769 4.22312 21.0502 3.76772 20.1565C3.48688 19.6053 3.36527 19.0017 3.30699 18.2883C3.24999 17.5907 3.24999 16.7252 3.25 15.633V15.633V15.6V8.40002V8.36702V8.36701C3.24999 7.27487 3.24999 6.40937 3.30699 5.71175C3.36527 4.99837 3.48688 4.39474 3.76772 3.84357C4.22312 2.9498 4.94978 2.22314 5.84355 1.76774C6.39472 1.4869 6.99834 1.36529 7.71173 1.30701C8.40936 1.25001 9.27486 1.25002 10.367 1.25002L10.4 1.25002H11.349L11.4426 1.25001ZM20.1775 7.71898C20.2706 7.89096 20.3528 8.06832 20.4239 8.25H16.2C15.6276 8.25 15.2434 8.24942 14.9475 8.22524C14.6604 8.20178 14.5231 8.1599 14.4325 8.11376C14.1973 7.99392 14.0061 7.80269 13.8862 7.56749C13.8401 7.47693 13.7982 7.33965 13.7748 7.05252C13.7506 6.75664 13.75 6.37243 13.75 5.8V1.46314C14.1268 1.57999 14.488 1.74344 14.825 1.94998C15.3053 2.24432 15.7103 2.64944 16.3387 3.27807L16.4048 3.34421L17.5303 4.46969C17.5439 4.48326 17.557 4.49735 17.5694 4.51193L19.0287 6.21438L19.083 6.27771L19.083 6.27773L19.083 6.27775C19.6016 6.88252 19.9358 7.27237 20.1775 7.71898ZM15 15.75C15.4142 15.75 15.75 15.4142 15.75 15C15.75 14.5858 15.4142 14.25 15 14.25H9C8.58579 14.25 8.25 14.5858 8.25 15C8.25 15.4142 8.58579 15.75 9 15.75H15Z" fill="#18191A"/>
</svg>
