<svg width="24" height="24" viewBox="0 0 24 24" fill="none" xmlns="http://www.w3.org/2000/svg">
<path fill-rule="evenodd" clip-rule="evenodd" d="M12.25 1.25502C12.0097 1.24991 11.7443 1.24996 11.4426 1.25001L11.349 1.25002H10.4L10.367 1.25002C9.27486 1.25002 8.40936 1.25001 7.71173 1.30701C6.99834 1.36529 6.39472 1.4869 5.84355 1.76774C4.94978 2.22314 4.22312 2.9498 3.76772 3.84357C3.48688 4.39474 3.36527 4.99837 3.30699 5.71175C3.24999 6.40937 3.24999 7.27487 3.25 8.36701V8.36702V8.40002V15.6V15.633V15.633C3.24999 16.7252 3.24999 17.5907 3.30699 18.2883C3.36527 19.0017 3.48688 19.6053 3.76772 20.1565C4.22312 21.0502 4.94978 21.7769 5.84355 22.2323C6.39472 22.5131 6.99834 22.6347 7.71173 22.693C8.40935 22.75 9.27484 22.75 10.367 22.75H10.4H13.6H13.633C14.7252 22.75 15.5906 22.75 16.2883 22.693C17.0017 22.6347 17.6053 22.5131 18.1565 22.2323C19.0502 21.7769 19.7769 21.0502 20.2323 20.1565C20.5131 19.6053 20.6347 19.0017 20.693 18.2883C20.75 17.5907 20.75 16.7252 20.75 15.633V15.6V10.8675L20.75 10.7841V10.784C20.7501 10.3774 20.7501 10.0445 20.7359 9.75H16.2H16.1696H16.1695C15.6354 9.75001 15.1896 9.75002 14.8253 9.72026C14.4455 9.68922 14.0888 9.62211 13.7515 9.45027C13.2341 9.18662 12.8134 8.76592 12.5497 8.24847C12.3779 7.91121 12.3108 7.55455 12.2797 7.17467C12.25 6.81044 12.25 6.36459 12.25 5.83043V5.8V1.25502ZM20.4239 8.25H16.2C15.6276 8.25 15.2434 8.24942 14.9475 8.22524C14.6604 8.20178 14.5231 8.1599 14.4325 8.11376C14.1973 7.99392 14.0061 7.80269 13.8862 7.56749C13.8401 7.47693 13.7982 7.33965 13.7748 7.05252C13.7506 6.75664 13.75 6.37243 13.75 5.8V1.46315C14.1268 1.57999 14.488 1.74344 14.825 1.94998C15.3053 2.24432 15.7103 2.64944 16.3387 3.27807L16.4048 3.34421L17.5303 4.46969C17.5439 4.48326 17.557 4.49735 17.5694 4.51193L19.0287 6.21438L19.083 6.27771L19.083 6.27773L19.083 6.27775C19.6016 6.88252 19.9358 7.27237 20.1775 7.71898C20.2706 7.89096 20.3528 8.06832 20.4239 8.25ZM12 11.25C12.4142 11.25 12.75 11.5858 12.75 12V17.3299L14.5017 15.7728C14.8113 15.4976 15.2854 15.5255 15.5606 15.8351C15.8358 16.1446 15.8079 16.6187 15.4983 16.8939L12.4983 19.5606C12.2141 19.8131 11.7859 19.8131 11.5017 19.5606L8.50174 16.8939C8.19215 16.6187 8.16426 16.1446 8.43945 15.8351C8.71464 15.5255 9.18869 15.4976 9.49828 15.7728L11.25 17.3299V12C11.25 11.5858 11.5858 11.25 12 11.25Z" fill="#18191A"/>
</svg>
