<svg width="24" height="24" viewBox="0 0 24 24" fill="none" xmlns="http://www.w3.org/2000/svg">
<path fill-rule="evenodd" clip-rule="evenodd" d="M2.25 13.8333L2.25 13.8L2.25 10.2L2.25 10.1667C2.25 9.65029 2.25 9.17982 2.25469 8.75L3 8.75L6.75 8.75L8.25 8.75L11.25 8.75L11.25 15.25L8.25 15.25L6.75 15.25L3 15.25L2.25469 15.25C2.25 14.8202 2.25 14.3497 2.25 13.8333ZM2.30854 16.75C2.31024 16.7724 2.312 16.7946 2.3138 16.8167C2.3789 17.6134 2.51413 18.2788 2.82222 18.8835C3.32555 19.8713 4.1287 20.6744 5.11655 21.1778C5.60822 21.4283 6.14004 21.5645 6.75 21.6417L6.75 21.5L6.75 16.75L3 16.75L2.30854 16.75ZM8.25 21.737C8.80824 21.75 9.44226 21.75 10.1667 21.75L10.2 21.75L11.25 21.75L11.25 21L11.25 16.75L8.25 16.75L8.25 21.5L8.25 21.737ZM12.75 21.75L13.8 21.75L13.8333 21.75C14.5577 21.75 15.1918 21.75 15.75 21.737L15.75 21L15.75 16.75L12.75 16.75L12.75 21L12.75 21.75ZM17.25 21.6417C17.86 21.5645 18.3918 21.4283 18.8835 21.1778C19.8713 20.6744 20.6744 19.8713 21.1778 18.8834C21.4859 18.2788 21.6211 17.6134 21.6862 16.8167C21.688 16.7946 21.6898 16.7724 21.6915 16.75L21 16.75L17.25 16.75L17.25 21L17.25 21.6417ZM21.7453 15.25C21.75 14.8202 21.75 14.3497 21.75 13.8333L21.75 13.8L21.75 10.2L21.75 10.1667C21.75 9.65027 21.75 9.17982 21.7453 8.75L21 8.75L17.25 8.75L15.75 8.75L12.75 8.75L12.75 15.25L15.75 15.25L21 15.25L21.7453 15.25ZM21.6915 7.25C21.6898 7.22762 21.688 7.2054 21.6862 7.18333C21.6211 6.38657 21.4859 5.7212 21.1778 5.11655C20.6744 4.1287 19.8713 3.32555 18.8835 2.82222C18.3918 2.5717 17.86 2.43547 17.25 2.35831L17.25 3L17.25 7.25L21 7.25L21.6915 7.25ZM15.75 2.26297C15.1918 2.24999 14.5577 2.25 13.8333 2.25L13.8 2.25L12.75 2.25L12.75 3L12.75 7.25L15.75 7.25L15.75 3L15.75 2.26297ZM11.25 2.25L10.2 2.25L10.1667 2.25C9.44225 2.25 8.80824 2.24999 8.25 2.26297L8.25 2.5L8.25 7.25L11.25 7.25L11.25 3L11.25 2.25ZM6.75 2.35831C6.14004 2.43547 5.60822 2.5717 5.11655 2.82222C4.1287 3.32555 3.32555 4.1287 2.82222 5.11655C2.51413 5.7212 2.3789 6.38657 2.3138 7.18334C2.312 7.20541 2.31024 7.22763 2.30854 7.25L3 7.25L6.75 7.25L6.75 2.5L6.75 2.35831Z" fill="#1D1E1F"/>
</svg>
