<svg width="24" height="24" viewBox="0 0 24 24" fill="none" xmlns="http://www.w3.org/2000/svg">
<path fill-rule="evenodd" clip-rule="evenodd" d="M2.25 13.8V13.8333V13.8333V13.8333C2.25 15.0652 2.24999 16.0357 2.3138 16.8167C2.3789 17.6134 2.51413 18.2788 2.82222 18.8834C3.32555 19.8713 4.1287 20.6744 5.11655 21.1778C5.7212 21.4859 6.38657 21.6211 7.18334 21.6862C7.96432 21.75 8.93478 21.75 10.1667 21.75H10.2H13.8H13.8333H13.8335H13.8335C15.0653 21.75 16.0357 21.75 16.8167 21.6862C17.6134 21.6211 18.2788 21.4859 18.8835 21.1778C19.8713 20.6744 20.6744 19.8713 21.1778 18.8834C21.4859 18.2788 21.6211 17.6134 21.6862 16.8167C21.75 16.0357 21.75 15.0652 21.75 13.8333V13.8V10.2V10.1667V10.1654C21.75 9.64951 21.75 9.17947 21.7453 8.75H21H16.25H14.75H9.25H7.75H3H2.25469C2.25 9.17981 2.25 9.65025 2.25 10.1666V10.1667V10.1667V10.2V13.8ZM21.6862 7.18333L21.6915 7.25H21H16.25V3V2.27926C16.4494 2.28794 16.638 2.2992 16.8167 2.3138C17.6134 2.3789 18.2788 2.51413 18.8835 2.82222C19.8713 3.32555 20.6744 4.1287 21.1778 5.11655C21.4859 5.7212 21.6211 6.38657 21.6862 7.18333ZM13.8361 2.25C14.1582 2.25 14.4624 2.25 14.75 2.25115V3V7.25H9.25V3V2.25115C9.53765 2.25 9.8419 2.25 10.164 2.25H10.1667H10.2H13.8H13.8333H13.8361ZM7.18333 2.3138C7.36202 2.2992 7.55062 2.28794 7.75 2.27926V3V7.25H3H2.30854L2.3138 7.18334C2.3789 6.38657 2.51413 5.7212 2.82222 5.11655C3.32555 4.1287 4.1287 3.32555 5.11655 2.82222C5.7212 2.51413 6.38657 2.3789 7.18333 2.3138ZM14.7519 13.6679L11.5547 11.5365C10.8901 11.0934 10 11.5698 10 12.3685V16.6315C10 17.4302 10.8901 17.9066 11.5547 17.4635L14.7519 15.332C15.3457 14.9362 15.3457 14.0638 14.7519 13.6679Z" fill="#1D1E1F"/>
</svg>
