<svg width="24" height="24" viewBox="0 0 24 24" fill="none" xmlns="http://www.w3.org/2000/svg">
<path fill-rule="evenodd" clip-rule="evenodd" d="M12 21.9883C11.8343 21.9961 11.6676 22 11.5 22C5.70101 22 1 17.299 1 11.5C1 5.70101 5.70101 1 11.5 1C17.299 1 22 5.70101 22 11.5C22 15.3195 19.9606 18.6627 16.9114 20.5H23.25C23.6642 20.5 24 20.8358 24 21.25C24 21.6642 23.6642 22 23.25 22H12V21.9883ZM11.4717 8.94336C12.8368 8.94336 13.9434 7.83675 13.9434 6.47168C13.9434 5.10661 12.8368 4 11.4717 4C10.1066 4 9 5.10661 9 6.47168C9 7.83675 10.1066 8.94336 11.4717 8.94336ZM11.5 19C12.8651 19 13.9717 17.8934 13.9717 16.5283C13.9717 15.1632 12.8651 14.0566 11.5 14.0566C10.1349 14.0566 9.02831 15.1632 9.02831 16.5283C9.02831 17.8934 10.1349 19 11.5 19ZM8.97168 11.4717C8.97168 12.8368 7.86507 13.9434 6.5 13.9434C5.13493 13.9434 4.02832 12.8368 4.02832 11.4717C4.02832 10.1066 5.13493 9.00001 6.5 9.00001C7.86507 9.00001 8.97168 10.1066 8.97168 11.4717ZM16.5283 13.9717C17.8934 13.9717 19 12.8651 19 11.5C19 10.1349 17.8934 9.02832 16.5283 9.02832C15.1632 9.02832 14.0566 10.1349 14.0566 11.5C14.0566 12.8651 15.1632 13.9717 16.5283 13.9717Z" fill="#1D1E1F"/>
</svg>
