<svg width="24" height="24" viewBox="0 0 24 24" fill="none" xmlns="http://www.w3.org/2000/svg">
<path fill-rule="evenodd" clip-rule="evenodd" d="M10.1667 2.25H10.2L13.8 2.25H13.8333C14.3497 2.25 14.8202 2.25 15.25 2.25469V3V6.75L15.25 8.25V11.25H8.75L8.75 8.25V6.75L8.75 3V2.25469C9.17982 2.25 9.65029 2.25 10.1667 2.25ZM7.25 2.30854C7.22763 2.31024 7.2054 2.312 7.18333 2.3138C6.38657 2.3789 5.7212 2.51413 5.11655 2.82222C4.1287 3.32555 3.32555 4.1287 2.82222 5.11655C2.5717 5.60822 2.43547 6.14004 2.35831 6.75H2.5L7.25 6.75L7.25 3V2.30854ZM2.26297 8.25C2.24999 8.80824 2.25 9.44226 2.25 10.1667V10.2V11.25H3H7.25L7.25 8.25L2.5 8.25H2.26297ZM2.25 12.75V13.8V13.8333C2.25 14.5577 2.24999 15.1918 2.26297 15.75H3H7.25V12.75H3H2.25ZM2.35831 17.25C2.43547 17.86 2.5717 18.3918 2.82222 18.8835C3.32555 19.8713 4.1287 20.6744 5.11655 21.1778C5.7212 21.4859 6.38657 21.6211 7.18333 21.6862C7.2054 21.688 7.22763 21.6898 7.25 21.6915L7.25 21V17.25H3H2.35831ZM8.75 21.7453C9.17982 21.75 9.65027 21.75 10.1667 21.75H10.2L13.8 21.75H13.8333C14.3497 21.75 14.8202 21.75 15.25 21.7453V21L15.25 17.25V15.75L15.25 12.75H8.75L8.75 15.75L8.75 21V21.7453ZM16.75 21.6915C16.7724 21.6898 16.7946 21.688 16.8167 21.6862C17.6134 21.6211 18.2788 21.4859 18.8834 21.1778C19.8713 20.6744 20.6744 19.8713 21.1778 18.8835C21.4283 18.3918 21.5645 17.86 21.6417 17.25L21 17.25L16.75 17.25L16.75 21V21.6915ZM21.737 15.75C21.75 15.1918 21.75 14.5577 21.75 13.8333V13.8L21.75 12.75H21L16.75 12.75V15.75L21 15.75L21.737 15.75ZM21.75 11.25V10.2V10.1667C21.75 9.44225 21.75 8.80824 21.737 8.25H21.5L16.75 8.25V11.25L21 11.25H21.75ZM21.6417 6.75C21.5645 6.14004 21.4283 5.60822 21.1778 5.11655C20.6744 4.1287 19.8713 3.32555 18.8834 2.82222C18.2788 2.51413 17.6134 2.3789 16.8167 2.3138C16.7946 2.312 16.7724 2.31024 16.75 2.30854V3V6.75L21.5 6.75L21.6417 6.75Z" fill="#1D1E1F"/>
</svg>
