<svg width="24" height="24" viewBox="0 0 24 24" fill="none" xmlns="http://www.w3.org/2000/svg">
<path fill-rule="evenodd" clip-rule="evenodd" d="M6.38899 2.25H6.3508H6.35078C5.52962 2.24999 4.86179 2.24998 4.34927 2.29603C3.84788 2.34108 3.3293 2.43934 2.93408 2.76625C2.39194 3.21469 2.09077 3.89091 2.12013 4.59387C2.14152 5.10632 2.4154 5.55751 2.71732 5.96033C3.02596 6.37209 3.47272 6.86848 4.02205 7.47884L4.02208 7.47886L4.04762 7.50724L8.62119 12.589C8.94706 12.9511 9.03095 13.0505 9.08924 13.154C9.14929 13.2606 9.19336 13.3755 9.22004 13.4949C9.24594 13.6108 9.25012 13.7408 9.25012 14.228V18.6132L9.25003 18.6775C9.24944 18.9346 9.24882 19.2094 9.33019 19.469C9.40105 19.6952 9.51711 19.9046 9.67133 20.0845C9.8484 20.2911 10.0817 20.4362 10.3001 20.572L10.3546 20.606L11.1546 21.106L11.1837 21.1242L11.1838 21.1242C11.5583 21.3583 11.8825 21.561 12.1544 21.6981C12.4282 21.8362 12.764 21.9704 13.1404 21.9401C13.6432 21.8997 14.1042 21.6442 14.405 21.2392C14.6301 20.9361 14.6943 20.5802 14.7223 20.2749C14.7502 19.9716 14.7501 19.5893 14.7501 19.1476V19.1476L14.7501 19.1132V14.228C14.7501 13.7408 14.7543 13.6108 14.7802 13.4949C14.8069 13.3755 14.851 13.2606 14.911 13.154C14.9693 13.0505 15.0532 12.9511 15.3791 12.589L19.9526 7.50724L19.9782 7.47888L19.9782 7.47884C20.5275 6.86848 20.9743 6.37209 21.2829 5.96033C21.5849 5.55751 21.8587 5.10632 21.8801 4.59387C21.9095 3.89091 21.6083 3.21469 21.0662 2.76625C20.671 2.43934 20.1524 2.34108 19.651 2.29603C19.1385 2.24998 18.4706 2.24999 17.6495 2.25H17.6494H17.6113H6.38899Z" fill="#18191A"/>
</svg>
