<svg width="24" height="24" viewBox="0 0 24 24" fill="none" xmlns="http://www.w3.org/2000/svg">
<path fill-rule="evenodd" clip-rule="evenodd" d="M11.4697 3.46967C11.329 3.61032 11.25 3.80109 11.25 4C11.25 4.19891 11.329 4.38968 11.4697 4.53033L14.4697 7.53033C14.7626 7.82322 15.2374 7.82322 15.5303 7.53033C15.8232 7.23744 15.8232 6.76256 15.5303 6.46967L13.8107 4.75003L16.0001 4.75007C18.8995 4.75012 21.25 7.10061 21.25 10.0001V13C21.25 13.4142 21.5858 13.75 22 13.75C22.4142 13.75 22.75 13.4142 22.75 13V10.0001C22.75 6.27219 19.728 3.25013 16.0001 3.25007L13.8106 3.25003L15.5303 1.53033C15.8232 1.23744 15.8232 0.762563 15.5303 0.46967C15.2374 0.176777 14.7626 0.176777 14.4697 0.46967L11.4697 3.46967ZM18.75 16.2321V16.2V14.8V14.7679C18.75 13.9551 18.75 13.2994 18.7066 12.7685C18.662 12.2219 18.5676 11.7418 18.3413 11.2975C17.9817 10.5919 17.4081 10.0183 16.7025 9.65872C16.2582 9.43238 15.7781 9.33803 15.2315 9.29336C14.7006 9.24999 14.0449 9.24999 13.2321 9.25H13.2H7.8H7.76788H7.76786C6.95504 9.24999 6.29943 9.24999 5.76853 9.29336C5.22189 9.33803 4.74175 9.43238 4.29754 9.65873C3.59193 10.0183 3.01825 10.5919 2.65873 11.2975C2.43239 11.7418 2.33803 12.2219 2.29336 12.7685C2.24999 13.2994 2.24999 13.955 2.25 14.7679V14.8V16.2V16.2321V16.2321C2.24999 17.045 2.24999 17.7006 2.29336 18.2315C2.33803 18.7781 2.43239 19.2582 2.65873 19.7025C3.01825 20.4081 3.59193 20.9818 4.29754 21.3413C4.74175 21.5676 5.2219 21.662 5.76853 21.7066C6.29944 21.75 6.95506 21.75 7.76789 21.75H7.8H13.2H13.2321C14.0449 21.75 14.7006 21.75 15.2315 21.7066C15.7781 21.662 16.2582 21.5676 16.7025 21.3413C17.4081 20.9818 17.9817 20.4081 18.3413 19.7025C18.5676 19.2582 18.662 18.7781 18.7066 18.2315C18.75 17.7006 18.75 17.0449 18.75 16.2321Z" fill="#18191A"/>
</svg>
