<svg width="24" height="24" viewBox="0 0 24 24" fill="none" xmlns="http://www.w3.org/2000/svg">
<path fill-rule="evenodd" clip-rule="evenodd" d="M14.4386 2.31657C14.7374 2.24963 15.0521 2.2498 15.4536 2.25002L15.5243 2.25005H16.8L16.8304 2.25005C17.3646 2.25004 17.8104 2.25003 18.1747 2.27979C18.5546 2.31083 18.9112 2.37794 19.2485 2.54978C19.7659 2.81343 20.1866 3.23413 20.4503 3.75158C20.6221 4.08884 20.6892 4.4455 20.7203 4.82538C20.75 5.18961 20.75 5.63546 20.75 6.16962V6.20005V6.75H13.1407C12.0541 6.75 11.0393 6.20692 10.4366 5.30278L10.2533 5.02783H11.2168C11.59 5.02783 11.9358 4.83177 12.1275 4.51149L12.4312 4.00385L12.4675 3.94313C12.6734 3.59851 12.8349 3.32836 13.0457 3.10635C13.4214 2.71075 13.9063 2.43583 14.4386 2.31657ZM7.94413 4.26827C7.65951 4.2498 7.34079 4.2499 6.95819 4.25002L6.86385 4.25004L6.83202 4.25004C5.97177 4.25003 5.2816 4.25003 4.7274 4.294C4.16028 4.33901 3.66317 4.43397 3.21226 4.6662C2.36549 5.10229 1.7164 5.84426 1.39674 6.74149C1.22674 7.21864 1.19821 7.72178 1.22856 8.28718C1.25818 8.83911 1.34928 9.51823 1.46272 10.364L1.46696 10.3956L2.27738 16.4378L2.28132 16.4672C2.37686 17.1796 2.45424 17.7565 2.55367 18.2229C2.65641 18.7048 2.79312 19.124 3.03536 19.5065C3.42259 20.1179 3.97847 20.6042 4.63594 20.9067C5.04723 21.096 5.48089 21.1757 5.97219 21.2135C6.44765 21.2501 7.02973 21.25 7.74852 21.25H7.77812H16.359H16.388C17.085 21.25 17.65 21.25 18.1124 21.2151C18.5906 21.179 19.0131 21.1026 19.4161 20.922C20.0613 20.6328 20.6115 20.1672 21.0034 19.5787C21.2482 19.2112 21.3934 18.8071 21.5081 18.3414C21.619 17.8912 21.7125 17.3341 21.8277 16.6467L21.8278 16.6466L21.8326 16.618L22.3015 13.8214L22.3073 13.787C22.4638 12.854 22.5893 12.1058 22.6378 11.4985C22.6875 10.8767 22.665 10.323 22.4713 9.80027C22.2473 9.1959 21.8728 8.66328 21.3881 8.25H13.1407C11.5526 8.25 10.0695 7.45627 9.1885 6.13483L7.94413 4.26827Z" fill="#18191A"/>
</svg>
