<svg width="24" height="24" viewBox="0 0 24 24" fill="none" xmlns="http://www.w3.org/2000/svg">
<path fill-rule="evenodd" clip-rule="evenodd" d="M8.03014 2.33576C7.63482 2.24975 7.22129 2.24986 6.62296 2.25001L6.54391 2.25003H4.75294C2.81832 2.25003 1.25 3.81835 1.25 5.75297V14.6V14.633C1.24999 15.7252 1.24999 16.5907 1.30699 17.2883C1.36527 18.0017 1.48688 18.6053 1.76772 19.1565C2.22312 20.0503 2.94978 20.7769 3.84355 21.2323C4.39472 21.5131 4.99834 21.6348 5.71173 21.693C6.40935 21.75 7.27485 21.75 8.36698 21.75H8.4H15.6H15.633C16.7252 21.75 17.5906 21.75 18.2883 21.693C19.0017 21.6348 19.6053 21.5131 20.1565 21.2323C21.0502 20.7769 21.7769 20.0503 22.2323 19.1565C22.5131 18.6053 22.6347 18.0017 22.693 17.2883C22.75 16.5907 22.75 15.7252 22.75 14.6331V14.6V12.153V12.1199C22.75 11.0278 22.75 10.1623 22.693 9.4647C22.6347 8.75131 22.5131 8.14769 22.2323 7.59651C21.7769 6.70274 21.0502 5.97609 20.1565 5.52069C19.6053 5.23985 19.0017 5.11824 18.2883 5.05996C17.5906 5.00296 16.7252 5.00296 15.633 5.00297H15.633H15.6H12.3041C11.8215 5.00297 11.6919 4.99895 11.579 4.97439C11.3896 4.93318 11.2123 4.84846 11.0613 4.72695C10.9712 4.65455 10.8867 4.55619 10.5836 4.18071L10.534 4.1192C10.1583 3.65352 9.89859 3.33167 9.58337 3.07809C9.13019 2.71354 8.59844 2.4594 8.03014 2.33576Z" fill="#18191A"/>
</svg>
