<svg width="24" height="24" viewBox="0 0 24 24" fill="none" xmlns="http://www.w3.org/2000/svg">
<path fill-rule="evenodd" clip-rule="evenodd" d="M12 3.75C14.3424 3.75 16.4557 4.72523 17.9584 6.29385C18.5124 6.87218 18.9829 7.53073 19.3506 8.25H14C13.5858 8.25 13.25 8.58579 13.25 9C13.25 9.41421 13.5858 9.75 14 9.75H21H21.75V9V3C21.75 2.58579 21.4142 2.25 21 2.25C20.5858 2.25 20.25 2.58579 20.25 3V6.80165C19.8992 6.24595 19.4938 5.72831 19.0416 5.25621C17.2678 3.4045 14.7681 2.25 12 2.25C6.61522 2.25 2.25 6.61522 2.25 12C2.25 17.3848 6.61522 21.75 12 21.75V20.25C7.44365 20.25 3.75 16.5563 3.75 12C3.75 7.44365 7.44365 3.75 12 3.75ZM20.1957 20.7958C20.5183 20.9319 20.9088 21 21.367 21C21.8252 21 22.2156 20.9319 22.5383 20.7958C22.8674 20.6597 23.1352 20.4718 23.3417 20.2319C23.5483 19.9921 23.7031 19.7167 23.8064 19.4056C23.9097 19.088 23.9677 18.7509 23.9806 18.3944C23.9935 18.2194 24 18.0282 24 17.8208V17.1792C24 16.9653 23.9935 16.7676 23.9806 16.5861C23.9677 16.2296 23.9064 15.8958 23.7967 15.5847C23.6935 15.2671 23.5354 14.9917 23.3224 14.7583C23.1159 14.525 22.8513 14.3403 22.5286 14.2042C22.2059 14.0681 21.8187 14 21.367 14C20.9217 14 20.5377 14.0681 20.215 14.2042C19.8924 14.3403 19.6245 14.525 19.4116 14.7583C19.2051 14.9917 19.0469 15.2671 18.9372 15.5847C18.8275 15.8958 18.7662 16.2296 18.7533 16.5861C18.7469 16.7676 18.7404 16.9653 18.734 17.1792V17.8208C18.7404 18.0282 18.7469 18.2194 18.7533 18.3944C18.7727 18.7509 18.834 19.088 18.9372 19.4056C19.0405 19.7167 19.1954 19.9921 19.4019 20.2319C19.6084 20.4718 19.873 20.6597 20.1957 20.7958ZM22.2866 19.4736C22.093 19.7458 21.7865 19.8819 21.367 19.8819C20.9604 19.8819 20.6571 19.7458 20.457 19.4736C20.257 19.1949 20.1505 18.819 20.1376 18.3458C20.1376 18.1579 20.1344 17.9699 20.1279 17.7819V17.1986C20.1344 17.0042 20.1376 16.8194 20.1376 16.6444C20.1505 16.1843 20.2538 15.8148 20.4474 15.5361C20.6474 15.2509 20.954 15.1083 21.367 15.1083C21.7865 15.1083 22.093 15.2509 22.2866 15.5361C22.4867 15.8148 22.5899 16.1843 22.5964 16.6444C22.6093 16.8194 22.6157 17.0042 22.6157 17.1986V17.7819C22.6157 17.9699 22.6093 18.1579 22.5964 18.3458C22.5899 18.819 22.4867 19.1949 22.2866 19.4736ZM16.315 20.8347C16.3601 20.8801 16.4182 20.9028 16.4892 20.9028H17.3701C17.4346 20.9028 17.4895 20.8801 17.5347 20.8347C17.5798 20.7894 17.6024 20.7343 17.6024 20.6694V14.3306C17.6024 14.2657 17.5798 14.2106 17.5347 14.1653C17.4895 14.1199 17.4346 14.0972 17.3701 14.0972H16.5182C16.4731 14.0972 16.4311 14.1005 16.3924 14.1069C16.3537 14.1134 16.315 14.1329 16.2762 14.1653L14.1079 15.8472C14.0498 15.8861 14.0143 15.938 14.0014 16.0028C13.9949 16.0676 14.0111 16.1292 14.0498 16.1875L14.4564 16.7125C14.5015 16.7708 14.5532 16.8065 14.6112 16.8194C14.6693 16.8259 14.7274 16.8097 14.7855 16.7708L16.2569 15.6333V20.6694C16.2569 20.7343 16.2762 20.7894 16.315 20.8347Z" fill="#B9C3CD"/>
</svg>
