<svg width="24" height="24" viewBox="0 0 24 24" fill="none" xmlns="http://www.w3.org/2000/svg">
<path fill-rule="evenodd" clip-rule="evenodd" d="M11 16.9001V22.9552C5.3935 22.45 1 17.7381 1 12.0001C1 6.26204 5.3935 1.55015 11 1.04492V7.1001C8.71776 7.56337 7 9.58112 7 12.0001C7 14.419 8.71776 16.4368 11 16.9001ZM13 7.1001V1.04492C18.2771 1.52047 22.4796 5.72293 22.9552 11.0001H16.9C16.5023 9.04094 14.9591 7.49778 13 7.1001ZM16.9 13.0001C16.5023 14.9592 14.9591 16.5024 13 16.9001V22.9552C18.2771 22.4797 22.4796 18.2772 22.9552 13.0001H16.9Z" fill="#18191A"/>
</svg>
