<svg width="24" height="24" viewBox="0 0 24 24" fill="none" xmlns="http://www.w3.org/2000/svg">
<path fill-rule="evenodd" clip-rule="evenodd" d="M23 12.0001C23 13.2899 22.778 14.5279 22.3701 15.6779L16.9691 12.5595C16.9895 12.3759 17 12.1892 17 12.0001C17 9.58112 15.2822 7.56337 13 7.1001V1.04492C18.6065 1.55015 23 6.26204 23 12.0001ZM12 23.0001C16.0712 23.0001 19.6258 20.7884 21.5279 17.501L16.3309 14.5005C15.4663 15.9948 13.8505 17.0001 12 17.0001C10.1366 17.0001 8.51134 15.9808 7.65128 14.4693L2.4542 17.4699C4.35181 20.7744 7.91599 23.0001 12 23.0001ZM1.61771 15.6434C1.21759 14.5032 1 13.277 1 12.0001C1 6.26204 5.3935 1.55015 11 1.04492V7.1001C8.71776 7.56337 7 9.58112 7 12.0001C7 12.1758 7.00907 12.3494 7.02676 12.5205L1.61771 15.6434Z" fill="#18191A"/>
</svg>
