<svg width="24" height="24" viewBox="0 0 24 24" fill="none" xmlns="http://www.w3.org/2000/svg">
<path fill-rule="evenodd" clip-rule="evenodd" d="M13.9983 1.04997C13.4488 0.994829 13 1.44772 13 2.00001V10C13 10.5523 13.4477 11 14 11H22C22.5523 11 23.0052 10.5512 22.95 10.0017C22.8526 9.03092 22.6135 8.07783 22.2388 7.17317C21.7363 5.95992 20.9997 4.85753 20.0711 3.92894C19.1425 3.00035 18.0401 2.26376 16.8268 1.76121C15.9222 1.38649 14.9691 1.14737 13.9983 1.04997ZM20.95 13.9984C21.0052 13.4489 20.5523 13 20 13H12C11.4477 13 11 12.5523 11 12V4.00001C11 3.44772 10.5512 2.99483 10.0016 3.04996C8.37657 3.21301 6.81071 3.77231 5.4443 4.68531C3.79981 5.78413 2.51809 7.34591 1.76121 9.17317C1.00433 11.0004 0.8063 13.0111 1.19215 14.9509C1.578 16.8907 2.53041 18.6726 3.92894 20.0711C5.32746 21.4696 7.10929 22.422 9.0491 22.8079C10.9889 23.1937 12.9996 22.9957 14.8268 22.2388C16.6541 21.4819 18.2159 20.2002 19.3147 18.5557C20.2277 17.1893 20.787 15.6234 20.95 13.9984Z" fill="#18191A"/>
</svg>
