<svg width="24" height="24" viewBox="0 0 24 24" fill="none" xmlns="http://www.w3.org/2000/svg">
<path fill-rule="evenodd" clip-rule="evenodd" d="M5.16957 3.25H5.2H6.8H6.83044H6.83046H6.83047C7.36461 3.24999 7.81045 3.24998 8.17467 3.27974C8.55456 3.31078 8.91121 3.37789 9.24848 3.54973C9.76592 3.81339 10.1866 4.23408 10.4503 4.75153C10.6221 5.08879 10.6892 5.44545 10.7203 5.82533C10.75 6.18955 10.75 6.63538 10.75 7.16951V7.16955V7.2V9.8V9.83045V9.8305C10.75 10.3646 10.75 10.8105 10.7203 11.1747C10.6892 11.5546 10.6221 11.9112 10.4503 12.2485C10.1866 12.7659 9.76592 13.1866 9.24848 13.4503C8.91121 13.6221 8.55456 13.6892 8.17467 13.7203C7.81044 13.75 7.3646 13.75 6.83045 13.75H6.83041H6.8H5.2H5.1696H5.16955C4.63541 13.75 4.18956 13.75 3.82533 13.7203C3.44545 13.6892 3.08879 13.6221 2.75153 13.4503C2.23408 13.1866 1.81339 12.7659 1.54973 12.2485C1.37789 11.9112 1.31078 11.5546 1.27974 11.1747C1.24998 10.8104 1.24999 10.3646 1.25 9.83047V9.83045V9.83044V9.8V7.2V7.16957V7.16955V7.16953C1.24999 6.63539 1.24998 6.18956 1.27974 5.82533C1.31078 5.44545 1.37789 5.08879 1.54973 4.75153C1.81339 4.23408 2.23408 3.81339 2.75153 3.54973C3.08879 3.37789 3.44545 3.31078 3.82533 3.27974C4.18956 3.24998 4.63539 3.24999 5.16953 3.25H5.16955H5.16957ZM16.1696 20.75H16.2H18.8H18.8304C19.3646 20.75 19.8104 20.75 20.1747 20.7203C20.5546 20.6892 20.9112 20.6221 21.2485 20.4503C21.7659 20.1866 22.1866 19.7659 22.4503 19.2485C22.6221 18.9112 22.6892 18.5546 22.7203 18.1747C22.75 17.8104 22.75 17.3646 22.75 16.8305V16.8V14.2V14.1695C22.75 13.6354 22.75 13.1896 22.7203 12.8253C22.6892 12.4454 22.6221 12.0888 22.4503 11.7515C22.1866 11.2341 21.7659 10.8134 21.2485 10.5497C20.9112 10.3779 20.5546 10.3108 20.1747 10.2797C19.8104 10.25 19.3646 10.25 18.8304 10.25H18.8304H18.8H16.2H16.1696H16.1696C15.6354 10.25 15.1896 10.25 14.8253 10.2797C14.4454 10.3108 14.0888 10.3779 13.7515 10.5497C13.2341 10.8134 12.8134 11.2341 12.5497 11.7515C12.3779 12.0888 12.3108 12.4454 12.2797 12.8253C12.25 13.1896 12.25 13.6354 12.25 14.1696V14.2V16.8V16.8304C12.25 17.3646 12.25 17.8104 12.2797 18.1747C12.3108 18.5546 12.3779 18.9112 12.5497 19.2485C12.8134 19.7659 13.2341 20.1866 13.7515 20.4503C14.0888 20.6221 14.4454 20.6892 14.8253 20.7203C15.1896 20.75 15.6354 20.75 16.1696 20.75ZM4 15.25C2.48122 15.25 1.25 16.4812 1.25 18C1.25 19.5188 2.48122 20.75 4 20.75H8C9.51878 20.75 10.75 19.5188 10.75 18C10.75 16.4812 9.51878 15.25 8 15.25H4ZM12.25 6C12.25 7.51878 13.4812 8.75 15 8.75H20C21.5188 8.75 22.75 7.51878 22.75 6C22.75 4.48122 21.5188 3.25 20 3.25H15C13.4812 3.25 12.25 4.48122 12.25 6Z" fill="#18191A"/>
</svg>
