<svg width="24" height="24" viewBox="0 0 24 24" fill="none" xmlns="http://www.w3.org/2000/svg">
<path fill-rule="evenodd" clip-rule="evenodd" d="M10.6394 2.25C5.16067 2.25 1.02958 7.22766 2.03925 12.6125L2.32532 14.1382L2.33659 14.1983L2.35745 14.2558L4.28963 19.5809C4.95508 21.4149 7.1147 22.2039 8.80568 21.2308C9.68986 20.7221 10.1431 19.6996 9.9264 18.7028L9.13973 15.0845C8.84271 13.7184 7.56798 12.7925 6.17698 12.9326L3.67268 13.1848L3.51356 12.3361C2.67698 7.87435 6.09988 3.75 10.6394 3.75H12H13.3605C17.9 3.75 21.3229 7.87435 20.4864 12.3361L20.3272 13.1848L17.7834 12.9286C16.4156 12.7909 15.1563 13.6843 14.8343 15.0207L13.9712 18.6033C13.7184 19.6529 14.1986 20.742 15.1441 21.2631C16.8756 22.2175 19.0501 21.4003 19.7245 19.5418L21.6425 14.2558L21.6633 14.1983L21.6746 14.1382L21.9607 12.6125C22.9703 7.22766 18.8392 2.25 13.3605 2.25H12H10.6394Z" fill="#1D1E1F"/>
</svg>
