<svg width="24" height="24" viewBox="0 0 24 24" fill="none" xmlns="http://www.w3.org/2000/svg">
<path fill-rule="evenodd" clip-rule="evenodd" d="M16.5109 3.25072C15.6652 3.23848 14.7911 3.38015 13.9128 3.82231C13.2534 4.15426 12.6168 4.64288 11.9991 5.32236C11.3776 4.64272 10.7358 4.15803 10.0744 3.8289C9.19561 3.39156 8.32596 3.25064 7.5 3.25064C4.04362 3.25064 1.25 6.12982 1.25 10.0004C1.25 13.8367 3.83818 17.0273 6.31966 19.1905C7.57723 20.2868 8.84855 21.1557 9.83994 21.7521C10.3357 22.0504 10.767 22.2839 11.0974 22.4453C11.2616 22.5256 11.4083 22.5918 11.5298 22.6398C11.5899 22.6635 11.653 22.6864 11.7142 22.7046C11.7546 22.7166 11.8681 22.7501 12 22.7501C12.1319 22.7501 12.2454 22.7166 12.2858 22.7046C12.347 22.6864 12.4101 22.6635 12.4702 22.6398C12.5918 22.5918 12.7384 22.5256 12.9026 22.4453C13.233 22.2839 13.6643 22.0504 14.1601 21.7521C15.1515 21.1557 16.4228 20.2868 17.6803 19.1905C20.1618 17.0273 22.75 13.8367 22.75 10.0004C22.75 6.11965 19.9493 3.30047 16.5109 3.25072Z" fill="#18191A"/>
</svg>
