<svg width="24" height="24" viewBox="0 0 24 24" fill="none" xmlns="http://www.w3.org/2000/svg">
<path fill-rule="evenodd" clip-rule="evenodd" d="M12.5072 1.53324C12.1721 1.47037 11.8282 1.47036 11.493 1.53324C11.1123 1.60467 10.7599 1.78115 10.3119 2.00554L10.2336 2.04473L5.31804 4.50251L5.20348 4.55975C4.35115 4.98548 3.76232 5.27959 3.321 5.73017C2.93206 6.12728 2.63627 6.60589 2.45502 7.13135C2.24937 7.72758 2.24964 8.38578 2.25003 9.33852L2.25007 9.46659L2.25007 14.75L2.25007 14.8511C2.24996 15.9163 2.2499 16.5654 2.36056 17.1218C2.81427 19.4028 4.59735 21.1858 6.87835 21.6395C7.43466 21.7502 8.08374 21.7501 9.14896 21.75H9.14898L9.25009 21.75L9.2542 21.7501C9.2779 21.7504 9.38369 21.752 9.48542 21.7317C9.86228 21.6568 10.1569 21.3622 10.2318 20.9853C10.2521 20.8836 10.2505 20.7778 10.2501 20.7541L10.2501 20.75V17C10.2501 16.0335 11.0336 15.25 12.0001 15.25C12.9666 15.25 13.7501 16.0335 13.7501 17V20.75L13.75 20.7542C13.7497 20.7779 13.7481 20.8836 13.7683 20.9854C13.8433 21.3622 14.1379 21.6568 14.5147 21.7318C14.6165 21.752 14.7223 21.7504 14.746 21.7501L14.7501 21.75L14.8511 21.75C15.9164 21.7501 16.5655 21.7502 17.1218 21.6395C19.4028 21.1858 21.1859 19.4028 21.6396 17.1218C21.7503 16.5655 21.7502 15.9164 21.7501 14.8511L21.7501 14.75V9.46658L21.7501 9.33852C21.7505 8.38578 21.7508 7.72758 21.5451 7.13135C21.3639 6.60588 21.0681 6.12728 20.6791 5.73017C20.2378 5.27959 19.649 4.98547 18.7967 4.55975L18.6821 4.50251L13.7666 2.04474L13.6883 2.00554C13.2403 1.78116 12.888 1.60468 12.5072 1.53324Z" fill="#18191A"/>
</svg>
