<svg width="24" height="24" viewBox="0 0 24 24" fill="none" xmlns="http://www.w3.org/2000/svg">
<path fill-rule="evenodd" clip-rule="evenodd" d="M12.5072 1.53324C12.1721 1.47037 11.8282 1.47036 11.493 1.53324C11.1123 1.60467 10.7599 1.78115 10.3119 2.00554L10.2336 2.04473L5.31804 4.50251L5.20348 4.55975C4.35115 4.98548 3.76232 5.27959 3.321 5.73017C2.93206 6.12728 2.63627 6.60589 2.45502 7.13135C2.24937 7.72758 2.24964 8.38578 2.25003 9.33852L2.25007 9.46659L2.25007 13V13.0336C2.25007 14.4053 2.25006 15.4808 2.32069 16.3451C2.3926 17.2252 2.54145 17.9524 2.87679 18.6105C3.42806 19.6924 4.3077 20.5721 5.38963 21.1233C6.04776 21.4587 6.77487 21.6075 7.65501 21.6794C8.51934 21.75 9.59476 21.75 10.9664 21.75H10.9665H11.0001H13.0001H13.0337H13.0337C14.4054 21.75 15.4808 21.75 16.3451 21.6794C17.2253 21.6075 17.9524 21.4587 18.6105 21.1233C19.6925 20.572 20.5721 19.6924 21.1234 18.6105C21.4587 17.9523 21.6076 17.2252 21.6795 16.3451C21.7501 15.4808 21.7501 14.4053 21.7501 13.0337V13.0336V13V9.46658L21.7501 9.33852C21.7505 8.38578 21.7508 7.72758 21.5451 7.13135C21.3639 6.60588 21.0681 6.12728 20.6791 5.73017C20.2378 5.27959 19.649 4.98547 18.7967 4.55975L18.6821 4.50251L13.7666 2.04474L13.6883 2.00554C13.2403 1.78116 12.888 1.60468 12.5072 1.53324Z" fill="#18191A"/>
</svg>
