<svg width="24" height="24" viewBox="0 0 24 24" fill="none" xmlns="http://www.w3.org/2000/svg">
<path fill-rule="evenodd" clip-rule="evenodd" d="M11.7697 3.00752C11.9221 2.97894 12.0784 2.97894 12.2307 3.00752C12.3785 3.03524 12.5323 3.10457 13.0959 3.38638L20.6648 7.17084C21.0352 7.35608 21.4858 7.20591 21.671 6.83543C21.8562 6.46494 21.7061 6.01444 21.3356 5.8292L13.7667 2.04474L13.6884 2.00554C13.2404 1.78116 12.888 1.60468 12.5073 1.53324C12.1722 1.47037 11.8283 1.47036 11.4931 1.53324C11.1124 1.60467 10.76 1.78115 10.312 2.00554L10.2337 2.04473L2.66476 5.8292C2.29427 6.01444 2.1441 6.46494 2.32934 6.83542C2.51458 7.20591 2.96509 7.35608 3.33557 7.17084L10.9045 3.38638C11.4682 3.10457 11.622 3.03524 11.7697 3.00752ZM11.4648 5.56934C11.8183 5.49915 12.1822 5.49915 12.5358 5.56934C12.9376 5.64912 13.3069 5.84644 13.7767 6.0974L13.8591 6.14141L18.812 8.78297L18.9217 8.84142C19.7395 9.27721 20.3047 9.57833 20.7272 10.0259C21.0996 10.4204 21.382 10.891 21.5548 11.4053C21.7509 11.9886 21.7506 12.629 21.7502 13.5557L21.7502 13.68V15.75L21.7502 15.8511C21.7503 16.9164 21.7504 17.5655 21.6397 18.1218C21.186 20.4028 19.403 22.1858 17.122 22.6396C16.5656 22.7502 15.9165 22.7501 14.8512 22.75L14.7502 22.75L14.7461 22.7501C14.7224 22.7504 14.6166 22.752 14.5149 22.7318C14.138 22.6568 13.8434 22.3622 13.7685 21.9854C13.7482 21.8836 13.7498 21.7779 13.7502 21.7542L13.7502 21.75V17.5667C13.7502 16.6002 12.9667 15.8167 12.0002 15.8167C11.0337 15.8167 10.2502 16.6002 10.2502 17.5667V21.75L10.2503 21.7541C10.2506 21.7778 10.2522 21.8836 10.232 21.9853C10.157 22.3622 9.86242 22.6568 9.48556 22.7317C9.38384 22.752 9.27805 22.7504 9.25435 22.7501L9.25023 22.75L9.1492 22.75C8.08393 22.7501 7.43482 22.7502 6.8785 22.6395C4.5975 22.1858 2.81442 20.4028 2.3607 18.1218C2.25005 17.5654 2.25011 16.9163 2.25021 15.8511L2.25022 15.75L2.25022 13.68L2.25019 13.5558C2.24981 12.629 2.24956 11.9886 2.44563 11.4053C2.61848 10.891 2.90086 10.4204 3.27329 10.0259C3.69574 9.57833 4.2609 9.27721 5.07878 8.84143L5.07879 8.84142L5.18847 8.78297L10.1414 6.1414L10.2239 6.09739L10.2239 6.09738C10.6936 5.84643 11.0629 5.64912 11.4648 5.56934Z" fill="#18191A"/>
</svg>
