<svg width="24" height="24" viewBox="0 0 24 24" fill="none" xmlns="http://www.w3.org/2000/svg">
<path fill-rule="evenodd" clip-rule="evenodd" d="M2.24284 17.5796C2.94811 20.0481 5.20434 21.75 7.7716 21.75H16.2286C18.7958 21.75 21.0521 20.0481 21.7573 17.5797L22.3169 15.6212C22.3988 15.3346 22.4579 15.0434 22.4944 14.75H22.0001H17.0705C16.6526 14.75 16.2623 14.9589 16.0304 15.3066L15.5148 16.0801C14.8193 17.1234 13.6484 17.75 12.3946 17.75H11.6057C10.3519 17.75 9.18099 17.1234 8.4855 16.0801L7.96983 15.3066C7.738 14.9589 7.34771 14.75 6.92977 14.75H2.00014H1.50586C1.54228 15.0433 1.60141 15.3346 1.68328 15.6212L2.24284 17.5796ZM1.51679 13.25C1.55784 12.9546 1.62197 12.6617 1.70916 12.374L3.53991 6.33247C4.27459 3.908 6.50946 2.25 9.0428 2.25H14.9574C17.4907 2.25 19.7256 3.90798 20.4603 6.33245L22.291 12.374C22.3782 12.6617 22.4424 12.9546 22.4834 13.25H22.0001H17.0705C16.151 13.25 15.2924 13.7095 14.7824 14.4746L14.2667 15.2481C13.8494 15.874 13.1469 16.25 12.3946 16.25H11.6057C10.8534 16.25 10.1509 15.874 9.73357 15.2481L9.21791 14.4746C8.70787 13.7095 7.84924 13.25 6.92977 13.25H2.00014H1.51679ZM15.0001 7.75C15.4143 7.75 15.7501 7.41421 15.7501 7C15.7501 6.58579 15.4143 6.25 15.0001 6.25H9.00014C8.58592 6.25 8.25014 6.58579 8.25014 7C8.25014 7.41421 8.58592 7.75 9.00014 7.75L15.0001 7.75ZM15.0001 11.25C15.4143 11.25 15.7501 10.9142 15.7501 10.5C15.7501 10.0858 15.4143 9.75 15.0001 9.75L9.00014 9.75C8.58592 9.75 8.25014 10.0858 8.25014 10.5C8.25014 10.9142 8.58592 11.25 9.00014 11.25H15.0001Z" fill="#18191A"/>
</svg>
