<svg width="24" height="24" viewBox="0 0 24 24" fill="none" xmlns="http://www.w3.org/2000/svg">
<path fill-rule="evenodd" clip-rule="evenodd" d="M17.2 3.75C18.0525 3.75 18.6467 3.75058 19.1093 3.78838C19.5632 3.82547 19.824 3.8946 20.0215 3.99524C20.4448 4.21095 20.789 4.55516 21.0048 4.97852C21.1054 5.17604 21.1745 5.4368 21.2116 5.89068C21.2494 6.35331 21.25 6.94755 21.25 7.8V16.2C21.25 17.0525 21.2494 17.6467 21.2116 18.1093C21.1745 18.5632 21.1054 18.824 21.0048 19.0215C20.789 19.4448 20.4448 19.789 20.0215 20.0048C19.824 20.1054 19.5632 20.1745 19.1093 20.2116C18.6467 20.2494 18.0525 20.25 17.2 20.25H12C10.7574 20.25 9.75 19.2426 9.75 18V17.5C9.75 17.0858 9.41421 16.75 9 16.75C8.58579 16.75 8.25 17.0858 8.25 17.5V18C8.25 20.0711 9.92893 21.75 12 21.75H17.2H17.2321C18.045 21.75 18.7006 21.75 19.2315 21.7066C19.7781 21.662 20.2582 21.5676 20.7025 21.3413C21.4081 20.9817 21.9818 20.4081 22.3413 19.7025C22.5676 19.2582 22.662 18.7781 22.7066 18.2315C22.75 17.7006 22.75 17.045 22.75 16.2321V16.2V7.8V7.76788C22.75 6.95505 22.75 6.29944 22.7066 5.76853C22.662 5.2219 22.5676 4.74175 22.3413 4.29754C21.9818 3.59193 21.4081 3.01825 20.7025 2.65873C20.2582 2.43239 19.7781 2.33803 19.2315 2.29336C18.7006 2.24999 18.0449 2.24999 17.2321 2.25H17.2H12C9.92893 2.25 8.25 3.92893 8.25 6V6.5C8.25 6.91421 8.58579 7.25 9 7.25C9.41421 7.25 9.75 6.91421 9.75 6.5V6C9.75 4.75736 10.7574 3.75 12 3.75H17.2ZM0.25 12.0039C0.25 9.93284 1.92893 8.25391 4 8.25391C5.81284 8.25391 7.32523 9.54027 7.67419 11.25H15H18C18.4142 11.25 18.75 11.5858 18.75 12V15C18.75 15.4142 18.4142 15.75 18 15.75C17.5858 15.75 17.25 15.4142 17.25 15V12.75H15.75V15C15.75 15.4142 15.4142 15.75 15 15.75C14.5858 15.75 14.25 15.4142 14.25 15V12.75H7.67578C7.32984 14.4636 5.8156 15.7539 4 15.7539C1.92893 15.7539 0.25 14.075 0.25 12.0039Z" fill="#18191A"/>
</svg>
