<svg width="24" height="24" viewBox="0 0 24 24" fill="none" xmlns="http://www.w3.org/2000/svg">
<path fill-rule="evenodd" clip-rule="evenodd" d="M17.4697 2.46982C18.3148 1.62464 19.6852 1.62464 20.5303 2.46982C21.3755 3.315 21.3755 4.6853 20.5303 5.53048L20.0607 6.00015L21.7803 7.71982C22.4874 8.42693 22.4874 9.57337 21.7803 10.2805C21.0732 10.9876 19.9268 10.9876 19.2197 10.2805L17.5 8.56081L16.0607 10.0002L17.7803 11.7198C18.4874 12.4269 18.4874 13.5734 17.7803 14.2805C17.0732 14.9876 15.9268 14.9876 15.2197 14.2805L13.5 12.5608L11.2982 14.7626C11.5892 15.451 11.75 16.2075 11.75 17.0002C11.75 20.1758 9.17564 22.7502 6 22.7502C2.82436 22.7502 0.25 20.1758 0.25 17.0002C0.25 13.8245 2.82436 11.2502 6 11.2502C6.79263 11.2502 7.54914 11.4109 8.23753 11.702L17.4697 2.46982ZM3.25 17.0001C3.25 15.4813 4.48122 14.2501 6 14.2501C7.51878 14.2501 8.75 15.4813 8.75 17.0001C8.75 18.5189 7.51878 19.7501 6 19.7501C4.48122 19.7501 3.25 18.5189 3.25 17.0001Z" fill="#18191A"/>
</svg>
