<svg width="24" height="24" viewBox="0 0 24 24" fill="none" xmlns="http://www.w3.org/2000/svg">
<path fill-rule="evenodd" clip-rule="evenodd" d="M17.2001 3.75C18.0525 3.75 18.6467 3.75058 19.1094 3.78838C19.5633 3.82547 19.824 3.8946 20.0215 3.99524C20.4449 4.21095 20.7891 4.55516 21.0048 4.97852C21.1055 5.17604 21.1746 5.4368 21.2117 5.89068C21.2495 6.35331 21.2501 6.94755 21.2501 7.8V16.2C21.2501 17.0525 21.2495 17.6467 21.2117 18.1093C21.1746 18.5632 21.1055 18.824 21.0048 19.0215C20.7891 19.4448 20.4449 19.789 20.0215 20.0048C19.824 20.1054 19.5633 20.1745 19.1094 20.2116C18.6467 20.2494 18.0525 20.25 17.2001 20.25H12.0001C10.7574 20.25 9.75006 19.2426 9.75006 18V17.5C9.75006 17.0858 9.41427 16.75 9.00006 16.75C8.58585 16.75 8.25006 17.0858 8.25006 17.5V18C8.25006 20.0711 9.92899 21.75 12.0001 21.75H17.2001H17.2322C18.045 21.75 18.7006 21.75 19.2315 21.7066C19.7782 21.662 20.2583 21.5676 20.7025 21.3413C21.4081 20.9817 21.9818 20.4081 22.3413 19.7025C22.5677 19.2582 22.662 18.7781 22.7067 18.2315C22.7501 17.7006 22.7501 17.0449 22.7501 16.2321V16.2V7.8V7.76793C22.7501 6.95507 22.7501 6.29945 22.7067 5.76853C22.662 5.2219 22.5677 4.74175 22.3413 4.29754C21.9818 3.59193 21.4081 3.01825 20.7025 2.65873C20.2583 2.43239 19.7782 2.33803 19.2315 2.29336C18.7006 2.24999 18.045 2.24999 17.2322 2.25H17.2322H17.2001H14.5001C14.0858 2.25 13.7501 2.58579 13.7501 3C13.7501 3.41421 14.0858 3.75 14.5001 3.75H17.2001ZM7.50006 3.75C6.53356 3.75 5.75006 4.5335 5.75006 5.5V6.25313C5.94148 6.24981 6.14732 6.24992 6.37053 6.25004L6.50009 6.25009H8.50009L8.62965 6.25004C8.85284 6.24992 9.05865 6.24981 9.25006 6.25313V5.5C9.25006 4.5335 8.46656 3.75 7.50006 3.75ZM4.25006 5.5V6.50008C3.3787 6.86306 2.70352 7.58984 2.40916 8.49579C2.2493 8.98779 2.24961 9.56636 2.25004 10.3705L2.25009 10.5001L2.25004 10.6297C2.24961 11.4338 2.2493 12.0124 2.40916 12.5044C2.73064 13.4938 3.50636 14.2695 4.49579 14.591C4.98779 14.7509 5.56636 14.7506 6.37053 14.7501L6.50009 14.7501H8.50009L8.62965 14.7501C9.43382 14.7506 10.0124 14.7509 10.5044 14.591C11.4938 14.2695 12.2695 13.4938 12.591 12.5044C12.7509 12.0124 12.7506 11.4338 12.7501 10.6297L12.7501 10.5001L12.7501 10.3705C12.7506 9.56635 12.7509 8.98779 12.591 8.49579C12.2967 7.58982 11.6215 6.86302 10.7501 6.50006V5.5C10.7501 3.70508 9.29499 2.25 7.50006 2.25C5.70514 2.25 4.25006 3.70508 4.25006 5.5Z" fill="#18191A"/>
</svg>
