<svg width="24" height="24" viewBox="0 0 24 24" fill="none" xmlns="http://www.w3.org/2000/svg">
<path fill-rule="evenodd" clip-rule="evenodd" d="M12.2 1.25H12.2321H12.2321C13.0449 1.24999 13.7006 1.24999 14.2315 1.29336C14.7781 1.33803 15.2582 1.43239 15.7025 1.65873C16.4081 2.01825 16.9817 2.59193 17.3413 3.29754C17.5676 3.74175 17.662 4.2219 17.7066 4.76853C17.7415 5.19577 17.7484 5.70376 17.7497 6.30945C19.8692 6.64707 21.5144 8.37481 21.7271 10.5344C21.7501 10.7672 21.75 11.0335 21.75 11.4522V11.4522V11.4523V11.4524L21.75 11.5V15.6V15.633C21.75 16.7252 21.75 17.5907 21.693 18.2883C21.6347 19.0017 21.5131 19.6053 21.2323 20.1565C20.7769 21.0502 20.0502 21.7769 19.1565 22.2323C18.6053 22.5131 18.0017 22.6347 17.2883 22.693C16.5907 22.75 15.7252 22.75 14.633 22.75H14.633H14.6H9.4H9.36703H9.36696C8.27484 22.75 7.40935 22.75 6.71173 22.693C5.99835 22.6347 5.39472 22.5131 4.84355 22.2323C3.94978 21.7769 3.22312 21.0502 2.76772 20.1565C2.48688 19.6053 2.36527 19.0017 2.30699 18.2883C2.24999 17.5907 2.24999 16.7252 2.25 15.633V15.633V15.633V15.6V13.4V13.367V13.367V13.367C2.24999 12.2748 2.24999 11.4094 2.30699 10.7117C2.36527 9.99835 2.48688 9.39472 2.76772 8.84355C3.22312 7.94978 3.94978 7.22312 4.84355 6.76772C5.39472 6.48689 5.99835 6.36528 6.71173 6.30699C7.40933 6.25 8.27478 6.25 9.36687 6.25H9.36687H9.367L9.4 6.25001H12H16.2495C16.2478 5.68053 16.2407 5.24665 16.2116 4.89068C16.1745 4.4368 16.1054 4.17604 16.0048 3.97852C15.789 3.55516 15.4448 3.21095 15.0215 2.99524C14.824 2.8946 14.5632 2.82547 14.1093 2.78838C13.6467 2.75058 13.0525 2.75 12.2 2.75H9.5C8.5335 2.75 7.75 3.5335 7.75 4.5H6.25C6.25 2.70508 7.70507 1.25 9.5 1.25H12.2ZM12 11.25C12.4142 11.25 12.75 11.5858 12.75 12V15C12.75 15.4142 12.4142 15.75 12 15.75C11.5858 15.75 11.25 15.4142 11.25 15V12C11.25 11.5858 11.5858 11.25 12 11.25Z" fill="#18191A"/>
</svg>
