<svg width="24" height="24" viewBox="0 0 24 24" fill="none" xmlns="http://www.w3.org/2000/svg">
<path fill-rule="evenodd" clip-rule="evenodd" d="M11 1.25C5.61522 1.25 1.25 5.61522 1.25 11C1.25 16.3848 5.61522 20.75 11 20.75C13.3322 20.75 15.4732 19.9311 17.151 18.5653L20.7929 22.2071C21.1834 22.5976 21.8166 22.5976 22.2071 22.2071C22.5976 21.8166 22.5976 21.1834 22.2071 20.7929L18.5653 17.151C19.9311 15.4732 20.75 13.3322 20.75 11C20.75 5.61522 16.3848 1.25 11 1.25ZM15 11.75C15.4142 11.75 15.75 11.4142 15.75 11C15.75 10.5858 15.4142 10.25 15 10.25H7C6.58579 10.25 6.25 10.5858 6.25 11C6.25 11.4142 6.58579 11.75 7 11.75H15Z" fill="#18191A"/>
</svg>
