<svg width="24" height="24" viewBox="0 0 24 24" fill="none" xmlns="http://www.w3.org/2000/svg">
<path fill-rule="evenodd" clip-rule="evenodd" d="M2.25 10.5C2.25 5.55833 6.61378 1.25 12 1.25C17.3862 1.25 21.75 5.55833 21.75 10.5C21.75 14.0529 19.5756 17.1115 17.3974 19.2256C16.2964 20.2942 15.1626 21.1531 14.2326 21.7486C13.768 22.0461 13.3455 22.2835 12.9957 22.4497C12.8214 22.5325 12.6555 22.6023 12.5051 22.6529C12.3718 22.6978 12.1879 22.7498 12 22.7498C11.8121 22.7498 11.6282 22.6978 11.4949 22.6529C11.3445 22.6023 11.1786 22.5325 11.0043 22.4497C10.6545 22.2835 10.232 22.0461 9.76744 21.7486C8.83739 21.1531 7.70362 20.2942 6.60265 19.2256C4.42441 17.1115 2.25 14.0529 2.25 10.5ZM12 14C13.6569 14 15 12.6569 15 11C15 9.34315 13.6569 8 12 8C10.3431 8 9 9.34315 9 11C9 12.6569 10.3431 14 12 14Z" fill="#18191A"/>
</svg>
