<svg width="24" height="24" viewBox="0 0 24 24" fill="none" xmlns="http://www.w3.org/2000/svg">
<path fill-rule="evenodd" clip-rule="evenodd" d="M12 1.25H11.9664C10.5947 1.25 9.51929 1.24999 8.65494 1.32061C7.7748 1.39252 7.04769 1.54138 6.38956 1.87671C5.30762 2.42798 4.42799 3.30762 3.87671 4.38955C3.54138 5.04768 3.39252 5.77479 3.32061 6.65494C3.24999 7.51927 3.25 8.59469 3.25 9.96639V9.96644V10V19.1132V19.1476C3.24998 19.5893 3.24997 19.9716 3.27779 20.2749C3.30579 20.5802 3.36998 20.9361 3.5951 21.2392C3.89591 21.6442 4.35688 21.8997 4.85977 21.9401C5.23612 21.9704 5.57191 21.8362 5.84569 21.6981C6.11763 21.561 6.4418 21.3583 6.81634 21.1242L6.81635 21.1242L6.8455 21.106L9.85351 19.226C10.8231 18.62 11.1598 18.4213 11.5014 18.3437C11.8296 18.2691 12.1704 18.2691 12.4986 18.3437C12.8402 18.4213 13.1769 18.62 14.1465 19.226L17.1545 21.106L17.1836 21.1242C17.5582 21.3583 17.8824 21.561 18.1543 21.6981C18.4281 21.8362 18.7639 21.9704 19.1402 21.9401C19.6431 21.8997 20.1041 21.6442 20.4049 21.2392C20.63 20.9361 20.6942 20.5802 20.7222 20.2749C20.75 19.9716 20.75 19.5893 20.75 19.1476V19.1476V19.1132V10V9.96642V9.96637C20.75 8.59469 20.75 7.51927 20.6794 6.65494C20.6075 5.77479 20.4586 5.04768 20.1233 4.38955C19.572 3.30762 18.6924 2.42798 17.6104 1.87671C16.9523 1.54138 16.2252 1.39252 15.3451 1.32061C14.4807 1.24999 13.4053 1.25 12.0336 1.25H12Z" fill="#18191A"/>
</svg>
