<svg width="24" height="24" viewBox="0 0 24 24" fill="none" xmlns="http://www.w3.org/2000/svg">
<path fill-rule="evenodd" clip-rule="evenodd" d="M1.25 11C1.25 5.54285 6.13922 1.25 12 1.25C17.8608 1.25 22.75 5.54285 22.75 11C22.75 14.0604 20.9016 16.6636 18.7548 18.6172C16.5952 20.5825 14.015 22.0018 12.2785 22.6964C12.0475 22.7888 11.7856 22.7606 11.5795 22.621C11.3734 22.4815 11.25 22.2489 11.25 22V20.2225C8.81784 20.0454 6.45576 19.0227 4.64486 17.5137C2.65218 15.8531 1.25 13.5337 1.25 11ZM7.5 12.5C8.32843 12.5 9 11.8284 9 11C9 10.1716 8.32843 9.5 7.5 9.5C6.67157 9.5 6 10.1716 6 11C6 11.8284 6.67157 12.5 7.5 12.5ZM12 12.5C12.8284 12.5 13.5 11.8284 13.5 11C13.5 10.1716 12.8284 9.5 12 9.5C11.1716 9.5 10.5 10.1716 10.5 11C10.5 11.8284 11.1716 12.5 12 12.5ZM18 11C18 11.8284 17.3284 12.5 16.5 12.5C15.6716 12.5 15 11.8284 15 11C15 10.1716 15.6716 9.5 16.5 9.5C17.3284 9.5 18 10.1716 18 11Z" fill="#1D1E1F"/>
</svg>
