<svg width="24" height="24" viewBox="0 0 24 24" fill="none" xmlns="http://www.w3.org/2000/svg">
<path fill-rule="evenodd" clip-rule="evenodd" d="M10.5226 1.34199C10.938 1.28993 11.1992 1.76424 10.9964 2.13052C10.3615 3.27727 10 4.59646 10 6.00007C10 10.4183 13.5817 14.0001 18 14.0001C19.2582 14.0001 20.4485 13.7096 21.5076 13.1921C21.9143 12.9934 22.4004 13.3372 22.2439 13.7618C21.5503 15.6429 20.2223 17.2819 18.7548 18.6173C16.5952 20.5825 14.015 22.0018 12.2785 22.6964C12.0475 22.7889 11.7856 22.7606 11.5795 22.6211C11.3734 22.4816 11.25 22.2489 11.25 22.0001V20.6875C11.25 20.4255 11.0475 20.2091 10.7872 20.1787C8.5198 19.9135 6.34066 18.9269 4.64486 17.5137C2.65218 15.8532 1.25 13.5338 1.25 11.0001C1.25 6.00882 5.34002 1.99156 10.5226 1.34199Z" fill="#1D1E1F"/>
<path fill-rule="evenodd" clip-rule="evenodd" d="M18 0.000244141C14.6863 0.000244141 12 2.68654 12 6.00024C12 9.31395 14.6863 12.0002 18 12.0002C21.3137 12.0002 24 9.31395 24 6.00024C24 2.68654 21.3137 0.000244141 18 0.000244141ZM18 2.25024C18.4142 2.25024 18.75 2.58603 18.75 3.00024V5.25024H21C21.4142 5.25024 21.75 5.58603 21.75 6.00024C21.75 6.41446 21.4142 6.75024 21 6.75024H18.75V9.00024C18.75 9.41446 18.4142 9.75024 18 9.75024C17.5858 9.75024 17.25 9.41446 17.25 9.00024V6.75024H15C14.5858 6.75024 14.25 6.41446 14.25 6.00024C14.25 5.58603 14.5858 5.25024 15 5.25024H17.25V3.00024C17.25 2.58603 17.5858 2.25024 18 2.25024Z" fill="#1D1E1F"/>
</svg>
