<svg width="24" height="24" viewBox="0 0 24 24" fill="none" xmlns="http://www.w3.org/2000/svg">
<path fill-rule="evenodd" clip-rule="evenodd" d="M2.53033 1.46967C2.23744 1.17678 1.76256 1.17678 1.46967 1.46967C1.17678 1.76256 1.17678 2.23744 1.46967 2.53033L6.25 7.31066V12C6.25 15.1756 8.82436 17.75 12 17.75C13.3171 17.75 14.5317 17.3065 15.501 16.5616L16.9245 17.9852C15.8531 18.7967 14.2881 19.25 12 19.25C9.11477 19.25 7.37666 18.5305 6.32617 17.2699C5.24823 15.9763 4.75 13.9486 4.75 11C4.75 10.5858 4.41421 10.25 4 10.25C3.58579 10.25 3.25 10.5858 3.25 11C3.25 14.0514 3.75177 16.5237 5.17383 18.2301C6.50432 19.8267 8.51928 20.6154 11.25 20.7341V23C11.25 23.4142 11.5858 23.75 12 23.75C12.4142 23.75 12.75 23.4142 12.75 23V20.7341C14.9589 20.6382 16.7013 20.1041 17.993 19.0537L21.4697 22.5303C21.7626 22.8232 22.2374 22.8232 22.5303 22.5303C22.8232 22.2374 22.8232 21.7626 22.5303 21.4697L18.5448 17.4841L16.0659 15.0052L7.53033 6.46967L2.53033 1.46967ZM12 1.25C10.4124 1.25 8.97386 1.89441 7.93414 2.93414L7.40381 3.46447L7.93414 3.9948L16.4697 12.5303L17.75 13.8107V12V7C17.75 3.82436 15.1756 1.25 12 1.25ZM20.75 11C20.75 10.5858 20.4142 10.25 20 10.25C19.5858 10.25 19.25 10.5858 19.25 11C19.25 12.3428 19.1469 13.5049 18.927 14.497C18.8374 14.9014 19.0926 15.3019 19.497 15.3915C19.9014 15.4811 20.3019 15.2259 20.3915 14.8215C20.6421 13.6907 20.75 12.4132 20.75 11Z" fill="#1D1E1F"/>
</svg>
