<svg width="24" height="24" viewBox="0 0 24 24" fill="none" xmlns="http://www.w3.org/2000/svg">
<path fill-rule="evenodd" clip-rule="evenodd" d="M9.70425 1.4872C10.2489 1.80163 10.7163 2.19949 11.0993 2.6553C11.7921 1.86133 12.9713 1.64143 13.9183 2.18816L14.2843 2.39945C14.5523 2.55419 14.7764 2.75575 14.9523 2.98784C14.7765 2.75583 14.5524 2.55433 14.2844 2.39963L13.9185 2.18835C12.8423 1.56704 11.4662 1.93576 10.8449 3.0119L10.466 3.66814L6.72375 10.1499L6.34489 10.8061C5.89819 11.5798 5.96321 12.5085 6.43494 13.2003C6.04187 12.624 5.93108 11.8832 6.16332 11.2046C5.57709 11.1008 4.99883 10.8949 4.45425 10.5805C1.94321 9.13072 1.08286 5.91987 2.53261 3.40884C3.98236 0.897799 7.19321 0.0374547 9.70425 1.4872ZM14.108 7.20523L14.4475 6.61725L20.9773 11.3094C21.7075 11.8341 21.9213 12.8268 21.4717 13.6055L21.1522 14.159L20.8326 14.7124C20.383 15.4911 19.4164 15.8023 18.5969 15.4323L16.75 14.5983V14.6838V14.7108C16.75 15.7242 16.1002 16.5298 15.25 16.8331V16.9999L15.25 21.2499H17.5C17.9142 21.2499 18.25 21.5857 18.25 21.9999C18.25 22.4141 17.9142 22.7499 17.5 22.7499L15.25 22.7499H13.75H11.5C11.0858 22.7499 10.75 22.4141 10.75 21.9999C10.75 21.5857 11.0858 21.2499 11.5 21.2499H13.75L13.75 16.9999V16.8323C13.7005 16.8147 13.651 16.7951 13.6018 16.7737C12.7809 16.4163 12.25 15.6061 12.25 14.7108V12.5663L11.2686 12.1232L11.608 11.5353L14.108 7.20523ZM13.1685 3.48739C12.8097 3.28029 12.3511 3.4032 12.144 3.76191L11.7651 4.41815L8.02278 10.8999L7.64392 11.5561C7.43681 11.9148 7.55972 12.3735 7.91844 12.5806L8.2844 12.7919C8.64312 12.999 9.10181 12.8761 9.30891 12.5174L10.3089 10.7853L12.8089 6.45522L13.4585 6.83023L12.8089 6.45522L13.8089 4.7232C14.0161 4.36448 13.8931 3.90578 13.5344 3.69867L13.1685 3.48739ZM15.25 14.7108V13.975L13.75 13.2661V14.7108C13.75 15.0092 13.927 15.2793 14.2006 15.3984C14.696 15.6141 15.25 15.2511 15.25 14.7108Z" fill="#1D1E1F"/>
</svg>
