<svg width="24" height="24" viewBox="0 0 24 24" fill="none" xmlns="http://www.w3.org/2000/svg">
<path fill-rule="evenodd" clip-rule="evenodd" d="M12 1.25C9.07855 1.25 6.66598 3.42873 6.29847 6.25H7H9.5C9.91421 6.25 10.25 6.58579 10.25 7C10.25 7.41421 9.91421 7.75 9.5 7.75H7H6.25V11.25H7H9.5C9.91421 11.25 10.25 11.5858 10.25 12C10.25 12.4142 9.91421 12.75 9.5 12.75H7H6.29847C6.66597 15.5713 9.07855 17.75 12 17.75C14.9214 17.75 17.334 15.5713 17.7015 12.75H17H14.5C14.0858 12.75 13.75 12.4142 13.75 12C13.75 11.5858 14.0858 11.25 14.5 11.25H17H17.75V7.75H17H14.5C14.0858 7.75 13.75 7.41421 13.75 7C13.75 6.58579 14.0858 6.25 14.5 6.25H17H17.7015C17.334 3.42873 14.9214 1.25 12 1.25ZM4.75 11C4.75 10.5858 4.41421 10.25 4 10.25C3.58579 10.25 3.25 10.5858 3.25 11C3.25 14.0514 3.75177 16.5237 5.17383 18.2301C6.50432 19.8267 8.51928 20.6154 11.25 20.7341V23C11.25 23.4142 11.5858 23.75 12 23.75C12.4142 23.75 12.75 23.4142 12.75 23V20.7341C15.4807 20.6154 17.4957 19.8267 18.8262 18.2301C20.2482 16.5237 20.75 14.0514 20.75 11C20.75 10.5858 20.4142 10.25 20 10.25C19.5858 10.25 19.25 10.5858 19.25 11C19.25 13.9486 18.7518 15.9763 17.6738 17.2699C16.6233 18.5305 14.8852 19.25 12 19.25C9.11477 19.25 7.37666 18.5305 6.32617 17.2699C5.24823 15.9763 4.75 13.9486 4.75 11Z" fill="#1D1E1F"/>
</svg>
