<svg width="24" height="24" viewBox="0 0 24 24" fill="none" xmlns="http://www.w3.org/2000/svg">
<path fill-rule="evenodd" clip-rule="evenodd" d="M13.2575 4.27705C13.0055 3.73764 12.657 3.23236 12.2123 2.78769C10.1621 0.737437 6.83794 0.737437 4.78769 2.78769C2.73744 4.83794 2.73744 8.16206 4.78769 10.2123C5.23234 10.657 5.73761 11.0055 6.277 11.2575C5.6894 12.1322 5.78221 13.3281 6.55544 14.1014L6.85424 14.4002C7.23866 14.7846 7.72758 15.0008 8.22955 15.0489C7.7276 15.0008 7.23872 14.7846 6.85431 14.4002L6.55551 14.1014C5.67681 13.2227 5.67681 11.798 6.5555 10.9194L7.09129 10.3836L12.3837 5.09127L12.9195 4.55545C13.2907 4.18423 13.7594 3.96983 14.2432 3.91228C13.8968 3.95348 13.5582 4.07506 13.2575 4.27705ZM15.466 8.97044L14.986 9.45044L11.4505 12.986L10.9704 13.466L14.1691 16.0843L17.1927 18.5592C17.8885 19.1288 18.9028 19.0783 19.5386 18.4424L20.4423 17.5387C21.0781 16.9029 21.1286 15.8887 20.5591 15.1929L15.466 8.97044ZM13.9801 5.61612C14.273 5.32323 14.7479 5.32323 15.0408 5.61612L15.3396 5.91492C15.6325 6.20781 15.6325 6.68269 15.3396 6.97558L13.9254 8.38977L10.3898 11.9253L8.97562 13.3395C8.68272 13.6324 8.20786 13.6324 7.91496 13.3395L7.61616 13.0407C7.32326 12.7478 7.32326 12.2729 7.61616 11.98L8.15194 11.4442L13.4443 6.15193L13.9801 5.61612Z" fill="#1D1E1F"/>
<path fill-rule="evenodd" clip-rule="evenodd" d="M12.8569 13.0715L11.6318 13.6519V16.3234C11.6318 17.382 12.3061 18.2842 13.25 18.6218V19L13.25 23L13.25 23.75H14.75V23L14.75 19V18.6917C15.7627 18.4328 16.5127 17.5142 16.5127 16.4193H15.7627L16.2377 15.8389L12.8569 13.0715ZM13.1318 15.235L14.9548 16.7272C14.8308 17.044 14.5212 17.2676 14.1603 17.2646L14.0645 17.2638C13.5481 17.2595 13.1318 16.8397 13.1318 16.3234V15.235Z" fill="#1D1E1F"/>
</svg>
