<svg width="24" height="24" viewBox="0 0 24 24" fill="none" xmlns="http://www.w3.org/2000/svg">
<path fill-rule="evenodd" clip-rule="evenodd" d="M12 6C12 2.68629 14.6863 0 18 0C21.3137 0 24 2.68629 24 6C24 9.31371 21.3137 12 18 12C14.6863 12 12 9.31371 12 6ZM21.75 6C21.75 6.41421 21.4142 6.75 21 6.75L15 6.75C14.5858 6.75 14.25 6.41421 14.25 6C14.25 5.58579 14.5858 5.25 15 5.25L21 5.25C21.4142 5.25 21.75 5.58579 21.75 6ZM9.59234 3.52673C9.9616 3.35623 10.3159 3.72939 10.2209 4.12487C10.0765 4.72628 10 5.35412 10 5.99983C10 10.1618 13.1782 13.5815 17.2401 13.9642C17.5171 13.9903 17.7375 14.2236 17.7016 14.4995C17.3343 17.321 14.9216 19.4999 12 19.4999C8.82436 19.4999 6.25 16.9255 6.25 13.7499V8.74991C6.25 6.43393 7.61923 4.43776 9.59234 3.52673ZM4 12.25C4.41421 12.25 4.75 12.5858 4.75 13C4.75 15.9486 5.24823 17.9763 6.32617 19.2699C7.37666 20.5305 9.11477 21.25 12 21.25C13.9247 21.25 15.339 20.928 16.373 20.3463C17.389 19.7748 18.0968 18.92 18.5603 17.7282C18.7104 17.3421 19.145 17.1509 19.5311 17.301C19.9171 17.4511 20.1084 17.8858 19.9583 18.2718C19.3847 19.7467 18.4628 20.8918 17.1084 21.6537C15.9368 22.3127 14.488 22.6589 12.75 22.7342V24H11.25V22.7341C8.51928 22.6154 6.50432 21.8267 5.17383 20.2301C3.75177 18.5237 3.25 16.0514 3.25 13C3.25 12.5858 3.58579 12.25 4 12.25Z" fill="#1D1E1F"/>
</svg>
