<svg width="24" height="24" viewBox="0 0 24 24" fill="none" xmlns="http://www.w3.org/2000/svg">
<path fill-rule="evenodd" clip-rule="evenodd" d="M3.5 14.25C3.08579 14.25 2.75 14.5858 2.75 15C2.75 15.4142 3.08579 15.75 3.5 15.75H5.30888C5.66846 18.017 7.63185 19.75 10 19.75H11.25V22C11.25 22.4142 11.5858 22.75 12 22.75C12.4142 22.75 12.75 22.4142 12.75 22V19.75H14C16.3682 19.75 18.3315 18.017 18.6911 15.75H20.5C20.9142 15.75 21.25 15.4142 21.25 15C21.25 14.5858 20.9142 14.25 20.5 14.25H18H6H3.5Z" fill="#1D1E1F"/>
<path d="M17.25 8V12H18.75V8H17.25ZM6.75 12V8H5.25V12H6.75ZM12 2.75C14.8995 2.75 17.25 5.10051 17.25 8H18.75C18.75 4.27208 15.7279 1.25 12 1.25V2.75ZM12 1.25C8.27208 1.25 5.25 4.27208 5.25 8H6.75C6.75 5.10051 9.10051 2.75 12 2.75V1.25Z" fill="#1D1E1F"/>
<path d="M18 12.25L18.75 12.25L18.75 10.75L18 10.75L18 12.25ZM15 10.75C14.5858 10.75 14.25 11.0858 14.25 11.5C14.25 11.9142 14.5858 12.25 15 12.25L15 10.75ZM18 10.75L15 10.75L15 12.25L18 12.25L18 10.75Z" fill="#1D1E1F"/>
<path d="M9 12.25C9.41421 12.25 9.75 11.9142 9.75 11.5C9.75 11.0858 9.41421 10.75 9 10.75L9 12.25ZM6 10.75L5.25 10.75L5.25 12.25L6 12.25L6 10.75ZM9 10.75L6 10.75L6 12.25L9 12.25L9 10.75Z" fill="#1D1E1F"/>
<path d="M17.5 7.75L18.25 7.75L18.25 6.25L17.5 6.25L17.5 7.75ZM15 6.25C14.5858 6.25 14.25 6.58579 14.25 7C14.25 7.41421 14.5858 7.75 15 7.75L15 6.25ZM17.5 6.25L15 6.25L15 7.75L17.5 7.75L17.5 6.25Z" fill="#1D1E1F"/>
<path d="M9 7.75C9.41421 7.75 9.75 7.41421 9.75 7C9.75 6.58579 9.41421 6.25 9 6.25L9 7.75ZM6.5 6.25C6.08579 6.25 5.75 6.58579 5.75 7C5.75 7.41421 6.08579 7.75 6.5 7.75L6.5 6.25ZM9 6.25L6.5 6.25L6.5 7.75L9 7.75L9 6.25Z" fill="#1D1E1F"/>
</svg>
