<svg width="24" height="24" viewBox="0 0 24 24" fill="none" xmlns="http://www.w3.org/2000/svg">
<path fill-rule="evenodd" clip-rule="evenodd" d="M12 1.25C8.82436 1.25 6.25 3.82436 6.25 7V12C6.25 15.1756 8.82436 17.75 12 17.75C15.1756 17.75 17.75 15.1756 17.75 12V7C17.75 3.82436 15.1756 1.25 12 1.25ZM10.5465 8.56528C11.4614 8.1078 12.5384 8.1078 13.4534 8.56528L13.6645 8.67085C14.035 8.85609 14.4855 8.70593 14.6707 8.33544C14.856 7.96496 14.7058 7.51445 14.3353 7.32921L14.1242 7.22364C12.7869 6.55501 11.2129 6.55501 9.87566 7.22364L9.66451 7.32921C9.29403 7.51445 9.14386 7.96496 9.3291 8.33544C9.51434 8.70593 9.96485 8.85609 10.3353 8.67085L10.5465 8.56528ZM11.4409 12.1181C11.7928 11.9421 12.207 11.9421 12.5589 12.1181L12.6645 12.1709C13.035 12.3561 13.4855 12.2059 13.6707 11.8354C13.856 11.465 13.7058 11.0145 13.3353 10.8292L13.2298 10.7764C12.4556 10.3893 11.5443 10.3893 10.7701 10.7764L10.6645 10.8292C10.294 11.0145 10.1439 11.465 10.3291 11.8354C10.5143 12.2059 10.9648 12.3561 11.3353 12.1709L11.4409 12.1181ZM4.75 11C4.75 10.5858 4.41421 10.25 4 10.25C3.58579 10.25 3.25 10.5858 3.25 11C3.25 14.0514 3.75177 16.5237 5.17383 18.2301C6.50432 19.8267 8.51928 20.6154 11.25 20.7341V23C11.25 23.4142 11.5858 23.75 12 23.75C12.4142 23.75 12.75 23.4142 12.75 23V20.7341C15.4807 20.6154 17.4957 19.8267 18.8262 18.2301C20.2482 16.5237 20.75 14.0514 20.75 11C20.75 10.5858 20.4142 10.25 20 10.25C19.5858 10.25 19.25 10.5858 19.25 11C19.25 13.9486 18.7518 15.9763 17.6738 17.2699C16.6233 18.5305 14.8852 19.25 12 19.25C9.11477 19.25 7.37666 18.5305 6.32617 17.2699C5.24823 15.9763 4.75 13.9486 4.75 11Z" fill="#1D1E1F"/>
</svg>
