<svg width="24" height="24" viewBox="0 0 24 24" fill="none" xmlns="http://www.w3.org/2000/svg">
<path fill-rule="evenodd" clip-rule="evenodd" d="M12 6C12 2.68629 14.6863 0 18 0C21.3137 0 24 2.68629 24 6C24 9.31371 21.3137 12 18 12C14.6863 12 12 9.31371 12 6ZM16.894 3.75604C16.894 3.14519 17.3891 2.65 18 2.65C18.6108 2.65 19.106 3.14519 19.106 3.75604V4.35071C19.0009 4.34999 18.8894 4.35 18.7715 4.35H18.7714H18.7714L18.75 4.35H17.25L17.2286 4.35H17.2286H17.2285C17.1106 4.35 16.9991 4.34999 16.894 4.35071V3.75604ZM15.594 4.55023V3.75604C15.594 2.42722 16.6712 1.35 18 1.35C19.3288 1.35 20.406 2.42722 20.406 3.75604V4.55023C20.8936 4.77678 21.2798 5.17849 21.4863 5.67723C21.5817 5.90746 21.6177 6.14274 21.6342 6.38502C21.65 6.61647 21.65 6.89729 21.65 7.22849V7.22854V7.22861V7.22864V7.25V7.27136V7.27139V7.27146V7.27151C21.65 7.60271 21.65 7.88353 21.6342 8.11498C21.6177 8.35726 21.5817 8.59254 21.4863 8.82277C21.2681 9.34958 20.8496 9.76813 20.3228 9.98634C20.0925 10.0817 19.8573 10.1177 19.615 10.1342C19.3835 10.15 19.1027 10.15 18.7714 10.15H18.7714H18.75H17.25H17.2286H17.2286C16.8973 10.15 16.6165 10.15 16.385 10.1342C16.1427 10.1177 15.9075 10.0817 15.6772 9.98634C15.1504 9.76813 14.7319 9.34958 14.5137 8.82277C14.4183 8.59254 14.3823 8.35726 14.3658 8.11498C14.35 7.8835 14.35 7.60263 14.35 7.27138V7.27136V7.25V7.22864V7.22862C14.35 6.89737 14.35 6.6165 14.3658 6.38502C14.3823 6.14274 14.4183 5.90746 14.5137 5.67723C14.7202 5.17849 15.1064 4.77678 15.594 4.55023ZM16.1747 5.7147C16.2201 5.69589 16.2974 5.67478 16.4735 5.66276C16.6554 5.65035 16.8916 5.65 17.25 5.65H18.75C19.1083 5.65 19.3446 5.65035 19.5265 5.66276C19.7026 5.67478 19.7799 5.69589 19.8253 5.7147C20.0336 5.80097 20.199 5.96644 20.2853 6.17472C20.3041 6.22015 20.3252 6.29742 20.3372 6.47351C20.3496 6.65544 20.35 6.89165 20.35 7.25C20.35 7.60835 20.3496 7.84456 20.3372 8.02649C20.3252 8.20258 20.3041 8.27985 20.2853 8.32528C20.199 8.53356 20.0336 8.69903 19.8253 8.7853C19.7799 8.80411 19.7026 8.82522 19.5265 8.83724C19.3446 8.84965 19.1083 8.85 18.75 8.85H17.25C16.8916 8.85 16.6554 8.84965 16.4735 8.83724C16.2974 8.82522 16.2201 8.80411 16.1747 8.7853C15.9664 8.69903 15.801 8.53356 15.7147 8.32528C15.6959 8.27985 15.6748 8.20258 15.6628 8.02649C15.6503 7.84456 15.65 7.60835 15.65 7.25C15.65 6.89165 15.6503 6.65544 15.6628 6.47351C15.6748 6.29742 15.6959 6.22015 15.7147 6.17472C15.801 5.96644 15.9664 5.80097 16.1747 5.7147ZM9.59234 3.52673C9.9616 3.35623 10.3159 3.72939 10.2209 4.12487C10.0765 4.72628 10 5.35412 10 5.99983C10 10.1618 13.1782 13.5815 17.2401 13.9642C17.5171 13.9903 17.7375 14.2236 17.7016 14.4995C17.3343 17.321 14.9216 19.4999 12 19.4999C8.82436 19.4999 6.25 16.9255 6.25 13.7499V8.74991C6.25 6.43393 7.61923 4.43776 9.59234 3.52673ZM4 12.25C4.41421 12.25 4.75 12.5858 4.75 13C4.75 15.9486 5.24823 17.9763 6.32617 19.2699C7.37666 20.5305 9.11477 21.25 12 21.25C13.9247 21.25 15.339 20.928 16.373 20.3463C17.389 19.7748 18.0968 18.92 18.5603 17.7282C18.7104 17.3421 19.145 17.1509 19.5311 17.301C19.9171 17.4511 20.1084 17.8858 19.9583 18.2718C19.3847 19.7467 18.4628 20.8918 17.1084 21.6537C15.9368 22.3127 14.488 22.6589 12.75 22.7342V24H11.25V22.7341C8.51928 22.6154 6.50432 21.8267 5.17383 20.2301C3.75177 18.5237 3.25 16.0514 3.25 13C3.25 12.5858 3.58579 12.25 4 12.25Z" fill="#1D1E1F"/>
</svg>
