<svg width="24" height="24" viewBox="0 0 24 24" fill="none" xmlns="http://www.w3.org/2000/svg">
<path fill-rule="evenodd" clip-rule="evenodd" d="M11.1644 3.44675L11.1946 3.47713L11.1342 3.41673L11.1644 3.44675ZM11.1644 4.50757L11.6566 4.01531C12.0148 4.4953 12.2783 5.02288 12.4455 5.57099L12.0468 5.96973L6.57117 11.4454C6.02306 11.2781 5.49547 11.0146 5.01549 10.6564L5.5075 10.1644L11.1644 4.50757ZM8.17845 11.9594L12.9596 7.17828L18.5267 13.3199L18.3769 13.4697L14.3769 17.4697L14.32 17.5266L8.17845 11.9594ZM19.4375 14.5303L19.4376 14.5302L20.2645 15.9595C20.6507 16.627 20.5535 17.466 20.0318 18.0271C20.7673 18.9453 21.0809 19.8899 20.8991 20.7893C20.6811 21.8678 19.8103 22.5877 18.8229 22.9534C16.8536 23.6826 13.8973 23.2359 11.9355 20.9939C11.7512 20.7832 11.5715 20.5762 11.3957 20.3737L11.3956 20.3735L11.3955 20.3734C10.7206 19.5959 10.1033 18.8846 9.50353 18.2909C8.73877 17.5338 8.1005 17.0711 7.53994 16.9076C7.0586 16.7672 6.56554 16.8256 5.95442 17.345C5.29719 17.9037 4.54001 18.9735 3.67957 20.8173C3.50441 21.1926 3.05812 21.3549 2.68277 21.1798C2.30742 21.0046 2.14513 20.5583 2.3203 20.183C3.20986 18.2767 4.07768 16.9716 4.98295 16.2021C5.93433 15.3934 6.94127 15.1705 7.95993 15.4676C8.89937 15.7416 9.7611 16.4351 10.5588 17.2249C11.2031 17.8627 11.8695 18.6307 12.549 19.4138C12.72 19.6109 12.8918 19.8089 13.0644 20.0061C14.6025 21.7639 16.8963 22.0673 18.302 21.5467C19.0021 21.2874 19.35 20.8824 19.4289 20.4922C19.4899 20.1904 19.4262 19.7184 18.9598 19.0912C18.4005 19.5603 17.6009 19.6355 16.9596 19.2645L15.5303 18.4376L19.4375 14.5303ZM4.29806 3.29788C2.59477 5.00118 2.53119 7.68472 3.95504 9.59557L4.44684 9.10376L10.1037 3.44691L10.5957 2.95486C8.6849 1.53101 6.00136 1.59459 4.29806 3.29788Z" fill="#1D1E1F"/>
</svg>
