<svg width="24" height="24" viewBox="0 0 24 24" fill="none" xmlns="http://www.w3.org/2000/svg">
<path fill-rule="evenodd" clip-rule="evenodd" d="M6.25 7C6.25 3.82436 8.82436 1.25 12 1.25C15.1756 1.25 17.75 3.82436 17.75 7V12C17.75 15.1756 15.1756 17.75 12 17.75C8.82436 17.75 6.25 15.1756 6.25 12V7ZM4.75 11C4.75 10.5858 4.41421 10.25 4 10.25C3.58579 10.25 3.25 10.5858 3.25 11C3.25 14.0514 3.75177 16.5237 5.17383 18.2301C6.50432 19.8267 8.51928 20.6154 11.25 20.7341V23C11.25 23.4142 11.5858 23.75 12 23.75C12.4142 23.75 12.75 23.4142 12.75 23V20.7341C15.4807 20.6154 17.4957 19.8267 18.8262 18.2301C20.2482 16.5237 20.75 14.0514 20.75 11C20.75 10.5858 20.4142 10.25 20 10.25C19.5858 10.25 19.25 10.5858 19.25 11C19.25 13.9486 18.7518 15.9763 17.6738 17.2699C16.6233 18.5305 14.8852 19.25 12 19.25C9.11477 19.25 7.37666 18.5305 6.32617 17.2699C5.24823 15.9763 4.75 13.9486 4.75 11Z" fill="#1D1E1F"/>
</svg>
