<svg width="24" height="24" viewBox="0 0 24 24" fill="none" xmlns="http://www.w3.org/2000/svg">
<path d="M11.25 23C11.25 23.4142 11.5858 23.75 12 23.75C12.4142 23.75 12.75 23.4142 12.75 23L11.25 23ZM12.75 16C12.75 15.5858 12.4142 15.25 12 15.25C11.5858 15.25 11.25 15.5858 11.25 16L12.75 16ZM12.75 23L12.75 16L11.25 16L11.25 23L12.75 23Z" fill="#1D1E1F"/>
<path fill-rule="evenodd" clip-rule="evenodd" d="M11.2068 3.54304L10.7095 4.04034L4.04034 10.7095L3.54304 11.2068C4.18325 11.7042 4.90071 12.0522 5.64537 12.248L11.9697 5.92392L12.248 5.64557C12.0523 4.90084 11.7042 4.1833 11.2068 3.54304ZM12.7287 7.28618L7.28606 12.7286L14.8209 19.3775L19.3774 14.821L12.7287 7.28618ZM20.2992 16.0206L16.0204 20.2993L17.7832 21.4224C18.4753 21.8633 19.3807 21.7642 19.961 21.1839L21.1838 19.9611C21.764 19.3809 21.8632 18.4754 21.4223 17.7833L20.2992 16.0206ZM2.48256 10.1459L2.97968 9.64881L9.64881 2.97968L10.1459 2.48256C7.93692 0.768218 4.78822 0.820123 2.80417 2.80417C0.820123 4.78822 0.768218 7.93692 2.48256 10.1459ZM11.2592 11.2592C11.5521 10.9663 12.027 10.9663 12.3199 11.2592L12.9094 11.8486C13.2022 12.1415 13.2022 12.6164 12.9094 12.9093C12.6165 13.2022 12.1416 13.2022 11.8487 12.9093L11.2592 12.3198C10.9663 12.0269 10.9663 11.5521 11.2592 11.2592Z" fill="#1D1E1F"/>
</svg>
