<svg width="24" height="24" viewBox="0 0 24 24" fill="none" xmlns="http://www.w3.org/2000/svg">
<path fill-rule="evenodd" clip-rule="evenodd" d="M8.09615 7.75009L6.3062 4.42589C5.86316 3.6031 6.69041 2.67626 7.55806 3.02332L9.38776 3.7552C9.75918 3.90377 10.1834 3.81669 10.4663 3.53383L11.2929 2.7072C11.6834 2.31668 12.3166 2.31668 12.7071 2.7072L13.5337 3.53383C13.8166 3.81669 14.2408 3.90377 14.6122 3.7552L16.4419 3.02332C17.3096 2.67626 18.1368 3.6031 17.6938 4.42589L15.9038 7.75009H15.5H12.75H11H8.5H8.09615ZM7.92308 9.25009L4.58321 13.5919C3.88083 14.505 3.5 15.6247 3.5 16.7767C3.5 19.6615 5.8386 22.0001 8.72341 22.0001H15.2766C18.1614 22.0001 20.5 19.6615 20.5 16.7767C20.5 15.6247 20.1192 14.505 19.4168 13.5919L16.0769 9.25009H15.5H12.75H11H8.5H7.92308ZM11.6314 20.0076C11.5563 20.0076 11.4949 19.9837 11.4471 19.9359C11.3993 19.8881 11.3754 19.8267 11.3754 19.7516V19.0451C10.8567 18.9837 10.4232 18.8574 10.0751 18.6663C9.72696 18.4683 9.46416 18.2294 9.28669 17.9496C9.10921 17.6697 9.01365 17.3762 9 17.069C9 17.0144 9.02048 16.9666 9.06143 16.9257C9.10921 16.8779 9.16382 16.854 9.22526 16.854H10.3208C10.4096 16.854 10.4778 16.8745 10.5256 16.9154C10.5734 16.9496 10.6177 16.9939 10.6587 17.0485C10.7065 17.1646 10.7816 17.2772 10.884 17.3864C10.9932 17.4956 11.1399 17.5878 11.3242 17.6629C11.5085 17.7311 11.7372 17.7653 12.0102 17.7653C12.4539 17.7653 12.785 17.6936 13.0034 17.5503C13.2287 17.4069 13.3413 17.2124 13.3413 16.9666C13.3413 16.7892 13.2799 16.6458 13.157 16.5366C13.041 16.4274 12.8532 16.3284 12.5939 16.2397C12.3413 16.1509 12 16.0554 11.57 15.953C11.058 15.8438 10.6246 15.7038 10.2696 15.5332C9.91468 15.3557 9.64505 15.1305 9.46075 14.8574C9.28328 14.5776 9.19454 14.2328 9.19454 13.8233C9.19454 13.284 9.38567 12.8267 9.76792 12.4513C10.157 12.0759 10.6928 11.8438 11.3754 11.755V11.0485C11.3754 10.9735 11.3993 10.912 11.4471 10.8642C11.4949 10.8165 11.5563 10.7926 11.6314 10.7926H12.3584C12.4266 10.7926 12.4846 10.8165 12.5324 10.8642C12.5802 10.912 12.6041 10.9735 12.6041 11.0485V11.7755C13.0751 11.8506 13.4676 11.9939 13.7816 12.2055C14.1024 12.4103 14.3447 12.6458 14.5085 12.912C14.6792 13.1714 14.7679 13.424 14.7747 13.6697C14.7747 13.7243 14.7543 13.7755 14.7133 13.8233C14.6724 13.8642 14.6212 13.8847 14.5597 13.8847H13.4027C13.3413 13.8847 13.2833 13.8711 13.2287 13.8438C13.1741 13.8165 13.1263 13.7687 13.0853 13.7004C13.0512 13.5229 12.9317 13.3694 12.727 13.2397C12.5222 13.1032 12.2628 13.0349 11.9488 13.0349C11.6143 13.0349 11.3481 13.0963 11.1502 13.2192C10.9522 13.3421 10.8532 13.5298 10.8532 13.7823C10.8532 13.9462 10.9044 14.0861 11.0068 14.2021C11.1092 14.3113 11.2765 14.4103 11.5085 14.4991C11.7406 14.581 12.0546 14.6731 12.4505 14.7755C13.0512 14.8984 13.5392 15.0451 13.9147 15.2158C14.2901 15.3864 14.5631 15.6083 14.7338 15.8813C14.9113 16.1475 15 16.4854 15 16.895C15 17.2909 14.901 17.6424 14.7031 17.9496C14.5051 18.2499 14.2253 18.4922 13.8635 18.6765C13.5085 18.8608 13.0887 18.9837 12.6041 19.0451V19.7516C12.6041 19.8267 12.5802 19.8881 12.5324 19.9359C12.4846 19.9837 12.4266 20.0076 12.3584 20.0076H11.6314Z" fill="#18191A"/>
</svg>
