<svg width="24" height="24" viewBox="0 0 24 24" fill="none" xmlns="http://www.w3.org/2000/svg">
<path fill-rule="evenodd" clip-rule="evenodd" d="M6.3062 4.42589L8.09615 7.75009H8.5H11H12.75H15.5H15.9038L17.6938 4.42589C18.1368 3.6031 17.3096 2.67626 16.4419 3.02332L14.6122 3.7552C14.2408 3.90377 13.8166 3.81669 13.5337 3.53383L12.7071 2.7072C12.3166 2.31668 11.6834 2.31668 11.2929 2.7072L10.4663 3.53383C10.1834 3.81669 9.75918 3.90377 9.38776 3.7552L7.55806 3.02332C6.69041 2.67626 5.86316 3.6031 6.3062 4.42589ZM4.58321 13.5919L7.92308 9.25009H8.5H11H12.75H15.5H16.0769L19.4168 13.5919C20.1192 14.505 20.5 15.6247 20.5 16.7767C20.5 19.6615 18.1614 22.0001 15.2766 22.0001H8.72341C5.8386 22.0001 3.5 19.6615 3.5 16.7767C3.5 15.6247 3.88083 14.505 4.58321 13.5919ZM10.2619 19.1446C10.7217 19.3816 11.2762 19.5001 11.9254 19.5001C12.392 19.5001 12.8112 19.4372 13.1831 19.3112C13.5618 19.1853 13.8864 19.0112 14.1569 18.789C14.4273 18.5668 14.6336 18.3075 14.7756 18.0112C14.9243 17.7075 14.9987 17.3816 14.9987 17.0335C15.0055 16.9668 14.9852 16.9112 14.9379 16.8668C14.8973 16.8223 14.8466 16.8001 14.7857 16.8001H13.6294C13.5483 16.8001 13.4806 16.8223 13.4266 16.8668C13.3792 16.9038 13.3386 16.9742 13.3048 17.0779C13.2102 17.4409 13.0445 17.6964 12.8078 17.8446C12.5712 17.9927 12.277 18.0668 11.9254 18.0668C11.4858 18.0668 11.1444 17.9298 10.9009 17.6557C10.6575 17.3816 10.5392 16.9186 10.5459 16.2668V16.1446H12.1282C12.2026 16.1446 12.2635 16.1186 12.3108 16.0668C12.3581 16.0149 12.3818 15.9483 12.3818 15.8668V15.1223C12.3818 15.0409 12.3581 14.9742 12.3108 14.9223C12.2635 14.8705 12.2026 14.8446 12.1282 14.8446H10.5459V14.7223C10.5392 14.0779 10.6575 13.6186 10.9009 13.3446C11.1444 13.0705 11.4858 12.9335 11.9254 12.9335C12.277 12.9335 12.5712 13.0075 12.8078 13.1557C13.0445 13.3038 13.2102 13.5594 13.3048 13.9223C13.3386 14.026 13.3792 14.1001 13.4266 14.1446C13.4806 14.1816 13.5483 14.2001 13.6294 14.2001H14.7857C14.8466 14.2001 14.8973 14.1779 14.9379 14.1335C14.9852 14.089 15.0055 14.0335 14.9987 13.9668C14.9987 13.6186 14.9243 13.2964 14.7756 13.0001C14.6336 12.6964 14.4273 12.4335 14.1569 12.2112C13.8864 11.989 13.5618 11.8149 13.1831 11.689C12.8112 11.5631 12.392 11.5001 11.9254 11.5001C11.2762 11.5001 10.7251 11.6223 10.2721 11.8668C9.81899 12.1038 9.47413 12.4594 9.23746 12.9335C9.00078 13.4001 8.87907 13.9779 8.87231 14.6668V14.8446H8.24343C8.17581 14.8446 8.11834 14.8705 8.071 14.9223C8.02367 14.9742 8 15.0409 8 15.1223V15.8668C8 15.9483 8.02367 16.0149 8.071 16.0668C8.11834 16.1186 8.17581 16.1446 8.24343 16.1446H8.87231V16.3335C8.87231 17.0149 8.99064 17.5927 9.22731 18.0668C9.46399 18.5409 9.80885 18.9001 10.2619 19.1446Z" fill="#18191A"/>
</svg>
