<svg width="24" height="24" viewBox="0 0 24 24" fill="none" xmlns="http://www.w3.org/2000/svg">
<path fill-rule="evenodd" clip-rule="evenodd" d="M8.09613 7.75005H8.5H10.9835C10.994 7.74983 11.0046 7.74983 11.0152 7.75005H12.7326C12.7442 7.74978 12.7559 7.74978 12.7675 7.75005H15.5H15.9039L17.6938 4.42589C18.1368 3.6031 17.3096 2.67626 16.4419 3.02332L14.6122 3.7552C14.2408 3.90377 13.8166 3.81669 13.5337 3.53383L12.7071 2.7072C12.3166 2.31668 11.6834 2.31668 11.2929 2.7072L10.4663 3.53383C10.1834 3.81669 9.75918 3.90377 9.38776 3.7552L7.55806 3.02332C6.69041 2.67626 5.86316 3.6031 6.3062 4.42589L8.09613 7.75005ZM16.0769 9.25005H15.5H13.8071L15.2079 13.2523C15.3447 13.6432 15.1387 14.0711 14.7478 14.2079C14.3568 14.3448 13.9289 14.1388 13.7921 13.7478L12.2179 9.25005H11.594L9.73006 17.1718C9.63519 17.575 9.23142 17.825 8.82822 17.7301C8.42502 17.6352 8.17507 17.2315 8.26994 16.8283L10.053 9.25005H8.5H7.92311L4.58321 13.5919C3.88083 14.505 3.5 15.6247 3.5 16.7767C3.5 19.6615 5.8386 22.0001 8.72341 22.0001H15.2766C18.1614 22.0001 20.5 19.6615 20.5 16.7767C20.5 15.6247 20.1192 14.505 19.4168 13.5919L16.0769 9.25005Z" fill="#18191A"/>
</svg>
