<svg width="24" height="24" viewBox="0 0 24 24" fill="none" xmlns="http://www.w3.org/2000/svg">
<path fill-rule="evenodd" clip-rule="evenodd" d="M18.5001 3C18.5001 4.25 17.2501 5.5 16.0001 5.5C17.2501 5.5 18.5001 6.75 18.5001 8C18.5001 6.75 19.7501 5.5 21.0001 5.5C19.7501 5.5 18.5001 4.25 18.5001 3ZM21.5001 11C21.5001 12.25 20.2501 13.5 19.0001 13.5C20.2501 13.5 21.5001 14.75 21.5001 16C21.5001 14.75 22.7501 13.5 24.0001 13.5C22.7501 13.5 21.5001 12.25 21.5001 11ZM12.0001 10.5C13.2501 10.5 14.5001 9.25 14.5001 8C14.5001 9.25 15.7501 10.5 17.0001 10.5C15.7501 10.5 14.5001 11.75 14.5001 13C14.5001 11.75 13.2501 10.5 12.0001 10.5ZM2.55769 17.1452C-0.614191 11.0034 3.80565 3.24956 10.7953 3.18631C11.1076 3.18348 11.389 3.37454 11.5016 3.66589C11.6141 3.95682 11.5347 4.28692 11.3025 4.49495L11.3019 4.49543L11.3019 4.49547L11.3019 4.49549L11.3014 4.49586L11.2953 4.50146C11.2887 4.50754 11.2777 4.51779 11.2626 4.53211C11.2323 4.56077 11.186 4.60564 11.1266 4.66592C11.0077 4.7866 10.8373 4.9683 10.6398 5.20452C10.2434 5.67866 9.74601 6.36308 9.33582 7.20603C8.52098 8.88055 8.05855 11.1491 9.3855 13.6981C10.696 16.2153 12.8932 17.0293 14.8464 17.2108C15.8271 17.3019 16.7294 17.2297 17.3891 17.1331C17.7176 17.0851 17.9826 17.0315 18.1629 16.9906C18.2529 16.9702 18.3216 16.953 18.3662 16.9414C18.3884 16.9356 18.4047 16.9312 18.4146 16.9285L18.4246 16.9257L18.4248 16.9256L18.4253 16.9255C18.7126 16.8421 19.022 16.9374 19.2126 17.1681C19.4033 17.399 19.4384 17.7211 19.3019 17.9876C17.6093 21.2929 14.1518 22.5833 10.8289 22.322C7.5167 22.0617 4.16328 20.2541 2.55769 17.1452Z" fill="#18191A"/>
</svg>
