<svg width="24" height="24" viewBox="0 0 24 24" fill="none" xmlns="http://www.w3.org/2000/svg">
<path fill-rule="evenodd" clip-rule="evenodd" d="M17.5021 3.04344L17.4674 3.03187C16.6081 2.74543 15.915 2.5144 15.3492 2.38069C14.7722 2.24431 14.2343 2.18439 13.7085 2.3164C12.9035 2.51855 12.2063 3.02106 11.7599 3.72087C11.4684 4.1779 11.3551 4.70719 11.302 5.29775C11.25 5.87674 11.25 6.6073 11.25 7.51309V7.5131V7.54969V7.99998V8.54055V14.5357C10.4003 13.7383 9.25721 13.2498 8 13.2498C5.37665 13.2498 3.25 15.3765 3.25 17.9998C3.25 20.6232 5.37665 22.7498 8 22.7498C10.6234 22.7498 12.75 20.6232 12.75 17.9998V9.04055L17.0168 10.4628L17.0759 10.4825L17.0759 10.4825C17.426 10.5993 17.6733 10.6818 17.8838 10.7225C19.7211 11.0773 21.4778 9.81115 21.7222 7.9559C21.7501 7.74344 21.7501 7.48276 21.75 7.11372V7.11367V7.11365L21.75 7.0513L21.75 7.01914V7.01907C21.75 6.81184 21.7501 6.66196 21.7379 6.52128C21.6347 5.33094 20.8867 4.29319 19.7901 3.81891C19.6605 3.76285 19.5183 3.71547 19.3217 3.64996L19.2911 3.63979L17.5021 3.04344ZM10 18C10 19.1046 9.10457 20 8 20C6.89543 20 6 19.1046 6 18C6 16.8954 6.89543 16 8 16C9.10457 16 10 16.8954 10 18Z" fill="#1D1E1F"/>
</svg>
