<svg width="24" height="24" viewBox="0 0 24 24" fill="none" xmlns="http://www.w3.org/2000/svg">
<path fill-rule="evenodd" clip-rule="evenodd" d="M17.3835 1.84248C19.6692 1.46152 21.75 3.22418 21.75 5.54146V7.5V7.50007V8.13542V16.5C21.75 18.5711 20.0711 20.25 18 20.25C15.9289 20.25 14.25 18.5711 14.25 16.5C14.25 14.4289 15.9289 12.75 18 12.75C18.8442 12.75 19.6233 13.029 20.25 13.4997V8.38542L9.75 10.1354L9.75 18.5C9.75 20.5711 8.07107 22.25 6 22.25C3.92893 22.25 2.25 20.5711 2.25 18.5C2.25 16.4289 3.92893 14.75 6 14.75C6.8442 14.75 7.62325 15.029 8.25 15.4997V10.3854V9.50007V9.5V6.54146C8.25 4.70831 9.5753 3.14385 11.3835 2.84248L17.3835 1.84248ZM8 18.5C8 19.6046 7.10457 20.5 6 20.5C4.89543 20.5 4 19.6046 4 18.5C4 17.3954 4.89543 16.5 6 16.5C7.10457 16.5 8 17.3954 8 18.5ZM18 18.5C19.1046 18.5 20 17.6046 20 16.5C20 15.3954 19.1046 14.5 18 14.5C16.8954 14.5 16 15.3954 16 16.5C16 17.6046 16.8954 18.5 18 18.5Z" fill="#1D1E1F"/>
</svg>
