<svg width="24" height="24" viewBox="0 0 24 24" fill="none" xmlns="http://www.w3.org/2000/svg">
<path fill-rule="evenodd" clip-rule="evenodd" d="M5 8C5 4.13401 8.13401 1 12 1C15.866 1 19 4.13401 19 8C19 10.5637 17.6218 12.8056 15.5658 14.025C14.5215 14.6444 13.3023 15 12 15C10.6981 15 9.47916 14.6446 8.43501 14.0255C6.3786 12.8061 5 10.5641 5 8ZM8.38717 15.1394L7.35105 21.0108C7.20721 21.8259 8.05932 22.4529 8.79472 22.0731L11.5411 20.6546C11.829 20.5059 12.171 20.5059 12.4589 20.6546L15.2053 22.0731C15.9407 22.4529 16.7928 21.8259 16.649 21.0108L15.6129 15.1394C14.5268 15.6899 13.2985 16 12 16C10.7016 16 9.47321 15.6899 8.38717 15.1394Z" fill="#18191A"/>
</svg>
