<svg width="24" height="24" viewBox="0 0 24 24" fill="none" xmlns="http://www.w3.org/2000/svg">
<path fill-rule="evenodd" clip-rule="evenodd" d="M4.74033 3.8721C5.6423 2.84128 6.94535 2.25 8.31507 2.25H15.6849C17.0546 2.25 18.3577 2.84128 19.2597 3.8721L21.3403 6.25H21H3H2.65967L4.74033 3.8721ZM2.25 7.75V18C2.25 20.6234 4.37665 22.75 7 22.75H17C19.6234 22.75 21.75 20.6234 21.75 18V7.75H21H3H2.25ZM8 10.25C8.41421 10.25 8.75 10.5858 8.75 11C8.75 12.1298 9.16622 12.9221 9.74827 13.4394C10.3441 13.9691 11.1598 14.25 12 14.25C12.8402 14.25 13.6559 13.9691 14.2517 13.4394C14.8338 12.9221 15.25 12.1298 15.25 11C15.25 10.5858 15.5858 10.25 16 10.25C16.4142 10.25 16.75 10.5858 16.75 11C16.75 12.5369 16.1662 13.7446 15.2483 14.5606C14.3441 15.3642 13.1598 15.75 12 15.75C10.8402 15.75 9.65587 15.3642 8.75173 14.5606C7.83378 13.7446 7.25 12.5369 7.25 11C7.25 10.5858 7.58579 10.25 8 10.25Z" fill="#18191A"/>
</svg>
