<svg width="24" height="24" viewBox="0 0 24 24" fill="none" xmlns="http://www.w3.org/2000/svg">
<path fill-rule="evenodd" clip-rule="evenodd" d="M11.9692 1.25H12H12.0308H12.0308C13.1706 1.25 14.0685 1.24999 14.7929 1.30484C15.5315 1.36078 16.1505 1.4769 16.7187 1.74189C17.8374 2.26352 18.7365 3.16261 19.2581 4.28125C19.5231 4.84953 19.6392 5.46847 19.6952 6.20713C19.75 6.93147 19.75 7.82941 19.75 8.96923V9V15V15.0308C19.75 16.1706 19.75 17.0685 19.6952 17.7929C19.6392 18.5315 19.5231 19.1505 19.2581 19.7187C18.7365 20.8374 17.8374 21.7365 16.7187 22.2581C16.1505 22.5231 15.5315 22.6392 14.7929 22.6952C14.0686 22.75 13.1707 22.75 12.0309 22.75H12.0309H12.0308H12H11.9692H11.9691H11.9691C10.8293 22.75 9.93144 22.75 9.20713 22.6952C8.46847 22.6392 7.84953 22.5231 7.28125 22.2581C6.16261 21.7365 5.26352 20.8374 4.74189 19.7187C4.4769 19.1505 4.36078 18.5315 4.30484 17.7929C4.24999 17.0685 4.25 16.1706 4.25 15.0308V15.0308V15V9V8.96922V8.96919C4.25 7.82939 4.24999 6.93146 4.30484 6.20713C4.36078 5.46847 4.4769 4.84953 4.74189 4.28125C5.26352 3.16261 6.16261 2.26352 7.28125 1.74189C7.84953 1.4769 8.46847 1.36078 9.20713 1.30484C9.93146 1.24999 10.8294 1.25 11.9692 1.25H11.9692ZM12 15.5C11.1716 15.5 10.5 16.1716 10.5 17C10.5 17.8284 11.1716 18.5 12 18.5C12.8284 18.5 13.5 17.8284 13.5 17C13.5 16.1716 12.8284 15.5 12 15.5Z" fill="#18191A"/>
</svg>
