<svg width="24" height="24" viewBox="0 0 24 24" fill="none" xmlns="http://www.w3.org/2000/svg">
<path fill-rule="evenodd" clip-rule="evenodd" d="M7.15719 4.4698C7.61716 2.85992 9.0886 1.75 10.7629 1.75H13.2371C14.9114 1.75 16.3828 2.85992 16.8428 4.4698L17.0139 5.06868C17.0446 5.17601 17.1427 5.25 17.2543 5.25H17.5C20.3995 5.25 22.75 7.60051 22.75 10.5V17C22.75 19.8995 20.3995 22.25 17.5 22.25H6.5C3.6005 22.25 1.25 19.8995 1.25 17V10.5C1.25 7.6005 3.60051 5.25 6.5 5.25H6.7457C6.85732 5.25 6.95542 5.17601 6.98608 5.06868L7.15719 4.4698ZM18.6002 14.1003H18.0002L15.0003 14.1003C14.6689 14.1003 14.4003 13.8316 14.4003 13.5003C14.4003 13.1689 14.6689 12.9003 15.0003 12.9003H16.5518L13.6972 10.0456C12.76 9.10827 11.2403 9.10825 10.303 10.0455L9.92431 10.4243L9.07578 9.57574L9.45452 9.19699C10.8604 7.79108 13.1399 7.79111 14.5458 9.19706L17.4002 12.0517V10.5002C17.4002 10.1689 17.6689 9.90023 18.0002 9.90023C18.3316 9.90023 18.6002 10.1689 18.6002 10.5002V13.5003V14.1003ZM5.4 12.4H6H8.93945C9.27082 12.4 9.53945 12.6686 9.53945 13C9.53945 13.3314 9.27082 13.6 8.93945 13.6H7.44848L10.303 16.4547C11.2403 17.392 12.7599 17.392 13.6972 16.4547L14.0757 16.0761L14.9243 16.9246L14.5457 17.3032C13.1398 18.7091 10.8603 18.7091 9.45444 17.3032L6.6 14.4486V16C6.6 16.3314 6.33137 16.6 6 16.6C5.66863 16.6 5.4 16.3314 5.4 16V13V12.4Z" fill="#1D1E1F"/>
</svg>
