<svg width="24" height="24" viewBox="0 0 24 24" fill="none" xmlns="http://www.w3.org/2000/svg">
<path fill-rule="evenodd" clip-rule="evenodd" d="M7.17886 4.39396C7.626 2.82897 9.05642 1.75 10.684 1.75H13.316C14.9436 1.75 16.374 2.82897 16.8211 4.39396L16.845 4.47733C16.9756 4.93468 17.3937 5.25 17.8693 5.25C20.2887 5.25 22.25 7.2113 22.25 9.63068V17C22.25 19.6234 20.1234 21.75 17.5 21.75H6.5C3.87665 21.75 1.75 19.6234 1.75 17V9.63068C1.75 7.2113 3.7113 5.25 6.13068 5.25C6.60634 5.25 7.02436 4.93468 7.15504 4.47733L7.17886 4.39396ZM8.75 13C8.75 11.2051 10.2051 9.75 12 9.75C13.7949 9.75 15.25 11.2051 15.25 13C15.25 14.7949 13.7949 16.25 12 16.25C10.2051 16.25 8.75 14.7949 8.75 13ZM12 8.25C9.37665 8.25 7.25 10.3766 7.25 13C7.25 15.6234 9.37665 17.75 12 17.75C14.6234 17.75 16.75 15.6234 16.75 13C16.75 10.3766 14.6234 8.25 12 8.25Z" fill="#1D1E1F"/>
</svg>
