<svg width="24" height="24" viewBox="0 0 24 24" fill="none" xmlns="http://www.w3.org/2000/svg">
<path fill-rule="evenodd" clip-rule="evenodd" d="M1.46967 1.46967C1.76256 1.17678 2.23744 1.17678 2.53033 1.46967L6.53033 5.46967L6 6L6.53041 5.46975L20.8113 19.7549L20.8121 19.7556L22.5297 21.469C22.8229 21.7616 22.8235 22.2364 22.531 22.5297C22.2384 22.8229 21.7636 22.8235 21.4703 22.531L20.165 21.2289C19.5154 21.562 18.779 21.75 18 21.75H6.5C3.87665 21.75 1.75 19.6234 1.75 17V9.5C1.75 7.69132 2.87983 6.14652 4.47221 5.53287L1.46967 2.53033C1.17678 2.23744 1.17678 1.76256 1.46967 1.46967ZM12 17C13.0884 17 14.0754 16.5653 14.7966 15.86L9.14087 10.2026C8.43508 10.9239 8 11.9111 8 13C8 15.2091 9.79086 17 12 17ZM7.41459 2.99377C7.79572 2.2315 8.57481 1.75 9.42705 1.75H13.2371C14.9114 1.75 16.3828 2.85992 16.8428 4.4698L17.0139 5.06868C17.0446 5.17601 17.1427 5.25 17.2543 5.25H17.5C20.1234 5.25 22.25 7.37665 22.25 10V17.5H20.75V10C20.75 8.20507 19.2949 6.75 17.5 6.75H17.2543C16.473 6.75 15.7863 6.23204 15.5716 5.48076L15.4005 4.88188C15.1245 3.91595 14.2417 3.25 13.2371 3.25H9.42705C9.14297 3.25 8.88327 3.4105 8.75623 3.66459L8.67082 3.83541L7.32918 3.16459L7.41459 2.99377ZM12.8131 9.8523C13.954 10.146 14.854 11.0459 15.1477 12.1869L16.6003 11.813C16.1704 10.1428 14.8572 8.82954 13.1869 8.39965L12.8131 9.8523Z" fill="#1D1E1F"/>
</svg>
