<svg width="24" height="24" viewBox="0 0 24 24" fill="none" xmlns="http://www.w3.org/2000/svg">
<path fill-rule="evenodd" clip-rule="evenodd" d="M10.2 2.25H10.1667C8.93478 2.24999 7.96432 2.24999 7.18333 2.3138C6.38657 2.3789 5.7212 2.51413 5.11655 2.82222C4.1287 3.32555 3.32555 4.1287 2.82222 5.11655C2.51413 5.7212 2.3789 6.38657 2.3138 7.18333C2.24999 7.96432 2.24999 8.93478 2.25 10.1667V10.2V13.8V13.8333C2.24999 15.0652 2.24999 16.0357 2.3138 16.8167C2.3789 17.6134 2.51413 18.2788 2.82222 18.8835C3.32555 19.8713 4.1287 20.6744 5.11655 21.1778C5.7212 21.4859 6.38657 21.6211 7.18333 21.6862C7.96432 21.75 8.93477 21.75 10.1667 21.75H10.2H13.8H13.8333C15.0652 21.75 16.0357 21.75 16.8167 21.6862C17.6134 21.6211 18.2788 21.4859 18.8835 21.1778C19.8713 20.6744 20.6744 19.8713 21.1778 18.8835C21.4859 18.2788 21.6211 17.6134 21.6862 16.8167C21.75 16.0357 21.75 15.0652 21.75 13.8333V13.8V10.2V10.1667C21.75 8.93477 21.75 7.96431 21.6862 7.18333C21.6211 6.38657 21.4859 5.7212 21.1778 5.11655C20.6744 4.1287 19.8713 3.32555 18.8835 2.82222C18.2788 2.51413 17.6134 2.3789 16.8167 2.3138C16.0357 2.24999 15.0652 2.24999 13.8333 2.25H13.8H10.2ZM3.80312 16.6217C3.80495 16.6462 3.80685 16.6705 3.80882 16.6945C3.86634 17.3985 3.97634 17.8445 4.15873 18.2025C4.51825 18.9081 5.09193 19.4817 5.79754 19.8413C6.15549 20.0237 6.60148 20.1337 7.30548 20.1912C8.01824 20.2494 8.92751 20.25 10.2 20.25H13.8C15.0725 20.25 15.9818 20.2494 16.6945 20.1912C17.3985 20.1337 17.8445 20.0237 18.2025 19.8413C18.9081 19.4817 19.4817 18.9081 19.8413 18.2025C20.0237 17.8445 20.1337 17.3985 20.1912 16.6945C20.1931 16.6705 20.195 16.6462 20.1969 16.6217L19.5622 16.0008L19.5408 15.9798C19.1666 15.6137 18.8539 15.3079 18.5779 15.0783C18.2897 14.8387 17.9932 14.6401 17.6383 14.5266C17.0931 14.352 16.5069 14.352 15.9617 14.5266C15.6068 14.6401 15.3103 14.8387 15.0221 15.0784C14.746 15.3079 14.4334 15.6138 14.0592 15.9799L14.0592 15.9799L14.0456 15.9932L12.3931 14.0827L12.3725 14.0589L12.3725 14.0589C12.0028 13.6315 11.6952 13.2758 11.4208 13.0075C11.1353 12.7283 10.8366 12.4931 10.4679 12.3509C9.90457 12.1336 9.28537 12.1078 8.70588 12.2775C8.32666 12.3885 8.00943 12.5981 7.70176 12.8525C7.40595 13.0971 7.06979 13.426 6.66588 13.8211L6.66587 13.8211L6.64337 13.8432L3.80312 16.6217ZM16 10C17.1046 10 18 9.10457 18 8C18 6.89543 17.1046 6 16 6C14.8954 6 14 6.89543 14 8C14 9.10457 14.8954 10 16 10Z" fill="#1D1E1F"/>
</svg>
