<svg width="24" height="24" viewBox="0 0 24 24" fill="none" xmlns="http://www.w3.org/2000/svg">
<path fill-rule="evenodd" clip-rule="evenodd" d="M2 1.25H1.25V2V10V10.75H2H10H10.75V10V2V1.25H10H2ZM14 1.25H13.25V2V10V10.75H14H22H22.75V10V2V1.25H22H14ZM1.25 13.25H2H10H10.75V14V22V22.75H10H2H1.25V22V14V13.25ZM4.5 4.5H7.5V7.5H4.5V4.5ZM19.5 4.5H16.5V7.5H19.5V4.5ZM4.5 16.5H7.5V19.5H4.5V16.5ZM14.75 13.5C14.3358 13.5 14 13.8358 14 14.25V21.75C14 22.1642 14.3358 22.5 14.75 22.5C15.1642 22.5 15.5 22.1642 15.5 21.75V14.25C15.5 13.8358 15.1642 13.5 14.75 13.5ZM18.25 13.5C17.8358 13.5 17.5 13.8358 17.5 14.25V21.75C17.5 22.1642 17.8358 22.5 18.25 22.5C18.6642 22.5 19 22.1642 19 21.75V14.25C19 13.8358 18.6642 13.5 18.25 13.5ZM21 14.25C21 13.8358 21.3358 13.5 21.75 13.5C22.1642 13.5 22.5 13.8358 22.5 14.25V21.75C22.5 22.1642 22.1642 22.5 21.75 22.5C21.3358 22.5 21 22.1642 21 21.75V14.25Z" fill="#18191A"/>
</svg>
