<svg width="24" height="24" viewBox="0 0 24 24" fill="none" xmlns="http://www.w3.org/2000/svg">
<path fill-rule="evenodd" clip-rule="evenodd" d="M2.25 7.5C2.25 4.68431 4.46659 2.38634 7.25 2.25585V3V5C7.25 7.07107 8.92893 8.75 11 8.75H16C16.4142 8.75 16.75 8.41421 16.75 8C16.75 7.58579 16.4142 7.25 16 7.25H11C9.75736 7.25 8.75 6.24264 8.75 5V3V2.25H14.172C15.5395 2.25 16.853 2.78357 17.8332 3.73719L20.1611 6.00223C21.1769 6.9906 21.75 8.34771 21.75 9.76504V16.5C21.75 19.3157 19.5334 21.6137 16.75 21.7442V21V16C16.75 13.9289 15.0711 12.25 13 12.25H11C8.92893 12.25 7.25 13.9289 7.25 16V21V21.7442C4.46659 21.6137 2.25 19.3157 2.25 16.5V7.5ZM8.75 21.75H15.25V21V16C15.25 14.7574 14.2426 13.75 13 13.75H11C9.75736 13.75 8.75 14.7574 8.75 16V21V21.75Z" fill="#18191A"/>
</svg>
