<svg width="24" height="24" viewBox="0 0 24 24" fill="none" xmlns="http://www.w3.org/2000/svg">
<path fill-rule="evenodd" clip-rule="evenodd" d="M10.2 2.25H10.1667H10.1667C8.93478 2.24999 7.96432 2.24999 7.18333 2.3138C6.38657 2.3789 5.7212 2.51413 5.11655 2.82222C4.1287 3.32555 3.32555 4.1287 2.82222 5.11655C2.51413 5.7212 2.3789 6.38657 2.3138 7.18333C2.24999 7.96432 2.25 8.93478 2.25 10.1667V10.1667V10.2V13.8V13.8333V13.8333C2.25 15.0652 2.24999 16.0357 2.3138 16.8167C2.3789 17.6134 2.51413 18.2788 2.82222 18.8834C3.32555 19.8713 4.1287 20.6744 5.11655 21.1778C5.7212 21.4859 6.38657 21.6211 7.18333 21.6862C7.96431 21.75 8.93477 21.75 10.1667 21.75H10.2H13.8H13.8333C15.0652 21.75 16.0357 21.75 16.8167 21.6862C17.6134 21.6211 18.2788 21.4859 18.8834 21.1778C19.8713 20.6744 20.6744 19.8713 21.1778 18.8834C21.4859 18.2788 21.6211 17.6134 21.6862 16.8167C21.75 16.0357 21.75 15.0652 21.75 13.8333V13.8V10.2V10.1667C21.75 8.93477 21.75 7.96432 21.6862 7.18333C21.6211 6.38657 21.4859 5.7212 21.1778 5.11655C20.6744 4.1287 19.8713 3.32555 18.8834 2.82222C18.2788 2.51413 17.6134 2.3789 16.8167 2.3138C16.0357 2.24999 15.0652 2.24999 13.8333 2.25H13.8H10.2ZM8 3.5H16C18.4853 3.5 20.5 5.51472 20.5 8H3.5C3.5 5.51472 5.51472 3.5 8 3.5ZM16.5 20.5H7.5C5.29086 20.5 3.5 18.7091 3.5 16.5H20.5C20.5 18.7091 18.7091 20.5 16.5 20.5Z" fill="#1D1E1F"/>
</svg>
