<svg width="24" height="24" viewBox="0 0 24 24" fill="none" xmlns="http://www.w3.org/2000/svg">
<path fill-rule="evenodd" clip-rule="evenodd" d="M1.25 6C1.25 3.92893 2.92893 2.25 5 2.25H19C21.0711 2.25 22.75 3.92893 22.75 6V12.25H22H2H1.25V6ZM1.25 13.75V14C1.25 16.0711 2.92893 17.75 5 17.75H8.84631L8.37756 20.25H7C6.58579 20.25 6.25 20.5858 6.25 21C6.25 21.4142 6.58579 21.75 7 21.75H8.98667C8.99615 21.7502 9.00559 21.7502 9.01501 21.75H14.985C14.9944 21.7502 15.0039 21.7502 15.0133 21.75H17C17.4142 21.75 17.75 21.4142 17.75 21C17.75 20.5858 17.4142 20.25 17 20.25H15.6224L15.1537 17.75H19C21.0711 17.75 22.75 16.0711 22.75 14V13.75H22H2H1.25ZM13.6276 17.75L14.0963 20.25H9.9037L10.3724 17.75H13.6276ZM15.4898 10.7623C15.7458 10.9999 16.132 11.0293 16.4211 10.8332L18.2085 9.62066C18.5512 9.38812 18.6406 8.92173 18.4081 8.57895C18.1755 8.23617 17.7091 8.1468 17.3664 8.37934L16.0728 9.25689L12.5102 5.95029C12.2337 5.69367 11.8097 5.68234 11.5199 5.92383L9.04603 7.98536L6.53033 5.46967C6.23744 5.17678 5.76256 5.17678 5.46967 5.46967C5.17678 5.76256 5.17678 6.23744 5.46967 6.53033L8.46967 9.53033C8.74396 9.80462 9.18214 9.82449 9.48014 9.57617L11.9733 7.49851L15.4898 10.7623Z" fill="#18191A"/>
</svg>
