<svg width="24" height="24" viewBox="0 0 24 24" fill="none" xmlns="http://www.w3.org/2000/svg">
<path fill-rule="evenodd" clip-rule="evenodd" d="M11 2.75C6.44365 2.75 2.75 6.44365 2.75 11C2.75 15.5563 6.44365 19.25 11 19.25C15.5563 19.25 19.25 15.5563 19.25 11C19.25 6.44365 15.5563 2.75 11 2.75ZM1.25 11C1.25 5.61522 5.61522 1.25 11 1.25C16.3848 1.25 20.75 5.61522 20.75 11C20.75 13.4224 19.8666 15.6385 18.4043 17.3437L22.0303 20.9697C22.3232 21.2626 22.3232 21.7374 22.0303 22.0303C21.7374 22.3232 21.2626 22.3232 20.9697 22.0303L17.3437 18.4043C15.6385 19.8666 13.4224 20.75 11 20.75C5.61522 20.75 1.25 16.3848 1.25 11ZM11 16C13.7614 16 16 13.7614 16 11C16 8.23858 13.7614 6 11 6C8.23858 6 6 8.23858 6 11C6 13.7614 8.23858 16 11 16Z" fill="#18191A"/>
</svg>
