<svg width="24" height="24" viewBox="0 0 24 24" fill="none" xmlns="http://www.w3.org/2000/svg">
<path fill-rule="evenodd" clip-rule="evenodd" d="M5.71505 2.09481L5.69004 2.08092C5.49999 1.9753 5.31593 1.87302 5.16102 1.80407C5.02195 1.74219 4.74238 1.62664 4.42179 1.69155C4.06098 1.76461 3.75695 2.00599 3.60399 2.34084C3.46807 2.63836 3.51722 2.93685 3.54596 3.08632C3.57798 3.25283 3.63587 3.45529 3.69565 3.66434L3.70351 3.69184L4.38571 6.07894L4.42365 6.2118C4.77575 7.44495 5.00231 8.23845 5.45144 8.88591C5.84783 9.45734 6.36486 9.93475 6.96601 10.2844C7.64714 10.6806 8.45615 10.8434 9.7134 11.0962H9.71341L9.84887 11.1235L14.2011 12L9.84887 12.8765L9.71341 12.9038C8.45616 13.1566 7.64714 13.3194 6.96601 13.7156C6.36486 14.0652 5.84783 14.5427 5.45144 15.1141C5.00231 15.7615 4.77575 16.555 4.42365 17.7882L4.38571 17.9211L3.70351 20.3081L3.69564 20.3357L3.69564 20.3357C3.63587 20.5447 3.57798 20.7472 3.54596 20.9137C3.51722 21.0631 3.46807 21.3616 3.60399 21.6592C3.75695 21.994 4.06098 22.2354 4.42179 22.3084C4.74238 22.3734 5.02195 22.2578 5.16102 22.1959C5.31593 22.127 5.49999 22.0247 5.69004 21.9191L5.69006 21.9191L5.71505 21.9052L19.8467 14.0543L19.8768 14.0376C20.262 13.8235 20.5956 13.6383 20.8468 13.4669C21.0998 13.2944 21.3792 13.0658 21.5349 12.7223C21.7429 12.2632 21.7429 11.7368 21.5349 11.2777C21.3792 10.9342 21.0998 10.7056 20.8468 10.5331C20.5956 10.3617 20.262 10.1765 19.8768 9.96244L19.8467 9.94573L5.71505 2.09481Z" fill="#18191A"/>
</svg>
