<svg width="24" height="24" viewBox="0 0 24 24" fill="none" xmlns="http://www.w3.org/2000/svg">
<path fill-rule="evenodd" clip-rule="evenodd" d="M12 1C9.95593 1 8.48985 2.97046 9.07721 4.92833C9.07928 4.93522 9.06966 4.93923 9.06625 4.9329C8.09716 3.13318 5.6672 2.77654 4.22184 4.2219C2.77648 5.66725 3.13313 8.09722 4.93285 9.0663C4.9392 9.06972 4.93517 9.07936 4.92827 9.07729C2.97043 8.48994 1 9.956 1 12C1 14.0441 2.97043 15.5101 4.92827 14.9228C4.93518 14.9207 4.93919 14.9304 4.93284 14.9338C3.13312 15.9029 2.77647 18.3328 4.22183 19.7782C5.66719 21.2236 8.09715 20.8669 9.06624 19.0672C9.06966 19.0608 9.07935 19.0648 9.07728 19.0717C8.48992 21.0296 9.95598 23 12 23C14.0441 23 15.5101 21.0296 14.9228 19.0717C14.9207 19.0648 14.9304 19.0609 14.9338 19.0672C15.9029 20.8669 18.3328 21.2236 19.7782 19.7782C21.2236 18.3329 20.8669 15.9029 19.0672 14.9338C19.0608 14.9304 19.0648 14.9207 19.0717 14.9228C21.0296 15.5101 23 14.0441 23 12C23 9.95597 21.0296 8.48992 19.0717 9.07727C19.0648 9.07935 19.0608 9.06967 19.0672 9.06625C20.8669 8.09716 21.2235 5.6672 19.7782 4.22184C18.3328 2.77648 15.9028 3.13313 14.9338 4.93285C14.9303 4.9392 14.9207 4.93518 14.9228 4.92827C15.5101 2.97043 14.0441 1 12 1ZM18.1395 12.0001C18.1395 15.3909 15.3908 18.1396 12 18.1396C8.60922 18.1396 5.86046 15.3909 5.86046 12.0001C5.86046 8.60934 8.60922 5.86058 12 5.86058C15.3908 5.86058 18.1395 8.60934 18.1395 12.0001Z" fill="#18191A"/>
</svg>
