<svg width="24" height="24" viewBox="0 0 24 24" fill="none" xmlns="http://www.w3.org/2000/svg">
<path fill-rule="evenodd" clip-rule="evenodd" d="M13.4246 3.4375C13.2035 3.24251 12.8887 3.19514 12.62 3.31644C12.3513 3.43774 12.1786 3.7052 12.1786 4.00001V7.76515C9.78889 7.86264 7.1607 8.45108 5.0667 10.1022C2.77895 11.9061 1.25 14.8813 1.25 19.5C1.25 19.8229 1.45657 20.1095 1.76283 20.2115C2.06909 20.3136 2.40631 20.2083 2.6 19.95C3.98166 18.1078 5.44347 17.2054 7.05331 16.7441C8.5654 16.3108 10.2309 16.2572 12.1786 16.2508V20C12.1786 20.2948 12.3513 20.5623 12.62 20.6836C12.8887 20.8049 13.2035 20.7575 13.4246 20.5625L21.6456 13.3125C22.4356 12.6158 22.4356 11.3842 21.6456 10.6875L13.4246 3.4375Z" fill="#18191A"/>
</svg>
