<svg width="24" height="24" viewBox="0 0 24 24" fill="none" xmlns="http://www.w3.org/2000/svg">
<path fill-rule="evenodd" clip-rule="evenodd" d="M11.25 6C11.25 3.92893 12.9289 2.25 15 2.25C16.8142 2.25 18.3275 3.53832 18.675 5.25L22 5.25C22.4142 5.25 22.75 5.58579 22.75 6C22.75 6.41421 22.4142 6.75 22 6.75L18.675 6.75C18.3275 8.46168 16.8142 9.75 15 9.75C12.9289 9.75 11.25 8.07107 11.25 6ZM2 17.25C1.58579 17.25 1.25 17.5858 1.25 18C1.25 18.4142 1.58579 18.75 2 18.75H4.32501C4.67247 20.4617 6.18578 21.75 8 21.75C10.0711 21.75 11.75 20.0711 11.75 18C11.75 15.9289 10.0711 14.25 8 14.25C6.18578 14.25 4.67247 15.5383 4.32501 17.25H2ZM14.25 18C14.25 17.5858 14.5858 17.25 15 17.25L22 17.25C22.4142 17.25 22.75 17.5858 22.75 18C22.75 18.4142 22.4142 18.75 22 18.75H15C14.5858 18.75 14.25 18.4142 14.25 18ZM2 5.25C1.58579 5.25 1.25 5.58579 1.25 6C1.25 6.41421 1.58579 6.75 2 6.75H8C8.41421 6.75 8.75 6.41421 8.75 6C8.75 5.58579 8.41421 5.25 8 5.25H2Z" fill="#18191A"/>
</svg>
