<svg width="24" height="24" viewBox="0 0 24 24" fill="none" xmlns="http://www.w3.org/2000/svg">
<path d="M17 6.75C17.0997 6.75 17.4264 6.80872 17.9026 7.01695C18.3564 7.21538 18.885 7.52352 19.3855 7.95466C20.3761 8.80808 21.25 10.1329 21.25 12.0845H22.75C22.75 9.62064 21.6239 7.90319 20.3645 6.81823C19.74 6.28017 19.0811 5.8951 18.5036 5.6426C17.9486 5.39991 17.4003 5.25 17 5.25V6.75ZM21.25 12.0845C21.25 14.0329 20.3794 15.3107 19.3981 16.1192C18.9008 16.529 18.3744 16.8174 17.9207 17.0019C17.4481 17.194 17.1131 17.25 17 17.25L17 18.75C17.3869 18.75 17.9269 18.6185 18.4856 18.3914C19.0631 18.1566 19.7242 17.7941 20.3519 17.2769C21.6206 16.2316 22.75 14.5516 22.75 12.0845H21.25Z" fill="#1D1E1F"/>
<path d="M19.5 12C19.5 9.5 17 8.5 17 8.5V15.5C17 15.5 19.5 14.5 19.5 12Z" fill="#1D1E1F"/>
<path fill-rule="evenodd" clip-rule="evenodd" d="M14.7499 3.80431C14.7499 2.4298 13.238 1.59182 12.0724 2.32031L3.02962 7.97207C0.0529509 9.83249 0.0529509 14.1676 3.02962 16.0281L12.0724 21.6798C13.238 22.4083 14.7499 21.5703 14.7499 20.1958V3.80431Z" fill="#1D1E1F"/>
</svg>
