<svg width="24" height="24" viewBox="0 0 24 24" fill="none" xmlns="http://www.w3.org/2000/svg">
<path fill-rule="evenodd" clip-rule="evenodd" d="M15.2499 3.80431C15.2499 2.4298 13.738 1.59182 12.5724 2.32031L3.52962 7.97207C0.552951 9.83249 0.552951 14.1676 3.52962 16.0281L12.5724 21.6798C13.738 22.4083 15.2499 21.5703 15.2499 20.1958V3.80431Z" fill="#1D1E1F"/>
<path d="M18 11.25C17.5858 11.25 17.25 11.5858 17.25 12C17.25 12.4142 17.5858 12.75 18 12.75V11.25ZM23 12.75C23.4142 12.75 23.75 12.4142 23.75 12C23.75 11.5858 23.4142 11.25 23 11.25V12.75ZM18 12.75H23V11.25H18V12.75Z" fill="#1D1E1F"/>
<path d="M21.25 9.5C21.25 9.08579 20.9142 8.75 20.5 8.75C20.0858 8.75 19.75 9.08579 19.75 9.5L21.25 9.5ZM19.75 14.5C19.75 14.9142 20.0858 15.25 20.5 15.25C20.9142 15.25 21.25 14.9142 21.25 14.5L19.75 14.5ZM19.75 9.5L19.75 14.5L21.25 14.5L21.25 9.5L19.75 9.5Z" fill="#1D1E1F"/>
</svg>
