<svg width="24" height="24" viewBox="0 0 24 24" fill="none" xmlns="http://www.w3.org/2000/svg">
<path fill-rule="evenodd" clip-rule="evenodd" d="M15.2499 3.80431C15.2499 2.4298 13.738 1.59182 12.5724 2.32031L3.52962 7.97207C0.552951 9.83249 0.552951 14.1676 3.52962 16.0281L12.5724 21.6798C13.738 22.4083 15.2499 21.5703 15.2499 20.1958V3.80431Z" fill="#1D1E1F"/>
<path d="M19.5303 9.46967C19.2374 9.17678 18.7626 9.17678 18.4697 9.46967C18.1768 9.76256 18.1768 10.2374 18.4697 10.5303L19.5303 9.46967ZM22.4691 14.5297C22.7619 14.8226 23.2368 14.8226 23.5297 14.5297C23.8226 14.2368 23.8226 13.7619 23.5297 13.4691L22.4691 14.5297ZM18.4697 10.5303L22.4691 14.5297L23.5297 13.4691L19.5303 9.46967L18.4697 10.5303Z" fill="#1D1E1F"/>
<path d="M23.5298 10.5303C23.8227 10.2374 23.8227 9.76256 23.5298 9.46967C23.2369 9.17678 22.7621 9.17678 22.4692 9.46967L23.5298 10.5303ZM18.4698 13.4691C18.1769 13.7619 18.1769 14.2368 18.4698 14.5297C18.7627 14.8226 19.2376 14.8226 19.5305 14.5297L18.4698 13.4691ZM22.4692 9.46967L18.4698 13.4691L19.5305 14.5297L23.5298 10.5303L22.4692 9.46967Z" fill="#1D1E1F"/>
</svg>
