<svg width="24" height="24" viewBox="0 0 24 24" fill="none" xmlns="http://www.w3.org/2000/svg">
<g clip-path="url(#clip0_634_43)">
<path d="M7.02128 7.02128L7.55161 6.49095L7.13107 6.07041L6.62575 6.38405L7.02128 7.02128ZM13.5 13.5H14.25V13.1893L14.0303 12.9697L13.5 13.5ZM10.1064 5.10638L9.71086 4.46915L8.90727 4.96793L9.57605 5.63671L10.1064 5.10638ZM13.5 8.5L12.9697 9.03033L14.25 10.3107V8.5H13.5ZM11.9726 20.052L12.3682 19.4148L11.9726 20.052ZM4.07994 16.0358L11.5771 20.6892L12.3682 19.4148L4.87098 14.7613L4.07994 16.0358ZM4.87098 9.23867L7.4168 7.65851L6.62575 6.38405L4.07994 7.96421L4.87098 9.23867ZM12.75 13.5V19.2023H14.25V13.5H12.75ZM10.5019 5.74361L12.3682 4.58525L11.5771 3.31079L9.71086 4.46915L10.5019 5.74361ZM12.75 4.79766V8.5H14.25V4.79766H12.75ZM9.57605 5.63671L12.9697 9.03033L14.0303 7.96967L10.6367 4.57605L9.57605 5.63671ZM14.0303 12.9697L7.55161 6.49095L6.49095 7.55161L12.9697 14.0303L14.0303 12.9697ZM11.5771 20.6892C12.7429 21.4128 14.25 20.5744 14.25 19.2023H12.75C12.75 19.3983 12.5347 19.5181 12.3682 19.4148L11.5771 20.6892ZM12.3682 4.58525C12.5347 4.48188 12.75 4.60165 12.75 4.79766H14.25C14.25 3.42558 12.7429 2.58721 11.5771 3.31079L12.3682 4.58525ZM4.87098 14.7613C2.82289 13.4901 2.82289 10.5099 4.87098 9.23867L4.07994 7.96421C1.08657 9.82216 1.08657 14.1778 4.07994 16.0358L4.87098 14.7613Z" fill="#1D1E1F"/>
<path d="M11.9726 20.0519L4.47546 15.3985C1.95473 13.8339 1.95473 10.166 4.47546 8.6014L7.02128 7.02124L13.5 13.5V19.2023C13.5 19.9863 12.6388 20.4654 11.9726 20.0519Z" fill="#1D1E1F"/>
<path d="M2.53033 1.46967C2.23744 1.17678 1.76256 1.17678 1.46967 1.46967C1.17678 1.76256 1.17678 2.23744 1.46967 2.53033L2.53033 1.46967ZM21.4697 22.5303C21.7626 22.8232 22.2374 22.8232 22.5303 22.5303C22.8232 22.2374 22.8232 21.7626 22.5303 21.4697L21.4697 22.5303ZM1.46967 2.53033L21.4697 22.5303L22.5303 21.4697L2.53033 1.46967L1.46967 2.53033Z" fill="#1D1E1F"/>
<path d="M11.9727 3.94802L10.1064 5.10638L13.5001 8.5V4.79766C13.5001 4.01362 12.6389 3.53454 11.9727 3.94802Z" fill="#1D1E1F"/>
</g>
<defs>
<clipPath id="clip0_634_43">
<rect width="24" height="24" fill="white"/>
</clipPath>
</defs>
</svg>
