<svg width="24" height="24" viewBox="0 0 24 24" fill="none" xmlns="http://www.w3.org/2000/svg">
<path fill-rule="evenodd" clip-rule="evenodd" d="M10.9664 2.25H11H13H13.0336C14.4053 2.25 15.4807 2.24999 16.3451 2.32061C17.2252 2.39252 17.9523 2.54138 18.6104 2.87671C19.6924 3.42798 20.572 4.30762 21.1233 5.38955C21.4586 6.04768 21.6075 6.77479 21.6794 7.65494C21.75 8.51926 21.75 9.59466 21.75 10.9663V10.9664V10.9664V11V13V13.0336V13.0336V13.0337C21.75 14.4053 21.75 15.4807 21.6794 16.3451C21.6075 17.2252 21.4586 17.9523 21.1233 18.6104C20.572 19.6924 19.6924 20.572 18.6104 21.1233C17.9523 21.4586 17.2252 21.6075 16.3451 21.6794C15.4807 21.75 14.4053 21.75 13.0337 21.75H13.0336H13.0336H13H11H10.9664H10.9664H10.9663C9.59466 21.75 8.51926 21.75 7.65494 21.6794C6.77479 21.6075 6.04768 21.4586 5.38955 21.1233C4.30762 20.572 3.42798 19.6924 2.87671 18.6104C2.54138 17.9523 2.39252 17.2252 2.32061 16.3451C2.24999 15.4807 2.25 14.4053 2.25 13.0336V13V11V10.9664C2.25 9.59472 2.24999 8.51929 2.32061 7.65494C2.39252 6.77479 2.54138 6.04768 2.87671 5.38955C3.42798 4.30762 4.30762 3.42798 5.38955 2.87671C6.04768 2.54138 6.77479 2.39252 7.65494 2.32061C8.51929 2.24999 9.59472 2.25 10.9664 2.25ZM12.5584 14.0034L13.3247 7.48973C13.418 6.69675 12.7984 6 11.9999 6C11.2015 6 10.5819 6.69675 10.6752 7.48973L11.4415 14.0034C11.4748 14.2866 11.7148 14.5 11.9999 14.5C12.2851 14.5 12.5251 14.2866 12.5584 14.0034ZM12.9999 17C12.9999 17.5523 12.5522 18 11.9999 18C11.4477 18 10.9999 17.5523 10.9999 17C10.9999 16.4477 11.4477 16 11.9999 16C12.5522 16 12.9999 16.4477 12.9999 17Z" fill="#18191A"/>
</svg>
