<svg width="24" height="24" viewBox="0 0 24 24" fill="none" xmlns="http://www.w3.org/2000/svg">
<path fill-rule="evenodd" clip-rule="evenodd" d="M13.1506 1.7414C12.4203 1.40488 11.5792 1.40488 10.8489 1.7414C10.3469 1.9727 9.98393 2.40546 9.65936 2.89794C9.33504 3.39005 8.97802 4.05724 8.53524 4.88472L8.51703 4.91874L8.09207 5.71288C7.90829 6.05632 7.87868 6.09769 7.85246 6.12495C7.81431 6.16463 7.7692 6.19697 7.71938 6.22037C7.68514 6.23645 7.63646 6.25122 7.25221 6.31505L6.65606 6.41407L6.61729 6.42051C5.56975 6.59451 4.73212 6.73365 4.10023 6.89825C3.47603 7.06084 2.89835 7.283 2.50645 7.72519C1.9447 8.35901 1.70634 9.21632 1.86031 10.0491C1.96773 10.6302 2.34783 11.1186 2.79852 11.5801C3.25476 12.0472 3.90036 12.5987 4.70774 13.2884L4.73765 13.314L5.02188 13.5568C5.41009 13.8884 5.45431 13.9403 5.47769 13.9814C5.51217 14.042 5.53209 14.1098 5.53588 14.1795C5.53844 14.2267 5.52929 14.2942 5.38213 14.7831L5.37079 14.8208C5.00686 16.0298 4.71911 16.9858 4.56508 17.7241C4.4159 18.4392 4.34539 19.138 4.6133 19.7218C4.98958 20.5418 5.7441 21.125 6.6324 21.2826C7.26488 21.3948 7.92343 21.1505 8.57784 20.8259C9.25354 20.4909 10.1061 19.9716 11.1845 19.3148L11.2181 19.2943L11.3911 19.1889C11.7997 18.94 11.8582 18.9156 11.9021 18.9058C11.9664 18.8915 12.0331 18.8915 12.0974 18.9058C12.1413 18.9156 12.1998 18.94 12.6084 19.1889L12.7814 19.2943L12.815 19.3148L12.8151 19.3148C13.8934 19.9716 14.746 20.4909 15.4216 20.8259C16.0761 21.1505 16.7346 21.3948 17.3671 21.2826C18.2554 21.125 19.0099 20.5418 19.3862 19.7218C19.6541 19.138 19.5836 18.4392 19.4344 17.7241C19.2804 16.9857 18.9926 16.0298 18.6287 14.8207L18.6174 14.7831C18.4702 14.2942 18.461 14.2267 18.4636 14.1795C18.4674 14.1098 18.4873 14.042 18.5218 13.9814C18.5452 13.9403 18.5894 13.8884 18.9776 13.5568L19.2618 13.314L19.2917 13.2884C20.0991 12.5987 20.7447 12.0472 21.201 11.5801C21.6517 11.1186 22.0318 10.6302 22.1392 10.0491C22.2931 9.21632 22.0548 8.35901 21.493 7.72519C21.1011 7.283 20.5235 7.06084 19.8993 6.89825C19.2674 6.73365 18.4298 6.59452 17.3822 6.42052L17.3822 6.42052L17.3434 6.41407L16.7473 6.31505C16.363 6.25122 16.3143 6.23645 16.2801 6.22037C16.2303 6.19697 16.1852 6.16463 16.147 6.12495C16.1208 6.09769 16.0912 6.05632 15.9074 5.71288L15.4825 4.91874L15.4642 4.88464C15.0214 4.0572 14.6644 3.39003 14.3401 2.89794C14.0156 2.40546 13.6526 1.9727 13.1506 1.7414Z" fill="#18191A"/>
</svg>
