<svg width="24" height="24" viewBox="0 0 24 24" fill="none" xmlns="http://www.w3.org/2000/svg">
<rect x="2" y="2" width="20" height="20" rx="10" stroke="#1D1E1F" stroke-width="1.5"/>
<path fill-rule="evenodd" clip-rule="evenodd" d="M12 2C6.47715 2 2 6.47715 2 12C2 17.5228 6.47715 22 12 22C17.5228 22 22 17.5228 22 12C22 6.47715 17.5228 2 12 2ZM10 8.5C10 8.03406 10 7.80109 9.92388 7.61732C9.82239 7.37229 9.62771 7.17762 9.38269 7.07612C9.19891 7 8.96594 7 8.5 7C8.03406 7 7.80109 7 7.61732 7.07612C7.37229 7.17762 7.17762 7.37229 7.07612 7.61732C7 7.80109 7 8.03406 7 8.5V15.5C7 15.9659 7 16.1989 7.07612 16.3827C7.17762 16.6277 7.37229 16.8224 7.61732 16.9239C7.80109 17 8.03406 17 8.5 17C8.96594 17 9.19891 17 9.38269 16.9239C9.62771 16.8224 9.82239 16.6277 9.92388 16.3827C10 16.1989 10 15.9659 10 15.5V8.5ZM17 8.5C17 8.03406 17 7.80109 16.9239 7.61732C16.8224 7.37229 16.6277 7.17762 16.3827 7.07612C16.1989 7 15.9659 7 15.5 7C15.0341 7 14.8011 7 14.6173 7.07612C14.3723 7.17762 14.1776 7.37229 14.0761 7.61732C14 7.80109 14 8.03406 14 8.5V15.5C14 15.9659 14 16.1989 14.0761 16.3827C14.1776 16.6277 14.3723 16.8224 14.6173 16.9239C14.8011 17 15.0341 17 15.5 17C15.9659 17 16.1989 17 16.3827 16.9239C16.6277 16.8224 16.8224 16.6277 16.9239 16.3827C17 16.1989 17 15.9659 17 15.5V8.5Z" fill="#1D1E1F"/>
</svg>
