<svg width="24" height="24" viewBox="0 0 24 24" fill="none" xmlns="http://www.w3.org/2000/svg">
<path fill-rule="evenodd" clip-rule="evenodd" d="M6.62891 2.25H6.6H6.4H6.37109H6.37106H6.37104C5.9757 2.24999 5.63465 2.24998 5.35373 2.27293C5.05722 2.29715 4.76231 2.35064 4.47852 2.49524C4.05516 2.71095 3.71095 3.05516 3.49524 3.47852C3.35064 3.76231 3.29715 4.05722 3.27293 4.35373C3.24998 4.63465 3.24999 4.9757 3.25 5.37104V5.37106V5.37108V5.4V18.6V18.6289V18.6289V18.629C3.24999 19.0243 3.24998 19.3654 3.27293 19.6463C3.29715 19.9428 3.35064 20.2377 3.49524 20.5215C3.71095 20.9448 4.05516 21.2891 4.47852 21.5048C4.76231 21.6494 5.05722 21.7028 5.35373 21.7271C5.63463 21.75 5.97567 21.75 6.37098 21.75H6.37108H6.4H6.6H6.62893H6.62902C7.02434 21.75 7.36537 21.75 7.64627 21.7271C7.94278 21.7028 8.2377 21.6494 8.52148 21.5048C8.94485 21.2891 9.28905 20.9448 9.50477 20.5215C9.64936 20.2377 9.70285 19.9428 9.72707 19.6463C9.75003 19.3653 9.75002 19.0243 9.75 18.6289L9.75 18.6V5.4L9.75 5.37109C9.75002 4.97573 9.75003 4.63466 9.72707 4.35373C9.70285 4.05722 9.64936 3.76231 9.50477 3.47852C9.28905 3.05516 8.94485 2.71095 8.52148 2.49524C8.2377 2.35064 7.94278 2.29715 7.64627 2.27293C7.36536 2.24998 7.0243 2.24999 6.62896 2.25H6.62894H6.62891ZM17.6289 2.25H17.6H17.4H17.3711H17.3711H17.371C16.9757 2.24999 16.6346 2.24998 16.3537 2.27293C16.0572 2.29715 15.7623 2.35064 15.4785 2.49524C15.0552 2.71095 14.711 3.05516 14.4952 3.47852C14.3506 3.76231 14.2972 4.05722 14.2729 4.35373C14.25 4.63465 14.25 4.97571 14.25 5.37106V5.37108V5.4V18.6V18.6289V18.6289C14.25 19.0243 14.25 19.3654 14.2729 19.6463C14.2972 19.9428 14.3506 20.2377 14.4952 20.5215C14.711 20.9448 15.0552 21.2891 15.4785 21.5048C15.7623 21.6494 16.0572 21.7028 16.3537 21.7271C16.6346 21.75 16.9757 21.75 17.371 21.75H17.3711H17.4H17.6H17.6289H17.629C18.0243 21.75 18.3654 21.75 18.6463 21.7271C18.9428 21.7028 19.2377 21.6494 19.5215 21.5048C19.9448 21.2891 20.2891 20.9448 20.5048 20.5215C20.6494 20.2377 20.7028 19.9428 20.7271 19.6463C20.75 19.3653 20.75 19.0243 20.75 18.6289V18.6V5.4V5.37109C20.75 4.97573 20.75 4.63466 20.7271 4.35373C20.7028 4.05722 20.6494 3.76231 20.5048 3.47852C20.2891 3.05516 19.9448 2.71095 19.5215 2.49524C19.2377 2.35064 18.9428 2.29715 18.6463 2.27293C18.3654 2.24998 18.0243 2.24999 17.629 2.25H17.6289H17.6289Z" fill="#1D1E1F"/>
</svg>
