<svg width="24" height="24" viewBox="0 0 24 24" fill="none" xmlns="http://www.w3.org/2000/svg">
<path fill-rule="evenodd" clip-rule="evenodd" d="M8.367 3.25H8.4H15.6H15.633H15.633C16.7252 3.24999 17.5906 3.24999 18.2883 3.30699C19.0017 3.36527 19.6053 3.48688 20.1565 3.76772C21.0502 4.22312 21.7769 4.94978 22.2323 5.84355C22.5131 6.39472 22.6347 6.99834 22.693 7.71173C22.75 8.40935 22.75 9.27484 22.75 10.367V10.4V13.6V13.633C22.75 14.7252 22.75 15.5906 22.693 16.2883C22.6347 17.0017 22.5131 17.6053 22.2323 18.1565C21.7769 19.0502 21.0502 19.7769 20.1565 20.2323C19.6053 20.5131 19.0017 20.6347 18.2883 20.693C17.5907 20.75 16.7252 20.75 15.633 20.75H15.6H8.4H8.36698C7.27485 20.75 6.40935 20.75 5.71173 20.693C4.99835 20.6347 4.39472 20.5131 3.84355 20.2323C2.94978 19.7769 2.22312 19.0502 1.76772 18.1565C1.48688 17.6053 1.36527 17.0017 1.30699 16.2883C1.24999 15.5906 1.24999 14.7252 1.25 13.633V13.633V13.6V10.4V10.367V10.367V10.367C1.24999 9.27485 1.24999 8.40935 1.30699 7.71173C1.36527 6.99834 1.48688 6.39472 1.76772 5.84355C2.22312 4.94978 2.94978 4.22312 3.84355 3.76772C4.39472 3.48688 4.99835 3.36527 5.71173 3.30699C6.40935 3.24999 7.27485 3.24999 8.36699 3.25H8.367ZM13.75 12C13.75 12.4142 13.4142 12.75 13 12.75H5C4.58579 12.75 4.25 12.4142 4.25 12C4.25 11.5858 4.58579 11.25 5 11.25H13C13.4142 11.25 13.75 11.5858 13.75 12ZM10.25 16C10.25 15.5858 10.5858 15.25 11 15.25L19 15.25C19.4142 15.25 19.75 15.5858 19.75 16C19.75 16.4142 19.4142 16.75 19 16.75H11C10.5858 16.75 10.25 16.4142 10.25 16ZM5 15.25C4.58579 15.25 4.25 15.5858 4.25 16C4.25 16.4142 4.58579 16.75 5 16.75H7C7.41421 16.75 7.75 16.4142 7.75 16C7.75 15.5858 7.41421 15.25 7 15.25H5ZM19.75 12C19.75 12.4142 19.4142 12.75 19 12.75H17C16.5858 12.75 16.25 12.4142 16.25 12C16.25 11.5858 16.5858 11.25 17 11.25H19C19.4142 11.25 19.75 11.5858 19.75 12Z" fill="#1D1E1F"/>
</svg>
