<svg width="24" height="24" viewBox="0 0 24 24" fill="none" xmlns="http://www.w3.org/2000/svg">
<path fill-rule="evenodd" clip-rule="evenodd" d="M12.75 2C12.75 1.58579 12.4142 1.25 12 1.25C11.5858 1.25 11.25 1.58579 11.25 2L11.25 4C11.25 4.41421 11.5858 4.75 12 4.75C12.4142 4.75 12.75 4.41421 12.75 4L12.75 2ZM12.75 20C12.75 19.5858 12.4142 19.25 12 19.25C11.5858 19.25 11.25 19.5858 11.25 20L11.25 22C11.25 22.4142 11.5858 22.75 12 22.75C12.4142 22.75 12.75 22.4142 12.75 22L12.75 20ZM12 6.25C8.82436 6.25 6.25 8.82436 6.25 12C6.25 15.1756 8.82436 17.75 12 17.75C15.1756 17.75 17.75 15.1756 17.75 12C17.75 8.82436 15.1756 6.25 12 6.25ZM1.25 12C1.25 11.5858 1.58579 11.25 2 11.25H4C4.41421 11.25 4.75 11.5858 4.75 12C4.75 12.4142 4.41421 12.75 4 12.75H2C1.58579 12.75 1.25 12.4142 1.25 12ZM19.25 12C19.25 11.5858 19.5858 11.25 20 11.25H22C22.4142 11.25 22.75 11.5858 22.75 12C22.75 12.4142 22.4142 12.75 22 12.75H20C19.5858 12.75 19.25 12.4142 19.25 12ZM5.03033 3.96916C4.73744 3.67627 4.26257 3.67626 3.96967 3.96915C3.67678 4.26205 3.67677 4.73692 3.96967 5.02981L5.46969 6.52986C5.76258 6.82276 6.23745 6.82276 6.53035 6.52987C6.82324 6.23698 6.82325 5.7621 6.53036 5.46921L5.03033 3.96916ZM18.5303 17.4692C18.2374 17.1763 17.7626 17.1763 17.4697 17.4692C17.1768 17.7621 17.1768 18.2369 17.4697 18.5298L18.9697 20.0298C19.2626 20.3227 19.7374 20.3227 20.0303 20.0298C20.3232 19.7369 20.3232 19.2621 20.0303 18.9692L18.5303 17.4692ZM3.96967 20.0303C3.67678 19.7374 3.67678 19.2626 3.96967 18.9697L5.46967 17.4697C5.76256 17.1768 6.23744 17.1768 6.53033 17.4697C6.82322 17.7626 6.82322 18.2374 6.53033 18.5303L5.03033 20.0303C4.73744 20.3232 4.26256 20.3232 3.96967 20.0303ZM17.4697 6.53033C17.1768 6.23744 17.1768 5.76256 17.4697 5.46967L18.9697 3.96967C19.2626 3.67678 19.7374 3.67678 20.0303 3.96967C20.3232 4.26256 20.3232 4.73744 20.0303 5.03033L18.5303 6.53033C18.2374 6.82322 17.7626 6.82322 17.4697 6.53033Z" fill="#18191A"/>
</svg>
