<svg width="24" height="24" viewBox="0 0 24 24" fill="none" xmlns="http://www.w3.org/2000/svg">
<path fill-rule="evenodd" clip-rule="evenodd" d="M2.25 4C2.25 3.0335 3.0335 2.25 4 2.25H12.1716C12.9009 2.25 13.6004 2.53973 14.1161 3.05546L22.1161 11.0555C23.1901 12.1294 23.1901 13.8706 22.1161 14.9445L14.9445 22.1161C13.8706 23.1901 12.1294 23.1901 11.0555 22.1161L3.05546 14.1161C2.53973 13.6004 2.25 12.9009 2.25 12.1716V4ZM8 7C7.44772 7 7 7.44772 7 8C7 8.55228 7.44772 9 8 9H8.1C8.65228 9 9.1 8.55228 9.1 8C9.1 7.44772 8.65228 7 8.1 7H8Z" fill="#18191A"/>
</svg>
