<svg width="24" height="24" viewBox="0 0 24 24" fill="none" xmlns="http://www.w3.org/2000/svg">
<path fill-rule="evenodd" clip-rule="evenodd" d="M10.7251 2.77232C10.9842 2.44255 11.3804 2.25 11.7998 2.25C13.9424 2.25 15.1654 4.69611 13.8798 6.4102L12.725 7.94997C12.6323 8.07357 12.7205 8.24995 12.875 8.24995H16.9015H16.936C17.6052 8.24994 18.1568 8.24993 18.599 8.28906C19.0543 8.32934 19.4814 8.41651 19.8635 8.64797C20.4392 8.99682 20.867 9.54474 21.0658 10.1879C21.1977 10.6147 21.1787 11.0502 21.1073 11.5017C21.038 11.9402 20.9043 12.4753 20.7419 13.1245L20.7419 13.1245L20.7336 13.158L19.6366 17.546L19.5972 17.7036C19.3112 18.8502 19.114 19.6405 18.6594 20.2476C18.2597 20.7814 17.725 21.1989 17.1102 21.4572C16.411 21.751 15.5964 21.7506 14.4146 21.75L14.2523 21.75H9.2H9.16954C8.6354 21.75 8.18956 21.75 7.82533 21.7202C7.44544 21.6892 7.08879 21.6221 6.75152 21.4502C6.23408 21.1866 5.81338 20.7659 5.54973 20.2484C5.37788 19.9112 5.31077 19.5545 5.27974 19.1746C5.24998 18.8104 5.24999 18.3645 5.25 17.8304L5.25 17.8V11.6601L5.24998 11.5888C5.24985 11.0417 5.24976 10.6629 5.32459 10.2933C5.39078 9.96646 5.50026 9.6499 5.65016 9.35201C5.81964 9.01518 6.05378 8.71733 6.3919 8.28722L6.39191 8.28721L6.43595 8.23118L10.7251 2.77232ZM3.25 10C3.25 9.58579 2.91421 9.25 2.5 9.25C2.08579 9.25 1.75 9.58579 1.75 10V21C1.75 21.4142 2.08579 21.75 2.5 21.75C2.91421 21.75 3.25 21.4142 3.25 21L3.25 10Z" fill="#18191A"/>
</svg>
