<svg width="24" height="24" viewBox="0 0 24 24" fill="none" xmlns="http://www.w3.org/2000/svg">
<path fill-rule="evenodd" clip-rule="evenodd" d="M10.7251 22.2277C10.9842 22.5575 11.3804 22.75 11.7998 22.75C13.9424 22.75 15.1654 20.3039 13.8798 18.5898L12.725 17.05C12.6323 16.9264 12.7205 16.75 12.875 16.75H16.9015H16.936C17.6052 16.7501 18.1568 16.7501 18.599 16.7109C19.0543 16.6707 19.4814 16.5835 19.8635 16.352C20.4392 16.0032 20.867 15.4553 21.0658 14.8121C21.1977 14.3853 21.1787 13.9498 21.1073 13.4983C21.038 13.0598 20.9043 12.5247 20.7419 11.8755L20.7419 11.8755L20.7336 11.842L19.6366 7.45397L19.5972 7.29644C19.3112 6.14979 19.114 5.35948 18.6594 4.75238C18.2597 4.21861 17.725 3.80107 17.1102 3.54278C16.411 3.24901 15.5964 3.24941 14.4146 3.24999L14.2523 3.25004H9.2H9.16954C8.6354 3.25003 8.18956 3.25002 7.82533 3.27978C7.44544 3.31082 7.08879 3.37793 6.75152 3.54978C6.23408 3.81343 5.81338 4.23413 5.54973 4.75157C5.37788 5.08883 5.31077 5.44549 5.27974 5.82537C5.24998 6.18961 5.24999 6.63546 5.25 7.16961L5.25 7.20004V13.3399L5.24998 13.4112C5.24985 13.9583 5.24976 14.3371 5.32459 14.7067C5.39078 15.0335 5.50026 15.3501 5.65016 15.648C5.81964 15.9848 6.05378 16.2827 6.3919 16.7128L6.39191 16.7128L6.43595 16.7688L10.7251 22.2277ZM3.25 15C3.25 15.4142 2.91421 15.75 2.5 15.75C2.08579 15.75 1.75 15.4142 1.75 15V4C1.75 3.58579 2.08579 3.25 2.5 3.25C2.91421 3.25 3.25 3.58579 3.25 4L3.25 15Z" fill="#18191A"/>
</svg>
