<svg width="24" height="24" viewBox="0 0 24 24" fill="none" xmlns="http://www.w3.org/2000/svg">
<path fill-rule="evenodd" clip-rule="evenodd" d="M19.25 21.25C21.183 21.25 22.75 19.683 22.75 17.75L22.75 6.47014C22.75 4.41556 21.0844 2.75 19.0298 2.75H18.979C18.429 2.75 17.9153 3.0249 17.6102 3.48256C16.8442 4.63159 15.1557 4.63159 14.3897 3.48256C14.0846 3.0249 13.571 2.75 13.0209 2.75H8.4H8.36698C7.27484 2.74999 6.40935 2.74999 5.71173 2.80699C4.99834 2.86527 4.39472 2.98688 3.84354 3.26772C2.94977 3.72312 2.22311 4.44978 1.76771 5.34355C1.48688 5.89473 1.36527 6.49835 1.30698 7.21174C1.24999 7.90935 1.24999 8.77484 1.25 9.86696V9.86697V9.90001L1.25001 14.1L1.25001 14.133L1.25001 14.1331L1.25001 14.1331C1.25 15.2252 1.25 16.0907 1.307 16.7883C1.36529 17.5017 1.4869 18.1053 1.76773 18.6565C2.22313 19.5502 2.94979 20.2769 3.84356 20.7323C4.39473 21.0131 4.99836 21.1347 5.71175 21.193C6.40935 21.25 7.27483 21.25 8.36694 21.25H8.36701H8.40001H13.0617C13.9172 21.25 14.7022 20.776 15.1007 20.019C15.6935 18.8926 17.3064 18.8926 17.8993 20.019L18.2199 20.6281C18.4212 21.0105 18.8178 21.25 19.25 21.25ZM17.0001 7.50004C17.0001 7.08583 16.6644 6.75002 16.2502 6.75C15.8359 6.74998 15.5001 7.08574 15.5001 7.49996L15.5001 8.49996C15.5 8.91417 15.8358 9.24998 16.25 9.25C16.6642 9.25002 17 8.91426 17.0001 8.50004L17.0001 7.50004ZM17 11C17 10.5857 16.6642 10.25 16.25 10.25C15.8358 10.25 15.5 10.5857 15.5 11V12.5C15.5 12.9142 15.8358 13.25 16.25 13.25C16.6642 13.25 17 12.9142 17 12.5V11ZM16.25 14.25C16.6642 14.25 17 14.5858 17 15V16C17 16.4142 16.6642 16.75 16.25 16.75C15.8358 16.75 15.5 16.4142 15.5 16V15C15.5 14.5858 15.8358 14.25 16.25 14.25Z" fill="#18191A"/>
</svg>
