<svg width="24" height="24" viewBox="0 0 24 24" fill="none" xmlns="http://www.w3.org/2000/svg">
<path fill-rule="evenodd" clip-rule="evenodd" d="M10.621 1.24986L10.7298 1.24997H13.2702L13.379 1.24986C13.8916 1.2491 14.3415 1.24842 14.7424 1.40609C15.0929 1.54396 15.4032 1.76762 15.6449 2.05657C15.9212 2.38703 16.0629 2.81406 16.2242 3.3006L16.2585 3.40385L16.5406 4.24997H20H22C22.4142 4.24997 22.75 4.58576 22.75 4.99997C22.75 5.41418 22.4142 5.74997 22 5.74997H20.7072L20.1031 16.0198L20.1012 16.0518L20.1012 16.0519V16.052C20.0404 17.085 19.9922 17.9049 19.9003 18.5652C19.8062 19.2413 19.6594 19.8112 19.3684 20.3286C18.8953 21.1697 18.1773 21.8467 17.3099 22.2696C16.7763 22.5297 16.1987 22.6428 15.5182 22.697C14.8537 22.75 14.0323 22.75 12.9973 22.75H12.9654H11.0346H11.0027C9.9677 22.75 9.14635 22.75 8.48175 22.697C7.80125 22.6428 7.22368 22.5297 6.6901 22.2696C5.8227 21.8467 5.10467 21.1697 4.63159 20.3286C4.34057 19.8112 4.19376 19.2413 4.09968 18.5652C4.0078 17.9048 3.95958 17.0849 3.89881 16.0517L3.89693 16.0198L3.29282 5.74997H2C1.58579 5.74997 1.25 5.41418 1.25 4.99997C1.25 4.58576 1.58579 4.24997 2 4.24997H4H7.45943L7.74147 3.40385L7.77577 3.3006C7.93715 2.81406 8.07878 2.38703 8.35513 2.05657C8.59677 1.76762 8.90709 1.54396 9.25762 1.40609C9.65851 1.24842 10.1084 1.2491 10.621 1.24986ZM14.8355 3.87819L14.9594 4.24997H9.04057L9.16449 3.87819C9.38144 3.22737 9.43668 3.10149 9.5058 3.01884C9.58635 2.92252 9.68979 2.84796 9.80663 2.80201C9.90691 2.76257 10.0438 2.74997 10.7298 2.74997H13.2702C13.9562 2.74997 14.0931 2.76257 14.1934 2.80201C14.3102 2.84796 14.4137 2.92252 14.4942 3.01884C14.5633 3.10149 14.6186 3.22737 14.8355 3.87819ZM10 9.25C10.4142 9.25 10.75 9.58579 10.75 10V17C10.75 17.4142 10.4142 17.75 10 17.75C9.58579 17.75 9.25 17.4142 9.25 17V10C9.25 9.58579 9.58579 9.25 10 9.25ZM14 9.25C14.4142 9.25 14.75 9.58579 14.75 10V17C14.75 17.4142 14.4142 17.75 14 17.75C13.5858 17.75 13.25 17.4142 13.25 17V10C13.25 9.58579 13.5858 9.25 14 9.25Z" fill="#18191A"/>
</svg>
