<svg width="24" height="24" viewBox="0 0 24 24" fill="none" xmlns="http://www.w3.org/2000/svg">
<path fill-rule="evenodd" clip-rule="evenodd" d="M9.54023 3.24233C10.5537 1.21545 13.4461 1.21545 14.4596 3.24233L22.2235 18.7702C23.1377 20.5987 21.8081 22.75 19.7638 22.75H4.23597C2.19167 22.75 0.862056 20.5987 1.7763 18.7702L9.54023 3.24233ZM10.9688 15.9018V16.0257H12.5189V15.9018C12.522 15.565 12.5608 15.2822 12.6353 15.0534C12.7128 14.8214 12.8308 14.6196 12.989 14.448C13.1504 14.2765 13.3567 14.1112 13.6081 13.9523C13.8936 13.7776 14.1403 13.579 14.3482 13.3565C14.5561 13.1341 14.7159 12.8799 14.8277 12.5939C14.9425 12.3079 14.9999 11.9838 14.9999 11.6215C14.9999 11.0845 14.8726 10.6206 14.6182 10.2297C14.3668 9.83572 14.0146 9.53225 13.5616 9.31935C13.1116 9.10645 12.5903 9 11.9976 9C11.4545 9 10.958 9.10168 10.508 9.30505C10.0612 9.50842 9.7012 9.81347 9.42812 10.2202C9.15814 10.6269 9.01539 11.1322 8.99988 11.7359H10.657C10.6725 11.4372 10.7439 11.191 10.8711 10.9971C11.0014 10.8001 11.1643 10.654 11.3598 10.5586C11.5585 10.4601 11.7679 10.4109 11.9882 10.4109C12.2272 10.4109 12.4429 10.4617 12.6353 10.5634C12.8308 10.6651 12.9859 10.8081 13.1007 10.9924C13.2155 11.1767 13.273 11.3943 13.273 11.6454C13.273 11.8678 13.2295 12.0696 13.1426 12.2507C13.0557 12.4287 12.9363 12.5907 12.7842 12.7369C12.6353 12.8799 12.4661 13.0118 12.2768 13.1325C12.0007 13.3073 11.7664 13.4995 11.574 13.7092C11.3816 13.9158 11.2326 14.1891 11.1271 14.5291C11.0247 14.8691 10.9719 15.3267 10.9688 15.9018ZM11.0573 18.6949C11.259 18.8983 11.4995 19 11.7788 19C11.965 19 12.1341 18.9539 12.2861 18.8618C12.4413 18.7664 12.5654 18.6393 12.6585 18.4805C12.7547 18.3216 12.8028 18.1452 12.8028 17.9514C12.8028 17.6654 12.7004 17.4207 12.4956 17.2174C12.2939 17.014 12.055 16.9123 11.7788 16.9123C11.4995 16.9123 11.259 17.014 11.0573 17.2174C10.8556 17.4207 10.7547 17.6654 10.7547 17.9514C10.7547 18.2437 10.8556 18.4916 11.0573 18.6949Z" fill="#18191A"/>
</svg>
