<svg width="24" height="24" viewBox="0 0 24 24" fill="none" xmlns="http://www.w3.org/2000/svg">
<path fill-rule="evenodd" clip-rule="evenodd" d="M9.54023 3.24233C10.5537 1.21545 13.4461 1.21545 14.4596 3.24233L22.2235 18.7702C23.1377 20.5987 21.8081 22.75 19.7638 22.75H4.23597C2.19167 22.75 0.862056 20.5987 1.7763 18.7702L9.54023 3.24233ZM12.5582 15.0034L13.3246 8.48973C13.4179 7.69675 12.7983 7 11.9998 7C11.2014 7 10.5818 7.69675 10.6751 8.48973L11.4414 15.0034C11.4747 15.2866 11.7147 15.5 11.9998 15.5C12.2849 15.5 12.5249 15.2866 12.5582 15.0034ZM12.9998 18C12.9998 18.5523 12.5521 19 11.9998 19C11.4475 19 10.9998 18.5523 10.9998 18C10.9998 17.4477 11.4475 17 11.9998 17C12.5521 17 12.9998 17.4477 12.9998 18Z" fill="#18191A"/>
</svg>
