<svg width="24" height="24" viewBox="0 0 24 24" fill="none" xmlns="http://www.w3.org/2000/svg">
<path fill-rule="evenodd" clip-rule="evenodd" d="M8.53033 1.46967C8.23744 1.17678 7.76256 1.17678 7.46967 1.46967C7.17678 1.76256 7.17678 2.23744 7.46967 2.53033L10.1899 5.25054C9.17934 5.25273 8.34907 5.2639 7.65494 5.32061C6.77479 5.39252 6.04768 5.54138 5.38955 5.87671C4.30762 6.42798 3.42798 7.30762 2.87671 8.38955C2.54138 9.04768 2.39252 9.77479 2.32061 10.6549C2.24999 11.5193 2.25 12.5947 2.25 13.9664V14V14.0336C2.25 15.4053 2.24999 16.4807 2.32061 17.3451C2.39252 18.2252 2.54138 18.9523 2.87671 19.6104C3.42798 20.6924 4.30762 21.572 5.38955 22.1233C6.04768 22.4586 6.77479 22.6075 7.65494 22.6794C8.51925 22.75 9.59464 22.75 10.9663 22.75H10.9663H10.9664H10.9664H11H13H13.0336H13.0336H13.0337H13.0337C14.4054 22.75 15.4808 22.75 16.3451 22.6794C17.2252 22.6075 17.9523 22.4586 18.6104 22.1233C19.6924 21.572 20.572 20.6924 21.1233 19.6104C21.4586 18.9523 21.6075 18.2252 21.6794 17.3451C21.75 16.4808 21.75 15.4054 21.75 14.0337V14.0337V14.0336V14.0336V14V13.9664V13.9664V13.9663V13.9663C21.75 12.5946 21.75 11.5192 21.6794 10.6549C21.6075 9.77479 21.4586 9.04768 21.1233 8.38955C20.572 7.30762 19.6924 6.42798 18.6104 5.87671C17.9523 5.54138 17.2252 5.39252 16.3451 5.32061C15.6509 5.2639 14.8207 5.25273 13.8101 5.25054L16.5303 2.53033C16.8232 2.23744 16.8232 1.76256 16.5303 1.46967C16.2374 1.17678 15.7626 1.17678 15.4697 1.46967L12 4.93934L8.53033 1.46967ZM13.2145 10.2984C13.4612 10.3916 13.6408 10.6074 13.6876 10.8669L14.5245 15.5087L16.4868 13.6674C16.7889 13.3839 17.2635 13.399 17.5469 13.7011C17.8304 14.0031 17.8153 14.4778 17.5132 14.7612L14.5445 17.5469C14.344 17.735 14.0567 17.7984 13.7957 17.7121C13.5348 17.6258 13.3419 17.4036 13.2931 17.1331L12.4336 12.3657L7.46579 16.3021C7.14114 16.5594 6.66942 16.5047 6.41217 16.1801C6.15492 15.8554 6.20957 15.3837 6.53421 15.1265L12.4837 10.4122C12.6904 10.2484 12.9679 10.2052 13.2145 10.2984Z" fill="#1D1E1F"/>
</svg>
