<svg width="24" height="24" viewBox="0 0 24 24" fill="none" xmlns="http://www.w3.org/2000/svg">
<path fill-rule="evenodd" clip-rule="evenodd" d="M2 10C2 7.92893 3.67893 6.25 5.75 6.25H17.75C19.8211 6.25 21.5 7.92893 21.5 10V11.25H20.0483H18.5001C16.7051 11.25 15.2501 12.7051 15.2501 14.5C15.2501 16.2949 16.7051 17.75 18.5001 17.75H21.5V18C21.5 20.0711 19.8211 21.75 17.75 21.75H5.75C3.67893 21.75 2 20.0711 2 18V10ZM21.5 16.5V16.6923V17.75H21.5001V16.5C22.6046 16.5 23.5 15.6046 23.5 14.5C23.5 13.3954 22.6046 12.5 21.5001 12.5V11.25H21.5V11.3077V12.5H18.5C17.3954 12.5 16.5 13.3954 16.5 14.5C16.5 15.6046 17.3954 16.5 18.5 16.5H21.5ZM9.46967 17.5303C9.61032 17.671 9.80109 17.75 10 17.75C10.1989 17.75 10.3897 17.671 10.5303 17.5303L13.5303 14.5303C13.8232 14.2374 13.8232 13.7626 13.5303 13.4697C13.2374 13.1768 12.7626 13.1768 12.4697 13.4697L10.75 15.1893V11C10.75 10.5858 10.4142 10.25 10 10.25C9.58579 10.25 9.25 10.5858 9.25 11V15.1893L7.53033 13.4697C7.23744 13.1768 6.76256 13.1768 6.46967 13.4697C6.17678 13.7626 6.17678 14.2374 6.46967 14.5303L9.46967 17.5303Z" fill="#18191A"/>
<path fill-rule="evenodd" clip-rule="evenodd" d="M11.2846 1.14369L5.5 5.00028H8.5L13.5 2.00016C13.2563 1.02545 12.1206 0.586357 11.2846 1.14369ZM19 5.00004L18.3139 2.94172C17.9012 1.70374 16.4327 1.18616 15.335 1.89182L10.5 5.00004H19Z" fill="black"/>
</svg>
