<svg width="24" height="24" viewBox="0 0 24 24" fill="none" xmlns="http://www.w3.org/2000/svg">
<path fill-rule="evenodd" clip-rule="evenodd" d="M11.2846 1.14368L5.5 5.00007H8.5L13.5 2.00019C13.2563 1.02546 12.1206 0.586358 11.2846 1.14368ZM18.9999 5.00007L18.3139 2.94178C17.9012 1.70379 16.4327 1.18619 15.335 1.89185L10.4999 5.00007H18.9999ZM2 10.0001C2 7.92905 3.67893 6.25012 5.75 6.25012H17.75C19.8211 6.25012 21.5 7.92905 21.5 10.0001V11.2501H20.0483H18.5001C16.7051 11.2501 15.2501 12.7052 15.2501 14.5001C15.2501 16.295 16.7051 17.7501 18.5001 17.7501H21.5V18.0001C21.5 20.0712 19.8211 21.7501 17.75 21.7501H5.75C3.67893 21.7501 2 20.0712 2 18.0001V10.0001ZM21.5 17.7501H21.5001V16.5001C22.6046 16.5001 23.5 15.6047 23.5 14.5001C23.5 13.3956 22.6046 12.5001 21.5001 12.5001V11.2501H21.5V11.3079V12.5001H18.5C17.3954 12.5001 16.5 13.3955 16.5 14.5001C16.5 15.6047 17.3954 16.5001 18.5 16.5001H21.5V16.6924V17.7501ZM10 10.2501C10.4142 10.2501 10.75 10.5859 10.75 11.0001V13.2501H13C13.4142 13.2501 13.75 13.5859 13.75 14.0001C13.75 14.4143 13.4142 14.7501 13 14.7501H10.75V17.0001C10.75 17.4143 10.4142 17.7501 10 17.7501C9.58579 17.7501 9.25 17.4143 9.25 17.0001V14.7501H7C6.58579 14.7501 6.25 14.4143 6.25 14.0001C6.25 13.5859 6.58579 13.2501 7 13.2501H9.25V11.0001C9.25 10.5859 9.58579 10.2501 10 10.2501Z" fill="#18191A"/>
</svg>
