<svg width="24" height="24" viewBox="0 0 24 24" fill="none" xmlns="http://www.w3.org/2000/svg">
<path fill-rule="evenodd" clip-rule="evenodd" d="M5.5 5.00028L11.2846 1.14369C12.1206 0.586357 13.2563 1.02545 13.5 2.00016L8.5 5.00028H5.5ZM18.3139 2.94172L19 5.00004H10.5L15.335 1.89182C16.4327 1.18616 17.9012 1.70374 18.3139 2.94172ZM5.75 6.25009C3.67893 6.25009 2 7.92902 2 10.0001V18.0001C2 20.0712 3.67893 21.7501 5.75 21.7501H17.75C19.8211 21.7501 21.5 20.0712 21.5 18.0001V17.7501H21.5001V16.5001C22.6046 16.5001 23.5 15.6046 23.5 14.5001C23.5 13.3955 22.6046 12.5001 21.5001 12.5001V11.2501H21.5V10.0001C21.5 7.92902 19.8211 6.25009 17.75 6.25009H5.75ZM21.5 11.2501H20.0483H18.5001C16.7051 11.2501 15.2501 12.7052 15.2501 14.5001C15.2501 16.295 16.7051 17.7501 18.5001 17.7501H21.5V16.6924V16.5001H18.5C17.3954 16.5001 16.5 15.6047 16.5 14.5001C16.5 13.3955 17.3954 12.5001 18.5 12.5001H21.5V11.3078V11.2501ZM10 10.2501C10.1989 10.2501 10.3897 10.3291 10.5303 10.4698L13.5303 13.4698C13.8232 13.7627 13.8232 14.2375 13.5303 14.5304C13.2374 14.8233 12.7626 14.8233 12.4697 14.5304L10.75 12.8108V17.0001C10.75 17.4143 10.4142 17.7501 10 17.7501C9.58579 17.7501 9.25 17.4143 9.25 17.0001V12.8108L7.53033 14.5304C7.23744 14.8233 6.76256 14.8233 6.46967 14.5304C6.17678 14.2375 6.17678 13.7627 6.46967 13.4698L9.46967 10.4698C9.61032 10.3291 9.80109 10.2501 10 10.2501Z" fill="#18191A"/>
</svg>
