<svg width="24" height="24" viewBox="0 0 24 24" fill="none" xmlns="http://www.w3.org/2000/svg">
<path fill-rule="evenodd" clip-rule="evenodd" d="M6 5.00012L11.3224 1.19824C12.1279 0.62284 13.2599 1.03963 13.5 2L9 5.00012H6ZM18.3139 2.94167L19 5.00012H10.5L15.335 1.89177C16.4327 1.18606 17.9012 1.70365 18.3139 2.94167ZM5.75 6.24992C3.67893 6.24992 2 7.92886 2 9.99992V17.9999C2 20.071 3.67893 21.7499 5.75 21.7499H17.75C19.8211 21.7499 21.5 20.071 21.5 17.9999V17.7499H21.5001V16.4999C22.6046 16.4999 23.5 15.6045 23.5 14.4999C23.5 13.3954 22.6046 12.5 21.5001 12.4999V11.2499H21.5V9.99992C21.5 7.92886 19.8211 6.24992 17.75 6.24992H5.75ZM21.5 11.2499H20.0483H18.5001C16.7051 11.2499 15.2501 12.705 15.2501 14.4999C15.2501 16.2948 16.7051 17.7499 18.5001 17.7499H21.5V16.6923V16.4999H18.5C17.3954 16.4999 16.5 15.6045 16.5 14.4999C16.5 13.3954 17.3954 12.4999 18.5 12.4999H21.5V11.3077V11.2499Z" fill="#18191A"/>
</svg>
