<svg width="24" height="24" viewBox="0 0 24 24" fill="none" xmlns="http://www.w3.org/2000/svg">
<path fill-rule="evenodd" clip-rule="evenodd" d="M13.4373 1.62681C12.5752 1.32866 11.8407 1.87186 11.2942 2.40384C10.712 2.97067 10.0195 3.85214 9.16185 4.94367L9.16184 4.94368L9.12297 4.99315L5.46089 9.65399L5.42216 9.70327L5.42215 9.70329C4.792 10.5052 4.267 11.1734 3.9491 11.7275C3.62896 12.2855 3.38002 12.9633 3.71501 13.6525C4.05001 14.3418 4.73675 14.5648 5.37334 14.6578C6.00546 14.7502 6.8552 14.7502 7.87511 14.7501L7.93779 14.7501H8.99988C9.09896 14.7501 9.17927 14.7502 9.24872 14.7513C9.24984 14.8207 9.24988 14.901 9.24988 15.0001V17.061L9.24988 17.1239C9.24985 18.512 9.24983 19.633 9.35746 20.4384C9.45846 21.1943 9.70044 22.0753 10.5625 22.3734C11.4245 22.6716 12.1591 22.1284 12.7055 21.5964C13.2877 21.0296 13.9803 20.1481 14.8379 19.0566L14.8768 19.0071L18.5389 14.3463L18.5776 14.297C19.2077 13.495 19.7328 12.8269 20.0507 12.2727C20.3708 11.7147 20.6197 11.0369 20.2847 10.3477C19.9497 9.65846 19.263 9.43547 18.6264 9.34243C17.9943 9.25005 17.1446 9.25008 16.1246 9.25012L16.062 9.25012H14.9999C14.9008 9.25012 14.8205 9.25009 14.751 9.24897C14.7499 9.17951 14.7499 9.0992 14.7499 9.00012V6.93928V6.87636C14.7499 5.48822 14.7499 4.36723 14.6423 3.56181C14.5413 2.8059 14.2993 1.92497 13.4373 1.62681Z" fill="#18191A"/>
</svg>
